<?xml version="1.0" encoding="UTF-8"?>
<svg enable-background="new 0 0 240 255.7" version="1.1" viewBox="0 0 240 255.7" xml:space="preserve" xmlns="http://www.w3.org/2000/svg">
	<path d="m148.4 89.5l18.7 18.5c-46.3 46.1-92.7 92.2-139 138.3-0.3 0.3-0.5 0.5-0.8 0.7-0.2-0.2-0.5-0.4-0.8-0.7l-4.5-4.5c-4.5-4.4-8.9-8.8-13.3-13.3 46.6-46.3 93.2-92.6 139.7-139m0.1-11.2c-0.3 0.2-0.7 0.6-1.1 1-48.2 47.9-96.3 95.8-144.4 143.6-3.8 3.8-3.8 7.4 0 11.2 5.9 6 11.9 11.9 17.9 17.8 2.4 2.4 4.4 3.6 6.4 3.6s4-1.2 6.4-3.6c47.6-47.4 95.2-94.7 142.8-142.1 0.7-0.7 1.3-1.4 1.9-1.9-10-9.8-19.9-19.7-29.9-29.6z" fill="#8E8E8E"/>
	<path d="m169.8 8.1c0.2 0.1 0.6 0.4 1 0.8s0.7 0.7 0.8 1l-0.3 0.3c-0.2 0.2-0.7 0.6-1.1 0.9s-0.8 0.6-1.1 0.9l-6.8 5.6 6.3 6.2 4.1 4.1 5.9 5.9 5.4 5.2 5.6-5.2 0.3-0.3c0.4-0.4 1-0.9 1.5-1.4 0.6-0.6 1.1-1 1.4-1.1 0.3 0.2 0.8 0.5 1.4 1.2 7 6.9 14 13.9 20.9 20.8l8.5 8.4 1.1 1.1 2.4 2.4c0.4 0.4 0.6 0.7 0.8 0.9-0.1 0.2-0.4 0.6-0.8 1-0.3 0.3-0.5 0.6-0.7 0.8l-0.1 0.1-3.3 3.6 1.7 4.6c0.6 1.7 1.3 3.3 1.9 4.9 1.3 3.3 2.5 6.4 3.5 9.5 4 13.3 1.5 25.6-7.6 37.6-0.4 0.5-0.7 0.9-1.1 1.4-0.4-1.3-0.9-2.5-1.5-3.8-2-4.6-4.4-9.5-7.6-15.4-1.3-2.4-2.8-4.6-4.3-6.6-0.6-0.8-1.1-1.6-1.7-2.4l-4.6-6.9-6.7 4.9c-1.2 0.8-1.9 1.3-2.3 1.5-0.4-0.3-1-0.8-2-1.8-10.4-10.3-20.7-20.6-31.1-30.9-1-1-1.5-1.6-1.8-2.1 0.3-0.4 0.9-1.1 1.8-2.1 0.3-0.3 0.6-0.7 0.8-0.9l0.1-0.1 5.3-5.7-5.5-5.5-5.3-5.3-4.5-4.4-5.5-5.5-5.6 5.3c-0.3 0.2-0.5 0.5-0.8 0.8-0.6 0.6-1.2 1.2-1.9 1.7-0.1 0.1-0.3 0.2-0.3 0.3-0.2-0.1-0.6-0.4-1.2-0.9-0.3-0.3-0.5-0.6-0.6-0.8 11.5-11.6 23.2-23.2 34.8-34.6 0.3 0.1 0.4 0 0.4 0m-0.1-8.1c-2 0-4 0.8-5.7 2.6-11.7 11.5-23.3 23.1-34.8 34.7-3.5 3.6-3.2 8.2 0.5 12 2.2 2.3 4.6 3.4 6.9 3.4 1.9 0 3.8-0.8 5.5-2.3 1.1-1 2.1-2 2.9-2.7l9.7 9.7c-0.1 0.1-0.4 0.5-0.7 0.8-5.9 6-5.9 9.6 0 15.5 10.4 10.3 20.7 20.6 31.1 30.9 2.9 2.9 5.1 4.3 7.5 4.3 2.1 0 4.3-1.1 7.2-3.2 1.9 2.8 4 5.4 5.6 8.4 2.6 4.8 5.1 9.7 7.3 14.7 1.8 4.1 2.9 8.5 4.4 12.7 0.6 1.5 1.1 2.3 1.9 2.3 0.6 0 1.3-0.5 2.2-1.5 2.7-3 5.3-6.2 7.7-9.5 10.2-13.5 13.8-28.3 8.9-44.7-1.5-5-3.6-9.9-5.5-15 0.1-0.1 0.4-0.5 0.7-0.8 4.2-4.4 4.1-8.7-0.1-13l-3.6-3.6c-9.8-9.7-19.6-19.5-29.4-29.2-2.4-2.4-4.7-3.6-7.1-3.6-2.3 0-4.6 1.2-7 3.5-0.6 0.6-1.3 1.2-1.7 1.5-3.3-3.3-6.5-6.4-10-9.9 0.9-0.7 2-1.5 2.9-2.4 3.6-3.9 3.3-8.4-0.7-12.4-1.9-2.1-4.3-3.2-6.6-3.2z" fill="#8E8E8E"/>
	<path d="m155 152.8c2.6 2.3 5.2 4.6 7.8 7l36.7 33.1 31.6 28.5c0.2 0.2 0.4 0.4 0.6 0.5-0.1 0.1-0.2 0.3-0.4 0.4-8.2 8.3-16.6 16.6-24.8 24.6l-0.4 0.4-0.5-0.5-36-39.5-33-36.2 17.2-17.1 1.2-1.2m-0.3-11c-9.8 9.8-19.5 19.4-29.2 29.1 0.6 0.7 1.4 1.6 2.1 2.4 24 26.3 48 52.6 72 79 2.1 2.3 4.2 3.4 6.4 3.4 2 0 4-1 6-2.9 8.4-8.2 16.7-16.4 24.9-24.7 4.3-4.3 4-8.5-0.5-12.5-22.8-20.5-45.5-41.1-68.3-61.6-4.5-4.3-9.1-8.3-13.4-12.2z" fill="#8E8E8E"/>
	<path d="m17.7 24.9c14.3 8.6 26.4 15.9 38.9 23.4 5.4 3.3 8.5 7.3 9.8 12.7v0.2c1.4 5.7 3 12.1 7.9 17.7 1.1 1.3 2.3 2.5 3.6 3.7 7.8 7 15.5 14 23.3 21l0.4 0.4-12.4 12.4-0.8 0.8c-1.4-1.6-2.9-3.1-4.3-4.7-5.3-5.8-10.8-11.8-16.1-17.8-5-5.7-11-9.5-18.1-11.6l-1.8-0.6c-1.2-0.4-2.5-0.8-3.9-1.1-5.4-1.2-9.2-4.3-12.6-10-5.5-9.5-11.3-19-16.9-28.3-1.9-3.2-3.9-6.4-5.8-9.6l0.7-0.7c2.8-2.6 5.5-5.3 8.1-7.9m-0.7-9.1c-1.1 0-2 0.6-3.3 1.9-3.8 3.7-7.6 7.5-11.3 11.3-3 2.9-3 3.8-0.9 7.3 7.8 13 15.7 26 23.4 39.1 4.1 7 9.6 11.9 17.7 13.7 1.8 0.4 3.6 1.1 5.3 1.6 5.7 1.6 10.4 4.7 14.3 9.1 8.1 9.2 16.4 18.1 24.6 27.1 0.5 0.6 0.8 1.4 1.1 2 8.8-8.8 17-17 25.5-25.4l-30-27c-1-0.9-2-2-3-3-3.6-4.1-4.9-9.4-6.1-14.5-1.9-7.9-6.7-13.5-13.5-17.6-13.6-8.1-27.2-16.3-40.8-24.4-1.3-0.8-2.2-1.2-3-1.2z" fill="#8E8E8E"/>
</svg>
