<?xml version="1.0" encoding="utf-8"?>
<!-- Generator: Adobe Illustrator 22.1.0, SVG Export Plug-In . SVG Version: 6.00 Build 0)  -->
<svg version="1.1" id="Layer_1" xmlns="http://www.w3.org/2000/svg" xmlns:xlink="http://www.w3.org/1999/xlink" x="0px" y="0px"
	 viewBox="0 0 195.6 116.9" style="enable-background:new 0 0 195.6 116.9;" xml:space="preserve">
<style type="text/css">
	.st0{fill:#FFFFFF;}
</style>
<path class="st0" d="M112,116.9c-0.9,0-1.8-0.2-2.7-0.5c-3-1.1-6.1-2.6-9-4c-1.3-0.7-2.6-1.3-4-1.9l-0.8-0.4l-0.5,0.7
	c-2.6,3.6-5.1,5.3-8,5.3c-2.2,0-4.7-1-7.7-3l-0.4-0.3c-1.1-0.8-2.4-1.7-3.7-1.7c-0.1,0-0.3,0-0.4,0c-0.8,0.1-1.6,0.2-2.3,0.2
	c-4.3,0-7.4-2.3-10-7.5l-0.3-0.6l-0.7,0.1c-0.8,0.1-1.6,0.2-2.3,0.2c-4.8,0-8-2.6-10-7.8c-0.5-1.4-2.1-2.3-3.4-3.1
	c-0.2-0.1-0.4-0.3-0.7-0.4c-6.2-3.9-7.8-7.6-6.4-14.9l0.1-0.6l-4.1-2.9c-2.9-2.1-5.8-4.2-8.7-6.3c-2.7-2-5.5-3.9-8.2-5.8
	c-5-3.6-10.3-7.3-15.4-11c-3.2-2.3-3.2-2.4-1.1-5.5c9-13.7,18.3-27.9,27.7-42.1c1.4-2,2-2.7,2.6-2.7c0.7,0,1.8,0.7,3.2,1.6
	c2.6,1.7,5.2,3.3,7.8,4.9c2.5,1.5,4.9,3.1,7.4,4.6c1.2,0.7,2.3,1.1,3.6,1.1c0.8,0,1.7-0.1,2.8-0.5C64.7,9.3,73.1,7.1,81.2,5l3.6-0.9
	c1.7-0.4,3.4-0.8,5.1-1.2c1.7-0.4,3.4-0.7,5.1-1.2c2.2-0.6,4.3-0.8,6.4-0.8c3.3,0,6.5,0.7,9.5,2.2l3.4,1.6
	c6.8,3.3,13.9,6.7,20.6,10.4c2,1.1,3.8,1.7,5.7,1.7c1.5,0,3.1-0.4,4.9-1.1c7.6-3.2,15.5-6.2,23-9.2l3.8-1.5c1.1-0.4,2.2-0.8,3-0.8
	c0.8,0,1.3,0.5,2.4,3.3c5.4,14.7,11,30.1,17.1,46.9c1.3,3.7,1.3,3.8-2.5,5.7c-7.3,3.7-14.5,7.3-21.9,11l-9.2,4.6l0,0.6
	c-0.4,8-3.6,12-10.4,13c-1.5,0.2-3,1.8-3.4,3.1c-1.5,4.3-4.5,6.9-9.7,8.6c-1.6,0.5-3.3,1.9-4,3.3c-2,3.8-5.2,6-9.9,6.8
	c-1.9,0.3-3.9,1.3-5,2.5C116.5,115.8,114.3,116.9,112,116.9z M76,76.8c4.4,0,7.8,2,10.2,6c0.6,1,1.5,1.9,2.4,2.4
	c6,3.3,8.3,8.1,7,14.8c-0.5,2.7,0.3,4.6,2.7,6c0.9,0.6,1.8,1.2,2.7,1.9c1.1,0.8,2.3,1.7,3.5,2.3c2.4,1.4,4.4,2.1,6.3,2.4
	c0.1,0,0.3,0,0.5,0c1.4,0,3.5-0.9,4.2-2.2c0.8-1.4-0.1-3.9-1.2-4.9c-2.7-2.8-5.5-5.4-8.3-8c-1.1-1-2.2-2-3.3-3.1
	c-0.3-0.3-0.6-0.5-0.9-0.8c-0.7-0.6-1.3-1.1-1.6-1.7c-0.4-1-0.4-2.5-0.2-2.8c0.1-0.1,0.5-0.2,1.2-0.2c0.6,0,1.1,0.1,1.6,0.2
	c0.6,0.2,1.2,0.8,1.8,1.5c0.3,0.3,0.6,0.6,0.9,0.9c1.5,1.5,3.1,2.9,4.6,4.4c3.2,3.1,6.6,6.3,9.9,9.3c1.2,1.1,2.5,1.7,3.8,1.7
	c1.5,0,3-0.8,4.5-2.2c1.3-1.3,1.9-2.6,1.8-3.9c0-1.3-0.8-2.6-2.2-3.8c-3.7-3.3-7.3-6.8-10.7-10.2c-1.5-1.4-3-2.9-4.4-4.3
	c-0.3-0.3-0.6-0.6-0.9-0.9c-0.5-0.5-1.1-1-1.6-1.5c-1.7-1.7-1.6-2.5-0.8-3.4c0.5-0.5,0.9-0.8,1.4-0.8c0.8,0,1.7,0.8,2.4,1.4
	c0,0,1.8,1.7,2.2,2.1l4.6,4.4c3.8,3.7,7.8,7.5,11.7,11.1c1.4,1.3,3,2,4.6,2c2,0,3.8-0.9,5.4-2.7c2.8-3.2,2.6-6-0.6-9
	c-4.1-3.8-8.3-7.6-12.4-11.3c-2-1.8-4-3.7-6.1-5.5c-1.9-1.7-2.1-2.5-1.1-3.7c0.7-0.8,1.2-0.8,1.3-0.8c0.8,0,1.7,0.7,2.4,1.4l2.2,2
	c3.6,3.2,7.1,6.5,10.7,9.7c0.7,0.6,1.3,1.2,1.9,1.8c1.8,1.6,3.6,3.3,5.5,4.9c1.2,1,2.7,1.5,4.2,1.5c2,0,4-0.9,5.2-2.4
	c2.4-2.8,2.1-5.4-0.8-8.2c-4.3-4.1-8.6-8.4-12.8-12.6c-2.2-2.2-4.5-4.5-6.7-6.7l-0.2-0.2c-0.9-0.9-2-1.9-3.2-2.5
	c-14.5-5.8-22.9-13.7-27.4-25.9l-1.3-0.6c-1.2,0.5-5.1,1.3-6.2,1.8c-2.5,1-2.2,1.7-4.4,3L91,31.6c-4.7,2.7-9.1,5.3-14.5,5.5
	c-0.2,0-0.3,0-0.5,0c-4.2,0-7.1-1.4-8.9-4.4c-1.7-2.8-1.4-5.9,1-9.8c1.2-1.9,2.8-3.7,4.3-5.5l0.9-1c0.8-1,1.8-1.9,2.7-2.8
	c0.4-0.4,0.8-0.8,1.3-1.3L83.5,8l-7.2,1.2l-0.8,0.3c-1.8,0.6-3.6,1.2-5.4,1.7c-4.3,1.4-8.7,2.8-12.9,4.5c-1.4,0.6-2.6,0.9-3.7,0.9
	c-1.3,0-2.4-0.4-3.8-1.2c-3.8-2.3-7.5-4.5-11.6-6.8c-1.7-1-3.4-1.9-5.1-2.9l-0.8-0.5L4.8,47.1l36,25.7l0.6-0.4
	c4.1-3.1,6.1-4.5,8.2-4.5c2,0,4.3,1.2,8.7,3.9l0.5,0.3l0.5-0.2c3.2-1.5,5.5-2.2,7.2-2.2c2.8,0,3.5,0.5,6.1,5.5l1,3l1.3-1.1
	C75.2,76.8,75.6,76.8,76,76.8z M85.9,89.1c-1.9,0-4.1,1.8-4.9,3.3c-1,1.9-1.5,4.1-2.1,6.1c-0.2,0.8-0.4,1.7-0.7,2.5l-0.1,0.2l0,0.2
	c0.3,5.7,2.9,9.2,7.6,10.4c0.6,0.1,1.1,0.2,1.6,0.2c1.3,0,3.4-0.5,3.6-4c0.1-1.4,0.2-2.9,0.4-4.3c0.2-2,0.4-4.1,0.5-6.1
	c0.1-1.4-0.1-3.5-1.1-4.9c-0.4-0.6-2.5-3.4-4.8-3.5L85.9,89.1z M76.2,80.8c-1.2,0-2.2,0.5-3.2,1.6c-4.6,5-7,9.8-7.6,15
	c-0.3,2.5,0.4,4.8,1.9,6.6c1.5,1.7,3.7,2.7,6.1,2.8l1,0l0-1c0-7.8,0.5-15.2,7.1-20.3l0.9-0.7l-0.8-0.8
	C79.6,81.8,77.9,80.8,76.2,80.8z M65.2,74c-0.6,0-1.6,0.1-2.5,0.5c-6,3.3-9.6,8.4-10.2,14.9c-0.5,5.2,1.7,8.7,6,9.5
	c0,0,0.6,0.2,0.7,0.1c0.2-0.1,2.2-1.2,2.2-1.2c0.9-1.7,0.1-2.4,1-4c2.3-4.3,4.3-8.8,6.3-13c0.8-1.7,0.6-4.4-0.3-5.8
	C67.7,74.2,66,74,65.2,74z M49.3,72.1c-1.9,0-3.3,1.5-4.8,3.7c-2,2.9-2.6,4.9-2.2,6.8c0.4,1.8,1.7,3.3,4.5,5l1.7,2.3
	c0,0,1.3-6.1,2-8c0.7-1.9,3.9-7.2,3.9-7.2l-0.6-0.5C51.8,72.7,50.5,72.1,49.3,72.1z M105.2,22.9c1.5,0,2.5,0.5,3.2,2.8
	c1.1,3.4,2.7,6.6,4.5,9.1c4.8,6.7,12,10.5,18.4,13.4c2.3,1,4.5,2.5,6.2,4.1c3,2.9,6.1,5.9,9,8.9c2.9,2.9,5.8,5.8,8.8,8.7
	c1,1,2.8,1.7,4.1,1.7h0c0.4,0,0.8-0.1,1.1-0.2c7.9-3.7,15.8-7.7,23.5-11.6c2.2-1.1,7.4-3.7,7.4-3.7L173.6,8.7L172.6,9
	c-2.9,1.1-5.7,2.2-8.5,3.3c-7.2,2.8-14,5.5-20.8,8.4c-1.2,0.5-2.2,0.7-3.2,0.7c-1.3,0-2.6-0.4-4.3-1.3c-7.1-3.8-14.4-7.4-21.5-10.9
	c-1.8-0.9-3.5-1.7-5.3-2.6c-2.4-1.2-4.9-1.8-7.7-1.8c-1.6,0-3.3,0.2-5.2,0.6C84.6,8.2,77.6,16.8,71.4,25.4c-1.8,2.5-1.4,4.3-1,5.1
	c0.8,1.6,2.7,2.5,5.5,2.6c0.2,0,0.3,0,0.5,0c4.6,0,9.1-1.9,13.4-5.6c4.1-3.5,8.8-4,13.8-4.5l0.9-0.1C104.7,22.9,105,22.9,105.2,22.9
	z"/>
</svg>
