<?xml version="1.0" encoding="utf-8"?>
<!-- Generator: Adobe Illustrator 22.1.0, SVG Export Plug-In . SVG Version: 6.00 Build 0)  -->
<svg version="1.1" id="Layer_1" xmlns="http://www.w3.org/2000/svg" xmlns:xlink="http://www.w3.org/1999/xlink" x="0px" y="0px"
	 viewBox="0 0 670 250" style="enable-background:new 0 0 670 250;" xml:space="preserve">
<style type="text/css">
	.st0{opacity:0.1;}
	.st1{fill:none;}
</style>
<g class="st0">
	<polygon class="st1" points="368.9,92 377,92 381,85 377,78 368.9,78 364.8,85 	"/>
	<polygon class="st1" points="348.5,92 338,92 332.8,101 338,110.1 348.5,110.1 353.7,101 	"/>
	<polygon class="st1" points="240.9,145 249,145 253,138 249,131 240.9,131 236.8,138 	"/>
	<polygon class="st1" points="363,147 386.6,147 398.4,126.5 386.6,106.1 363,106.1 351.1,126.5 	"/>
	<polygon class="st1" points="264,70 268,63 264,56 255.9,56 251.8,63 255.9,70 	"/>
	<polygon class="st1" points="414,120 418,113 414,106 405.9,106 401.8,113 405.9,120 	"/>
	<polygon class="st1" points="355.4,83 361.5,72.5 355.4,62 343.1,62 337,72.5 343.1,83 	"/>
	<polygon class="st1" points="241,120 264.6,120 276.4,99.5 264.6,79.1 241,79.1 229.1,99.5 	"/>
	<polygon class="st1" points="318.6,105 330.4,84.5 318.6,64.1 295,64.1 283.1,84.5 295,105 	"/>
	<polygon class="st1" points="352,52 356,45 352,38 343.9,38 339.8,45 343.9,52 	"/>
	<polygon class="st1" points="464.6,210.1 441,210.1 429.1,230.5 440.4,250 465.1,250 476.4,230.5 	"/>
	<polygon class="st1" points="284.1,219.7 266.6,250 355.4,250 337.9,219.7 	"/>
	<polygon class="st1" points="421.1,153 433.4,153 439.5,142.4 433.4,131.7 421.1,131.7 415,142.4 	"/>
	<polygon class="st1" points="494,237 485.9,237 481.8,244 485.3,250 494.5,250 498,244 	"/>
	<polygon class="st1" points="84.6,220.7 67.7,250 172.3,250 155.4,220.7 	"/>
	<polygon class="st1" points="465.1,144 477.4,144 483.5,133.4 477.4,122.7 465.1,122.7 459,133.4 	"/>
	<polygon class="st1" points="453,127 457,120 453,113 444.9,113 440.8,120 444.9,127 	"/>
	<polygon class="st1" points="490.1,164 502.4,164 508.5,153.4 502.4,142.7 490.1,142.7 484,153.4 	"/>
	<polygon class="st1" points="522,146 526,139 522,132 513.9,132 509.8,139 513.9,146 	"/>
	<polygon class="st1" points="489.1,191.7 483,202.4 489.1,213 501.4,213 507.5,202.4 501.4,191.7 	"/>
	<polygon class="st1" points="156.9,121.7 114.6,121.7 93.5,158.4 114.6,195 156.9,195 178.1,158.4 	"/>
	<polygon class="st1" points="195,149 218.6,149 230.4,128.5 218.6,108.1 195,108.1 183.1,128.5 	"/>
	<polygon class="st1" points="84.6,95.1 61,95.1 49.1,115.5 61,136 84.6,136 96.4,115.5 	"/>
	<polygon class="st1" points="173.9,111 182,111 186,104 182,97 173.9,97 169.8,104 	"/>
	<polygon class="st1" points="82.4,82 88.5,71.4 82.4,60.7 70.1,60.7 64,71.4 70.1,82 	"/>
	<polygon class="st1" points="150.1,71 162.4,71 168.5,60.4 162.4,49.7 150.1,49.7 144,60.4 	"/>
	<polygon class="st1" points="108,105 131.6,105 143.4,84.5 131.6,64.1 108,64.1 96.1,84.5 	"/>
	<polygon class="st1" points="80,50 84,43 80,36 71.9,36 67.8,43 71.9,50 	"/>
	<polygon class="st1" points="215,65 219,58 215,51 206.9,51 202.8,58 206.9,65 	"/>
	<polygon class="st1" points="471.6,154.1 448,154.1 436.1,174.5 448,195 471.6,195 483.4,174.5 	"/>
	<polygon class="st1" points="325.9,121.7 283.6,121.7 262.5,158.4 283.6,195 325.9,195 347.1,158.4 	"/>
	<polygon class="st1" points="136,53 140,46 136,39 127.9,39 123.8,46 127.9,53 	"/>
	<polygon class="st1" points="217.4,95 223.5,84.4 217.4,73.7 205.1,73.7 199,84.4 205.1,95 	"/>
	<polygon class="st1" points="514.9,182 510.8,189 514.9,196 523,196 527,189 523,182 	"/>
	<path class="st1" d="M0,0v250h58.5L80,212.7h80l21.5,37.3h75.9l22.1-38.3h63l22.1,38.3h71.2l-11.2-19.5l14.1-24.5h28.2l14.1,24.5
		L469.8,250H483l-3.5-6l5.2-9h10.4l5.2,9l-3.5,6H670V0H0z M512.7,130h10.4l5.2,9l-5.2,9h-10.4l-5.2-9L512.7,130z M504.1,139.7
		l7.9,13.6l-7.9,13.6h-15.7l-7.9-13.6l7.9-13.6H504.1z M479.1,119.7l7.9,13.6l-7.9,13.6h-15.7l-7.9-13.6l7.9-13.6H479.1z M443.7,111
		h10.4l5.2,9l-5.2,9h-10.4l-5.2-9L443.7,111z M443,142.4l-7.9,13.6h-15.7l-7.9-13.6l7.9-13.6h15.7L443,142.4z M404.7,104h10.4l5.2,9
		l-5.2,9h-10.4l-5.2-9L404.7,104z M403,126.5L388.9,151h-28.2l-14.1-24.5l14.1-24.5h28.2L403,126.5z M336.9,112.1l-6.4-11l6.4-11
		h12.7l6.4,11l-6.4,11H336.9z M378.1,76l5.2,9l-5.2,9h-10.4l-5.2-9l5.2-9H378.1z M342.7,36h10.4l5.2,9l-5.2,9h-10.4l-5.2-9L342.7,36
		z M341.4,59h15.7l7.9,13.5L357.1,86h-15.7l-7.9-13.5L341.4,59z M292.6,60.1h28.2L335,84.5L320.9,109h-28.2l-14.1-24.5L292.6,60.1z
		 M254.7,54h10.4l5.2,9l-5.2,9h-10.4l-5.2-9L254.7,54z M266.9,75.1L281,99.5L266.9,124h-28.2l-14.1-24.5l14.1-24.5H266.9z
		 M255.3,138l-5.2,9h-10.4l-5.2-9l5.2-9h10.4L255.3,138z M205.7,49h10.4l5.2,9l-5.2,9h-10.4l-5.2-9L205.7,49z M203.4,70.7h15.7
		l7.9,13.6L219.1,98h-15.7l-7.9-13.6L203.4,70.7z M220.9,104.1l14.1,24.5L220.9,153h-28.2l-14.1-24.5l14.1-24.5H220.9z M183.1,95
		l5.2,9l-5.2,9h-10.4l-5.2-9l5.2-9H183.1z M164.1,46.7l7.9,13.6L164.1,74h-15.7l-7.9-13.6l7.9-13.6H164.1z M126.7,37h10.4l5.2,9
		l-5.2,9h-10.4l-5.2-9L126.7,37z M133.9,60.1L148,84.5L133.9,109h-28.2L91.5,84.5l14.1-24.5H133.9z M70.7,34h10.4l5.2,9l-5.2,9H70.7
		l-5.2-9L70.7,34z M68.4,57.7h15.7L92,71.4L84.1,85H68.4l-7.9-13.6L68.4,57.7z M58.6,140l-14.1-24.5l14.1-24.5h28.2l14.1,24.5
		L86.9,140H58.6z M111.1,201l-24.6-42.6l24.6-42.6h49.2l24.6,42.6L160.4,201H111.1z M244.4,249h-49.2l-24.6-42.6l24.6-42.6h49.2
		l24.6,42.6L244.4,249z M329.4,201h-49.2l-24.6-42.6l24.6-42.6h49.2l24.6,42.6L329.4,201z M412.5,233h-44.6l-22.3-38.6l22.3-38.6
		h44.6l22.3,38.6L412.5,233z M445.6,199l-14.1-24.5l14.1-24.5h28.2l14.1,24.5L473.9,199H445.6z M503.1,216h-15.7l-7.9-13.6l7.9-13.6
		h15.7l7.9,13.6L503.1,216z M524.1,198h-10.4l-5.2-9l5.2-9h10.4l5.2,9L524.1,198z"/>
	<polygon class="st1" points="371.3,161.7 352.5,194.4 371.3,227 409,227 427.8,194.4 409,161.7 	"/>
	<polygon class="st1" points="198.6,169.7 177.5,206.4 198.6,243 240.9,243 262.1,206.4 240.9,169.7 	"/>
	<path d="M160.4,115.7h-49.2l-24.6,42.6l24.6,42.6h49.2l24.6-42.6L160.4,115.7z M156.9,195h-42.3l-21.2-36.6l21.2-36.6h42.3
		l21.2,36.6L156.9,195z"/>
	<path d="M195.1,163.7l-24.6,42.6l24.6,42.6h49.2l24.6-42.6l-24.6-42.6H195.1z M240.9,243h-42.3l-21.2-36.6l21.2-36.6h42.3
		l21.2,36.6L240.9,243z"/>
	<polygon points="80,212.7 58.5,250 67.7,250 84.6,220.7 155.4,220.7 172.3,250 181.5,250 160,212.7 	"/>
	<path d="M329.4,115.7h-49.2l-24.6,42.6l24.6,42.6h49.2l24.6-42.6L329.4,115.7z M325.9,195h-42.3l-21.2-36.6l21.2-36.6h42.3
		l21.2,36.6L325.9,195z"/>
	<polygon points="279.5,211.7 257.4,250 266.6,250 284.1,219.7 337.9,219.7 355.4,250 364.6,250 342.5,211.7 	"/>
	<path d="M367.8,155.7l-22.3,38.6l22.3,38.6h44.6l22.3-38.6l-22.3-38.6H367.8z M409,227h-37.7l-18.8-32.6l18.8-32.6H409l18.8,32.6
		L409,227z"/>
	<path d="M346.5,126.5l14.1,24.5h28.2l14.1-24.5l-14.1-24.5h-28.2L346.5,126.5z M386.6,106.1l11.8,20.5L386.6,147H363l-11.8-20.5
		l11.8-20.5H386.6z"/>
	<path d="M101,115.5L86.9,91.1H58.6l-14.1,24.5L58.6,140h28.2L101,115.5z M61,136l-11.8-20.5L61,95.1h23.6l11.8,20.5L84.6,136H61z"
		/>
	<path d="M105.6,109h28.2L148,84.5l-14.1-24.5h-28.2L91.5,84.5L105.6,109z M108,64.1h23.6l11.8,20.5L131.6,105H108L96.1,84.5
		L108,64.1z"/>
	<path d="M192.6,153h28.2l14.1-24.5l-14.1-24.5h-28.2l-14.1,24.5L192.6,153z M195,108.1h23.6l11.8,20.5L218.6,149H195l-11.8-20.5
		L195,108.1z"/>
	<path d="M238.6,124h28.2L281,99.5l-14.1-24.5h-28.2l-14.1,24.5L238.6,124z M241,79.1h23.6l11.8,20.5L264.6,120H241l-11.8-20.5
		L241,79.1z"/>
	<path d="M320.9,109L335,84.5l-14.1-24.5h-28.2l-14.1,24.5l14.1,24.5H320.9z M295,64.1h23.6l11.8,20.5L318.6,105H295l-11.8-20.5
		L295,64.1z"/>
	<polygon points="466.9,206.1 438.6,206.1 424.5,230.5 435.8,250 440.4,250 429.1,230.5 441,210.1 464.6,210.1 476.4,230.5 
		465.1,250 469.8,250 481,230.5 	"/>
	<path d="M473.9,150.1h-28.2l-14.1,24.5l14.1,24.5h28.2l14.1-24.5L473.9,150.1z M471.6,195H448l-11.8-20.5l11.8-20.5h23.6l11.8,20.5
		L471.6,195z"/>
	<path d="M219.1,98l7.9-13.6l-7.9-13.6h-15.7l-7.9,13.6l7.9,13.6H219.1z M205.1,73.7h12.3l6.1,10.6L217.4,95h-12.3L199,84.4
		L205.1,73.7z"/>
	<path d="M84.1,85L92,71.4l-7.9-13.6H68.4l-7.9,13.6L68.4,85H84.1z M70.1,60.7h12.3l6.1,10.6L82.4,82H70.1L64,71.4L70.1,60.7z"/>
	<path d="M411.5,142.4l7.9,13.6h15.7l7.9-13.6l-7.9-13.6h-15.7L411.5,142.4z M433.4,131.7l6.1,10.6l-6.1,10.6h-12.3l-6.1-10.6
		l6.1-10.6H433.4z"/>
	<path d="M487.4,188.7l-7.9,13.6l7.9,13.6h15.7l7.9-13.6l-7.9-13.6H487.4z M501.4,213h-12.3l-6.1-10.6l6.1-10.6h12.3l6.1,10.6
		L501.4,213z"/>
	<path d="M488.4,167h15.7l7.9-13.6l-7.9-13.6h-15.7l-7.9,13.6L488.4,167z M490.1,142.7h12.3l6.1,10.6l-6.1,10.6h-12.3l-6.1-10.6
		L490.1,142.7z"/>
	<path d="M463.4,147h15.7l7.9-13.6l-7.9-13.6h-15.7l-7.9,13.6L463.4,147z M465.1,122.7h12.3l6.1,10.6l-6.1,10.6h-12.3l-6.1-10.6
		L465.1,122.7z"/>
	<path d="M357.1,86l7.9-13.5L357.1,59h-15.7l-7.9,13.5l7.9,13.5H357.1z M343.1,62h12.3l6.1,10.5L355.4,83h-12.3L337,72.5L343.1,62z"
		/>
	<path d="M148.4,74h15.7l7.9-13.6l-7.9-13.6h-15.7l-7.9,13.6L148.4,74z M150.1,49.7h12.3l6.1,10.6L162.4,71h-12.3L144,60.4
		L150.1,49.7z"/>
	<path d="M234.5,138l5.2,9h10.4l5.2-9l-5.2-9h-10.4L234.5,138z M249,131l4,7l-4,7h-8.1l-4-7l4-7H249z"/>
	<path d="M349.6,90h-12.7l-6.4,11l6.4,11h12.7l6.4-11L349.6,90z M348.5,110.1H338l-5.2-9l5.2-9h10.4l5.2,9L348.5,110.1z"/>
	<path d="M216.1,67l5.2-9l-5.2-9h-10.4l-5.2,9l5.2,9H216.1z M206.9,51h8.1l4,7l-4,7h-8.1l-4-7L206.9,51z"/>
	<path d="M172.7,113h10.4l5.2-9l-5.2-9h-10.4l-5.2,9L172.7,113z M173.9,97h8.1l4,7l-4,7h-8.1l-4-7L173.9,97z"/>
	<path d="M367.7,94h10.4l5.2-9l-5.2-9h-10.4l-5.2,9L367.7,94z M368.9,78h8.1l4,7l-4,7h-8.1l-4-7L368.9,78z"/>
	<path d="M265.1,72l5.2-9l-5.2-9h-10.4l-5.2,9l5.2,9H265.1z M255.9,56h8.1l4,7l-4,7h-8.1l-4-7L255.9,56z"/>
	<path d="M353.1,54l5.2-9l-5.2-9h-10.4l-5.2,9l5.2,9H353.1z M343.9,38h8.1l4,7l-4,7h-8.1l-4-7L343.9,38z"/>
	<path d="M415.1,122l5.2-9l-5.2-9h-10.4l-5.2,9l5.2,9H415.1z M405.9,106h8.1l4,7l-4,7h-8.1l-4-7L405.9,106z"/>
	<path d="M454.1,129l5.2-9l-5.2-9h-10.4l-5.2,9l5.2,9H454.1z M444.9,113h8.1l4,7l-4,7h-8.1l-4-7L444.9,113z"/>
	<path d="M513.7,180l-5.2,9l5.2,9h10.4l5.2-9l-5.2-9H513.7z M523,196h-8.1l-4-7l4-7h8.1l4,7L523,196z"/>
	<polygon points="495.1,235 484.7,235 479.5,244 483,250 485.3,250 481.8,244 485.9,237 494,237 498,244 494.5,250 496.8,250 
		500.3,244 	"/>
	<path d="M137.1,55l5.2-9l-5.2-9h-10.4l-5.2,9l5.2,9H137.1z M127.9,39h8.1l4,7l-4,7h-8.1l-4-7L127.9,39z"/>
	<path d="M81.1,52l5.2-9l-5.2-9H70.7l-5.2,9l5.2,9H81.1z M71.9,36H80l4,7l-4,7h-8.1l-4-7L71.9,36z"/>
	<path d="M523.1,148l5.2-9l-5.2-9h-10.4l-5.2,9l5.2,9H523.1z M513.9,132h8.1l4,7l-4,7h-8.1l-4-7L513.9,132z"/>
</g>
</svg>
