<?xml version="1.0" encoding="utf-8"?>
<!-- Generator: Adobe Illustrator 22.1.0, SVG Export Plug-In . SVG Version: 6.00 Build 0)  -->
<svg version="1.1" id="Layer_1" xmlns="http://www.w3.org/2000/svg" xmlns:xlink="http://www.w3.org/1999/xlink" x="0px" y="0px"
	 viewBox="0 0 1291.3 215.7" style="enable-background:new 0 0 1291.3 215.7;" xml:space="preserve">
<style type="text/css">
	.st0{fill:#EEEEEE;}
	.st1{fill:#F2F2F2;}
</style>
<path class="st0" d="M247.6,137.4l-36.8-63.8l-5.7-9.9l5.7-9.8l18.8-32.4L217.1,0H102.7L45.5,99.1l57.2,99.1h114.4l32.8-56.8
	L247.6,137.4z M210.2,97l11.8,20.4l-41.8,41.8c-1.7,1.7-4.3,1.7-5.9,0L164,149.1c-1.7-1.7-1.7-4.3,0-5.9L210.2,97z M193.2,67.7
	l1.2,2.1l5.8,9.9l4.1,7.1l-33.7,33.8c-1.7,1.7-4.3,1.7-5.9,0l-10.2-10.2c-1.7-1.7-1.7-4.3,0-5.9L190,68.8
	C191,68,192.1,67.7,193.2,67.7z M121.8,94.8c-1.7-1.7-1.7-4.3,0-5.9l10.4-10.4c1.7-1.7,4.3-1.7,5.9,0l10.2,10.2
	c1.7,1.7,1.7,4.3,0,5.9L138,105c-1.7,1.7-4.3,1.7-5.9,0L121.8,94.8z M124.3,118.5l-10.4,10.4c-1.7,1.7-4.3,1.7-5.9,0l-10.2-10.1
	c-1.7-1.7-1.7-4.3,0-5.9l10.4-10.4c1.7-1.7,4.3-1.7,5.9,0l10.2,10.2C126,114.2,126,116.9,124.3,118.5z M130.2,128.8l10.2-10.2
	c1.7-1.7,4.3-1.7,5.9,0l10.2,10.2c1.7,1.7,1.7,4.3,0,5.9L146.4,145c-1.7,1.7-4.3,1.7-5.9,0l-10.2-10.2
	C128.5,133.1,128.5,130.4,130.2,128.8z M172.5,44.2l10.2,10.2c1.7,1.7,1.7,4.3,0,5.9l-21.1,21.1c-1.7,1.7-4.3,1.7-5.9,0l-10.2-10.2
	c-1.7-1.7-1.7-4.3,0-5.9l21.1-21.1C168.1,42.5,170.8,42.5,172.5,44.2z M110.6,51.8l31.6-31.6c1.7-1.7,4.3-1.7,5.9,0l10.2,10.2
	c1.7,1.7,1.7,4.3,0,5.9l-31.6,31.6c-1.7,1.7-4.3,1.7-5.9,0l-10.2-10.2C108.9,56.1,108.9,53.4,110.6,51.8z M85.7,76.8l10.2-10.2
	c1.7-1.7,4.3-1.7,5.9,0l10.2,10.1c1.7,1.7,1.7,4.3,0,5.9l-10.2,10.2c-1.7,1.7-4.3,1.7-5.9,0L85.7,82.7C84,81.1,84,78.4,85.7,76.8z
	 M72.2,116.5l-7-7l-4.3-7.4c0.2-0.7,0.6-1.2,1-1.8l10.2-10.2c1.7-1.7,4.3-1.7,5.9,0l10.1,10.3c1.7,1.7,1.7,4.3,0,5.9L78,116.6
	C76.5,118.1,73.8,118.1,72.2,116.5z M78.3,132.3l5.9-5.9c1.7-1.7,4.3-1.7,5.9,0l10.2,10.2c1.7,1.7,1.7,4.3,0,5.9l-10.2,10.1
	L78.3,132.3L78.3,132.3z M109.2,182l-1.3,1.3l-10.7-18.5c0.7,0.2,1.3,0.6,1.8,1l10.2,10.2C110.8,177.7,110.8,180.4,109.2,182z
	 M116.7,168.6l-10.2-10.2c-1.7-1.7-1.7-4.3,0-5.9l10.2-10.2c1.7-1.7,4.3-1.7,5.9,0l10.2,10.2c1.7,1.7,1.7,4.3,0,5.9l-10.2,10.2
	C121,170.2,118.4,170.2,116.7,168.6z M120.8,186.5l5.6-5.6c1.7-1.7,4.3-1.7,5.9,0l5.6,5.6H120.8z M166.8,172.7l-10.4,10.4
	c-1.7,1.7-4.3,1.7-5.9,0L140.3,173c-1.7-1.7-1.7-4.3,0-5.9l10.4-10.4c1.7-1.7,4.3-1.7,5.9,0l10.1,10.1
	C168.4,168.4,168.4,171,166.8,172.7z M169.1,186.5l10.7-10.7c1.7-1.7,4.3-1.7,5.9,0L196,186c0.2,0.2,0.3,0.4,0.4,0.5H169.1
	L169.1,186.5z M223.2,164.6l-13.7,13.7c-1.7,1.7-4.3,1.7-5.9,0l-10.2-10.2c-1.7-1.7-1.7-4.3,0-5.9l16.7-16.7c1.7-1.7,4.3-1.7,5.9,0
	l10.2,10.2c0.6,0.6,0.8,1.1,1,1.9L223.2,164.6L223.2,164.6z M233.4,147.1l-9.5-9.5c-1.7-1.7-1.7-4.3,0-5.9l4-4l8.3,14.4L233.4,147.1
	z"/>
<path class="st1" d="M300.2,183.4h-22.3l-6.3,14.8h-6.4l24.1-54.8l23.4,54.8h-6.4L300.2,183.4L300.2,183.4z M297.9,177.9L289,157
	l-8.9,20.9H297.9z"/>
<path class="st1" d="M372,151.3v46.8h-5.9v-46.8h-12.7v-5.5h31.2v5.5L372,151.3L372,151.3z"/>
<path class="st1" d="M440.9,145.8v46.8h14.5v5.5h-20.3v-52.3L440.9,145.8L440.9,145.8z"/>
<path class="st1" d="M534.7,183.4h-22.3l-6.3,14.8h-6.4l24.1-54.8l23.4,54.8h-6.4L534.7,183.4z M532.4,177.9l-8.8-20.9l-8.9,20.9
	H532.4z"/>
<path class="st1" d="M597.2,198.1v-54.5l40.8,42.8v-40.5h5.8v54.7l-40.8-42.8v40.4L597.2,198.1L597.2,198.1z"/>
<path class="st1" d="M712.7,151.3v46.8H707v-46.8h-12.7v-5.5h31.2v5.5L712.7,151.3L712.7,151.3z"/>
<path class="st1" d="M801.2,183.4h-22.3l-6.3,14.8h-6.4l24.1-54.8l23.4,54.8h-6.4L801.2,183.4z M799,177.9l-8.8-20.9l-8.9,20.9H799z
	"/>
<path class="st1" d="M921.8,198.1l19.1-22c1.3-1.6,4.8-5.8,6.1-7.6c2.3-3.3,2.9-5.9,2.9-8c0-5.9-4.3-10.2-10.4-10.2
	c-3.7,0-6.8,1.7-8.7,4.6c-1,1.6-1.7,3.5-1.8,6.2h-5.8c0.3-5.2,1.9-8.5,3.9-10.8c2.2-2.5,5.9-5.3,12.4-5.3c9.3,0,16.2,6.6,16.2,15.6
	c0,3.5-1,6.8-4.2,11.2c-2.2,3.1-5,6.3-7.2,8.7L933.4,193h22.1v5.3L921.8,198.1L921.8,198.1z"/>
<path class="st1" d="M1011.9,191.2c-3.4-5-5.3-11.8-5.3-19.2s1.8-14.2,5.3-19.2c4-5.8,9.3-7.8,13.4-7.8c4.2,0,9.4,2,13.4,7.8
	c3.4,5,5.3,11.8,5.3,19.2s-1.8,14.2-5.3,19.2c-4,5.8-9.3,7.8-13.4,7.8C1021.1,199.1,1015.9,197.1,1011.9,191.2z M1016.3,156.1
	c-2.8,4.5-3.8,10.4-3.8,15.9c0,5.5,1,11.4,3.8,15.9c2.7,4.4,6.3,5.8,9,5.8s6.3-1.4,9-5.8c2.8-4.5,3.8-10.4,3.8-15.9
	c0-5.5-1-11.4-3.8-15.9c-2.7-4.4-6.3-5.8-9-5.8C1022.7,150.3,1019.1,151.7,1016.3,156.1z"/>
<path class="st1" d="M1103.2,151.3h-8.7l3.1-5.5h11.5v52.3h-5.8L1103.2,151.3L1103.2,151.3z"/>
<path class="st1" d="M1197.9,183.7c0,8.2-5.3,15.3-16,15.3c-10.7,0-16-7.3-16-15.3c0-5.7,2.6-10.4,7.9-12.8
	c-4.2-2.4-6.3-6.6-6.3-11.4c0-7.4,5-14.5,14.4-14.5c9.4,0,14.4,7.1,14.4,14.5c0,4.8-2.2,9-6.3,11.4
	C1195.4,173.3,1197.9,178.1,1197.9,183.7z M1192.2,183.6c0-5.9-4.3-9.9-10.2-9.9c-5.9,0-10.2,4.1-10.2,9.9c0,5.9,4.2,10.2,10.2,10.2
	C1188,193.7,1192.2,189.5,1192.2,183.6z M1191,159.5c0-5.8-4.2-9.3-8.9-9.3s-8.9,3.5-8.9,9.3c0,5.2,3.8,9,8.9,9
	C1187.1,168.5,1191,164.7,1191,159.5z"/>
<polygon class="st1" points="311.3,104.8 277.7,104.8 254,63.8 277.7,22.8 336.4,22.8 349.5,0 264.5,0 227.7,63.8 264.5,127.5 
	298.2,127.5 "/>
<polygon class="st1" points="368.4,52.3 294.8,52.3 307.9,75.1 342.1,75.1 325,104.8 325,104.8 311.9,127.5 338.2,127.5 375,63.8 
	"/>
<polygon class="st1" points="436.5,0 427.3,0 361,127.5 387.2,127.5 397.9,107.1 397.9,107.1 412.2,79.6 412.2,79.6 431.9,41.7 
	454,84.3 423.4,84.3 411.5,107.1 465.8,107.1 476.5,127.5 502.8,127.5 "/>
<polygon class="st1" points="632,54.5 657.1,24.6 657.1,0 648,0 588,71.6 527.8,0 518.7,0 518.7,127.5 543.8,127.5 543.8,54.4 
	583.4,101.6 592.5,101.6 "/>
<polygon class="st1" points="632,71.6 632,127.5 657.1,127.5 657.1,41.7 "/>
<polygon class="st1" points="702.7,75.1 760.1,75.1 773.2,52.3 702.7,52.3 702.7,22.8 773.2,22.8 773.2,0 677.6,0 677.6,127.5 
	773.2,127.5 773.2,104.8 702.7,104.8 "/>
<polygon class="st1" points="894,22.8 894,0 798.3,0 798.3,52.3 789.2,52.3 776,75.1 798.3,75.1 798.3,127.5 823.3,127.5 
	823.3,75.1 874,75.1 887.1,52.3 823.3,52.3 823.3,22.8 "/>
<polygon class="st1" points="1025.8,104.8 1007.8,104.8 937.2,104.8 937.2,75.1 987.9,75.1 1001,52.3 937.2,52.3 937.2,22.8 
	1007.8,22.8 1007.8,0 912.2,0 912.2,22.8 912.2,127.5 1007.8,127.5 1012.6,127.5 "/>
<polygon class="st1" points="1056.3,52.3 1047.7,37.6 1056.3,22.8 1107.9,22.8 1121.1,0 1043.2,0 1021.5,37.6 1043.2,75.1 
	1102.1,75.1 1110.6,90 1102.1,104.8 1041.7,104.8 1028.6,127.5 1115.3,127.5 1137,90 1115.3,52.4 "/>
<polygon class="st1" points="1137,0 1123.8,22.8 1168.8,22.8 1168.8,127.5 1196.2,127.5 1196.2,22.8 1232.6,22.8 1245.8,0 "/>
</svg>
