<?xml version="1.0" encoding="utf-8"?>
<!-- Generator: Adobe Illustrator 23.0.0, SVG Export Plug-In . SVG Version: 6.00 Build 0)  -->
<!DOCTYPE svg PUBLIC "-//W3C//DTD SVG 1.1//EN" "http://www.w3.org/Graphics/SVG/1.1/DTD/svg11.dtd" [
	<!ENTITY st0 "fill:#EEEEEE;">
]>
<svg version="1.1" id="Layer_1" xmlns="http://www.w3.org/2000/svg" xmlns:xlink="http://www.w3.org/1999/xlink" x="0px" y="0px"
	 viewBox="0 0 66.4 66.4" style="enable-background:new 0 0 66.4 66.4;" xml:space="preserve">
<g>
	<path style="&st0;" d="M17.21,66.39c-0.95-0.28-2.01-0.62-2.65-1.51c-0.39-0.54-0.68-1.15-0.96-1.76l-0.45-0.9l0.08-31.91
		c0.72-2.42,2.54-3.82,4.77-3.82h30.42c2.11,0,3.88,1.33,4.51,3.39l0.22,0.58v32.1c-0.64,2.03-1.69,3.12-3.35,3.63l-0.5,0.17v0.04
		L17.21,66.39L17.21,66.39z M47.3,62.1c0.41,0,0.87-0.05,1.2-0.39c0.34-0.34,0.38-0.8,0.38-1.21c-0.01-7.3-0.01-29.63-0.01-29.63
		H17.5c0,0,0,22.13-0.02,29.64c0,1.09,0.5,1.59,1.57,1.59l14.13-0.02L47.3,62.1z"/>
	<path style="&st0;" d="M43.52,23.26c-0.73,0-1.37-0.58-1.77-1.06l-7.12-8.58c-0.56-0.67-0.67-1.35-0.32-2.06
		c0.35-0.73,0.89-1.09,1.67-1.11l0,0c0.52,0,0.9,0.2,1.26,0.66l2.69,3.33l1.25,1.47l0.21-1.67l-0.06-11.3c0-1.93,0.19-2.23,1.9-2.96
		l0.82,0.06c1.14,0.39,1.67,1.27,1.64,2.99c-0.07,2.36-0.08,4.72-0.1,7.08l-0.02,5.9l1.81-1.93l2.32-2.81
		c0.43-0.51,0.92-0.78,1.41-0.78c0.36,0,0.72,0.14,1.06,0.41c0.88,0.69,1.03,1.74,0.36,2.62c-0.5,0.68-1.05,1.32-1.6,1.96
		l-5.65,6.73C44.89,22.68,44.25,23.26,43.52,23.26z"/>
	<path style="&st0;" d="M22.37,23.23c-1.14-0.18-1.79-1.02-1.79-2.28L20.65,7.3L18.9,9.22l-2.37,2.94
		c-0.28,0.34-0.74,0.74-1.32,0.74c-0.31,0-0.64-0.11-0.96-0.33c-0.84-0.57-1.12-1.61-0.65-2.46c0.12-0.22,0.29-0.42,0.45-0.62
		c0,0,5.19-6.24,6.67-8.06c0.67-0.84,1.23-1.25,1.9-1.43l0.5,0.02c0.47,0.18,1.03,0.6,1.72,1.43c1.32,1.61,6.75,8.09,6.75,8.09
		c0.45,0.54,0.66,1.14,0.59,1.69c-0.07,0.48-0.35,0.92-0.82,1.25c-0.34,0.24-0.7,0.37-1.05,0.37c-0.47,0-0.9-0.23-1.26-0.65
		c-0.65-0.78-4.06-4.97-4.06-4.97l-0.13,2.73c0,0,0.05,8.29,0.05,10.94c0,1.42-0.85,2.38-2.12,2.38
		C22.65,23.26,22.51,23.25,22.37,23.23z"/>
	<path style="&st0;" d="M34.63,59.86c-0.52,0-0.58-0.5-0.58-0.72V50.4l-0.07-1.18L33.33,49l-0.67-0.03l-0.28,0.66
		c-0.04,0.38-0.06,0.56-0.06,0.73v8.67c0,0.77-0.34,0.79-0.57,0.8c-0.01,0-0.02,0-0.03,0c-0.23,0-0.59-0.03-0.59-0.74v-10
		l-1.17-0.12c-0.42-0.05-0.42-0.12-0.43-0.41c-0.02-2.41-0.02-4.81,0-7.22c0.01-0.49,0.24-0.71,0.75-0.71h5.84
		c0.5,0,0.71,0.23,0.72,0.73c0.01,2.4,0.01,4.81,0,7.22c0,0.29,0,0.35-0.42,0.38l-0.64,0.06l-0.56,0.69v9.41
		c-0.01,0.72-0.4,0.73-0.56,0.73h-0.03V59.86z"/>
	<path style="&st0;" d="M25.48,59.86c-0.15,0-0.56-0.02-0.56-0.8v-8.71l-0.11-1.15l-0.68-0.21l-0.63,0.02l-0.27,0.64
		c-0.04,0.42-0.06,0.62-0.06,0.81V59c0,0.66-0.18,0.73-0.35,0.79c-0.05,0-0.09,0.01-0.13,0.01c-0.58,0-0.7-0.35-0.71-0.68
		c-0.01-1.47,0-10.02,0-10.02l-1.25-0.14c-0.34-2.77-0.35-5.22-0.32-7.68c0-0.41,0.24-0.64,0.67-0.65l2.98-0.02l2.99,0.02
		c0.28,0,0.66,0.08,0.66,0.71c0.01,2.41,0.01,4.81,0,7.22c0,0.32,0,0.35-0.41,0.4l-0.63,0.06l-0.57,0.69v9.35
		c0,0.79-0.43,0.79-0.58,0.79L25.48,59.86L25.48,59.86z"/>
	<path style="&st0;" d="M43.82,59.86c-0.09,0-0.18-0.02-0.27-0.06c-0.2-0.09-0.35-0.2-0.35-0.76v-8.59l-0.08-1.21l-0.67-0.23h-0.67
		l-0.29,0.67l-0.04,0.75v8.61c0,0.69-0.24,0.74-0.42,0.78c-0.01,0-0.03,0-0.05,0c-0.65,0-0.72-0.46-0.72-0.73v-10l-1.22-0.12
		c-0.34-0.05-0.35-0.15-0.35-0.35v-1.46c0-1.95-0.01-3.89,0-5.84c0.01-0.46,0.24-0.68,0.71-0.68l3.03-0.02l2.88,0.02
		c0.34,0,0.69,0.1,0.7,0.75c0.01,2.38,0.01,4.77,0,7.15c-0.06,0.33-0.25,0.41-0.96,0.49l-0.6,0.07l-0.06,1.41v8.68
		C44.36,59.58,44.14,59.86,43.82,59.86z"/>
	<path style="&st0;" d="M24.09,38.64c-0.35,0-0.67-0.13-0.9-0.37c-0.23-0.23-0.35-0.55-0.35-0.88c0.01-0.66,0.56-1.18,1.23-1.18
		c0.72,0.01,1.21,0.51,1.21,1.22C25.28,38.13,24.77,38.64,24.09,38.64L24.09,38.64z"/>
	<path style="&st0;" d="M33.23,38.64c-0.34,0-0.66-0.13-0.9-0.37c-0.23-0.23-0.35-0.54-0.35-0.87c0.01-0.66,0.56-1.19,1.24-1.19
		c0.71,0,1.19,0.48,1.2,1.2C34.42,38.13,33.94,38.64,33.23,38.64L33.23,38.64z"/>
	<path style="&st0;" d="M42.38,38.64c-0.35,0-0.67-0.13-0.91-0.37c-0.23-0.23-0.35-0.54-0.35-0.87c0.01-0.67,0.56-1.19,1.25-1.19
		c0.7,0,1.2,0.5,1.2,1.21C43.57,38.12,43.07,38.64,42.38,38.64L42.38,38.64z"/>
</g>
</svg>
