<svg id="white_Image" data-name="white Image" xmlns="http://www.w3.org/2000/svg" viewBox="0 0 1223.19 298"><defs><style>.cls-1{fill:#3880ca;}.cls-2{fill:#d2e2f3;}.cls-3{fill:#14181e;}.cls-4{fill:#15191f;}.cls-5{fill:#25292e;}.cls-6{fill:#25282e;}.cls-7{fill:#191d23;}.cls-8{fill:#24272d;}.cls-9{fill:#202429;}.cls-10{fill:#272a30;}.cls-11{fill:#292d32;}.cls-12{fill:#1f2328;}.cls-13{fill:#22262c;}.cls-14{fill:#2c3035;}.cls-15{fill:#282c31;}.cls-16{fill:#2f3338;}.cls-17{fill:#33373c;}.cls-18{fill:#3f4247;}.cls-19{fill:#ececed;}.cls-20{fill:#f1f1f2;}.cls-21{fill:#181c22;}.cls-22{fill:#23272c;}</style></defs><g id="blue_Image" data-name="blue Image"><path class="cls-1" d="M217,299c-1.76-2-4.32-1.32-6.47-1.77-32.65-6.82-56.69-24.59-70.67-55.2-1.32-2.89-2.94-3.82-6-3.8-20.33.12-40.66.06-61,.06H68.08v-1c23.73-2.62,47.56-3.14,71.14-3.26,1.63.88,1.65,2.36,2.16,3.54,14.53,33.34,40,52.42,75.82,57.52,21.74,3.1,43.18.06,64.32-5.35,2-.5,3.85-1.07,6-.52-1,1.29-2.52,1.4-3.87,1.77-11.88,3.3-23.85,6.14-36.2,7-.69.05-1.29.2-1.49,1Z" transform="translate(-1.81 -1)"/><path class="cls-1" d="M1139,1c3.17,2.16,6.93,1.18,10.39,1.89,9.88,2,19.17,5.38,27.56,11,1.24.83,3.23,1.25,2.93,3.37q-50.61-26.33-100.38,1.61a71.76,71.76,0,0,1,39.94-16.8c1.54-.16,3.38.67,4.56-1.08Z" transform="translate(-1.81 -1)"/><path class="cls-1" d="M163,148.09c0,1.46.49,3-.55,4.56a59.8,59.8,0,0,0-20.94,5.4C132.61,162.38,126,168.85,122,178c-4.45,10.18-2.9,17.7,5.37,25.14,3.17,2.84,6.61,5.39,10.43,8.48v8.31H63.16c-.63-3-.35-5.92-.13-9.55H91.69v-1.21H66.48c.49-2.39,2.33-2.35,3.49-3,6.16-3.46,10-8.53,9.76-15.67C79.51,182.82,74.9,178,68.11,175a32.79,32.79,0,0,0-9.72-2c-13.78-1.45-27.26-4.18-40-9.78a47.43,47.43,0,0,1-9.88-5.78,18.49,18.49,0,0,1-6.66-8.82c2.56-1.18,4.26-.9,5.84,1.54a15.83,15.83,0,0,0,6.89,6.31c.3.31.68.74,1.05.33s-.07-.72-.48-.89c-.91-2.44-3-4.4-3.23-7.71H51.1c2.46-1.22,1.22-3.13,3-4.19h3.5c33.62,0,67.23,0,100.84.1,1.45,0,4.32-1.85,4.56,1.83-8.33,0-16.65,0-25,.12-1.6,0-3.66-.76-4.78,2Z" transform="translate(-1.81 -1)"/><path class="cls-1" d="M1119,294c-16-1-30.84-6.23-45.36-12.55a140.24,140.24,0,0,1-22.84-12.28,14.15,14.15,0,0,0-8.39-2.38q-114,.09-228,.05c-15.38,0-30.64-1.13-45.57-5-15.88-4.06-30.51-10.55-42.1-22.64a48.81,48.81,0,0,1-7.48-9.83c1.25-.84,2-.1,2.62.67,13.37,16.57,31.75,24.27,51.73,28.93a168.42,168.42,0,0,0,38.66,4.17q115-.1,230-.1a14.21,14.21,0,0,1,9.12,3c16.32,12.14,35.07,18.85,54.52,23.88,3.22.83,6.48,1.54,9.75,2.12A5,5,0,0,1,1119,294Z" transform="translate(-1.81 -1)"/><path class="cls-1" d="M786.9,43.82c1.89-.78,3.73-.39,5.51-.39q117.9,0,235.8,0c5.33,0,10.65,0,15.91-1.13,5.1-1.06,10-2.52,14.28-5.6.82-.59,1.57-1.31,2.94-.47-4.87,7.08-12.28,9.26-20,10.66a72.65,72.65,0,0,1-12.94.81q-117.4,0-234.81,0C790.61,47.67,787.42,48.17,786.9,43.82Z" transform="translate(-1.81 -1)"/><path class="cls-1" d="M547,30c-.28,3.34-3,4.58-5.38,5.95-5,2.9-10.65,3.82-16.35,3.83q-92.67.07-185.35,0c-2.3,0-4.78.28-5.34-3.36h6q91.19,0,182.35,0c8.68,0,16.87-1.43,24.17-6.41Z" transform="translate(-1.81 -1)"/><path class="cls-1" d="M403.89,253.88c61.85-3.67,123.76-.89,186.24-2.08-1.15,5.12-2.59,9.15-7.93,12.06.85-3.58,3.62-5.49,2.54-8.8H403.66Z" transform="translate(-1.81 -1)"/><path class="cls-1" d="M251.33,8.17c-4.79,1.37-9.44,1.35-14.06,1.6-11,.61-19,5.87-23.36,15.91s-2.72,19.59,4.35,27.9c2,2.32,2.5,4.21,1.66,7C217.71,68,215.72,75.4,213.6,83c-.85-1.1-1.69-1.6-1.27-3.16,1.59-5.92,2.73-12,4.25-17.91A7.23,7.23,0,0,0,215,54.69c-7.67-9.51-9.28-20.21-3.8-31.23,5.37-10.79,14.55-16.07,26.66-15.94C242.38,7.57,246.85,8,251.33,8.17Z" transform="translate(-1.81 -1)"/><path class="cls-1" d="M117.63,130.79h-63c-3.55,0-6.67,1-8.38,4.32-.79,1.56-2,1.55-3.32,1.55H4.22c11.78-2.33,24.43-1.18,37-2A4.07,4.07,0,0,0,44.6,133c2-2.79,4.93-3.84,8.21-4.07,9.66-.69,19.5-.88,28.91.58a83.47,83.47,0,0,0,18.43,1,81.21,81.21,0,0,1,16.21.29,5.44,5.44,0,0,0,1.43-.18Z" transform="translate(-1.81 -1)"/><path class="cls-1" d="M1162.44,290.8c27.86-8.75,47.12-26.49,62.08-49.57C1221.08,260.84,1185.09,289,1162.44,290.8Z" transform="translate(-1.81 -1)"/><path class="cls-2" d="M163,148.09H133.2c1.12-2.8,3.18-2,4.78-2,8.33-.1,16.65-.09,25-.12Z" transform="translate(-1.81 -1)"/><path class="cls-1" d="M173.81,124.64l-11,9.09-.76-.93A34.4,34.4,0,0,1,173.81,124.64Z" transform="translate(-1.81 -1)"/><path class="cls-1" d="M311.31,282.25c-5.71,1.35-10.92,4.59-16.7,4.41C299.7,284.23,305.52,283.29,311.31,282.25Z" transform="translate(-1.81 -1)"/><path class="cls-1" d="M547,30l.41-.66c.43.68-.09.58-.48.59Z" transform="translate(-1.81 -1)"/><polygon class="cls-1" points="63.2 237 63.31 236.86 63.19 236.97 63.2 237"/><polygon class="cls-1" points="63.19 236.97 63.06 237.13 63.2 237 63.19 236.97"/><polygon class="cls-1" points="1117.15 293.01 1117.31 293.12 1117.18 292.99 1117.15 293.01"/></g><path class="cls-3" d="M157,198c.6-2.64,1.39-5.25,1.76-7.92,3.81-27.91,27.35-49.5,54.26-54.09,3.76-.64,7.58-1,12-1.56,1.24-4.77,2.6-9.85,3.87-15q6.83-27.35,13.55-54.7a46.28,46.28,0,0,0,1.43-9.34c.29-8.08-2-13.08-8.46-19.28,7.47,0,14.55-.39,21.56.19,2.79.23,5.4,2.6,8.54,4.23,1.53-1,3.77-3.17,6.42-4s5.93-.47,8.92-.51c4.33-.06,8.66,0,13.66,0-10.15,8.84-9.65,19.51-6.59,30.7,1.1,4,2,8.07,3,12.1Q303.62,129.93,316.3,181c3.71,14.83,9.08,28.85,22,39.84-7,0-12.9.47-18.72-.19-3-.34-5.72-2.7-8.75-4.23-1.14,4-4.71,4.63-8.86,4.52-5.66-.16-11.33,0-17.72,0,4-3.69,7.44-7.37,7.75-12.48s.82-10.42-.33-15.28c-8.36-35.6-17.12-71.11-25.77-106.64a2.51,2.51,0,0,0-1.5-1.66L251,139.63c15.08,7.51,25.28,19.13,27.7,36.34,1.31,9.3-1.39,17.74-7.43,26-1.4-18.17-9.62-31.13-25.94-39.13-2.76,11.7-5.86,22.91-7.94,34.31-1.61,8.83.08,17.22,8.4,23.64-7.18,0-13.63.39-20-.09-11.57-.86-19.05-11.35-16.4-22.7,2.54-10.84,5.33-21.62,8-32.43.34-1.4.6-2.81,1-4.76a28.86,28.86,0,0,0-3.29.57c-18.31,5.84-30.83,23.76-29.83,42.67,1.06,20,15.21,37.18,34.54,40.41,7.59,1.26,15.65.7,23.37-.15,9.3-1,14.39-7.52,17.15-16.42,3.6,3.3,4.55,7.54,5.13,12.21,10-2.91,19.67-5.83,29.41-8.54,11.11-3.1,22.4-5.11,34-4.58,11.09.52,19.8,5.37,25.66,14.87,5.45,8.84,4.94,17.91.74,27.06-.53-.14-.95-.13-1-.29-6.74-13.83-20-19.39-37.75-16.09a365.62,365.62,0,0,0-35.75,9c-18.32,5.37-36.84,9.14-56,8.45-21-.76-38.71-8.81-52.46-24.95-8.48-10-12.72-21.69-14.23-34.55A19.21,19.21,0,0,0,157,207Z" transform="translate(-1.81 -1)"/><path class="cls-4" d="M1225,67l-2.81.26V83.89h-5c-.84-5.92-1.73-12-6.16-17-3.61,3-7.32,4.44-11.41.88-.48-.41-1.91,0-2.75.33-6.83,3-11.51,7.73-12.16,15.61-1,12.15-7.37,19.7-18.28,21.75a19.66,19.66,0,0,1-13.81-2.71c10.55-15.41,9.85-29.68-1.95-40.21a27,27,0,0,0-36-.1,27.7,27.7,0,0,0-4.94,36.21c7.63,11.58,23.37,15.32,32.82,9.34-.76,3.39-1,6.11-2,8.54a30.09,30.09,0,0,1-10.66,13.59A170.17,170.17,0,0,1,1113,140.66c-18.62,10.17-27.84,26.06-29.06,46.9-.88,14.9,2.95,28.32,12.88,39.76,14.83,17.08,37.33,19.39,55.27,12.29,21.4-8.47,35.19-31.81,32-53.44-2.13-14.62-17.56-25.56-31.39-22.27a18.36,18.36,0,0,0-13.77,19.9c.73,5.49,4.74,9.15,11.62,10.61-3.22,7.69-14.38,9.47-21.65,7.16a20.81,20.81,0,0,1-14.78-19.8c-.37-22.59,18.12-42.17,40.69-42.9,4.47-.15,9,.34,13.8.55,1.07-5.44,4.31-9.72,10.28-12.42-1.09,10.31,3.78,17.34,11,23.4,21.1,17.61,22.8,40.34,15.56,64.52-8.52,28.41-39.15,57.46-82.78,52.54-34.61-3.9-72.4-38.23-66-86.36,3.32-25,15.64-44.17,36.64-57.92.93-.61,1.87-1.2,2.86-1.84C1071.53,96.27,1077,57.48,1104,39.39c20-13.46,57.48-14.25,76.45,22.16,5.83-2.44,11.59-4.89,17.39-7.25,3.65-1.49,5-4.88,4.34-8.92a114.69,114.69,0,0,1-2-17.29c0-2.72,1.8-5.48,2.8-8.23,4.41.24,5.47,1.05,6,5.44a47.45,47.45,0,0,1-2,20.63c-.82,2.52-.36,4.07,1.55,6,1.69,1.7,3.38,1.66,5.33,1.84,3.7.32,7.39.81,11.08,1.23Zm-41.53,3a26.83,26.83,0,0,1,16.33-8.91c-.13-1.91-.22-3.33-.38-5.86-5.09,2.37-9.66,4.19-13.91,6.58C1181,64.37,1181.15,64.61,1183.47,70Zm24.08-16.77H1202v8.87h5.6Zm2.59,6.58h12.25c-.13-1.6-.22-2.67-.33-4.06h-9.81c-.63,0-1.26.11-2.11.18Z" transform="translate(-1.81 -1)"/><path class="cls-3" d="M724,171c-11.74-4.36-22.5-1.22-32.95,4.33-6.89,3.67-13.78,7.34-20.71,10.94-1.91,1-3.08,2.06-3,4.54.28,16.49.33,33,.62,49.47a37,37,0,0,0,1.41,8.84c1.94,7.23,5.28,13.63,12.49,18.15-8.09,0-15.47.56-22.69-.25-3.17-.36-6-3.5-9.37-5.6-3.11,5.56-9,6.76-15.72,6.37-4.94-.28-9.91-.05-16.14-.05,8.38-5.57,12-13,13.57-21.55a68.3,68.3,0,0,0,1.23-11.4c.17-10.8.06-21.6.06-32.77-1.75.09-3.19.06-4.6.27-39.07,5.67-73.22-18.2-81.12-57-3.89-19.09-4.67-38.34,4.05-56.27,16-32.94,42.43-51.3,79.47-53,16.64-.74,32.65,3.47,48.69,7.32,9.53,2.28,19.18,4.09,28.82,5.86,14.48,2.65,27.39-.69,38.44-10.64.48-.42,1.05-.74,1.66-1.17a34.4,34.4,0,0,1-19.28,34.61c-9.69,4.71-20,5.89-30.63,5.38-4.81-.23-9.6-.85-14.17-1.27q-2.6,6.78-5.18,13.52h-1.28c-2.42-7.49-6.88-13.54-13.93-16.55-24.29-10.39-55.08-10-74.27,15.77-8.93,12-11.61,25.6-10,40.14a80.07,80.07,0,0,0,3.38,16.56c7.43,22.42,26.85,32.14,49.82,25,.07-1.31.21-2.75.21-4.2,0-17.33.09-34.66,0-52a83,83,0,0,0-1.14-13.91c-1.54-8.71-5-16.49-13.69-22.13,10.19,0,19.27-.36,28.3.09,11.61.59,21.41,11.33,21.19,23.61-.26,15.15-.06,30.32-.06,45.48v5.1c5-1.41,9.71-3,14.52-4a42.47,42.47,0,0,1,20.29.43C713,152,720,159,724,169.25a5,5,0,0,1,0,1.84Z" transform="translate(-1.81 -1)"/><path class="cls-3" d="M838.42,69c6.57,0,12.05-.51,17.37.2,3,.41,5.74,2.83,9,4.55,2.17-4.3,6.53-5.12,11.44-4.79,8.44.56,17.16-.1,25.29,1.78,21.57,5,37.14,24.2,38.18,46.34.4,8.6.36,17.44-1.14,25.87-2.37,13.3-9.93,23.78-21.2,31.42-.69.47-1.37.94-2.08,1.39s-1.39.85-2.94,1.8c5.78,7.72,10.95,15.64,17.17,22.62s13.32,12.77,19.89,18.95c-6.56,0-13.68.43-20.71-.19-3.06-.27-5.92-2.69-9.31-4.35-1,4.46-4.65,4.94-8.64,4.91-4.77,0-9.54,0-15.12,0,4.58-5.15,4.4-10.54,2.18-15.45-3-6.77-7-13.14-10.74-19.59-.45-.78-1.87-1.18-2.92-1.4-2.11-.44-4.26-.64-7-1-.13,13.26-1.69,26.66,9.86,37.1-8-.79-16.9,3.75-23.3-5-6.35,9-15.57,3.87-23.63,5.22,3.92-4.29,7.28-8.69,8.26-14.34a77.52,77.52,0,0,0,1.56-12.83q.2-48,0-96a58.81,58.81,0,0,0-1.07-10.91C847.59,79,844.89,73.43,838.42,69ZM877,156.4c3.47,1,6.58,2.33,9.78,2.61a23.27,23.27,0,0,0,25.06-20,87.47,87.47,0,0,0,.45-22.8c-1.85-15.78-12.92-24.23-28.73-23-4.28.32-6.51,2.33-6.53,6.56C876.93,118.28,877,136.89,877,156.4Z" transform="translate(-1.81 -1)"/><path class="cls-3" d="M836.37,139.59c0,19.19-.85,34.12-5.46,48.55-5.17,16.16-15,27.59-32.29,31.32a60.1,60.1,0,0,1-29.64-.85c-13.26-3.83-21.84-12.81-27-25.37a95.58,95.58,0,0,1-6.47-29.09C734,143.5,734,122.9,739,102.61q.9-3.63,2.13-7.16c8.1-23.23,25.14-32.6,49.19-31,20.64,1.38,33.61,12.58,40,32C835.36,111.85,836.27,127.74,836.37,139.59Zm-26.72,3.75c-.56-8.47-.64-17-1.86-25.38a95.86,95.86,0,0,0-5.19-19.65c-2-5.38-6.31-8.79-12.41-9.53C776.53,87.11,770,91.26,766,104.44a39.73,39.73,0,0,0-1,3.85,186.49,186.49,0,0,0-.6,67c.78,4.65,2.94,9.14,4.95,13.48a12.26,12.26,0,0,0,8.68,7c15.23,3.06,23-.93,27.19-14.39.34-1.11.68-2.22,1-3.35C809.06,166.69,809.22,155,809.65,143.34Z" transform="translate(-1.81 -1)"/><path class="cls-4" d="M1006.75,144.07c4,0,8,.12,12,0,4.64-.18,8.58.93,11.29,5.64,6.58-9.19,16-4.19,24.67-5a41.41,41.41,0,0,0-4.44,4.12,26.87,26.87,0,0,0-5.89,16.17c-.42,11.31-.55,22.67.05,34,.41,7.69,3.13,14.89,10.43,20.32-6.38,0-11.85.42-17.21-.2-2.47-.28-4.7-2.62-7.49-4.29-2.42,4.45-7.17,5.07-12.3,4.81-8.46-.42-17-.09-25.39-1.34-15.26-2.29-25.9-11.3-32.67-25-5.09-10.31-7.4-21.36-8.26-32.69-1.46-19.19-1.27-38.32,4.48-56.92a72.84,72.84,0,0,1,6.21-14.63C973.06,70,996.81,61.1,1017.55,68c10.11,3.38,17.77,9.69,21.66,19.9,4.31,11.36.65,21.86-10.43,28.89-.25-1.8-.45-3.32-.67-4.84-2.47-16.53-15.14-25-32-20.82a15.82,15.82,0,0,0-10.84,9.69c-2.47,6.12-4.85,12.48-5.78,19-2.44,17-2.72,34.23.72,51.21a49.49,49.49,0,0,0,5.35,14.38c5,8.81,11.9,10.81,22.22,9.6,4.46-.53,8.77-4.86,9-9.53.45-9.12,1-18.3-1.49-27.31A29.32,29.32,0,0,0,1006.75,144.07Z" transform="translate(-1.81 -1)"/><path class="cls-3" d="M485.18,130.7c15.45-2.61,28.43.09,38.43,12.6-4.55.22-8.75.17-12.88.68a33,33,0,0,0-16.65,7.42,22.54,22.54,0,0,0-8.93,18.65c.06,6.16,0,12.32,0,18.49.07,5.51,2.09,7.59,7.47,7.66s10.67,0,16-.1c10.83-.29,16.53-2.69,24.39-10.27,0,5.78.46,11.23-.2,16.54-.33,2.63-2.73,5-4.38,7.81l8.08,9.75c-1.86.18-2.77.35-3.67.35-16.66,0-33.32,0-50,0-4.42,0-8.3-.76-10.57-5.54-6.77,9-15.89,4.35-24.17,5.17,7.88-6.79,9.87-15.69,9.89-25.23.07-33.48.11-67-.06-100.45-.05-9.19-2.25-17.78-11-24.27,6.44,0,12-.45,17.52.19,2.66.31,5.08,2.67,8.09,4.37,2.21-4.48,6.86-4.76,11.85-4.72,17,.12,34,0,52.21,0l-8.62,11c8.87,6.16,3.58,15.43,5,23.49-7.06-8.48-16.56-10.06-26.55-10.27-4.83-.1-9.67-.1-14.49,0-4.34.1-6.7,2.13-6.77,6.31C485.07,110.34,485.18,120.31,485.18,130.7Z" transform="translate(-1.81 -1)"/><path class="cls-4" d="M346.56,69.05c6.26,0,11.57-.47,16.73.19,2.8.35,5.36,2.64,8.41,4.26,5.95-8.34,15.46-2.8,23.74-4.51C386.13,76.68,385,87.08,385,97.88v88.46c0,7.54,1.49,9,9.09,9,4.83,0,9.67,0,14.49-.14,11.39-.45,16.7-2.79,24.42-10.6,0,5.36.52,10.56-.19,15.58-.44,3.1-2.74,5.94-4.37,9.23l7.26,9.08-.61,1h-4.34c-15.49,0-31-.07-46.47,0-5.05,0-9.71-.45-12.46-5.64-6.51,9.23-15.74,4.06-23.85,5.46,9.52-8.66,10-19.86,10-31.23q0-44.73,0-89.46a88.06,88.06,0,0,0-.52-9.46C356.56,81.44,354.06,74.43,346.56,69.05Z" transform="translate(-1.81 -1)"/><path class="cls-5" d="M333,211c-7.58-8.83-11.09-19.57-13.85-30.53-9.7-38.64-19.2-77.34-28.81-116-1.42-5.74-2.29-11.51-.26-17.2.88-2.47,2.62-4.65,4.15-7.27.83,1.06,1.25,1.43,1.18,1.55-4.1,7.85-3.71,15.86-1.6,24.23q14.71,58.19,29,116.46a101,101,0,0,0,11.26,27.51Z" transform="translate(-1.81 -1)"/><path class="cls-6" d="M825.14,205.6c7.85-11,11.09-23.71,12.62-36.79,2.35-20.09,2.24-40.19-1.71-60.14a97.72,97.72,0,0,0-12.19-32.18,17.93,17.93,0,0,1,2.35,1.75c8,8.41,11.78,18.91,13.5,30,3.67,23.67,4.1,47.39-.73,71a63.29,63.29,0,0,1-9.78,23.81,34.49,34.49,0,0,1-3.05,3.37Z" transform="translate(-1.81 -1)"/><path class="cls-7" d="M391,192.16c-3.41-.35-3.05-2.43-3.06-4.2,0-5.33,0-10.66,0-16,0-25-.12-50,.09-75a63.75,63.75,0,0,1,2.17-15.21c.77-3,3.07-5.63,4.68-8.42l1.12.48c0,.53.12,1.16-.12,1.56-3.69,6.22-4.87,13-4.87,20.13q0,47,0,94Z" transform="translate(-1.81 -1)"/><path class="cls-8" d="M599.32,83.83c-17.71,26.46-16.53,52.5.29,79.12a18.41,18.41,0,0,1-2.74-1.58,33,33,0,0,1-10.61-16.58c-4.11-14.52-5.56-29.19.78-43.46,2.26-5.08,5.84-9.6,9-14.27A21.18,21.18,0,0,1,599.32,83.83Z" transform="translate(-1.81 -1)"/><path class="cls-8" d="M992.82,188.82a14,14,0,0,1-6.8-8.67c-1.81-6.35-3.77-12.81-4.39-19.34-1.55-16.44-1.6-32.92,2.43-49.11,1.36-5.46,3.44-10.64,8.26-14.35-7.48,14.44-8.33,30-8.36,45.7S984.39,174.56,992.82,188.82Z" transform="translate(-1.81 -1)"/><path class="cls-9" d="M682.58,262.8c-7-4.47-9.48-11.64-10.52-19.3a146.64,146.64,0,0,1-.94-17.92c-.14-10.65,0-21.3-.07-32,0-2.65.43-4.61,4.05-4.73v35.82C675.1,244.78,675.1,244.78,682.58,262.8Z" transform="translate(-1.81 -1)"/><path class="cls-10" d="M1194.91,240.82c7.34-10.19,13.12-21.11,15.54-33.59,3.33-17.26,1.87-33.71-8.4-48.82,2.52-1.36,3.17.84,4,2.1a48.53,48.53,0,0,1,8.75,23.56c2,22-4.3,41.31-18.9,57.9C1195.6,241.59,1195.25,241.21,1194.91,240.82Z" transform="translate(-1.81 -1)"/><path class="cls-11" d="M930.46,167.56C939,156,942.74,143.16,942.86,129c.12-14.06-1.28-27.57-9.22-40.16,1.06.83,2.39,1.48,3.13,2.54,4.41,6.36,7.55,13.29,8.38,21.06,1.19,11.11,1.69,22.24-1.11,33.2A41.57,41.57,0,0,1,930.46,167.56Z" transform="translate(-1.81 -1)"/><path class="cls-12" d="M665.67,83.76a11.12,11.12,0,0,1,2.74,1.57c3.9,4.1,6.54,8.9,6.59,14.67.13,14.48,0,29,.14,43.46,0,2.81-1,3.94-4.06,3.56V118c0-5.33-.07-10.66,0-16A31.37,31.37,0,0,0,665.67,83.76Z" transform="translate(-1.81 -1)"/><path class="cls-5" d="M1099,157.18c-12.69,23.06-12.63,45.8,1.39,68.31C1082.21,210.49,1082.93,171.93,1099,157.18Z" transform="translate(-1.81 -1)"/><path class="cls-13" d="M1055.83,148.22c-6.79,10.37-5.83,22-5.87,33.37,0,11.26-.77,22.61,5.64,32.9l-1.28.56c-1.31-1.7-3-3.24-3.85-5.15a28.83,28.83,0,0,1-2.66-8.51,161,161,0,0,1,.19-40.32C1048.73,155.91,1050.79,151.16,1055.83,148.22Z" transform="translate(-1.81 -1)"/><path class="cls-14" d="M197.9,228.05c-14.43-17.13-12.11-43.38,5-56.19.19.21.4.4.61.59-8.72,9.92-12.81,21.34-11.55,34.63.7,7.24,3.5,13.66,7.13,19.81Z" transform="translate(-1.81 -1)"/><path class="cls-10" d="M270,148c9.89,9.33,15.55,20.52,15,34.39a31.77,31.77,0,0,1-8.36,19.79c.56-2.44.67-4,1.27-5.36,7-15.68,4.15-30.09-5.43-43.72A34.19,34.19,0,0,1,270,148Z" transform="translate(-1.81 -1)"/><path class="cls-15" d="M247.13,167.65c3.17.67,2.88,2.15,2.42,4-1.73,6.76-3.28,13.57-5,20.34-2.12,8.48-2,16.73,2.74,24.85-3.59-1.62-5.45-3.17-6.07-6.64-.76-4.2-1.56-8.7-.83-12.8C242.19,187.42,244.82,177.63,247.13,167.65Z" transform="translate(-1.81 -1)"/><path class="cls-15" d="M255.58,139.14c-.15-1.36-.7-2.81-.4-4.06,3-12.72,6.18-25.4,10.22-38.27.31,1.72,1.19,3.57.84,5.14-2.8,12.39-5.83,24.72-8.79,37.07Z" transform="translate(-1.81 -1)"/><path class="cls-14" d="M1038,79.24c4.06.55,7.13,5.53,8.65,13.48,1.85,9.61-3.15,19.4-10.15,22.29C1046.74,103.25,1045.45,91.36,1038,79.24Z" transform="translate(-1.81 -1)"/><path class="cls-13" d="M496,154.42c-3.94,5.84-5.1,12.17-4.89,18.93.2,6.43,0,12.88,0,19.81-2.21,0-3.07-1.52-3.08-3.65,0-7.48-.23-15,.16-22.42A15.1,15.1,0,0,1,496,154.42Z" transform="translate(-1.81 -1)"/><path class="cls-10" d="M740.84,68.69a44.15,44.15,0,0,0,11.28-26.26c.17-1.79,1.79-3.45,3.15-5.91C758.27,47.9,749.48,66.56,740.84,68.69Z" transform="translate(-1.81 -1)"/><path class="cls-15" d="M1116.17,65.39c-1.56,5.3-4.35,11-4.61,16.73s2,11.77,3.12,17.55C1105.19,91.91,1105.81,72.19,1116.17,65.39Z" transform="translate(-1.81 -1)"/><path class="cls-16" d="M355.17,235.82c1.33,1.16,2.94,2.1,3.93,3.49,6.67,9.37,7,19.3,1.4,29.82-.22-1.34-.89-2.8-.58-4,2.57-9.88,1.56-19.09-4.51-27.53-.31-.44-.1-1.24-.13-1.88Z" transform="translate(-1.81 -1)"/><path class="cls-12" d="M491.14,97.2q0,13.3,0,26.61c0,1.8.29,3.84-3.09,3,0-8.74-.1-17.49.11-26.23,0-1.34,1.53-2.64,2.35-4Z" transform="translate(-1.81 -1)"/><path class="cls-9" d="M880.24,185.9c2.9-.52,2.71,1.26,2.78,3,.16,4,0,8,.77,11.92.88,4.64,2.56,9.13,3.83,13.48C881.74,211.07,878.91,200.66,880.24,185.9Z" transform="translate(-1.81 -1)"/><path class="cls-16" d="M1189.93,77.84c2.46,9-.77,18.52-7.38,22.25,1.49-3.72,3.17-7.28,4.34-11S1186.83,81.25,1189.93,77.84Z" transform="translate(-1.81 -1)"/><path class="cls-13" d="M539.13,185.94c0,5.13.07,10.27,0,15.4-.06,3.64-2,6.13-5.58,7.55,3.62-5.33,2.25-11.27,2.61-17,.13-2.1,1-4.16,1.54-6.23Z" transform="translate(-1.81 -1)"/><path class="cls-12" d="M433.84,206.84c2.71-4.91,2.15-10.28,2.06-15.56,0-2.59.24-4.88,3-6.77,0,5.68.15,11-.07,16.38a7.9,7.9,0,0,1-4.36,6.82Z" transform="translate(-1.81 -1)"/><path class="cls-13" d="M537.63,104.47a37.56,37.56,0,0,1-1.49-6.27c-.4-5.32.92-10.84-2.46-16,4.13,1.42,5.27,2.72,5.42,6.8.18,5.11,0,10.24,0,15.37Z" transform="translate(-1.81 -1)"/><path class="cls-17" d="M933.06,200a122.5,122.5,0,0,1-16.19-21.61l1.39-1L934,199Z" transform="translate(-1.81 -1)"/><path class="cls-11" d="M720.51,154.29a31.49,31.49,0,0,1,11.84,16.91l-1,.83a25.85,25.85,0,0,1-3.62-3.79c-2.74-4.3-5.27-8.75-7.88-13.14Z" transform="translate(-1.81 -1)"/><path class="cls-10" d="M1185.12,127.26c-1.19,6.91,1.8,12.7,4.8,18.53-4.93-3.64-7.91-8.31-8.07-14.36,0-1.47,1-3,1.56-4.45Z" transform="translate(-1.81 -1)"/><path class="cls-15" d="M1140.85,122.73c1.33-3.73,2.58-7.48,4-11.16a7.3,7.3,0,0,1,2.66-3.12c1.1,6.3-1.83,11.07-5.52,15.55Z" transform="translate(-1.81 -1)"/><path class="cls-17" d="M690.36,81.56l-4.53,8.82c-2.8-3.78.07-6.59.62-9.56.07-.38,2.13-.4,3.26-.58C689.93,80.68,690.15,81.12,690.36,81.56Z" transform="translate(-1.81 -1)"/><path class="cls-18" d="M933.06,200l1-1,10,10.53C939.16,207.38,936.1,203.7,933.06,200Z" transform="translate(-1.81 -1)"/><path class="cls-18" d="M541.28,220.36c-4-1.46-4.48-5.81-7.71-8.67C537.46,212.65,539.55,215,541.28,220.36Z" transform="translate(-1.81 -1)"/><path class="cls-17" d="M1175,48c4.78,1.37,8.42,6.48,7.13,10.09Z" transform="translate(-1.81 -1)"/><path class="cls-18" d="M435.19,210.8l6.88,7.91-1.29,1.09c-3.82-1.41-4.21-6-6.77-8.52Z" transform="translate(-1.81 -1)"/><path class="cls-17" d="M271.44,235.85c-4.21-.52-5.35-2.74-4.36-8Z" transform="translate(-1.81 -1)"/><path class="cls-16" d="M535.28,76.78c2.71-1.62,1.89-6.79,6.94-6.9C540.25,73.11,539.23,76.35,535.28,76.78Z" transform="translate(-1.81 -1)"/><path class="cls-18" d="M1194.91,240.82c.34.39.69.77,1,1.15l-7.92,7,.08.07Z" transform="translate(-1.81 -1)"/><path class="cls-18" d="M1140.85,122.73,1142,124l-3.8,4-.44-1.26Z" transform="translate(-1.81 -1)"/><path class="cls-17" d="M333,211l1.11-1.25c1.09,1.32,2.18,2.63,3.26,3.95l-.94.95Z" transform="translate(-1.81 -1)"/><path class="cls-18" d="M197.9,228.05l1.16-1.16,2.27,2.92-.82.86Z" transform="translate(-1.81 -1)"/><path class="cls-18" d="M1188,249l-1.82,2.13-.37-.43,2.27-1.63Z" transform="translate(-1.81 -1)"/><path class="cls-16" d="M354.15,234.8l-1-.56.91.65Z" transform="translate(-1.81 -1)"/><path class="cls-18" d="M433.59,210.86c-2-1.68-2-1.76-.6-2.86l.45-.09.46.07.27,1.86Z" transform="translate(-1.81 -1)"/><path class="cls-17" d="M340.38,217.12c.16.2.46.42.5.68s-.22.51-.34.76a6.25,6.25,0,0,1-.73-.9C339.78,217.6,340.18,217.31,340.38,217.12Z" transform="translate(-1.81 -1)"/><path class="cls-18" d="M203.48,233.68l-1.63-1.53.52-1.06,1.7,1.85A2.83,2.83,0,0,0,203.48,233.68Z" transform="translate(-1.81 -1)"/><path class="cls-18" d="M1135.61,130.54l-1.49.28.76-.94A7.63,7.63,0,0,0,1135.61,130.54Z" transform="translate(-1.81 -1)"/><path class="cls-18" d="M1136.82,129.52l-1.21,1a7.63,7.63,0,0,1-.73-.66l1-1Z" transform="translate(-1.81 -1)"/><path class="cls-18" d="M434.17,209.84l1,1-1.18.48a1.06,1.06,0,0,0-.42-.42Z" transform="translate(-1.81 -1)"/><path class="cls-18" d="M1138,128.25l-1.17,1.27-1-.67,1-1Z" transform="translate(-1.81 -1)"/><path class="cls-11" d="M719,154l-.76-.7.41-.17.3.94Z" transform="translate(-1.81 -1)"/><path class="cls-17" d="M337.87,216.14l-.49-1.33,1.5.8Z" transform="translate(-1.81 -1)"/><path class="cls-17" d="M338.88,215.61l.23,1.13-1.24-.6Z" transform="translate(-1.81 -1)"/><polygon class="cls-10" points="268.21 147.01 268.06 146.88 268.19 147.03 268.21 147.01"/><path class="cls-18" d="M1136.84,127.83l.93-1.06.44,1.26-.22.22Z" transform="translate(-1.81 -1)"/><path class="cls-14" d="M202.87,171.86l.86-.6c-.08.4-.17.79-.25,1.19C203.27,172.26,203.06,172.07,202.87,171.86Z" transform="translate(-1.81 -1)"/><path class="cls-18" d="M201.85,232.15l-.89-.85,1.41-.21Z" transform="translate(-1.81 -1)"/><path class="cls-18" d="M204.07,232.94,205,234l.1-.08-1.6-.26A2.83,2.83,0,0,1,204.07,232.94Z" transform="translate(-1.81 -1)"/><path class="cls-18" d="M205,234l.74.71-.42.16-.22-.95Z" transform="translate(-1.81 -1)"/><path class="cls-16" d="M354.07,234.89l1.1.93.11-.1-1.13-.92Z" transform="translate(-1.81 -1)"/><path class="cls-3" d="M723.94,171.09l.67.07-.11.42L724,171Z" transform="translate(-1.81 -1)"/><path class="cls-11" d="M719.89,155.1,719,154l0,.07,1.55.23Z" transform="translate(-1.81 -1)"/><path class="cls-12" d="M433.9,208l-.46-.07L433,208l.85-1.16.67.87A.58.58,0,0,1,433.9,208Z" transform="translate(-1.81 -1)"/><path class="cls-19" d="M1183.47,70c-2.32-5.43-2.45-5.67,2-8.19,4.25-2.39,8.82-4.21,13.91-6.58.16,2.53.25,3.95.38,5.86A26.83,26.83,0,0,0,1183.47,70Z" transform="translate(-1.81 -1)"/><path class="cls-20" d="M1207.55,53.27v8.87H1202V53.27Z" transform="translate(-1.81 -1)"/><path class="cls-21" d="M882.82,96.23v58.63l-1.18.38c-.58-1.26-1.64-2.51-1.64-3.77-.11-17.14-.07-34.29-.08-51.44C879.92,98.05,880.18,96.32,882.82,96.23Z" transform="translate(-1.81 -1)"/><path class="cls-22" d="M775.48,93.88c-10.6,31.74-10.24,63.15-1.38,94.73a3.84,3.84,0,0,1-1.63-1c-3.47-5-5.09-10.81-5.88-16.76-2.78-21.05-3.06-42.09,1.39-63C769.09,102.64,771,97.68,775.48,93.88Z" transform="translate(-1.81 -1)"/></svg>