<?xml version="1.0" encoding="utf-8"?>
<!-- Generator: Adobe Illustrator 23.0.3, SVG Export Plug-In . SVG Version: 6.00 Build 0)  -->
<svg version="1.1" id="Layer_1" xmlns="http://www.w3.org/2000/svg" xmlns:xlink="http://www.w3.org/1999/xlink" x="0px" y="0px"
	 viewBox="0 0 280.9 54.2" style="enable-background:new 0 0 280.9 54.2;" xml:space="preserve">
<style type="text/css">
	.st0{fill:#1E1E1E;}
	.st1{fill:#B3A369;}
</style>
<path class="st0" d="M20.6,25.9H17L16.6,24c-1.5,1.7-4,2.2-6,2.2c-6.5,0-10.7-4-10.7-8.9c0-5,4.2-8.9,10.7-8.9
	c4.4,0,9.2,1.9,9.7,6.2h-5.6c-0.2-1.5-2-2.4-4.2-2.4c-3.6,0-5,2.5-5,5.1c0,2.5,1.4,5.1,5,5.1c2.8,0,4.6-1,4.9-2.6h-3.9v-3.3h9V25.9z
	"/>
<path class="st0" d="M26.8,20.6c0.1,1.7,1.3,2.8,3.5,2.8c1.2,0,2.4-0.5,2.9-1.4h4.8c-0.9,2.9-4.3,4.1-7.7,4.1
	c-5.1,0-8.5-2.4-8.5-6.6c0-3.8,3.8-6.6,8.4-6.6c5.6,0,8.4,3.4,8.1,7.6H26.8z M33.1,18.4c-0.1-1.4-1.3-2.5-3-2.5c-1.8,0-3,1-3.3,2.5
	H33.1z"/>
<path class="st0" d="M47.2,13.1c4.8,0,8.2,2.9,8.2,6.6c0,3.7-3.4,6.6-8.2,6.6c-4.8,0-8.2-2.8-8.2-6.6C39,15.9,42.4,13.1,47.2,13.1z
	 M47.2,23.1c2.4,0,3.1-1.9,3.1-3.5c0-1.6-0.8-3.5-3.1-3.5c-2.4,0-3.1,1.9-3.1,3.5C44.1,21.2,44.8,23.1,47.2,23.1z"/>
<path class="st0" d="M56.3,13.4h4.9v2.2h0.1c0.8-1.6,2.5-2.4,4.7-2.4c0.4,0,0.8,0,1.2,0.1V17c-0.7-0.1-1.3-0.2-1.9-0.2
	c-2.5,0-3.8,1.4-3.8,3v6.2h-5.1V13.4z"/>
<path class="st0" d="M83.4,24.4c0,2-0.5,5.9-7.8,5.9c-3.6,0-7-0.6-7.7-4h5.1c0.1,0.6,0.4,0.9,0.9,1.1c0.4,0.2,1.1,0.3,1.9,0.3
	c2.4,0,2.7-1.4,2.7-2.9v-1.2h-0.1c-0.9,1.2-2.5,1.8-4.1,1.8c-4.7,0-6.8-2.7-6.8-6.2c0-3.3,2.4-6.1,6.8-6.1c1.9,0,3.3,0.6,4.2,1.9
	h0.1v-1.6h4.9V24.4z M75.5,16.2c-2.3,0-3,1.6-3,3.1c0,1.5,0.8,2.9,2.9,2.9c2.2,0,3.1-1.3,3.1-2.9C78.6,17.7,77.8,16.2,75.5,16.2z"/>
<path class="st0" d="M85.4,13.4h5.1v12.5h-5.1V13.4z M90.5,11.9h-5.1V8.7h5.1V11.9z"/>
<path class="st0" d="M92,17.3c0.1-1.6,1-2.7,2.4-3.3c1.4-0.6,3.2-0.9,4.9-0.9c3.7,0,7.3,0.6,7.3,4.2v5.4c0,1.1,0,2.2,0.6,3.2h-5.1
	c-0.2-0.4-0.2-0.8-0.3-1.2c-1.3,1.1-3.3,1.5-5.1,1.5c-3,0-5.3-1.2-5.3-3.8c0-4.1,5.5-3.7,9.1-4.3c0.9-0.1,1.3-0.4,1.3-1.2
	c0-0.9-1.4-1.3-2.5-1.3c-1.4,0-2.3,0.5-2.6,1.6H92z M98.6,23.7c2.4,0,3.2-1.1,3.1-3.7c-0.7,0.4-2,0.4-3.1,0.7
	c-1.1,0.2-2.1,0.6-2.1,1.6C96.4,23.3,97.4,23.7,98.6,23.7z"/>
<path class="st0" d="M60.9,32.8h-6.4v13.3h-5.6V32.8h-6.4V29h18.4V32.8z"/>
<path class="st0" d="M61.5,40.9c0.1,1.7,1.3,2.8,3.5,2.8c1.2,0,2.4-0.5,2.9-1.4h4.8c-0.9,2.9-4.3,4.1-7.7,4.1
	c-5.1,0-8.5-2.4-8.5-6.6c0-3.8,3.8-6.6,8.4-6.6c5.6,0,8.4,3.4,8.1,7.6H61.5z M67.8,38.6c-0.1-1.4-1.3-2.5-3-2.5c-1.8,0-3,1-3.3,2.5
	H67.8z"/>
<path class="st0" d="M84.9,38.2c0-1.1-1.2-1.8-2.5-1.8c-2.8,0-3.3,1.9-3.3,3.7c0,1.6,0.9,3.3,3,3.3c1.8,0,2.7-0.8,2.9-2.1H90
	c-0.5,3.3-3.7,5.3-7.8,5.3c-4.7,0-8.2-2.6-8.2-6.4c0-4,3.1-6.8,8.2-6.8c3.9,0,7.3,1.6,7.7,4.9H84.9z"/>
<path class="st0" d="M91.1,29h5.1v6.4h0.1c0.8-1.3,2.9-2.1,4.7-2.1c5.2,0,5.6,3,5.6,4.8v8h-5.1v-6c0-1.7,0.2-3.4-2.5-3.4
	c-1.9,0-2.8,1.3-2.8,2.7v6.8h-5.1V29z"/>
<g>
	<path class="st0" d="M126.9,51.1c0.8,0,1.5,0.7,1.5,1.5c0,0.8-0.7,1.5-1.5,1.5c-0.8,0-1.5-0.7-1.5-1.5
		C125.4,51.7,126,51.1,126.9,51.1z M126.9,54c0.8,0,1.4-0.6,1.4-1.4c0-0.8-0.6-1.4-1.4-1.4c-0.8,0-1.4,0.6-1.4,1.4
		C125.5,53.4,126.1,54,126.9,54z M126.4,51.7h0.6c0.4,0,0.6,0.2,0.6,0.5c0,0.3-0.2,0.4-0.4,0.4l0.5,0.8h-0.1l-0.5-0.8
		c0,0-0.1,0-0.1,0h-0.4v0.8h-0.1V51.7z M126.9,52.6c0.2,0,0.6,0,0.6-0.4c0-0.3-0.2-0.4-0.5-0.4h-0.5v0.8H126.9z"/>
</g>
<path class="st1" d="M119.2,50.1H113V29.9l0.8-0.1L119.2,50.1z M113.8,49.3h4.4L113.8,33V49.3z"/>
<path class="st1" d="M124.4,50.1h-6.2l5.4-20.3l0.8,0.1V50.1z M119.2,49.3h4.4V33L119.2,49.3z"/>
<polygon class="st1" points="120.9,39.7 118.7,6 116.5,39.7 115.7,39.6 118.3,0 119.1,0 121.7,39.6 "/>
<path class="st1" d="M124.4,54.2H113v-2.8h11.4V54.2z M113.8,53.4h9.8v-1.2h-9.8V53.4z"/>
<g>
	<path class="st0" d="M188.6,46c0-2.3,0-4.5,0-6.7c0-1.6-0.6-2.2-2.1-2.2c-1.7,0-2.6,0.7-2.7,2.2c0,2.2,0,4.4,0,6.8
		c-1.6,0-3.2,0-4.9,0c0-2.1,0-4.3,0-6.4c0-2.2-0.9-2.9-3-2.4c-1.1,0.2-1.7,0.9-1.7,2.1c0,2.2,0,4.4,0,6.7c-1.6,0-3.2,0-4.8,0
		c0-4,0-8.1,0-12.3c1.5,0,3,0,4.6,0c0,0.5,0.1,1,0.1,1.7c1.4-1.3,3-2,4.8-2.1c1.8,0,3.5,0.4,4.6,2.1c1.8-1.7,3.9-2.3,6.3-2
		c2.5,0.3,3.8,1.7,3.8,4.2c0,2.8,0,5.5,0,8.4C191.9,46,190.3,46,188.6,46z"/>
	<path class="st0" d="M151.2,14.7c-0.2,0-0.4,0.1-0.5,0.1c-1.6,0-3.2,0-4.8,0c-1.5-2.4-3.8-3.2-6.4-2.3c-2,0.7-3.1,2.7-2.9,5.3
		c0.2,2.3,1.6,3.9,3.7,4.3c2.8,0.5,4.4-0.4,5.6-3c0.9,0,1.8,0,2.7,0c0.9,0,1.7,0,2.7,0c-0.2,2.4-1.3,4.1-3.2,5.3
		c-3.8,2.4-10.1,2.2-13.7-0.5c-4.5-3.4-4.5-9.9,0-13.3c3.9-2.9,10.7-2.8,14.5,0.1C150.2,11.6,151.1,12.9,151.2,14.7z"/>
	<path class="st0" d="M145.8,39.7c1.8,0,3.6,0,5.4,0c-0.1,2-1,3.6-2.5,4.7c-2.6,1.9-5.5,2.4-8.6,2c-1.4-0.2-2.9-0.5-4.1-1.1
		c-3.2-1.5-5-4-4.9-7.7c0-3.6,1.9-6.1,5-7.5c3.8-1.7,7.7-1.6,11.5,0.2c2.2,1.1,3.3,2.6,3.6,4.9c-1.8,0-3.5,0-5.3,0
		c-1.5-2.3-3.8-3.1-6.4-2.2c-2.1,0.7-3.2,2.8-2.9,5.4c0.2,2.2,1.7,3.8,3.7,4.1C143.2,43.1,144.7,42.3,145.8,39.7z"/>
	<path class="st0" d="M210.8,14.5c0.1-0.4,0.1-0.8,0.2-1.1c1.6,0,3.1,0,4.8,0c0,1.1,0,2.1,0,3.1c0,2.4,0,4.9,0,7.3
		c0,3.3-1.4,5-4.6,5.7c-2.4,0.5-4.9,0.5-7.3-0.2c-1.9-0.5-2.9-1.5-3.3-3.4c1.6,0,3.1,0,4.7,0c1.2,1.2,2.9,1.7,4.3,1
		c1.6-0.7,1.1-2.2,1.2-3.7c-1.8,1.8-3.9,1.9-6.1,1.6c-1.5-0.2-2.7-0.9-3.6-2.1c-1.7-2.2-1.5-5.8,0.4-7.8
		C203.8,12.6,207.7,12.3,210.8,14.5z M208,16.1c-1.8,0-2.9,1.1-3,2.9c0,1.8,1.1,3,2.9,3c1.8,0,3-1.1,3.1-2.8
		C211,17.3,209.9,16.1,208,16.1z"/>
	<path class="st0" d="M200.3,45.1c0,1.9,0,3.6,0,5.4c-1.6,0-3.2,0-4.8,0c0-5.6,0-11.1,0-16.7c1.5,0,3,0,4.6,0
		c0.1,0.4,0.1,0.8,0.2,1.3c2.2-1.9,4.6-2.1,7.2-1.4c3.1,0.8,4.8,3.1,4.8,6.5c-0.1,3.1-2,5.5-5,6.2C204.7,46.9,202.7,46.6,200.3,45.1
		z M203.8,43c2.2,0,3.4-1,3.4-3.1c0-2.1-1.2-3.2-3.4-3.2c-2.1,0-3.4,1.2-3.4,3.1C200.3,41.9,201.6,43,203.8,43z"/>
	<path class="st0" d="M266,47.8c1.6,0,3.1,0,4.7,0c0,0.1,0,0.1-0.1,0.2c1,0.2,2,0.6,3,0.7c1.8,0.1,2.5-0.7,2.6-2.5
		c0-0.4,0-0.7-0.1-1.2c-3.7,2.1-7.5,1.8-9.6-0.7c-1.8-2.2-1.6-5.8,0.2-7.9c2.2-2.4,6.1-2.6,9.3-0.5c0.1-0.4,0.1-0.7,0.2-1.1
		c1.5,0,2.9,0,4.5,0c0,2.1,0,4.1,0,6.2c0,1.8-0.1,3.7,0,5.5c0.1,1.7-0.7,2.9-2.1,3.6c-1,0.5-2.2,0.8-3.3,1c-2.2,0.4-4.4,0.2-6.5-0.4
		C267.2,50.3,266.4,49.4,266,47.8z M273.3,43.4c1.8,0,3-1.1,3.1-2.8c0-1.9-1.1-3.1-3-3.1c-1.8,0-2.9,1.1-3,2.9
		C270.4,42.2,271.5,43.4,273.3,43.4z"/>
	<path class="st0" d="M223.5,33.8c1.7,0,3.2,0,4.9,0c0,4.1,0,8.1,0,12.2c-1.5,0-3,0-4.6,0c0-0.4-0.1-0.8-0.1-1.3
		c-1.6,1.4-3.4,2-5.3,1.9c-3.3,0-5.1-1.6-5.2-4.9c-0.1-2.6,0-5.2,0-7.9c1.6,0,3.2,0,4.9,0c0,1.2,0,2.4,0,3.5c0,1,0,2,0,3
		c0.1,1.8,0.9,2.6,2.6,2.6c1.7,0,2.9-1,2.9-2.7c0.1-1.7,0-3.4,0-5.1C223.5,34.7,223.5,34.3,223.5,33.8z"/>
	<path class="st0" d="M198.7,20.5c-3.8,0-7.5,0-11.2,0c0,1.3,0.7,2,1.7,2.4c1.7,0.6,3.4,0.4,4.6-1c1.5,0,3,0,4.6,0
		c-0.4,1.4-1.2,2.3-2.4,2.8c-3.6,1.7-7.2,1.8-10.7-0.1c-3.7-2-4-7.1-0.6-9.7c2.9-2.3,7.7-2.6,10.9-0.7
		C197.9,15.6,198.8,17.7,198.7,20.5z M193.5,18.2c-0.2-1.5-1-2.3-2.5-2.4c-1.9-0.2-3,0.6-3.5,2.4c0.3,0,0.6,0,0.9,0
		C190.1,18.2,191.8,18.2,193.5,18.2z"/>
	<path class="st0" d="M233,20.5c-3.6,0-7.3,0-11,0c0,1.3,0.6,2.1,1.7,2.4c1.7,0.6,3.4,0.4,4.6-1c1.6,0,3,0,4.6,0
		c-0.4,1.5-1.4,2.4-2.7,3c-3.4,1.5-6.8,1.6-10.1-0.1c-4-2.1-4.4-7.2-0.8-10c2.9-2.2,7.8-2.5,10.9-0.6C232.3,15.6,233.4,18,233,20.5z
		 M228.1,18.1c-0.3-1.6-1.3-2.4-2.9-2.4c-1.7,0-2.8,0.8-3.1,2.4C224.1,18.1,226.1,18.1,228.1,18.1z"/>
	<path class="st0" d="M264.3,46c-1.7,0-3.2,0-4.9,0c0-2.2,0.1-4.4,0-6.6c0-0.6-0.3-1.4-0.7-1.9c-1.3-1.2-4-0.5-4.6,1.2
		c-0.2,0.6-0.2,1.2-0.2,1.8c0,1.7,0,3.5,0,5.2c0,0,0,0.1-0.1,0.2c-1.5,0-3.1,0-4.7,0c0-4.1,0-8.1,0-12.3c1.6,0,3.1,0,4.7,0
		c0,0.5,0.1,0.9,0.1,1.5c1.9-1.7,4.2-2.1,6.5-1.8c2.5,0.3,3.9,1.9,3.9,4.4C264.4,40.6,264.3,43.2,264.3,46z"/>
	<path class="st0" d="M247.1,12.9c2.1,0.1,4,0.5,5.7,1.8c3.2,2.5,3.2,7,0,9.4c-3,2.3-8.3,2.3-11.3,0.1c-3.3-2.5-3.3-7-0.1-9.5
		C243.1,13.4,245,13,247.1,12.9z M247,16.1c-1.8,0-3,1.3-3,3.4c0,2.1,1.2,3.5,3.1,3.4c1.8,0,3-1.4,3-3.4
		C250.1,17.4,248.9,16,247,16.1z"/>
	<path class="st0" d="M160.1,26c-2-0.1-3.9-0.5-5.6-1.7c-3.4-2.4-3.4-7.1-0.1-9.6c3-2.3,8.1-2.3,11.2-0.1c3.5,2.6,3.4,7.4-0.2,9.8
		C163.8,25.5,162,25.9,160.1,26z M163.1,19.5c0-2.1-1.1-3.5-3-3.5c-1.9,0-3,1.3-3,3.3c0,2.1,1.1,3.5,3,3.5
		C161.9,22.9,163.1,21.6,163.1,19.5z"/>
	<path class="st0" d="M160.1,46.6c-1.8-0.1-3.6-0.4-5.1-1.4c-3.9-2.4-3.9-7.6-0.2-10.1c2.9-2,7.7-2,10.7,0c3.6,2.5,3.7,7.4,0,9.9
		C163.9,46.2,162,46.6,160.1,46.6z M163.1,40.2c0-1.7-0.6-2.9-2-3.3c-1.7-0.6-3.3,0.1-3.8,1.7c-0.7,1.9,0,4,1.5,4.6
		c0.3,0.1,0.6,0.2,0.9,0.2C161.7,43.7,163.1,42.4,163.1,40.2z"/>
	<path class="st0" d="M237.3,43c1.1,0.1,2.1,0.1,3.1,0.2c0,0.9,0,1.8,0,2.9c-1.9,0.3-3.7,0.4-5.6,0.1c-1.7-0.3-2.4-1.2-2.4-2.9
		c0-1.8,0-3.7,0-5.5c0-0.3,0-0.5,0-0.8c-0.9,0-1.6,0-2.5,0c0-1.1,0-2.1,0-3.2c0.8,0,1.6,0,2.5,0c0-1.3,0-2.6,0-3.9
		c1.7,0,3.2,0,4.9,0c0,1.3,0,2.5,0,3.9c1.1,0,2.1,0,3.2,0c0,1.1,0,2.1,0,3.2c-1,0-2,0-3.1,0C237.3,38.9,237.3,40.9,237.3,43z"/>
	<path class="st0" d="M265.9,8.7c0,1,0,1.9,0,2.8c-1,0.1-2,0.2-3,0.3c-0.1,0.6-0.1,1-0.1,1.5c1,0,1.9,0,2.9,0c0,0.9,0,1.7,0,2.6
		c-0.9,0-1.8,0-2.8,0c0,3.2,0,6.3,0,9.6c-1.8,0-3.4,0-5.2,0c0-3.1,0-6.2,0-9.4c-0.8,0-1.6-0.1-2.4-0.1c0-0.8,0-1.6,0-2.6
		c0.7,0,1.5,0,2.2,0c0.1-0.5,0.2-0.9,0.2-1.2c0.3-1.8,1.1-2.7,2.9-3.1c0.6-0.1,1.3-0.2,1.9-0.2C263.6,8.7,264.7,8.7,265.9,8.7z"/>
	<path class="st0" d="M176.4,8.8c1.7,0,3.3,0,5,0c0,5.6,0,11.1,0,16.7c-1.6,0-3.3,0-5,0C176.4,19.9,176.4,14.4,176.4,8.8z"/>
	<path class="st0" d="M169.4,8.7c1.7,0,3.2,0,4.9,0c0,5.6,0,11.1,0,16.8c-1.6,0-3.2,0-4.9,0C169.4,19.9,169.4,14.4,169.4,8.7z"/>
	<path class="st0" d="M246.9,46.1c-1.6,0-3.1,0-4.8,0c0-4.1,0-8.2,0-12.3c1.6,0,3.1,0,4.8,0C246.9,37.9,246.9,41.9,246.9,46.1z"/>
	<path class="st0" d="M246.9,28.6c0,1.1,0,2.1,0,3.2c-1.6,0-3.2,0-4.8,0c0-1,0-2.1,0-3.2C243.7,28.6,245.3,28.6,246.9,28.6z"/>
</g>
</svg>
