<?xml version="1.0" encoding="utf-8"?>
<!-- Generator: Adobe Illustrator 23.0.3, SVG Export Plug-In . SVG Version: 6.00 Build 0)  -->
<svg version="1.1" id="Layer_2" xmlns="http://www.w3.org/2000/svg" xmlns:xlink="http://www.w3.org/1999/xlink" x="0px" y="0px"
	 viewBox="0 0 360.4 165.5" style="enable-background:new 0 0 360.4 165.5;" xml:space="preserve">
<style type="text/css">
	.st0{fill:#01325A;}
	.st1{fill:#78D1FB;}
</style>
<polygon class="st0" points="10.7,136.3 0,117.5 24.2,44.3 108.3,44.3 95.8,81.8 43.3,81.8 34.5,108.5 65.8,108.5 57.3,136.3 "/>
<polygon class="st0" points="119.3,44.3 182.5,44.3 173.2,73 141.7,73 161.5,109.7 152.8,136.3 68,136.3 77,108.2 131,108.2 
	110.2,72.2 "/>
<polygon class="st0" points="193.2,44.3 225.2,44.3 204.2,108.5 225.8,108.5 229.7,95.2 260.7,95.2 253.5,118.3 228.7,136.3 
	163.3,136.3 172.3,107.5 157.2,81.3 181.7,81.3 "/>
<polygon class="st1" points="272.5,0 252.2,63.2 219,63.2 212.9,81.8 265.5,81.8 272.5,59.2 280,81.8 303.5,81.8 284.8,95.7 
	292.2,117.8 272.3,103.8 253.5,118.3 228.7,136.3 218.9,165.5 272.4,126.4 326.5,165.5 305.7,102.7 360.4,63.3 293.6,63.3 "/>
</svg>
