<?xml version="1.0" encoding="utf-8"?>
<!-- Generator: Adobe Illustrator 23.0.3, SVG Export Plug-In . SVG Version: 6.00 Build 0)  -->
<svg version="1.1" id="Layer_1" xmlns="http://www.w3.org/2000/svg" xmlns:xlink="http://www.w3.org/1999/xlink" x="0px" y="0px"
	 viewBox="0 0 718.6 164.9" style="enable-background:new 0 0 718.6 164.9;" xml:space="preserve">
<style type="text/css">
	.st0{fill:#111111;}
</style>
<path class="st0" d="M0,0.9c3.6-0.3,7.2-0.7,10.8-0.9c4.1-0.2,8.3,0,13,0c0,13,0,25.7,0,38.7c24.3,0,48.1,0,72.5,0
	c0-12.8,0-25.5,0-38.4c8.1,0,15.5,0,23.3,0c0,33.1,0,66.2,0,100c-7,0-14.1,0.1-21.1,0c-2.8-0.1-2.1-2.5-2.1-4.2
	c-0.1-9.3,0-18.7,0-28c0-1.8,0-3.7,0-5.5c0-5.4,0-5.4-5.5-5.4c-20.5,0-41,0-61.5,0c-1.6,0-3.3,0.1-5.3,0.2c0,14.2,0,28.1,0,42.5
	c-8.3,0-16.2,0-24.1,0C0,66.9,0,33.9,0,0.9z"/>
<path class="st0" d="M528,164.9c-3.8-2.1-5.1-5.3-5-9.5c0.1-7.7,0-15.3,0.1-23c0.1-7.1,2.1-9.4,9.1-9.5c11-0.2,22-0.2,33,0
	c6.7,0.1,8.7,2.1,8.8,8.7c0.2,8.2-0.1,16.3,0.1,24.5c0.1,4.1-1.5,7-5.1,8.9C555.3,164.9,541.7,164.9,528,164.9z M565.9,129.1
	c-8.7,0-16.8,0-24.9,0c-10,0-10,0-10,9.8c0,6.4,0,12.8,0,19.2c12.1,0,23.5,0,34.9,0C565.9,148.3,565.9,139.1,565.9,129.1z"/>
<path class="st0" d="M645,164.9c-0.5-0.4-1-0.8-1.6-1.1c-3.4-2.1-4.1-5.6-3.1-8.7c0.5-1.5,3.9-2.1,6.4-3.3c0.4,2.6,0.6,4.3,0.9,6.4
	c10.4,0,20.6,0,31.2,0c0-3.7,0-7.1,0-11c-1.3-0.1-2.7-0.3-4.2-0.3c-7.8,0-15.7,0.1-23.5-0.1c-7-0.1-9-2-9.4-8.8
	c-0.9-16.2,2.7-15.2,13.9-15.2c5.8,0,11.7,0,17.5,0c1.7,0,3.3,0,5,0.2c4.9,0.4,7.6,2.9,7.6,7.5c0,5-4.4,2.4-6.9,4.4
	c-0.4-2.2-0.7-3.7-1.1-5.5c-9.4,0-18.8,0-28.5,0c0,3.5,0,6.7,0,10.6c6.1,0,12.2,0,18.3,0c3.8,0,7.7-0.1,11.5,0.1
	c4.5,0.3,6.6,2.5,6.9,7c0.2,3,0,6,0.1,9c0.2,4.1-1.4,7-5.1,8.8C669,164.9,657,164.9,645,164.9z"/>
<path class="st0" d="M0,153.9c2.2-0.5,4.4-1,6.6-1.5c1.2,6.1,1.2,6.1,7.3,6.1c8.1,0,16.3,0,24.8,0c0-4,0-7.5,0-11.7
	c-8,0-15.9,0-23.9,0c-11.9,0-13.5-1.7-13.1-13.7c0.2-8.4,1.9-10.2,10.4-10.3c7.7-0.1,15.3,0,23,0c1.2,0,2.3,0,3.5,0.2
	c4.7,0.5,7.5,3.5,7.2,7.9c-0.4,4.5-4.4,2.1-6.8,3.9c-0.4-2.2-0.8-3.7-1.1-5.5c-9.4,0-18.8,0-28.5,0c0,3.5,0,6.7,0,10.6
	c6.1,0,12.2,0,18.3,0c3.8,0,7.7-0.1,11.5,0.1c4.5,0.3,6.6,2.5,6.9,7c0.2,3,0,6,0.2,9c0.2,4.1-1.4,7.1-5.1,8.8c-12,0-24,0-36,0
	c-1.7-1.7-3.3-3.3-5-5C0,157.9,0,155.9,0,153.9z"/>
<path class="st0" d="M331,164.9c0-13.8,0-27.5,0-41.6c0.8-0.2,1.7-0.5,2.6-0.5c9,0,18-0.1,26.9,0.2c16.3,0.6,25.5,16.4,18.3,31.1
	c-2.2,4.4-5.7,7.2-10.3,8.8c-1.9,0.6-3.7,1.3-5.5,2C352.3,164.9,341.7,164.9,331,164.9z M338.8,158.8c8.4-0.4,16.4-0.3,24.2-1.4
	c7.2-1.1,10.4-6.6,10-14.5c-0.4-7.6-3.9-12.1-11.2-13c-6.6-0.7-13.3-0.6-19.9-0.9c-2.1-0.1-3,0.7-3,2.9
	C338.8,140.6,338.8,149.2,338.8,158.8z"/>
<path class="st0" d="M217,164.9c-1.5-2.4-4.1-4.8-4.2-7.3c-0.5-11.4-0.2-22.8-0.2-34.6c2.6,0,5,0,8,0c0,11.7,0,23.3,0,35.1
	c10.3,0,20.1,0,30.4,0c0-11.7,0-23.3,0-35.1c2.8,0,5.1,0,7.6,0c0.2,0.6,0.6,1.4,0.6,2.1c0,10.3-0.1,20.6,0,30.9
	c0,4.1-1.4,7.1-5.2,8.8C241.7,164.9,229.3,164.9,217,164.9z"/>
<path class="st0" d="M124,164.9c0-11.8,0-23.5,0-35.7c-6.7,0-12.9,0-19.7,0c-0.1-2.2-0.2-3.9-0.3-6c16,0,31.6,0,47.6,0
	c0,1.8,0,3.5,0,5.9c-6.5,0-12.8,0-19.7,0c0,12.4,0,24.1,0,35.9C129.3,164.9,126.7,164.9,124,164.9z"/>
<path class="st0" d="M448,164.9c0-13.8,0-27.5,0-41.6c2.8,0,5.1,0,8,0c0,13.9,0,27.8,0,41.6C453.3,164.9,450.7,164.9,448,164.9z"/>
<path class="st0" d="M313.9,57.6c0,12.9,0,25.1,0,37.2c0,5.5,0,5.5-5.3,5.6c-5.6,0-11.3,0-17.3,0c0-33.5,0-66.5,0-100.3
	c1.5,0,3.1,0,4.7,0c26.8,0,53.6,0,80.5,0c1,0,2,0,3,0c13.9,0.6,19.6,6.5,19.6,20.3c0,6.5,0,13-0.1,19.5c-0.2,10.1-5.4,15.8-15.3,17
	c-4.9,0.6-9.8,0.7-15.8,1.2c14,14.1,27.4,27.7,40.8,41.2c-0.1,0.4-0.1,0.8-0.2,1.2c-2.2,0-4.4,0-6.6,0c-6.5,0-13-0.1-19.5,0.1
	c-3.1,0.1-5.3-0.9-7.4-3.2C363.6,85,352.1,73,340.7,60.8c-2.1-2.3-4.2-3.4-7.3-3.3C327.1,57.8,320.8,57.6,313.9,57.6z M314.2,17.9
	c0,6.8,0,13.4,0,20.1c1.3,0.1,2.3,0.2,3.2,0.2c16.3,0,32.6,0,48.9,0c1.2,0,2.3,0,3.5-0.1c3.1-0.5,6.2-1.4,6.2-5.2
	c0-4.7,2.3-10.1-2.6-13.9c-0.9-0.7-2.2-0.9-3.3-1c-2-0.2-4-0.3-6-0.3c-15,0-29.9,0-44.9,0C317.7,17.6,316.1,17.8,314.2,17.9z"/>
<path class="st0" d="M470.1,17.3c0,7.3,0,13.8,0,21.1c15.3,0,30.4,0,45.5,0c0,6.4,0,12.1,0,18.3c-15.2,0-30.1,0-45.4,0
	c0,8.3,0,16.1,0,24.5c2,0,3.8,0,5.5,0c23,0,46,0,69,0c5.1,0,5.1,0,5.1,5.2c0,3.2-0.2,6.3,0.1,9.5c0.3,3.6-1.1,4.6-4.5,4.5
	c-13.7-0.2-27.3-0.1-41-0.1c-17.8,0-35.7,0-53.5,0c-2.6,0-4.8,0.3-4.8-3.7c0.2-31.5,0.1-63,0.1-94.5c0-0.5,0.2-1,0.3-1.8
	c33.9,0,67.7,0,102.3,0c0,4.8,0.1,9.5-0.1,14.3c-0.1,0.9-1.6,2-2.7,2.4c-1.2,0.4-2.6,0.1-4,0.1c-22,0-44,0-66,0
	C474.1,17.3,472.2,17.3,470.1,17.3z"/>
<path class="st0" d="M579.4,100.1c-1.3-6.8-0.1-11.7,4.8-16.5c20.4-20.2,40.2-40.8,60.2-61.3c1.1-1.1,2.1-2.4,3.8-4.2
	c-21,0-41.3,0-61.9,0c0-6.1,0-11.8,0-17.8c33.1,0,66.1,0,99.6,0c1,5.2,1,9.5-3.4,13.9c-20.9,20.6-41.4,41.5-62,62.3
	c-1.2,1.2-2.3,2.4-4.2,4.4c2.6,0.1,4.3,0.3,5.9,0.3c19.7,0,39.3,0,59,0c5.2,0,5.3,0,5.3,5.2c0,3.7-0.1,7.3,0,11c0,2.1-0.8,3.1-3,3
	c-0.7,0-1.3,0-2,0c-32.6,0-65.3,0-97.9,0C582.2,100.4,580.9,100.2,579.4,100.1z"/>
<path class="st0" d="M194.3,0.3c0.1,1.9,0.2,3.4,0.2,4.9c0,30,0,59.9,0,89.9c0,5.3,0,5.3-5.2,5.3c-5,0-10,0-15,0
	c-2.1,0-3.4-0.5-3.4-3c0.1-32,0.1-63.9,0.1-95.9c0-0.3,0.2-0.6,0.5-1.2C179,0.3,186.4,0.3,194.3,0.3z"/>
<path class="st0" d="M252.7,57.7c-7.4,0-14.4,0.1-21.5-0.1c-0.8,0-2.2-1.5-2.2-2.4c-0.2-5.4-0.1-10.9-0.1-16.5c8.3,0,16,0,23.8,0
	C252.7,45.1,252.7,51.1,252.7,57.7z"/>
<g>
	<path class="st0" d="M718.6,11c0,6.2-4.9,11-11.2,11c-6.3,0-11.2-4.9-11.2-11c0-6.1,5-10.9,11.2-10.9C713.7,0.1,718.6,5,718.6,11z
		 M698.9,11c0,4.9,3.6,8.7,8.5,8.7c4.8,0,8.3-3.9,8.3-8.6c0-4.9-3.5-8.8-8.4-8.8S698.9,6.2,698.9,11z M705.7,16.7h-2.5V5.8
		c1-0.2,2.4-0.3,4.2-0.3c2.1,0,3,0.3,3.8,0.8c0.6,0.5,1.1,1.3,1.1,2.4c0,1.2-0.9,2.1-2.3,2.5v0.1c1.1,0.4,1.7,1.2,2,2.7
		c0.3,1.7,0.5,2.3,0.8,2.7H710c-0.3-0.4-0.5-1.4-0.9-2.7c-0.2-1.2-0.9-1.7-2.3-1.7h-1.2V16.7z M705.7,10.5h1.2
		c1.4,0,2.5-0.5,2.5-1.6c0-1-0.7-1.7-2.3-1.7c-0.7,0-1.1,0.1-1.4,0.1V10.5z"/>
</g>
</svg>
