<?xml version="1.0" encoding="utf-8"?>
<!-- Generator: Adobe Illustrator 23.0.3, SVG Export Plug-In . SVG Version: 6.00 Build 0)  -->
<svg version="1.1" xmlns="http://www.w3.org/2000/svg" xmlns:xlink="http://www.w3.org/1999/xlink" x="0px" y="0px"
	 viewBox="0 0 678.5 297.8" style="enable-background:new 0 0 678.5 297.8;" xml:space="preserve">
<style type="text/css">
	.st0{display:none;}
	.st1{fill-rule:evenodd;clip-rule:evenodd;fill:url(#SVGID_1_);}
	.st2{fill-rule:evenodd;clip-rule:evenodd;fill:#737373;}
	.st3{fill-rule:evenodd;clip-rule:evenodd;fill:#E0E0E0;}
	.st4{fill-rule:evenodd;clip-rule:evenodd;fill:#BABABA;}
	.st5{fill-rule:evenodd;clip-rule:evenodd;fill:#DEE0E0;}
	.st6{fill-rule:evenodd;clip-rule:evenodd;fill:#5BA833;}
</style>
<g id="Layer_2" class="st0">
	
		<image style="display:inline;overflow:visible;" width="189" height="85" xlink:href="86C59083.jpg"  transform="matrix(3.6235 0 0 3.6235 -2.2879 -8.7973)">
	</image>
</g>
<g id="Layer_1">
	<linearGradient id="SVGID_1_" gradientUnits="userSpaceOnUse" x1="0" y1="148.9224" x2="205.5004" y2="148.9224">
		<stop  offset="0" style="stop-color:#92BF3C"/>
		<stop  offset="1" style="stop-color:#5BA833"/>
	</linearGradient>
	<path class="st1" d="M120.1,272.6c0,1.9,0.7,10.9-1.7,12.7c-0.7,4.5-3.8,6.6-5.4,10.6c-0.1,0.5-0.2,1-0.2,1.6
		c-0.2,0.1-0.3,0.2-0.5,0.3c-0.3-0.1-0.7-0.2-0.9-0.2c-0.2-1-0.3-1.9-0.5-2.8c0.2-3.9,1.7-7.2,2.2-11.1c0-1.1,0-2.2,0-3.2
		c0.2-0.1,0.6-0.2,0.9-0.2c0-0.1,0-0.1,0-0.1c0-2.8,0.1-5.7,0.2-8.4c0-0.3,0-0.7,0-0.9c-0.3-0.1-0.7-0.2-0.9-0.3
		c-0.7-2.7-1.7-5.6-1.7-8.4c-0.3-0.2-0.6-0.3-0.8-0.5c-0.2-2.2-1.9-3.4-3.4-4.9c-0.5-1.6-1-3.2-1.5-4.7c1-1.5,2.1-3,3.2-4.5
		c0.7-3.7-1.2-8.6-1.5-12.8c-0.3-1.2-0.7-2.4-1-3.6c0.7-1.7,1.8-3.2,1.8-5.1c-0.2-0.1-0.4-0.2-0.6-0.2c-1.6-4.1,2.3-9.6-1.5-12.6
		c-1-5.1-1.3-10.9-0.7-16c0-1.2,0-1.2,0.4-1.8c1.2-5.9-5.6-8.8-5.2-14.9c1.2-2.7,2.6-5.3,3.9-8c0.2-3.7,0.3-4.3,3-6.7
		c0.3-2.3,0.6-4.7,0.9-7c0-0.4,0-0.8,0-1.2c0.3,0,0.5,0,0.7,0c0.1-2.5-0.1-5.7,1-7.9c1.2-2.4,4.7-9.1,2.1-11.8
		c-1-3.9-2.2-7.2-2.5-11.2c-3.3-2.5-2.5-3.5-1.9-7.8c-0.7-6.5,1.7-13.1,2.1-19.5c-1.2-1.8-3.7-3.3-4.4-5.1c0-1.6,0-3.2,0.1-4.7
		c0.6-3.8,0.2-7.6,0.8-11.1c-0.3-1.2-1-3.6-1.7-4.7c0-2,0-4,0.1-5.9c0.8-4,2.9-6.4,0.9-10.4c-4.7-2.9-5.2-3.5-5.7-8.9
		c0.6,0,1.2,0,1.9,0c1.2-2.6,0.3-10.1,0.3-12.3c-0.9-0.4-1.6-0.9-1.7-1.8c0.6-0.2,1.2-0.3,1.7-0.3c0-0.5,0.1-1,0.2-1.4
		c-3.6-3.2-5.7-9.1-11.1-9.1c-0.1,0.3-0.2,0.7-0.2,1.2c-0.7-0.2-1.5-0.5-2.2-0.7c-0.5-0.1-1-0.2-1.5-0.3c-2.4-0.6-4.7-1.5-7.2-1.2
		C79.8,23,79.8,23,79.3,23c-0.8,0.2-1.7,0.3-2.4,0.6c-1.2,0.4-2.1,0.6-2.8,1.7c0.2,1.9,0.2,1.9,0.6,2.8c0.7,1.8,0.7,1.8,1.1,3.6
		c-0.7,0.5-1.3,1-2,1.5c-0.7,3,0.4,5.4,0.7,8.2c-4.1,2.3-6.7,2.3-9.3,6.6c-1.4,5.2-0.8,10.6-1.2,16.1c1.1,0,2.2,0.1,3.4,0.2
		c1,1,1,1.6,1.1,3c-0.7,1.3-0.7,1.3-1.2,4.2c-0.9,1.4-1.8,2.9-2.7,4.4c-0.3,0.4-0.7,0.8-0.9,1.3c-1.7,2.2-1.4,6-1.8,8.7
		c0.2,0.3,0.3,0.7,0.5,1.1c4.5,2,0.4,9.2,1.6,12.8c1.7,2.4,1.7,2.4,2.3,3.9c0.6,4.6,2.5,8.7,4.3,13.1c1.2,1.9,4.3,4.9,3.8,7.5
		c-0.3,0.4-0.4,0.8-0.6,1.3c-0.5,0.7-1,1.6-1.5,2.4c-0.4,1-0.4,1-1.2,1.7c-1.1,2-1.1,2-2,5.1c-1,1.7-2.2,3.3-2.5,5.3
		c3.5,2.8,2.9,4.2,2,8.4c-0.4,3.9-1.7,6,1.3,8.7c0.7,0.3,1.5,0.7,1.7,1.5c0.1,0,0.2,0,0.3,0c0.2,1.6-0.1,5.7-0.9,6.6
		c-0.2,0.5-0.4,1-0.6,1.5c-0.4,1.2-0.7,2.5-1.1,3.7c-1,3.9-2.4,8.2-3.2,12c-0.8,3.1-0.8,3.1-1.5,4.2c-0.6,4.7-2.1,9.8,0.3,14.2
		c0.5,3.5,1.7,6.7,1.9,10.1c-0.6,1.6-1.2,3.2-1.7,4.8c0.1,2.2,0.2,4.4,0.3,6.7c-1.7,4.5-2,4.4-0.3,8.9c0,4.9-0.7,9.7-1.3,14.6
		c0.5,6,0.5,6,1.5,13.1c0,2.8,1.1,4.8,2.3,7.4c-0.2,2.2-0.7,3.8-1.7,5.7c0,1.2,0.7,1.8,0.3,2.8c-3.7-1.2-1.5-6.8-1.7-9.3
		c-0.7-1.4-2.1-3.1-2.3-3.7c-0.5-0.7-1-1.3-1.5-2c-0.3-0.5-0.5-0.9-0.7-1.3c-2.2-12.2-4.1-24.7-6.7-36.9c-3.5-5.1-3.7-7.2-0.9-11.8
		c-0.1-0.7-0.1-1.2-0.1-1.8c-0.7,0-3.3-5-3.3-5.1c0.3-2.9,1.8-7.2,0.6-9.9c-2.8-2.2-4.3-3.2-5.6-6.5c2.7-3.7,4.7-8.8,7.2-13
		c0.2-1.1,0.5-2.1,0.8-3.1c-0.3-6.3-0.8-12.6-0.9-19c-1.3-0.8-2.6-1.7-3.8-2.5c1.3-6.4,1.5-12.4,1.7-19c0-0.2,0-0.3,0-0.3
		c-2.1-8.2-4.9-16.5-6.8-24.6c-1.5,0-4.5-8.6-5.9-10.1c0.9-3.9,0.9-3.9,1.9-6.3c0.8-7.3,2.8-13.8,5-20.6c0-0.5,0-1,0-1.5
		c-1.9-3.9,1.7-9.3-1.3-12.4c-0.2-1.4-0.3-2.8-0.4-4.2c-0.6-0.6-1.2-1.2-1.7-1.7c-2.2-1.2-4.6-2.2-5-4.8c0.7-1.3,2.2-2.9,2.2-4.5
		c-1.1,0-2.9-4.2-2.9-5.5c-1.7-0.9-1.7-0.9-2.9-1.9c-6-2.3-13.3-3.6-19.6-4.8c-2.1,0-7.7-0.9-9.3,0.7c-0.8,0.1-1.6,0.2-2.3,0.3
		c0-1.5,3.1-2.9,4.2-3.7c0.7-0.3,1.5-0.7,2.2-1c0-0.2,0-0.2,0.1-0.3c3.6-0.2,6.2-0.6,9.3-2.2c1.2-0.3,2.5-0.7,3.7-0.9
		c1.7-4.2,9.1-2.2,12.8-2.2c3.3-0.2,5.7-1.9,8.7-3.2c0-0.7,0.7-0.7,1.2-0.9c0.2-0.2,0.3-0.2,0.6-0.3c1.1-0.9,2.2-1.2,3.6-1.3
		c1.2-1.8,1.7-3.4,4-3.8c1.6,2.8,2.1,4,4.7,5.9c2.2,0.7,2.2,0.7,2.6,1.1C68,15.6,68,15.6,69.2,16c1.7,2,2.9,3.8,5.2,2
		c0.2-0.2,0.3-0.3,0.5-0.3c0.3-0.3,0.5-0.4,0.8-0.6c0.7-0.4,1.3-0.8,2-1.2c1.3-0.3,2.4-0.8,4-0.9c0.1-0.4,0.2-0.8,0.3-1.2
		c0.3,0,0.7,0,1.2,0c0-0.3,0-0.6,0-0.8c0.7-0.3,1.3-0.7,2-0.9c0.9-2.4,5.8-0.6,7.5-0.6c0.8-0.1,1.7-0.2,2.7-0.2
		c0.3-0.1,0.7-0.2,1.1-0.2c0.9-1.3,1.3-2.3,2.8-2.7c0.9-1.9,8.3-2.5,10.7-2.7c0.6-0.3,1.2-0.6,1.8-0.8c0.3-0.3,0.3-0.3,0.9-0.3
		c0.2-0.2,0.3-0.2,0.6-0.3c0.2-0.1,0.6-0.2,0.9-0.2c1-0.4,2-0.7,3-1.1c0.4-1.8,1.7-2.3,3.2-2.8c0.5,0,1.1,0.1,1.7,0.2
		c0.2,0.4,0.3,0.8,0.6,1.3c1.8,3.6,5.7,3.8,9.2,5.5c2.4,2.2,4.2,3.7,7.2,5c2.4,0.9,2.7,2.1,1.3,4.5c0,0.6,0,1.2,0,1.7
		c2.8,1.5,5.8,1.2,8.6,2.8c0,0.4,0.1,0.9,0.2,1.4c-1.7,1-2.8,1.4-4.7,1.7c-2.7,1.1-3.6,3.7-6.2,4.8c-0.2,1.6-0.3,3.2-0.4,4.9
		c-1.6,1.6-3.2,3.2-4.7,4.8c-0.2,2.7-0.3,3.4-2.6,5.1c0.1,1.9,0.3,3.3,0.8,4.9c0.7,3.5,0.9,4.4-0.6,7.7c0,2.9,2.2,5.2,3.9,7.3
		c0,3.5-1.9,6.7-1.9,10.2c0.7,2.4,1.5,4.8,2.3,7.2c0.1,1.6,0.4,1.9,0.4,3.4c0.1,0.2,0.2,0.5,0.3,0.7c0,0.2,0,0.6,0,0.9
		c0.7,5.4,0.3,5-3.5,8.8c-0.5,0.8-0.9,1.7-1.3,2.6c0.7,0.7,1.1,2,0.9,3.1c0,0.7,0,1.3,0,2c-1,4.1-1,4.1-2.1,6.8
		c-0.2,0.5-0.2,1.1-0.3,1.7c0.4,2.6,0.4,2.6,1.3,4.9c0.5,8.2,6.1,15,4.7,23.5c-0.3,0.8-0.6,1.7-0.8,2.6c-0.3,0.1-0.5,0.2-0.7,0.3
		c-1.7,2.2-1.7,2.2-3.5,4.1c-0.8,1.6-1.6,3.2-2.3,4.7c-0.2,3.6-0.5,3.9-0.7,6c-2.6,3.7-3.5,8.2-5.8,12.1c-0.1,0.8-0.2,1.7-0.2,2.7
		c-0.3,2.1-1.5,5.2,0.9,6.4c0.1,0.2,0.2,0.5,0.2,0.8c0.1,0.9,0.1,0.9-0.6,2.8c-0.5,1-0.5,1-0.6,2.8c0,1.5-0.2,1.7,0.6,3
		c0.1,0.1,0.2,0.2,0.3,0.4c0,0.9,0,1.8,0,2.7c-1.4,3.8-0.5,8.7,0,12.8c0,2.7-0.3,3.2-2.4,5.1c-0.3,1.6-0.3,1.6,0,3.2
		c0.4,1.2,0.4,1.2,0.6,5.1c-0.2,1.5-0.2,3-0.3,4.5c-0.1,2.4-0.4,4.4-0.8,6.7c-0.2,0.9-0.5,1.9-0.7,2.9c0,1.1,0.7,1.3,1.5,1.8
		c0,0.2,0,0.5,0.1,0.7c0.1,1,0.2,2,0.3,3c3.7,5.7,6.9,7.7,2.6,13.6c-0.3,0.7-0.3,0.7-0.2,3c0,2.8,0.1,4.8-0.9,7.5
		c-1,1-0.4,6.7-0.4,8.2c-0.3,0.1-0.5,0.2-0.7,0.2c-0.2,0.1-0.3,0.2-0.5,0.3C120.4,270.7,120.3,271.6,120.1,272.6L120.1,272.6z
		 M170.2,15.2c0.1-0.3,0.2-0.7,0.3-1c2.7-0.7,2.7-0.7,4.4-0.7c1.6-1.2,3.2-2.2,4.8-3.3c0.7-0.7,0.7-0.7,1.3-0.7
		c0.7-2.3,1.5,0.7,1.7,1.4c0.3,0.4,0.7,0.8,1,1.3c1.2,0.4,1.2,0.4,9.4,1.7c1.2,1.7,2.5,3.3,3.7,5.1c5.2,1.7,2.4,3.7,2,8
		c1.3,0.3,2.7,0.7,4,1c0.8,2.3,1.1,4.2,1.2,6.7c-1.8,2.9-1.8,2.9-1.9,3.7c3.2,2.5,4.7,3.2,2.1,7.1c-0.5,0.7-1,1.5-1.4,2.2
		c-1,2.1-1,2.1-1.6,2.6c0,0.6,0,1.2,0,1.7c0,0.2,0,0.3,0,0.6c-0.1,1-0.1,2.1-0.1,3.2c-2.2,1.5-3.9,2.6-4.4,5.2c0,0.6,0,1.2,0,1.8
		c-0.3,0.3-0.7,0.5-0.9,0.8c-0.2,0.4-0.3,0.8-0.4,1.2c-0.2,0.6-0.3,1.2-0.5,1.9c-0.7,1.2-0.9,1.6-1.2,2.8c0.2,0.7,0.3,1.5,0.6,2.2
		c-1.2,3.1-3.6,5.7-5,8.6c0.2,3.3,0.5,3.7,1.1,7.8c-0.3,0-0.5,0-0.7,0c0.2,2.5,1.1,5.7-0.2,7.8c-0.3,0.6-0.6,1.2-0.8,1.7
		c0,0.2,0,0.6,0,0.9c0.6,0.3,1.3,0.7,1.9,1.2c2.2,1.2,4,2.4,2.2,5c-0.8,5.2-0.8,5.2-1.5,7c-0.5,1.3-1,2.7-1.5,4.1
		c-0.2,1.5-0.2,3.1-0.3,4.7c0.3,1.2,0.7,1.5,0.7,2.1c1.5,3.9,4.2,7.1,6.2,10.7c0.9,2.5,1.3,3.7,1.5,6.3c-0.3,0.6-0.7,1.2-0.9,1.8
		c-0.4,0.8-0.4,1.2-0.3,2.2c0.4,0.5,0.4,0.5,0.9,2.4c-3,7.7-3,7.7-6.3,14.8c-0.4,1.4-1.9,4-1.1,5.2c0.6,0.4,0.6,0.4,1.4,1.7
		c-1.5,1.5-0.3,3.3,0.6,4.7c0.8,0.8,1.1,1.3,1.5,2.4c0.2,1.4,0.3,2.9,0.5,4.4c-0.8,2.5-2.7,5-3.3,7.4c-0.2,0-0.3,0-0.5,0
		c-0.4,0.9-0.8,1.8-1.2,2.8c0,0.1,0,0.2,0,0.3c0,1.2,0.7,3.4,0.3,4.4c2.7,2.7,2.2,6.7,2.2,10.5c-0.7,1.2-1.3,2.3-2,3.6
		c0,0,0,0,0,0.1c0.1,0.2,0.2,0.3,0.3,0.5c-0.2,0.4-0.4,0.8-0.6,1.2c0.5,0.5,0.5,0.5,0.6,1.2c-0.2,0.1-0.3,0.2-0.5,0.2
		c0.5,1,0.7,1.8,0.7,3c-0.3,0-0.4,0-0.6,0c0,0.2,0,0.3,0,0.5c0.1,2.2,0.2,4.3,0.3,6.6c0.3,1.2,0.5,2.6,0.8,3.9
		c0.3,1.1-0.1,2-0.6,3.1c-1,1.4-2,2.8-3,4.3c-1.6,4.2-3.6,8-5.4,11.7c-0.7,1.3-1.3,2.7-2,4.1c0.2,3.7,0.2,3.7,0.9,7.7
		c-0.8,1.2-1.6,2.5-2.3,3.8c-0.3,0-0.7,0.1-1,0.2c-1.2-10.4-1.2-10.4-1.7-11.6c0-0.1,0-0.2,0-0.3c-0.2-0.1-0.2-0.2-0.3-0.2
		c0.3-4,0.5-8,0.7-12c1.2-1.2,0.9-4.7,0.9-6.2c-2.2-4.5-3.2-8-3.9-13c4.6-1.7,4.3-5.7,4.7-9.9c2.2-4.3-2.1-7.2-1.7-11.6
		c1.2-2.2,2.6-4.3,3.9-6.4c0.1-3.1,0.2-6.2,0.2-9.2c0.7-0.7,0.3-3.2,0.3-4.2c0.2-0.2,0.3-0.3,0.5-0.3c-0.9-5-1.5-13.4,1.3-17.6
		c0-1.2-0.8-1.9-1.5-2.8c-0.2-2.7-0.3-5.4-0.3-8.1c-1.8-3.7-4.6-8-3.4-12.3c-0.4-4.6,1.6-9.6,2.2-14.2c-2.3-1.7-3.2-4.7-4.3-7.2
		c-2.3-2.9-2.3-2.9-2.4-3.5c-0.1-3.2-2.1-5.6-1.3-8.6c0.3-0.2,0.6-0.5,0.9-0.7c0-2,0-4,0.1-5.9c0.8-2.7,1.6-4,0.3-6.6
		c-0.6,0-1.9-2.2-2.2-2.7c-0.6-0.4-2.3-2.7-0.9-3c1-1.1,8.9-8.3,6.2-10.1c-2-1.5-2-2.9-1.1-5.1c1-3,1.4-4.6,0.4-7.7
		c0-1.2,1.1-6.9,0.5-7.8c0-1.9-0.3-2.7,0.6-4.4c0.7-1.2,0.7-1.2,0.8-2c-0.2-0.2-0.5-0.2-0.7-0.3c-1.2-0.7-1.7-1-1.9-2.2
		c-0.2-0.4-0.3-0.7-0.3-1.1c-0.4-0.1-0.7-0.2-1.1-0.2c-0.1-0.4-0.2-0.8-0.2-1.2c-3.2-0.9-5.8-2.2-8.9-3.2c-0.2,0.1-0.5,0.2-0.7,0.3
		c-3,2-8.3,1.2-10.6-1.7c-1.7-2-3.9-1.2-6-1.2c-1.8,0-3.7,0.2-5.6-0.3c0.3-0.7,2.7-2.7,6.5-6.8c2.6-0.8,4.5-1,7.2-1
		c2.1-0.4,4.2-2.4,6.2-3.4C166.5,22.9,168.7,20.8,170.2,15.2L170.2,15.2z"/>
	<g>
		<path class="st2" d="M339.3,137.3c-4.5-2.5-4.8-4.7-5.5-10c0.8,0,1.1,0.3,2.9,0.7c0.1-1.4,0.3-2.8,0.4-4.1
			c-2.9-0.3-4.3-1.2-6.2-3.6c-14.5-7.2-18.9-19.9-20-35c-4.1-4.1-4.1-4.1-4.3-4.8c6.2,0,10.4-6.2,16.6-6.2c1,0.6,2.2,1.2,3.3,1.9
			c3.4-0.2,6.8-0.3,10.3-0.4c1.3-4.6-1-8-1.4-12.3c0.2-0.3,0.3-0.6,0.6-0.9c3.7-0.2,9.9-2.7,12.2,1.6c0.3,2.2,0.3,2.2-0.3,12.1
			c3,0.2,6.2,0.3,9.3,0.5c6.9-1.6,11.1,0.7,15.9,5.9c0,0.8,0.1,1.6,0.2,2.5c-3.8,7.7-2.1,16.9-5.5,24.8c-1.4,1.2-2.8,2.4-4.2,3.6
			c-7.3,3.6-7.9,3.6-14.3,6.6c-2,1.9-2,1.9-2.7,2.2c0,4.4,2.8,10.4-1.1,13.7C343.3,136.7,340.7,136.8,339.3,137.3L339.3,137.3z
			 M346.5,112.4c-0.3-9.3,0.1-19,0.5-28.3c4.1,0.3,4.1,0.3,9.6,1.6c1.7,6.5,1.4,14.1-0.9,20.5C353,108.7,349.8,110.7,346.5,112.4
			L346.5,112.4z M335.6,108.3c-4.2-5.2-12-15.7-9.6-22.9c4.4,1.3,6.4-1.6,10.4-2.1C336,91.7,335.4,100,335.6,108.3L335.6,108.3z"/>
		<path class="st2" d="M285.2,131.4c0-14.1,0-28.3,0-42.4c-0.2-0.7-0.3-1.4-0.4-2.1c-5.1,6.2-10.8,12.2-14.5,19.3
			c1.5,1.6,3,3.1,4.9,4.4c-3.2,1.6-9.5,4.9-13.4,4.9c-7.4-4.9-11.5-14.1-17.4-20.7c-0.1,4.4-0.2,8.8-0.2,13.3c-0.3,0-0.3,10,0,10
			c0,4.8-1.5,6.6-6.1,5.6c-5-5.5-8.1-7.3-4.4-14.1c0.6-4.1,0.6-4.1,1-12c-0.1-3.4-0.2-6.7-0.2-10c-0.3-1.4-0.6-2.8-0.9-4.1
			c-4.2-4.1-4.2-4.1-4.8-4.9c4.2-2,9.2-4.9,13.7-5.8c2,1.4,2,1.4,4.2,3.6c5.9,7.5,11.8,15,17.8,22.5c5.9-7.7,11.4-15.3,18.6-21.9
			c1.7-3.9,3-4.6,7.4-4.2c3.7,2.3,17.4,7.3,8.8,12.2c-0.1,8.1-0.2,16.3-0.2,24.5c0.2,3.8,0.3,7.6,0.6,11.5c1.1,2.9,1.6,4.6-0.2,7.4
			c-1.9,1-3.7,2.2-5.5,3.3C291.2,134.3,286.7,136.7,285.2,131.4L285.2,131.4z"/>
		<path class="st3" d="M339.3,134.1c-1-1-1.4-1.4-1.6-2.7c0.4-0.1,0.9-0.2,1.4-0.3c1.2-3.2,0.9-6.7,1-10.1c-3.6-0.2-4.5,0.3-6.3-2.3
			c-13.5-8.2-19-17.3-19.5-33.3c-0.4-1.3-0.4-1.3-1.7-3.1c2.5-2.1,6.8-4.6,10.1-5c1,0.6,2.1,1.2,3.1,1.8c4.6-0.1,9.2-0.2,13.9-0.3
			c0.4-3,0.8-6,0.9-9c-1.7-3.9-1.7-3.9-1.8-4.9c1.3,0,2.6,0,3.9,0c0.6-0.6,2-0.2,2.9-0.1c0.9,3.7-0.3,9.9-0.6,13.8
			c4.6,0.3,9.3,0.6,14,1c2.7-2.7,11.1,1.6,11.8,5.2c-3.5,6.4-2.9,15.2-4.3,22.5c-3.5,7-16.3,6.3-19.9,12.3c-0.9,0.3-1.7,0.7-2.6,1
			c0,3.5,2,10.4,0.4,13C343.1,134,343.1,134,339.3,134.1L339.3,134.1z M343.6,115.8c-0.5-11.4,0.1-23.4,0.7-34.8
			c4.6,0.2,9.3,1.1,13.8,2c5.2,3.9,2,19.5,0.5,24.5C354.3,111.9,349.4,114.6,343.6,115.8L343.6,115.8z M338.7,114.2
			c-10-7-15.3-16.6-16-28.8c1.3-4.3,2.8-2.8,6.3-2.2c1.2-0.4,1.2-0.4,4.7-2.6c1.8-0.1,3.6-0.1,5.5-0.1c-0.1,11.3-0.8,22.4-0.1,33.6
			C339.1,114.2,338.9,114.2,338.7,114.2L338.7,114.2z"/>
		<path class="st2" d="M475.6,97.4c-3.6,0-7.3,0-10.9,0c-3.6,0.4-5,3.6-9.3,2.3c-0.5-0.4-1-0.8-1.5-1.1c-9.4-13.7-9.4-13.7-9.7-14.7
			c0.2-1,0.3-1.8,0.5-2.7c3.9-2.3,6.7-5.3,11.4-3.6c4.9-1,10.2-2.7,15.2-3.2c5.8-4.2,11.4,0,16.6,2.9c4.6,1.2,7.9,4.3,2.8,8
			c-2-0.3-3.9-0.4-5.8-0.6c-8,1.2-14.7,0.5-22.7,0.7c1.4,2.3,1.4,2.3,2.6,3.5c0,0.1,0,0.2,0,0.3c4.9,0,10,0,15,0c0-0.2,0-0.3,0-0.3
			c5.6-2.3,7.5-1.6,11.9,2.5c3,1.6,4.9,2.7,4.9,6.3c-1.5,2.3-1.5,2.3-6.6,12.8c-6.9,10.9-16.6,26.4-32.2,22.6
			c-0.7-0.5-1.4-1-2.1-1.4c-2.5-5.7-11-6.7-11.5-12.9c2.9-8.8,13.7,0.5,17.7,3c8.2,0.3,11.9-15.1,13.7-20.6c0.6-3.1,0.6-3.1,0.4-3.7
			C475.8,97.4,475.7,97.4,475.6,97.4L475.6,97.4z"/>
		<path class="st3" d="M241.4,87.6c-0.2,2.3-0.3,4.5-0.3,6.8c0,4.7,0,9.4,0,14c0,3,0.1,6.1,0.2,9.2c-0.1,1.1-0.2,2.3-0.3,3.5
			c-0.5,0-1,0-1.5,0.1c-2.3-4.6-6.9-4.7-3.2-10.1c0.9-4.7,1-9.5,1.4-14.2c0.3,0,0.3-6.8,0-6.8c-0.3-4.2-0.7-7.3-3.6-10.5
			c8.8-3.9,6.5-5.1,12.8,1.6c5.8,7.5,11.6,14.9,17.5,22.4c0.2,0,0.3,0,0.6,0c6.6-9.1,13.1-18.3,21.8-25.6c0.3-0.8,0.3-0.8-0.1-1.3
			c1-1,1.4-0.9,2.9-1c4.4,2.9,4.4,2.9,9.5,5.5c0,0.3,0,0.7,0,1c-0.9,0.3-1.7,0.7-2.6,1c-0.1,0.4-0.2,0.9-0.3,1.3c-0.2,0-0.3,0-0.3,0
			c0,8,0,16,0,24c0.1,0,0.2,0,0.3,0c0.3,10.1,0.3,10.1,0.6,13c1.2,3.1,1.2,3.1,1.2,4.2c-0.7,1-8.6,7-9.9,5.7c0-16.6,0-33.1,0-49.7
			c-0.2-0.3-0.3-0.7-0.4-1c-0.3-0.1-0.6-0.1-0.9-0.1c-4.9,4.2-9.2,10.1-13.4,15.3c-5.6,8.1-5.6,8.1-6.6,10.1c0.3,1.6,2,2.7,2.7,4.2
			c-1.7,0.5-6.3,2.9-7.8,2.1c-19.1-24.5-19.1-24.5-19.8-24.9C241.8,87.5,241.6,87.5,241.4,87.6L241.4,87.6z"/>
		<path class="st2" d="M619.3,96.4c-0.1-3.6-0.2-7.3-0.2-10.9c-4.3-1-4-5-1-7.2c4.5-1,14-9.8,16.9-2.4c0.7,0,3.5-0.7,3.9-1.1
			c4.4,0.1,8.9,0.2,13.4,0.3c2.3-0.7,3.9-1.1,6.2-1.1c2.3,1.6,4.7,4.2,6.9,6.1c0,3.4-2.5,6-3.8,8.9c-0.3,1.3-0.6,2.7-0.9,4.1
			c-2.3,0.6-5.6,1-7.2,2.7c0.6,0.3,0.6,0.3,1.8,2.4c2.1,6.8,8.8,14.2,14.1,18.7c1.5,2.9,6.9,3.5,8.8,6.4c-0.1,1-0.1,2.1-0.1,3.1
			c-0.9,0-1.1,0.9-1.9,1.3c-3.9,0.8-6.9,3.6-10.7,4c-4.2-1.3-6.7-4.9-9.2-8.1c-11.5-18.7-11.5-18.7-11.7-19.6c-1.2,0-3.3-3.8-4-4.8
			c-2.5-1.7-6.8-1.6-8.2,1.5c-0.1,6.9-0.2,13.9-0.3,20.9c-4.1,7.2-8.7-0.9-12.9-3.3c-3.2-3.2-2.5-5.2-0.8-9.1
			C619,104.9,619.2,100.7,619.3,96.4L619.3,96.4z M631.8,91.6c0-3.6,2.8-7.5,6.2-8.7c3.3,1.4,5.3,0,8.4-0.6c1.3-0.1,2.6-0.1,3.9-0.1
			c0,2-0.9,2.9-1.8,4.6C643.1,88.3,637.1,90.3,631.8,91.6L631.8,91.6z"/>
		<path class="st3" d="M471.3,94.5c-2.3,0-4.6,0-6.8,0c-2.5,0.3-4.2,1.3-6.2,2.9c-0.7-0.3-1.4-0.4-2.1-0.6
			c-1.2-1.9-9.1-12.1-8.6-13.9c1.7-1.1,3.5-2.2,5.2-3.2c2.6,0,4,1.2,6.5,0c5.2-0.3,11.9-2.5,16.7-4.5c3.8,0.3,6.9,2.6,10.3,4.5
			c3.8,1.4,3.8,1.4,4.1,1.7c-0.1,0.2-0.2,0.4-0.3,0.7c-4.2-0.2-8,0.2-12.2,0.8c-6.2,0.2-14.3-1.7-19.8,0.3c0.6,3.5,3.2,6,5.4,8.6
			c5.4,0,10.7,0,16.2,0c4.6-0.7,4.9-3.1,8.8,0.9c1.6,1,3.1,2.1,4.8,3.1c0,0.3,0.1,0.7,0.2,1c-5.6,9.4-18,40.3-35.4,33.4
			c-1.4-5-10-6.4-11.1-10.9c2.7-4.1,10,3.1,12.4,4.8c8.8,2.9,12-5.2,15.2-11.8c1.7-4.9,3.8-9.6,4.4-14.7
			C477.8,93.7,474.7,94.5,471.3,94.5L471.3,94.5z"/>
		<path class="st3" d="M629.7,103.8c-0.3,0-0.3,11.2,0,11.2c-0.1,2.1-0.2,4.2-0.3,6.2c-0.4,0.3-0.8,0.5-1.1,0.8
			c-1.6-1.5-3-2.9-4.5-4.2c-4.9-3-3.6-3.6-2.1-8.5c0.3-4,0.3-4,0.4-24.9c-1-1.3-1.5-1.3-3-1.8c-0.2-0.4-0.3-0.8-0.3-1.1
			c0.2-0.3,0.4-0.4,0.7-0.6c4.3-0.5,8.8-6.5,12.7-4.5c0,0.3,0,0.6,0,1c-2.5,1.2-2.3,3-2.5,5.5c3.3-2.3,5.8-3.9,9.8-5.1
			c9.6,0.2,9.6,0.2,14-0.1c4.5-1.6,5.6,0.3,8.9,3.5c0,2.3-2.2,4.5-3.4,6.3c-0.3,1-0.5,2-0.7,3c-4,3-10.5,3.5-15.3,3.3
			c0.9,1.7,6.9,3.6,9,4.3c6.2,10.1,12.2,20.5,23.3,26c0,0.3,0,0.5,0,0.9c-2.8,0.9-5.8,1.6-7.9,3.6c-5,0-8.4-6.7-10.9-10.4
			c-4.5-7.6-8.9-16.3-15.6-22.4c-3.9-1.6-10.1,0.3-11.3,4.5C629.7,101.4,629.7,102.6,629.7,103.8L629.7,103.8z M628.7,95.5
			c0-8.3,1.8-10.5,8.3-15.7c3.3,0,2.9,1.9,6.7,0c5.9-0.2,11.3-1.9,9,6.1c-1.5,2.3-1.5,2.3-2.3,3.1C643.8,91.6,635.7,93.7,628.7,95.5
			L628.7,95.5z"/>
		<path class="st2" d="M392.6,91.7c0,2.2,0.1,4.4,0.2,6.7c-0.1,7.7-0.1,15.4-0.1,23.2c-2.5,4-6,3.1-7.9-0.8c-4.8-4.2-4-6-2-11.6
			c0-7.1,1.5-19.5-1-26.9c-5.5-3.1-5.5-3.1-5.5-3.5c4.5-1.5,10.1-2.9,13.5-6.2c0.3-0.1,0.5-0.1,0.9-0.1
			c10.4,7.9,20.9,15.8,31.4,23.8c0.1-0.7,0.2-1.3,0.3-1.9c0-4.6,0-9.2,0-13.8c0-4.2,0-8.2,0-12.3c-2.1-3.7-2.3-6,2.1-7.4
			c4,1,15.2,6.7,8.2,11.1c0,8.2,0,16.3,0,24.5c0,5.4-0.4,9.6,0,15c2.2,6.5,0,7-4.2,12.3c-7.5,2.3-5.6-6.1-5.6-10.7
			c-2.8-2.3-5.6-4.7-8.2-6.9c-21.2-16-21.2-16-21.9-16.2C392.6,90.5,392.6,91.1,392.6,91.7L392.6,91.7z"/>
		<path class="st2" d="M566.8,91.9c-0.2-2.3-0.3-4.4-0.3-6.6c-6.2-3.5-2-8.2,4.1-8.2c4.2-2.6,9.1-6.6,12.7-1.2c1,0,1.9,0,2.9,0
			c2.3,0,4.5,0,6.8,0c6.4,0.3,10-1.8,14.9,3.1c1.4,3.1,2.1,6.3,2.4,9.6c-2.3,2.7-4.4,3.6-7.7,1.6c-3-5-4.6-6.2-10.1-6.8
			c-3,0-9-0.5-11.6,1.4c-0.2,2.4-0.3,4.9-0.4,7.4c3.5,0.1,7,0.2,10.6,0.3c3.4-2.6,5.4-3.1,8.6,0.4c0,4.4-2.9,14.2-8.6,8.6
			c-0.2-0.7-0.3-1.3-0.5-1.9c-3.3,0.3-6.5,0.5-9.7,0.8c-0.7,4.2-0.5,9.4,0.4,13.6c2,1,4.5,1,6.8,1.2c2.3,0,4.8,0,7.2,0
			c3-0.3,6.1-0.8,8.8-1.9c3.5-2.8,3.2-8.2,9-5c1.4,2.9,0.7,6,0.4,9.1c-1.8,3.2-5.8,7.9-9.9,4.9c-4.2,0.2-8.3,0.3-12.5,0.6
			c-2.3,0-4.6,0-6.9,0c-1.3,0-2.6,0-3.9,0.1c-3.2,3.6-6-0.2-9.2-1.8c-3.8-1.3-7.6-2.2-7.1-6.9C568.3,107.8,566.7,99.4,566.8,91.9
			L566.8,91.9z"/>
		<path class="st2" d="M527.2,75.7c5.9-0.1,11.8-0.2,17.8-0.2c5.1-1.1,7.5-2.3,11.4,2.2c0.9,4,3.4,9.3-1.8,11c-3.6,0-4.4-1-6.3-4.2
			c-4.2-2.3-9.8-1.8-14.4-1.3c-0.6,6.2-0.6,6.2-0.9,14.8c-0.1,2.9-0.1,5.9-0.1,8.9c-0.1,4.8-0.1,9.5-0.1,14.4
			c-1.4,3.7-5.8,3.2-8,0.6c-6.2-2.9-9.9-3.7-7.1-10.7c1.1-9.3,1.4-18.7,1.4-28.1c-7.7-0.4-11.4-1.3-15.6,5.3
			c-4.2,2.1-8.3,1.6-7.8-3.9c2.3-6.6,3.9-10.1,11.4-9.5C512.6,76.8,521.2,75.7,527.2,75.7L527.2,75.7z"/>
		<path class="st3" d="M386,107c0-3.2,0-6.4,0-9.6c-0.2-5.3,1-13.6-2.7-17.7c1.9-0.8,5.6-3.6,7.7-3.3c27.4,21,27.4,21,32.9,24.9
			c0.4,0.1,0.9,0.3,1.4,0.4c0-7.3,0.1-14.5,0.2-21.7c0-3.2,0.1-6.4,0.2-9.5c-0.3-2.8-1.6-3.9-2-6.1c2.4-1.6,6.2,2.6,8.4,3.9
			c-0.1,0.3-0.2,0.7-0.3,1c-1.5,0.3-1.4,0.6-2.3,1.6c0,6.2,0,12.5,0,18.7c0.1,7.6,0.2,15.3,0.3,22.9c1.2,4,1.2,5.5-2.9,8.7
			c-0.4,0-0.8,0-1.1,0.1c0.1-4.5,1.1-8.1-1.8-11.4c-10.7-8.3-21.7-16.7-32.7-24.6c-0.5-0.1-1-0.2-1.5-0.3c-0.2,0-0.3,0-0.4,0
			c0,3.3,0,6.6,0,10c0.1,0,0.2,0,0.3,0c0,8.6,0.1,17.3,0.2,25.9c-0.3,0.4-0.3,0.4-1.1,0.6C381.7,116.3,385.6,113.4,386,107L386,107z
			"/>
		<path class="st3" d="M569.7,100.2c0-2.9,0-5.6,0-8.4c-0.1-2.7-0.2-5.4-0.3-8.1c-0.3-1.1-1.8-1.1-2.8-1.3c-0.1-0.5-0.2-1-0.3-1.5
			c4.8-0.6,8.8-4.9,12.9-4.9c1.7,1.1,0,1.7-0.4,3c2.4-0.2,4.9-0.3,7.5-0.3c2.3,0,4.6,0,6.9,0c1.5,0.1,2.9,0.2,4.5,0.3
			c4.5-1,6.2-1,8.4,3.1c0.3,1.9,1.1,4.2,0.8,6.2c-0.7,0-1.3,0.1-1.9,0.2c-2.1-2.9-4-5-6.8-7c-5.7-0.6-14.3-2.3-19.5,0.9
			c-1.4,3.7-1.6,8.1-0.8,12.1c4,1.6,10.4,0.7,14.7,0.6c1-0.6,1-0.6,2.3-2c1.1,0.3,1.1,0.3,1.8,0.8c0,2-1.1,4.6-1.8,6.5
			c-0.5-0.1-1-0.2-1.4-0.3c-0.2-1.5-0.3-1.9-1.2-3c-4.2,0-10.1-0.4-13.9,1.4c-2.1,4.2-1.9,15,1.5,18.4c3.2,0.7,3.2,0.7,7.8,1.2
			c2.2,0,4.3,0,6.5,0c6.9-0.6,12.4-0.8,15.3-7.7c0.7-0.3,0.7-0.3,1.3-0.1c-0.1,4.5,0.2,8.9-4.8,10.3c-2.3-2.3-10.8-0.6-14-0.4
			c-2.7,0-5.4,0-8.1,0c-3.5-0.2-3.8-0.5-5.5-0.3c-0.1,1.1-0.1,1.1-0.5,1.7c-0.4,0-0.8,0-1.1,0.1c-2.2-2.9-6.8-3.3-9.9-5.3
			c0-2.1,1.3-2.8,2.1-4.4C569.2,107.9,569.5,104,569.7,100.2L569.7,100.2z"/>
		<path class="st3" d="M522,93.3c0-3,0-6.1,0-9c-0.2-1.6-0.1-2.9-1.6-3.7c-9-0.3-13.9-1.7-19.2,6.1c-2.3,0.3-2.3,0.3-2.9,0
			c1.7-6.5,2.9-10.9,10.4-8.2c4.2-0.1,8.3-0.1,12.5-0.1c7.9,0,15.8,0,23.7,0c4-0.4,5.8-2.4,8.8,0.5c0.3,2.2,0.7,4.4,1,6.7
			c-0.4,0.3-0.4,0.3-1.9,0.4c-0.8-0.7-0.8-0.7-2.3-3.1c-4.1-2.8-15.9-4.8-19.5-1.1c-0.8,7.5-0.9,15.2-1,22.7c-0.3,0-0.3,10.3,0,10.3
			c-0.1,2.1-0.2,4.2-0.2,6.3c-1.3,1-3.1-1.1-3.9-1.8c-4.9-2.1-7.8-2.4-5.1-7.8C521.4,105.1,521.4,105.1,522,93.3L522,93.3z"/>
		<path class="st4" d="M629.7,103.8c0,3.7,0,7.5,0,11.2C629.5,115,629.5,103.8,629.7,103.8L629.7,103.8z"/>
		<path class="st5" d="M389.7,85.1c-0.1,3.3-0.1,6.6-0.1,10c-0.2,0-0.3,0-0.3,0c0-3.4,0-6.7,0-10C389.4,85.1,389.5,85.1,389.7,85.1
			L389.7,85.1z"/>
	</g>
	<path class="st6" d="M327.8,179.2V175h-19.4v-5.5h11.2v-3.8h-11.2v-5h19.1v-3.8h-24.8v22.3H327.8L327.8,179.2z M361.3,179.2
		L361.3,179.2c0-4.2,0-8.4,0-12.6c0-0.4,0-1.1-0.1-1.5c0-0.4-0.1-0.9-0.1-1.5c0.5,0.5,1.1,1.1,1.6,1.5c6,4.7,12.1,9.4,18.2,14.2h3.8
		v-22.3h-5.1v11.7c0,0.2,0,0.4,0,0.7c0,0.2,0,0.3,0,0.5c0,0.2,0,0.3,0,0.7c0,0.4,0.1,1.2,0.1,2c-0.9-1-1.8-1.7-2.7-2.4l-17-13.2
		h-3.8v22.3H361.3L361.3,179.2z M440,179.2L440,179.2V175h-19.4v-5.5h11.2v-3.8h-11.2v-5h19.1v-3.8H415v22.3H440L440,179.2z
		 M487.7,160.8L487.7,160.8c0.3,0,0.5,0.1,0.6,0.1c0.4,0.1,0.6,0.4,0.7,0.7c0.1,0.2,0.2,0.6,0.2,0.9v2.7c0,0.5,0,1-0.5,1.4
		c-0.1,0.1-0.2,0.1-0.4,0.2c-0.4,0.1-1,0.2-1.6,0.2H474v-6.2h12.7C487,160.7,487.4,160.8,487.7,160.8L487.7,160.8z M474,179.2
		L474,179.2v-8.4h5.3l9.8,8.4h8.1l-11.2-8.4h3.2c0.7,0,1.4-0.1,1.9-0.1c0.6-0.1,1-0.2,1.4-0.4c0.4-0.1,0.6-0.3,0.9-0.5
		c0.3-0.2,0.5-0.5,0.7-0.8c0.2-0.3,0.3-0.6,0.4-1.1c0.1-0.4,0.2-0.9,0.2-1.5v-5.3c0-0.5-0.1-1-0.2-1.5c-0.1-0.4-0.3-0.8-0.5-1.1
		c-0.2-0.3-0.4-0.5-0.7-0.7c-0.3-0.2-0.5-0.4-0.9-0.5c-0.4-0.1-0.8-0.3-1.3-0.4c-0.6-0.1-1.3-0.1-1.9-0.1h-20.7v22.3H474L474,179.2z
		 M547.2,163.4L547.2,163.4l5.5-0.9v-0.5c0-0.5,0-1.1-0.1-1.5c-0.1-0.5-0.2-0.8-0.3-1.1c-0.1-0.3-0.2-0.6-0.4-0.8
		c-0.1-0.2-0.3-0.4-0.5-0.5c-0.2-0.2-0.4-0.3-0.6-0.4c-0.2-0.1-0.5-0.2-0.9-0.3c-0.4-0.1-0.8-0.2-1.4-0.3c-0.6-0.1-1.2-0.1-1.9-0.1
		H530c-0.7,0-1.4,0-2,0.1c-0.6,0.1-1,0.2-1.4,0.3c-0.4,0.1-0.6,0.2-0.9,0.3c-0.4,0.2-0.7,0.5-1,1c-0.1,0.2-0.3,0.5-0.4,0.8
		c-0.1,0.3-0.2,0.7-0.3,1.2c-0.1,0.5-0.1,1.1-0.1,1.6v11.8c0,0.6,0,1.2,0.1,1.7c0.1,0.5,0.2,0.9,0.3,1.2c0.1,0.3,0.2,0.6,0.4,0.8
		c0.1,0.2,0.3,0.4,0.5,0.5c0.2,0.2,0.3,0.3,0.6,0.4c0.2,0.1,0.5,0.2,0.9,0.3c0.4,0.1,0.8,0.2,1.4,0.3c0.6,0.1,1.3,0.1,2,0.1h16.7
		c0.7,0,1.4,0,2-0.1c0.6-0.1,1-0.2,1.4-0.3c0.4-0.1,0.6-0.2,0.9-0.3c0.4-0.2,0.7-0.5,1-0.9c0.1-0.2,0.3-0.5,0.4-0.8
		c0.1-0.3,0.2-0.7,0.3-1.2c0.1-0.5,0.1-1.1,0.1-1.7v-7.7H538v3.8h9.2v5h-17.6v-14.1h17.6V163.4L547.2,163.4z M595.4,179.2
		L595.4,179.2v-10.1l12.5-12.2h-6.6l-8.3,8.6l-8.3-8.6h-7.5l12.6,12.3v10H595.4L595.4,179.2z"/>
</g>
</svg>
