<?xml version="1.0" encoding="utf-8"?>
<!-- Generator: Adobe Illustrator 23.0.3, SVG Export Plug-In . SVG Version: 6.00 Build 0)  -->
<svg version="1.1" id="NVIDIA_Logo_V" xmlns="http://www.w3.org/2000/svg" xmlns:xlink="http://www.w3.org/1999/xlink" x="0px"
	 y="0px" viewBox="0 0 974.7 179.7" style="enable-background:new 0 0 974.7 179.7;" xml:space="preserve">
<style type="text/css">
	.st0{fill:#74B71B;}
</style>
<path id="Reg_1_" d="M962.1,144.1v-2.7h1.7c0.9,0,2.2,0.1,2.2,1.2c0,1.2-0.7,1.5-1.8,1.5H962.1 M962.1,146h1.2l2.7,4.7h2.9l-3-4.9
	c1.5-0.1,2.8-0.8,2.8-2.9c0-2.6-1.8-3.4-4.8-3.4h-4.3v11.2h2.5V146 M974.7,145.1c0-6.6-5.1-10.4-10.8-10.4
	c-5.7,0-10.8,3.8-10.8,10.4c0,6.6,5.1,10.4,10.8,10.4C969.6,155.5,974.7,151.7,974.7,145.1 M971.6,145.1c0,4.8-3.5,8-7.7,8v0
	c-4.3,0-7.7-3.2-7.7-8c0-4.8,3.5-8,7.7-8C968.1,137.2,971.6,140.4,971.6,145.1z"/>
<path id="NVIDIA_3_" d="M578.2,34l0,118h33.3V34L578.2,34z M316.2,33.8v118.1h33.6V60.2l26.2,0.1c8.6,0,14.6,2.1,18.7,6.5
	c5.3,5.6,7.4,14.7,7.4,31.2v53.9h32.6V86.7c0-46.6-29.7-52.9-58.7-52.9H316.2z M631.9,34v118h54c28.8,0,38.2-4.8,48.3-15.5
	c7.2-7.5,11.8-24.1,11.8-42.2c0-16.6-3.9-31.4-10.8-40.6C723,37.2,705.2,34,678.6,34H631.9z M664.9,59.6h14.3
	c20.8,0,34.2,9.3,34.2,33.5c0,24.2-13.4,33.5-34.2,33.5h-14.3V59.6z M530.2,34l-27.8,93.5L475.8,34l-36,0l38,118h48l38.3-118H530.2z
	 M761.6,151.9h33.3V34l-33.3,0L761.6,151.9z M855,34l-46.5,117.9h32.8l7.4-20.8h55.1l7,20.8h35.7L899.5,34L855,34z M876.6,55.5
	l20.2,55.2h-41L876.6,55.5z"/>
<path id="Eye_Mark_1_" class="st0" d="M101.3,53.6V37.4c1.6-0.1,3.2-0.2,4.8-0.2c44.4-1.4,73.5,38.1,73.5,38.1S148.2,119,114.5,119
	c-4.9,0-9.2-0.8-13.1-2.1V67.7c17.3,2.1,20.8,9.7,31.2,27l23.1-19.5c0,0-16.9-22.1-45.3-22.1C107.2,53.1,104.2,53.3,101.3,53.6
	 M101.3,0v24.2c1.6-0.1,3.2-0.2,4.8-0.3c61.7-2.1,102,50.6,102,50.6s-46.2,56.2-94.3,56.2c-4.4,0-8.5-0.4-12.4-1.1v15
	c3.3,0.4,6.8,0.7,10.3,0.7c44.8,0,77.2-22.9,108.6-49.9c5.2,4.2,26.5,14.3,30.9,18.7c-29.8,25-99.3,45.1-138.7,45.1
	c-3.8,0-7.4-0.2-11-0.6v21.1h170.3V0H101.3z M101.3,116.9v12.8c-41.4-7.4-52.9-50.5-52.9-50.5s19.9-22,52.9-25.6v14c0,0,0,0-0.1,0
	c-17.3-2.1-30.9,14.1-30.9,14.1S78,109,101.3,116.9 M27.7,77.4c0,0,24.6-36.2,73.6-40V24.2C47,28.6,0,74.6,0,74.6
	s26.6,77,101.3,84.1v-14C46.5,137.8,27.7,77.4,27.7,77.4z"/>
</svg>
