<?xml version="1.0" encoding="utf-8"?>
<svg version="1.1" id="Layer_1" xmlns="http://www.w3.org/2000/svg" xmlns:xlink="http://www.w3.org/1999/xlink" x="0px" y="0px"
	 viewBox="0 0 682.7 682.7" style="enable-background:new 0 0 682.7 682.7;" xml:space="preserve">
<path d="M507.3,54.1H175.5L9.7,341.3l165.8,287.2h331.7L673,341.3L507.3,54.1z M388,208.1l52.7,52.7c2.9,2.9,2.9,7.4,0,10.3
	l-95.4,95.4c-2.9,2.9-7.4,2.9-10.3,0l-52.7-52.7c-2.9-2.9-2.9-7.4,0-10.3l95.4-95.4C380.6,205.2,385.3,205.2,388,208.1z
	 M306.6,405.5l-53.7,53.7c-2.9,2.9-7.4,2.9-10.3,0l-52.7-52.7c-2.9-2.9-2.9-7.4,0-10.3l53.7-53.7c2.9-2.9,7.4-2.9,10.3,0l52.7,52.7
	C309.3,398.1,309.3,402.6,306.6,405.5z M145.8,251l136.4-136.4c2.9-2.9,7.4-2.9,10.3,0l52.9,52.7c2.9,2.9,2.9,7.4,0,10.3L209,314
	c-2.9,2.9-7.4,2.9-10.3,0l-52.7-52.7C143,258.4,143,253.9,145.8,251z M101,411.6l-16.8-16.8l-30.1-52l46.9-46.9
	c2.9-2.9,7.4-2.9,10.3,0l52.7,52.7c2.9,2.9,2.9,7.4,0,10.3l-52.7,52.7C108.4,414.4,103.9,414.4,101,411.6z M212.7,499.4l-43.2,43.2
	l-46.1-79.8l26.2-26.2c2.9-2.9,7.4-2.9,10.3,0l52.7,52.7C215.4,492,215.4,496.5,212.7,499.4z M338.4,562.6l-28.1,28.3h-59.5
	l-28.1-28.1c-2.9-2.9-2.9-7.4,0-10.3l52.7-52.7c2.9-2.9,7.4-2.9,10.3,0l52.7,52.7C341.3,555.2,341.3,559.9,338.4,562.6z
	 M317.6,467.7c-2.9-2.9-2.9-7.4,0-10.3L470,305c2.9-2.9,7.4-2.9,10.3,0l52.7,52.7c2.9,2.9,2.9,7.4,0,10.3L380.6,520.4
	c-2.9,2.9-7.4,2.9-10.3,0L317.6,467.7z M485.3,590.9h-112l189.3-189.3c2.9-2.9,7.4-2.9,10.3,0l13.9,13.9L485.3,590.9z"/>
</svg>
