<?xml version="1.0" encoding="utf-8"?>
<svg version="1.1" id="svg3041"
  xmlns:cc="http://creativecommons.org/ns#"
  xmlns:dc="http://purl.org/dc/elements/1.1/"
  xmlns:rdf="http://www.w3.org/1999/02/22-rdf-syntax-ns#"
  xmlns:svg="http://www.w3.org/2000/svg"
  xmlns="http://www.w3.org/2000/svg"
  xmlns:xlink="http://www.w3.org/1999/xlink" x="0px" y="0px" viewBox="0 0 236 236" style="enable-background:new 0 0 236 236;" xml:space="preserve">
  <style type="text/css">
	.st0{fill:#FA9C1E;}
	.st1{fill:#EEEEEE;}
  </style>
  <path id="path3961" class="st0" d="M116.7,0C90.4,0.2,64.5,9.5,44.1,26l22.3,25.9C85.2,37,110.5,31,134,35.7
	c12.9,2.5,25.2,8.2,35.6,16.2L191.9,26C170.8,9,143.9-0.4,116.7,0z"/>
  <path id="path4052" class="st1" d="M36.8,32.4C13.3,54.4-0.4,86.5,0,118.8c0,33.6,15.3,66.6,40.8,88.4c23.5,20.6,55.5,31,86.7,28.4
	c33.8-2.5,65.9-20.6,85.8-48c19.3-26.1,26.9-60.5,20.5-92.4c-4.7-24.4-17.5-47.1-35.7-63.9l-22.3,25.9c18,16.9,27.8,41.9,25.9,66.6
	c-0.8,12.2-4.4,24.3-10.4,35l-45.4-43.9L123,65.5v74.8l45.9,44.4c-20.5,15.9-48.5,21.2-73.4,14.1c-10.1-2.8-19.7-7.6-28-13.9
	l46.2-44.6c-0.1-24.3,0.3-50.6,0-74.9l-22.9,49.5L45,159.1c-14-24.4-14.3-55.9-0.9-80.6c4.2-7.9,9.8-15.1,16.2-21.3L37.9,31.3
	C37.6,31.7,37.2,32,36.8,32.4z"/>
</svg>
