<?xml version="1.0" encoding="utf-8"?>
<svg version="1.1" id="svg3041"
  xmlns:cc="http://creativecommons.org/ns#"
  xmlns:dc="http://purl.org/dc/elements/1.1/"
  xmlns:rdf="http://www.w3.org/1999/02/22-rdf-syntax-ns#"
  xmlns:svg="http://www.w3.org/2000/svg"
  xmlns="http://www.w3.org/2000/svg"
  xmlns:xlink="http://www.w3.org/1999/xlink" x="0px" y="0px" viewBox="0 0 1526.1 236" style="enable-background:new 0 0 1526.1 236;" xml:space="preserve">
  <style type="text/css">
	.st0{fill:#EEEEEE;}
	.st1{fill:#FA9C1E;}
  </style>
  <g>
    <path id="rect3776" class="st0" d="M323.2,68.3c-14.9,0-26.9,9.2-26.9,20.7v62c0,7.7,5.5,14.4,13.6,18l22.4-22.4v-3.1V96.2h64.3
		v47.3h-46.8l-28.1,28.1c0.5,0,1,0,1.5,0h81.7c14.9,0,26.9-9.2,26.9-20.7V95.3l-15.9-25.2c-3.4-1.2-7.1-1.8-11-1.8
		C404.9,68.3,323.2,68.3,323.2,68.3z"/>
    <path id="rect3776-0" class="st0" d="M1277.9,68.3c-1.4,0-2.7,0.1-4,0.2L1251,103v48c0,11.5,12,20.7,26.9,20.7h74.4
		c14.9,0,26.9-9.2,26.9-20.7v-21.2h-35.9v13.7h-56.1V96.2h56.1V108h35.9V89c0-11.5-12-20.7-26.9-20.7L1277.9,68.3L1277.9,68.3z"/>
    <path id="path3863" class="st0" d="M427.6,68.3L493,171.7h12.9h12.9l65.3-103.4h-39.8l-38.4,61.5l-38.4-61.5H427.6L427.6,68.3z"/>
    <path id="rect3885" class="st0" d="M598.2,68.3l-16.8,26.7v76.7h109.1v-28.2h-24.2h-49.6v-11.8h49.6V108h-49.6V96.2h73.8V68.3
		H598.2L598.2,68.3z"/>
    <path id="rect3950" class="st0" d="M704.3,68.3v18.6v26.7v58.1H740v-28.2v-11.3v-36h15.1h39.1v15.3h-39.1v20.7l43.3,39.5h48.1
		l-43.3-39.5h4c11.9,0,21.5-8.3,21.5-18.6V86.9c0-10.3-9.6-18.6-21.5-18.6H740h-14.2H704.3L704.3,68.3z"/>
    <path id="path3863-2" class="st0" d="M989.3,171.7l68.4-103.4h13.5h13.5l68.4,103.4h-41.7l-40.2-61.5l-40.2,61.5H989.3z"/>
    <path id="path3982" class="st0" d="M834.6,68.3l45.3,103.4h22.5l23.6-51l22.5,51h24.6l45.4-103.4h-35.2L961.8,120L939,68.3h-12.9
		h-10.6L892.7,120L871,68.3H834.6L834.6,68.3z"/>
    <path id="rect4003" class="st0" d="M1125,68.3v27.9h44.4v75.5h35.3V96.2h35.1l18.5-27.9H1125L1125,68.3z"/>
    <path id="rect4024" class="st0" d="M1392.9,68.3v103.4h36.3V132h61.3v39.7h35.7V68.3h-35.7v36.3h-61.3V68.3H1392.9z"/>
    <path id="path4072" class="st1" d="M477.1,68.3l28.7-42.4l28.7,42.4h-28.7H477.1z"/>
    <path id="path4072-1" class="st1" d="M1042.5,171.7l28.7,42.4l28.7-42.4h-28.7H1042.5z"/>
  </g>
  <path id="path3961" class="st1" d="M116.7,0C90.4,0.2,64.5,9.5,44.1,26l22.3,25.9C85.2,37,110.5,31,134,35.7
	c12.9,2.5,25.2,8.2,35.6,16.2L191.9,26C170.8,9,143.9-0.4,116.7,0z"/>
  <path id="path4052" class="st0" d="M36.8,32.4C13.3,54.4-0.4,86.5,0,118.8c0,33.6,15.3,66.6,40.8,88.4c23.5,20.6,55.5,31,86.7,28.4
	c33.8-2.5,65.9-20.6,85.8-48c19.3-26.1,26.9-60.5,20.5-92.4c-4.7-24.4-17.5-47.1-35.7-63.9l-22.3,25.9c18,16.9,27.8,41.9,25.9,66.6
	c-0.8,12.2-4.4,24.3-10.4,35l-45.4-43.9L123,65.5l0,74.8l45.9,44.4c-20.5,15.9-48.5,21.2-73.4,14.1c-10.1-2.8-19.7-7.6-28-13.9
	l46.2-44.6c-0.1-24.3,0.3-50.6,0-74.9l-22.9,49.5l-45.8,44.2c-14-24.4-14.3-55.9-0.9-80.6c4.2-7.9,9.8-15.1,16.2-21.3L37.9,31.3
	C37.6,31.7,37.2,32,36.8,32.4z"/>
</svg>
