<?xml version="1.0" encoding="utf-8"?>
<!-- Generator: Adobe Illustrator 22.1.0, SVG Export Plug-In . SVG Version: 6.00 Build 0)  -->
<svg version="1.1" id="Layer_3" xmlns="http://www.w3.org/2000/svg" xmlns:xlink="http://www.w3.org/1999/xlink" x="0px" y="0px"
	 viewBox="0 0 56 65.2" style="enable-background:new 0 0 56 65.2;" xml:space="preserve">
<style type="text/css">
	.st0{opacity:3.000000e-02;}
	.st1{clip-path:url(#SVGID_2_);}
	.st2{fill:#EEEEEE;}
</style>
<g class="st0">
	<g>
		<g>
			<defs>
				<rect id="SVGID_1_" width="56" height="65.2"/>
			</defs>
			<clipPath id="SVGID_2_">
				<use xlink:href="#SVGID_1_"  style="overflow:visible;"/>
			</clipPath>
			<g class="st1">
				<path class="st2" d="M35.2,20.2H20.8l-7.2,12.4L20.8,45h14.3l7.2-12.4L35.2,20.2 M36.8,17.3l8.8,15.3l-8.8,15.3H19.2l-8.8-15.3
					l8.8-15.3H36.8L36.8,17.3z"/>
				<path class="st2" d="M35.2-12.4H20.8L13.7,0l7.2,12.4h14.3L42.3,0L35.2-12.4 M36.8-15.3L45.6,0l-8.8,15.3H19.2L10.4,0l8.8-15.3
					H36.8L36.8-15.3z"/>
				<path class="st2" d="M35.2,52.8H20.8l-7.2,12.4l7.2,12.4h14.3l7.2-12.4L35.2,52.8 M36.8,49.9l8.8,15.3l-8.8,15.3H19.2l-8.8-15.3
					l8.8-15.3L36.8,49.9L36.8,49.9z"/>
				<path class="st2" d="M63.2,36.5H48.8l-7.2,12.4l7.2,12.4h14.3l7.2-12.4L63.2,36.5 M64.8,33.6l8.8,15.3l-8.8,15.3H47.2l-8.8-15.3
					l8.8-15.3H64.8L64.8,33.6z"/>
				<path class="st2" d="M63.2,3.9H48.8l-7.2,12.4l7.2,12.4h14.3l7.2-12.4L63.2,3.9 M64.8,1l8.8,15.3l-8.8,15.3H47.2l-8.8-15.3
					L47.2,1H64.8L64.8,1z"/>
				<path class="st2" d="M7.2,36.5H-7.2l-7.2,12.4l7.2,12.4H7.2l7.2-12.4L7.2,36.5 M8.8,33.6l8.8,15.3L8.8,64.1H-8.8l-8.8-15.3
					l8.8-15.3L8.8,33.6L8.8,33.6z"/>
				<path class="st2" d="M7.2,3.9H-7.2l-7.2,12.4l7.2,12.4H7.2l7.2-12.4L7.2,3.9 M8.8,1l8.8,15.3L8.8,31.6H-8.8l-8.8-15.3L-8.8,1
					H8.8L8.8,1z"/>
			</g>
		</g>
	</g>
</g>
</svg>
