<?xml version="1.0" encoding="utf-8"?>
<!-- Generator: Adobe Illustrator 22.1.0, SVG Export Plug-In . SVG Version: 6.00 Build 0)  -->
<svg version="1.1" id="Layer_1" xmlns="http://www.w3.org/2000/svg" xmlns:xlink="http://www.w3.org/1999/xlink" x="0px" y="0px"
	 viewBox="0 0 504 250" style="enable-background:new 0 0 504 250;" xml:space="preserve">
<style type="text/css">
	.st0{fill:none;}
	.st1{fill:#699433;}
</style>
<g>
	<path class="st0" d="M396.5,113c-1.8,1.8-4.6,1.8-6.4,0l-12.3-12.3c-1.8-1.8-1.8-4.6,0-6.4L472.1,0h-35.8l5.4,5.4
		c1.8,1.8,1.8,4.6,0,6.4l-12.3,12.3c-1.8,1.8-4.6,1.8-6.4,0l-12.3-12.3c-1.8-1.8-1.8-4.6,0-6.4L416,0h-18.7l-3.7,3.7
		c-1.8,1.8-4.6,1.8-6.4,0L383.5,0H366c0,0,0.1,0.1,0.1,0.1l12.3,12.3c1.8,1.8,1.8,4.6,0,6.4l-12.3,12.3c-1.8,1.8-4.6,1.8-6.4,0
		l-12.3-12.3c-1.8-1.8-1.8-4.6,0-6.4l12.3-12.3c0,0,0.1-0.1,0.1-0.1h-19.2c-0.2,0.5-0.5,1-0.9,1.4l-12.3,12.3
		c-1.8,1.8-4.6,1.8-6.4,0L308.7,1.4c-0.4-0.4-0.7-0.9-1-1.4h-42.9l6.9,6.9c1.8,1.8,1.8,4.6,0,6.4l-12.3,12.3c-1.8,1.8-4.6,1.8-6.4,0
		l-12.3-12.3c-1.8-1.8-1.8-4.6,0-6.4l6.9-6.9H0v250h504V5.5L396.5,113z M383.1,32.9l12.3-12.3c1.8-1.8,4.6-1.8,6.4,0l12.3,12.3
		c1.8,1.8,1.8,4.6,0,6.4l-12.3,12.3c-1.8,1.8-4.6,1.8-6.4,0l-12.3-12.3C381.4,37.5,381.4,34.6,383.1,32.9z M355.7,60.3L368,48
		c1.8-1.8,4.6-1.8,6.4,0l12.3,12.3c1.8,1.8,1.8,4.6,0,6.4L374.3,79c-1.8,1.8-4.6,1.8-6.4,0l-12.3-12.3
		C353.9,64.9,353.9,62.1,355.7,60.3z M292.5,73.8c-1.8-1.8-1.8-4.6,0-6.4l12.3-12.3c1.8-1.8,4.6-1.8,6.4,0l12.3,12.3
		c1.8,1.8,1.8,4.6,0,6.4l-12.3,12.3c-1.8,1.8-4.6,1.8-6.4,0L292.5,73.8z M296,101.2l-12.3,12.3c-1.8,1.8-4.6,1.8-6.4,0L265,101.2
		c-1.8-1.8-1.8-4.6,0-6.4l12.3-12.3c1.8-1.8,4.6-1.8,6.4,0L296,94.9C297.8,96.6,297.8,99.5,296,101.2z M300.7,115.3l12.3-12.3
		c1.8-1.8,4.6-1.8,6.4,0l12.3,12.3c1.8,1.8,1.8,4.6,0,6.4L319.4,134c-1.8,1.8-4.6,1.8-6.4,0l-12.3-12.3
		C298.9,119.9,298.9,117,300.7,115.3z M328.2,94.2c-1.8-1.8-1.8-4.6,0-6.4l12.3-12.3c1.8-1.8,4.6-1.8,6.4,0l12.3,12.3
		c1.8,1.8,1.8,4.6,0,6.4l-12.3,12.3c-1.8,1.8-4.6,1.8-6.4,0L328.2,94.2z M319.9,39.9l12.3-12.3c1.8-1.8,4.6-1.8,6.4,0L351,39.9
		c1.8,1.8,1.8,4.6,0,6.4l-12.3,12.3c-1.8,1.8-4.6,1.8-6.4,0l-12.3-12.3C318.2,44.5,318.2,41.7,319.9,39.9z M281.2,22.5l12.3-12.3
		c1.8-1.8,4.6-1.8,6.4,0l12.3,12.3c1.8,1.8,1.8,4.6,0,6.4l-12.3,12.3c-1.8,1.8-4.6,1.8-6.4,0l-12.3-12.3
		C279.5,27.1,279.5,24.3,281.2,22.5z M253.8,50l12.3-12.3c1.8-1.8,4.6-1.8,6.4,0L284.8,50c1.8,1.8,1.8,4.6,0,6.4l-12.3,12.3
		c-1.8,1.8-4.6,1.8-6.4,0l-12.3-12.3C252,54.6,252,51.8,253.8,50z M257.3,83.8L245,96.2c-1.8,1.8-4.6,1.8-6.4,0l-12.3-12.3
		c-1.8-1.8-1.8-4.6,0-6.4l12.3-12.3c1.8-1.8,4.6-1.8,6.4,0l12.3,12.3C259.1,79.2,259.1,82.1,257.3,83.8z M213.3,34.4l12.3-12.3
		c1.8-1.8,4.6-1.8,6.4,0l12.3,12.3c1.8,1.8,1.8,4.6,0,6.4L232,53.1c-1.8,1.8-4.6,1.8-6.4,0l-12.3-12.3
		C211.5,39,211.5,36.2,213.3,34.4z M185.8,61.9l12.3-12.3c1.8-1.8,4.6-1.8,6.4,0l12.3,12.3c1.8,1.8,1.8,4.6,0,6.4l-12.3,12.3
		c-1.8,1.8-4.6,1.8-6.4,0l-12.3-12.3C184,66.5,184,63.6,185.8,61.9z M170.6,108l-12.3-12.3c-1.8-1.8-1.8-4.6,0-6.4L170.7,77
		c1.8-1.8,4.6-1.8,6.4,0l12.3,12.3c1.8,1.8,1.8,4.6,0,6.4L177,108C175.3,109.8,172.4,109.8,170.6,108z M199.2,135.6l-12.3-12.3
		c-1.8-1.8-1.8-4.6,0-6.4l24.5-24.5c1.8-1.8,4.6-1.8,6.4,0l12.3,12.3c1.8,1.8,1.8,4.6,0,6.4l-24.5,24.5
		C203.8,137.4,200.9,137.4,199.2,135.6z M227.5,163.2L215.4,151c-1.8-1.8-1.8-4.6,0-6.4l34.8-34.8c1.8-1.8,4.6-1.8,6.4,0l12.2,12.2
		c1.8,1.8,1.8,4.6,0,6.4l-34.8,34.8C232.1,165,229.3,165,227.5,163.2z M255.8,191.2l-12.3-12.3c-1.8-1.8-1.8-4.6,0-6.4l41.9-41.9
		c1.8-1.8,4.6-1.8,6.4,0l12.3,12.3c1.8,1.8,1.8,4.6,0,6.4l-41.9,41.9C260.4,192.9,257.6,192.9,255.8,191.2z M314.2,195.3l-24.5,24.5
		c-1.8,1.8-4.6,1.8-6.4,0L271,207.5c-1.8-1.8-1.8-4.6,0-6.4l24.5-24.5c1.8-1.8,4.6-1.8,6.4,0l12.3,12.3
		C316,190.7,316,193.5,314.2,195.3z M345.3,164.2l-16,16c-1.8,1.8-4.6,1.8-6.4,0l-12.3-12.3c-1.8-1.8-1.8-4.6,0-6.4l16-16
		c1.8-1.8,4.6-1.8,6.4,0l12.3,12.3C347,159.6,347,162.4,345.3,164.2z M376,133.5l-16,16c-1.8,1.8-4.6,1.8-6.4,0l-12.3-12.3
		c-1.8-1.8-1.8-4.6,0-6.4l16-16c1.8-1.8,4.6-1.8,6.4,0l12.3,12.3C377.7,128.9,377.7,131.8,376,133.5z"/>
	<path class="st1" d="M393.6,3.7l3.7-3.7h-13.7l3.7,3.7C389,5.4,391.8,5.4,393.6,3.7z"/>
	<path class="st1" d="M347.4,12.5c-1.8,1.8-1.8,4.6,0,6.4l12.3,12.3c1.8,1.8,4.6,1.8,6.4,0l12.3-12.3c1.8-1.8,1.8-4.6,0-6.4
		L366.1,0.1c0,0-0.1-0.1-0.1-0.1h-6.1c0,0-0.1,0.1-0.1,0.1L347.4,12.5z"/>
	<path class="st1" d="M332.3,58.6c1.8,1.8,4.6,1.8,6.4,0L351,46.3c1.8-1.8,1.8-4.6,0-6.4l-12.3-12.3c-1.8-1.8-4.6-1.8-6.4,0
		l-12.3,12.3c-1.8,1.8-1.8,4.6,0,6.4L332.3,58.6z"/>
	<path class="st1" d="M311.2,86.1l12.3-12.3c1.8-1.8,1.8-4.6,0-6.4l-12.3-12.3c-1.8-1.8-4.6-1.8-6.4,0l-12.3,12.3
		c-1.8,1.8-1.8,4.6,0,6.4l12.3,12.3C306.6,87.9,309.4,87.9,311.2,86.1z"/>
	<path class="st1" d="M277.3,82.5L265,94.9c-1.8,1.8-1.8,4.6,0,6.4l12.3,12.3c1.8,1.8,4.6,1.8,6.4,0l12.3-12.3
		c1.8-1.8,1.8-4.6,0-6.4l-12.3-12.3C281.9,80.8,279.1,80.8,277.3,82.5z"/>
	<path class="st1" d="M268.7,122l-12.2-12.2c-1.8-1.8-4.6-1.8-6.4,0l-34.8,34.8c-1.8,1.8-1.8,4.6,0,6.4l12.2,12.2
		c1.8,1.8,4.6,1.8,6.4,0l34.8-34.8C270.5,126.6,270.5,123.8,268.7,122z"/>
	<path class="st1" d="M304.1,142.9l-12.3-12.3c-1.8-1.8-4.6-1.8-6.4,0l-41.9,41.9c-1.8,1.8-1.8,4.6,0,6.4l12.3,12.3
		c1.8,1.8,4.6,1.8,6.4,0l41.9-41.9C305.9,147.5,305.9,144.7,304.1,142.9z"/>
	<path class="st1" d="M410.6,11.8l12.3,12.3c1.8,1.8,4.6,1.8,6.4,0l12.3-12.3c1.8-1.8,1.8-4.6,0-6.4L436.3,0H416l-5.4,5.4
		C408.8,7.1,408.8,10,410.6,11.8z"/>
	<path class="st1" d="M395.5,51.6c1.8,1.8,4.6,1.8,6.4,0l12.3-12.3c1.8-1.8,1.8-4.6,0-6.4l-12.3-12.3c-1.8-1.8-4.6-1.8-6.4,0
		l-12.3,12.3c-1.8,1.8-1.8,4.6,0,6.4L395.5,51.6z"/>
	<path class="st1" d="M368,79c1.8,1.8,4.6,1.8,6.4,0l12.3-12.3c1.8-1.8,1.8-4.6,0-6.4L374.4,48c-1.8-1.8-4.6-1.8-6.4,0l-12.3,12.3
		c-1.8,1.8-1.8,4.6,0,6.4L368,79z"/>
	<path class="st1" d="M346.9,106.5l12.3-12.3c1.8-1.8,1.8-4.6,0-6.4l-12.3-12.3c-1.8-1.8-4.6-1.8-6.4,0l-12.3,12.3
		c-1.8,1.8-1.8,4.6,0,6.4l12.3,12.3C342.3,108.3,345.1,108.3,346.9,106.5z"/>
	<path class="st1" d="M313,134c1.8,1.8,4.6,1.8,6.4,0l12.3-12.3c1.8-1.8,1.8-4.6,0-6.4l-12.3-12.3c-1.8-1.8-4.6-1.8-6.4,0
		l-12.3,12.3c-1.8,1.8-1.8,4.6,0,6.4L313,134z"/>
	<path class="st1" d="M240.7,13.3l12.3,12.3c1.8,1.8,4.6,1.8,6.4,0l12.3-12.3c1.8-1.8,1.8-4.6,0-6.4L264.9,0h-17.2l-6.9,6.9
		C239,8.7,239,11.5,240.7,13.3z"/>
	<path class="st1" d="M225.6,53.1c1.8,1.8,4.6,1.8,6.4,0l12.3-12.3c1.8-1.8,1.8-4.6,0-6.4L232,22.1c-1.8-1.8-4.6-1.8-6.4,0
		l-12.3,12.3c-1.8,1.8-1.8,4.6,0,6.4L225.6,53.1z"/>
	<path class="st1" d="M198.1,80.6c1.8,1.8,4.6,1.8,6.4,0l12.3-12.3c1.8-1.8,1.8-4.6,0-6.4l-12.3-12.3c-1.8-1.8-4.6-1.8-6.4,0
		l-12.3,12.3c-1.8,1.8-1.8,4.6,0,6.4L198.1,80.6z"/>
	<path class="st1" d="M189.4,89.3L177,77c-1.8-1.8-4.6-1.8-6.4,0l-12.3,12.3c-1.8,1.8-1.8,4.6,0,6.4l12.3,12.3
		c1.8,1.8,4.6,1.8,6.4,0l12.3-12.3C191.1,93.9,191.1,91.1,189.4,89.3z"/>
	<path class="st1" d="M230.1,104.7l-12.3-12.3c-1.8-1.8-4.6-1.8-6.4,0l-24.5,24.5c-1.8,1.8-1.8,4.6,0,6.4l12.3,12.3
		c1.8,1.8,4.6,1.8,6.4,0l24.5-24.5C231.8,109.4,231.8,106.5,230.1,104.7z"/>
	<path class="st1" d="M321,13.8c1.8,1.8,4.6,1.8,6.4,0l12.3-12.3c0.4-0.4,0.7-0.9,0.9-1.4h-32.9c0.2,0.5,0.5,1,1,1.4L321,13.8z"/>
	<path class="st1" d="M293.6,41.2c1.8,1.8,4.6,1.8,6.4,0l12.3-12.3c1.8-1.8,1.8-4.6,0-6.4l-12.3-12.3c-1.8-1.8-4.6-1.8-6.4,0
		l-12.3,12.3c-1.8,1.8-1.8,4.6,0,6.4L293.6,41.2z"/>
	<path class="st1" d="M266.1,68.7c1.8,1.8,4.6,1.8,6.4,0l12.3-12.3c1.8-1.8,1.8-4.6,0-6.4l-12.3-12.3c-1.8-1.8-4.6-1.8-6.4,0
		L253.8,50c-1.8,1.8-1.8,4.6,0,6.4L266.1,68.7z"/>
	<path class="st1" d="M238.6,65.1l-12.3,12.3c-1.8,1.8-1.8,4.6,0,6.4l12.3,12.3c1.8,1.8,4.6,1.8,6.4,0l12.3-12.3
		c1.8-1.8,1.8-4.6,0-6.4L245,65.1C243.2,63.4,240.4,63.4,238.6,65.1z"/>
	<path class="st1" d="M301.9,176.6c-1.8-1.8-4.6-1.8-6.4,0L271,201.1c-1.8,1.8-1.8,4.6,0,6.4l12.3,12.3c1.8,1.8,4.6,1.8,6.4,0
		l24.5-24.5c1.8-1.8,1.8-4.6,0-6.4L301.9,176.6z"/>
	<path class="st1" d="M332.9,145.5c-1.8-1.8-4.6-1.8-6.4,0l-16,16c-1.8,1.8-1.8,4.6,0,6.4l12.3,12.3c1.8,1.8,4.6,1.8,6.4,0l16-16
		c1.8-1.8,1.8-4.6,0-6.4L332.9,145.5z"/>
	<path class="st1" d="M363.6,114.8c-1.8-1.8-4.6-1.8-6.4,0l-16,16c-1.8,1.8-1.8,4.6,0,6.4l12.3,12.3c1.8,1.8,4.6,1.8,6.4,0l16-16
		c1.8-1.8,1.8-4.6,0-6.4L363.6,114.8z"/>
	<path class="st1" d="M377.8,100.6l12.3,12.3c1.8,1.8,4.6,1.8,6.4,0L504,5.5V0h-31.9l-94.3,94.3C376.1,96,376.1,98.9,377.8,100.6z"
		/>
</g>
</svg>
