<?xml version="1.0" encoding="UTF-8"?>
<svg enable-background="new 0 0 1291.3 215.7" version="1.1" viewBox="0 0 1291.3 215.7" xml:space="preserve" xmlns="http://www.w3.org/2000/svg">
<style type="text/css">
	.st0{fill:#7CAF3C;}
	.st1{fill:#F2F2F2;}
</style>
	<path class="st0" d="m217.4 147.8l-39.6-68.6-6.1-10.6 6.1-10.5 20.2-34.9-13.4-23.2h-123.1l-61.5 106.6 61.5 106.6h123.1l35.3-61.1-2.5-4.3zm-40.2-43.4l12.7 22-45 45c-1.8 1.8-4.6 1.8-6.4 0l-11-11c-1.8-1.8-1.8-4.6 0-6.4l49.7-49.6zm-18.3-31.6l1.3 2.3 6.2 10.7 4.4 7.6-36.3 36.4c-1.8 1.8-4.6 1.8-6.4 0l-11-11c-1.8-1.8-1.8-4.6 0-6.4l38.4-38.4c1-0.8 2.2-1.2 3.4-1.2zm-76.8 29.2c-1.8-1.8-1.8-4.6 0-6.4l11.2-11.2c1.8-1.8 4.6-1.8 6.4 0l11 11c1.8 1.8 1.8 4.6 0 6.4l-11.2 11.2c-1.8 1.8-4.6 1.8-6.4 0l-11-11zm2.7 25.5l-11.2 11.2c-1.8 1.8-4.6 1.8-6.4 0l-11-10.9c-1.8-1.8-1.8-4.6 0-6.4l11.2-11.2c1.8-1.8 4.6-1.8 6.4 0l11 11c1.8 1.7 1.8 4.6 0 6.3zm6.3 11.1l11-11c1.8-1.8 4.6-1.8 6.4 0l11 11c1.8 1.8 1.8 4.6 0 6.4l-11 11c-1.8 1.8-4.6 1.8-6.4 0l-11-11c-1.8-1.8-1.8-4.7 0-6.4zm45.5-91.1l11 11c1.8 1.8 1.8 4.6 0 6.4l-22.7 22.7c-1.8 1.8-4.6 1.8-6.4 0l-11-11c-1.8-1.8-1.8-4.6 0-6.4l22.7-22.7c1.7-1.8 4.6-1.8 6.4 0zm-66.6 8.2l34-34c1.8-1.8 4.6-1.8 6.4 0l11 11c1.8 1.8 1.8 4.6 0 6.4l-34 34c-1.8 1.8-4.6 1.8-6.4 0l-11-11c-1.8-1.8-1.8-4.6 0-6.4zm-26.8 26.9l11-11c1.8-1.8 4.6-1.8 6.4 0l11 10.9c1.8 1.8 1.8 4.6 0 6.4l-11 11c-1.8 1.8-4.6 1.8-6.4 0l-11-10.9c-1.8-1.8-1.8-4.7 0-6.4zm-14.5 42.7l-7.5-7.5-4.6-8c0.2-0.7 0.6-1.3 1.1-1.9l11-11c1.8-1.8 4.6-1.8 6.4 0l10.9 11.1c1.8 1.8 1.8 4.6 0 6.4l-11 11c-1.7 1.7-4.6 1.7-6.3-0.1zm6.6 17l6.3-6.3c1.8-1.8 4.6-1.8 6.4 0l11 11c1.8 1.8 1.8 4.6 0 6.4l-11 10.9-12.7-22zm33.2 53.5l-1.4 1.4-11.5-19.9c0.7 0.2 1.4 0.6 1.9 1.1l11 11c1.7 1.8 1.7 4.7 0 6.4zm8.1-14.4l-11-11c-1.8-1.8-1.8-4.6 0-6.4l11-11c1.8-1.8 4.6-1.8 6.4 0l11 11c1.8 1.8 1.8 4.6 0 6.4l-11 11c-1.8 1.7-4.6 1.7-6.4 0zm4.4 19.2l6-6c1.8-1.8 4.6-1.8 6.4 0l6 6h-18.4zm49.5-14.8l-11.2 11.2c-1.8 1.8-4.6 1.8-6.4 0l-10.9-10.9c-1.8-1.8-1.8-4.6 0-6.4l11.2-11.2c1.8-1.8 4.6-1.8 6.4 0l10.9 10.9c1.7 1.8 1.7 4.6 0 6.4zm2.5 14.8l11.5-11.5c1.8-1.8 4.6-1.8 6.4 0l11 11c0.2 0.2 0.3 0.4 0.4 0.5h-29.3zm58.2-23.5l-14.7 14.7c-1.8 1.8-4.6 1.8-6.4 0l-11-11c-1.8-1.8-1.8-4.6 0-6.4l18-18c1.8-1.8 4.6-1.8 6.4 0l11 11c0.6 0.6 0.9 1.2 1.1 2l-4.4 7.7zm10.9-18.9l-10.2-10.2c-1.8-1.8-1.8-4.6 0-6.4l4.3-4.3 8.9 15.5-3 5.4z"/>
		<path class="st1" d="m274 197.3h-24l-6.8 15.9h-6.9l25.9-59 25.2 59h-6.9l-6.5-15.9zm-2.5-5.9l-9.5-22.5-9.6 22.5h19.1z"/>
		<path class="st1" d="M351.3,162.8v50.4H345v-50.4h-13.7v-5.9h33.6v5.9H351.3z"/>
		<path class="st1" d="m425.4 156.9v50.4h15.6v5.9h-21.8v-56.3h6.2z"/>
		<path class="st1" d="m526.3 197.3h-24l-6.8 15.9h-6.9l25.9-59 25.2 59h-6.9l-6.5-15.9zm-2.5-5.9l-9.5-22.5-9.6 22.5h19.1z"/>
		<path class="st1" d="m593.5 213.1v-58.6l43.9 46v-43.6h6.2v58.8l-43.9-46v43.5l-6.2-0.1z"/>
		<path class="st1" d="m717.8 162.8v50.4h-6.2v-50.4h-13.7v-5.9h33.6v5.9h-13.7z"/>
		<path class="st1" d="m813 197.3h-24l-6.8 15.9h-6.9l25.9-59 25.2 59h-6.9l-6.5-15.9zm-2.4-5.9l-9.5-22.5-9.6 22.5h19.1z"/>
		<path class="st1" d="m942.7 213.1l20.5-23.7c1.4-1.7 5.2-6.2 6.6-8.2 2.5-3.6 3.1-6.3 3.1-8.6 0-6.3-4.6-11-11.2-11-4 0-7.3 1.8-9.4 5-1.1 1.7-1.8 3.8-1.9 6.7h-6.2c0.3-5.6 2-9.1 4.2-11.6 2.4-2.7 6.3-5.7 13.3-5.7 10 0 17.4 7.1 17.4 16.8 0 3.8-1.1 7.3-4.5 12.1-2.4 3.3-5.4 6.8-7.7 9.4l-11.7 13.3h23.8v5.7l-36.3-0.2z"/>
		<path class="st1" d="m1039.7 205.7c-3.7-5.4-5.7-12.7-5.7-20.7s1.9-15.3 5.7-20.7c4.3-6.2 10-8.4 14.4-8.4 4.5 0 10.1 2.2 14.4 8.4 3.7 5.4 5.7 12.7 5.7 20.7s-1.9 15.3-5.7 20.7c-4.3 6.2-10 8.4-14.4 8.4-4.5 0.1-10.1-2.1-14.4-8.4zm4.7-37.8c-3 4.8-4.1 11.2-4.1 17.1s1.1 12.3 4.1 17.1c2.9 4.7 6.8 6.2 9.7 6.2s6.8-1.5 9.7-6.2c3-4.8 4.1-11.2 4.1-17.1s-1.1-12.3-4.1-17.1c-2.9-4.7-6.8-6.2-9.7-6.2-2.8 0-6.7 1.5-9.7 6.2z"/>
		<path class="st1" d="m1137.9 162.8h-9.4l3.3-5.9h12.4v56.3h-6.2l-0.1-50.4z"/>
		<path class="st1" d="m1239.8 197.6c0 8.8-5.7 16.5-17.2 16.5s-17.2-7.8-17.2-16.5c0-6.1 2.8-11.2 8.5-13.8-4.5-2.6-6.8-7.1-6.8-12.3 0-8 5.4-15.6 15.5-15.6s15.5 7.6 15.5 15.6c0 5.2-2.4 9.7-6.8 12.3 5.8 2.6 8.5 7.8 8.5 13.8zm-6.2-0.1c0-6.3-4.6-10.7-11-10.7s-11 4.4-11 10.7c0 6.4 4.5 11 11 11 6.5-0.1 11-4.6 11-11zm-1.3-25.9c0-6.2-4.5-10-9.6-10s-9.6 3.8-9.6 10c0 5.6 4.1 9.7 9.6 9.7 5.4 0 9.6-4.1 9.6-9.7z"/>
		<polygon class="st1" points="286 112.7 249.8 112.7 224.3 68.6 249.8 24.5 313 24.5 327.1 0 235.6 0 196 68.6 235.6 137.2 271.9 137.2"/>
		<polygon class="st1" points="347.4 56.3 268.2 56.3 282.3 80.8 319.1 80.8 300.7 112.7 300.7 112.7 286.6 137.2 314.9 137.2 354.5 68.6"/>
	<polygon class="st1" points="420.6 0 410.8 0 339.4 137.2 367.6 137.2 379.1 115.2 379.1 115.2 394.5 85.6 394.5 85.6 415.7 44.9 439.5 90.7 406.6 90.7 393.8 115.2 452.2 115.2 463.7 137.2 492 137.2"/>
		<polygon class="st1" points="631 58.6 658 26.5 658 0 648.2 0 583.6 77 518.9 0 509.1 0 509.1 137.2 536.1 137.2 536.1 58.5 578.7 109.3 588.5 109.3"/>
		<polygon class="st1" points="631 77 631 137.2 658 137.2 658 44.9"/>
	<polygon class="st1" points="707 80.8 768.8 80.8 782.9 56.3 707 56.3 707 24.5 782.9 24.5 782.9 0 680 0 680 137.2 782.9 137.2 782.9 112.7 707 112.7"/>
	<polygon class="st1" points="912.8 24.5 912.8 0 809.9 0 809.9 56.3 800.1 56.3 785.9 80.8 809.9 80.8 809.9 137.2 836.8 137.2 836.8 80.8 891.3 80.8 905.4 56.3 836.8 56.3 836.8 24.5"/>
	<polygon class="st1" points="1054.6 112.7 1035.3 112.7 959.3 112.7 959.3 80.8 1013.8 80.8 1027.9 56.3 959.3 56.3 959.3 24.5 1035.3 24.5 1035.3 0 932.4 0 932.4 24.5 932.4 137.2 1035.3 137.2 1040.4 137.2"/>
	<polygon class="st1" points="1087.4 56.3 1078.2 40.4 1087.4 24.5 1142.9 24.5 1157.1 0 1073.3 0 1050 40.4 1073.3 80.8 1136.7 80.8 1145.9 96.8 1136.7 112.7 1071.7 112.7 1057.6 137.2 1150.9 137.2 1174.2 96.8 1150.9 56.4"/>
	<polygon class="st1" points="1174.2 0 1160.1 24.5 1208.5 24.5 1208.5 137.2 1237.9 137.2 1237.9 24.5 1277.1 24.5 1291.3 0"/>
</svg>
