<?xml version="1.0" encoding="utf-8"?>
<!-- Generator: Adobe Illustrator 23.0.0, SVG Export Plug-In . SVG Version: 6.00 Build 0)  -->
<!DOCTYPE svg PUBLIC "-//W3C//DTD SVG 1.1//EN" "http://www.w3.org/Graphics/SVG/1.1/DTD/svg11.dtd" [
	<!ENTITY st0 "fill:#EEEEEE;">
]>
<svg version="1.1" id="Layer_1" xmlns="http://www.w3.org/2000/svg" xmlns:xlink="http://www.w3.org/1999/xlink" x="0px" y="0px"
	 viewBox="0 0 14.13 14.13" style="enable-background:new 0 0 14.13 14.13;" xml:space="preserve">
<g>
	<g>
		<path style="&st0;" d="M9.76,8.77c-0.23,0-0.41,0-0.6,0c-0.39-0.01-0.49-0.13-0.37-0.5c0.34-1.15,0.7-2.29,1.04-3.43
			c0.04-0.13,0.01-0.28,0.01-0.43C9.76,4.53,9.65,4.63,9.61,4.75C9.34,5.53,9.09,6.31,8.83,7.09C8.75,7.34,8.64,7.57,8.32,7.46
			C7.98,7.36,8,7.12,8.09,6.84c0.33-0.98,0.65-1.96,0.98-2.93c0.19-0.55,0.5-0.77,1.08-0.78c0.55-0.01,1.1-0.01,1.66,0
			c0.51,0.01,0.83,0.24,1,0.73c0.34,1,0.67,2,1,3c0.09,0.26,0.09,0.49-0.23,0.59c-0.31,0.1-0.43-0.09-0.51-0.34
			c-0.28-0.83-0.55-1.67-0.84-2.5c-0.03-0.08-0.11-0.14-0.17-0.22c-0.02,0.1-0.07,0.21-0.04,0.29c0.35,1.16,0.7,2.31,1.05,3.47
			c0.16,0.51,0.08,0.6-0.45,0.61c-0.15,0-0.3,0-0.49,0c0,0.16,0,0.29,0,0.41c0,1.09,0,2.19,0,3.28c0,0.27-0.06,0.5-0.34,0.59
			c-0.35,0.12-0.64-0.13-0.64-0.56c0-1.09,0-2.19,0-3.28c0-0.13,0-0.26,0-0.42c-0.13,0-0.25,0-0.41,0c0,0.14,0,0.28,0,0.42
			c0,1.08,0,2.16,0,3.24c0,0.4-0.16,0.61-0.47,0.61c-0.33,0.01-0.5-0.2-0.51-0.62c0-1.09,0-2.19,0-3.28
			C9.76,9.06,9.76,8.94,9.76,8.77z"/>
		<path style="&st0;" d="M1.14,4.44c-0.03,0.1-0.07,0.2-0.07,0.3C1.06,5.6,1.07,6.46,1.06,7.32c0,0.16-0.07,0.37-0.19,0.45
			C0.62,7.95,0.29,7.75,0.28,7.43c-0.01-1.12-0.01-2.23,0-3.35C0.29,3.55,0.7,3.13,1.23,3.12c0.82-0.02,1.65-0.02,2.47,0
			c0.55,0.01,0.96,0.42,0.97,0.97c0.02,1.1,0.01,2.21,0,3.32c0,0.27-0.14,0.42-0.41,0.41C3.99,7.81,3.88,7.66,3.88,7.41
			c0-0.88,0-1.76,0-2.65c0-0.11-0.04-0.21-0.06-0.32c-0.04,0-0.08,0-0.12,0.01C3.68,4.59,3.65,4.73,3.65,4.87c0,2.48,0,4.96,0,7.44
			c0,0.12,0,0.24-0.01,0.35c-0.04,0.27-0.2,0.42-0.48,0.42c-0.3,0-0.44-0.18-0.48-0.46c-0.01-0.08,0-0.16,0-0.25
			c0-1.38,0-2.75,0-4.13c0-0.13,0-0.25,0-0.4c-0.15,0-0.26,0-0.41,0c0,0.13,0,0.26,0,0.38c0,1.39,0,2.77,0,4.16
			c0,0.11,0.03,0.25-0.02,0.31c-0.13,0.15-0.28,0.32-0.45,0.37c-0.24,0.07-0.42-0.11-0.48-0.36c-0.03-0.14-0.03-0.28-0.03-0.42
			c0-2.48,0-4.96,0-7.44c0-0.13,0-0.25,0-0.38C1.23,4.46,1.19,4.45,1.14,4.44z"/>
		<path style="&st0;" d="M6.9,7.09c0,2.18,0,4.37,0,6.55c0,0.11,0.02,0.22-0.02,0.31c-0.03,0.08-0.14,0.18-0.21,0.18
			c-0.07,0-0.16-0.11-0.2-0.19c-0.04-0.08-0.01-0.18-0.01-0.28c0-4.39,0-8.79,0-13.18c0-0.08-0.02-0.18,0.01-0.24
			C6.51,0.15,6.6,0.08,6.67,0c0.08,0.08,0.18,0.16,0.23,0.25C6.93,0.33,6.9,0.44,6.9,0.53C6.9,2.72,6.9,4.9,6.9,7.09
			C6.9,7.09,6.9,7.09,6.9,7.09z"/>
		<path style="&st0;" d="M2.6,1.05c0.53,0,0.93,0.39,0.94,0.92c0.01,0.55-0.4,0.96-0.94,0.96c-0.53,0-0.94-0.4-0.94-0.92
			C1.65,1.46,2.05,1.06,2.6,1.05z"/>
		<path style="&st0;" d="M11.88,2.01c-0.01,0.54-0.4,0.92-0.94,0.92C10.4,2.92,10,2.53,10.01,2c0-0.55,0.41-0.95,0.96-0.94
			C11.51,1.07,11.88,1.46,11.88,2.01z"/>
	</g>
</g>
<g>
</g>
<g>
</g>
<g>
</g>
<g>
</g>
<g>
</g>
<g>
</g>
<g>
</g>
<g>
</g>
<g>
</g>
<g>
</g>
<g>
</g>
</svg>
