<?xml version="1.0" encoding="utf-8"?>
<!-- Generator: Adobe Illustrator 23.0.0, SVG Export Plug-In . SVG Version: 6.00 Build 0)  -->
<svg version="1.1" id="Layer_1" xmlns="http://www.w3.org/2000/svg" xmlns:xlink="http://www.w3.org/1999/xlink" x="0px" y="0px"
	 viewBox="0 0 124.2 124.1" style="enable-background:new 0 0 124.2 124.1;" xml:space="preserve">
<style type="text/css">
	.st0{fill:#FFFFFF;}
</style>
<path class="st0" d="M33.8,95.3c0,9.8,0,19.2,0,28.8c-6.6,0-13.1,0-19.8,0c0-9.5,0-19,0-28.7c-4.7,0-9.3,0-14,0c0-2.1,0-4.1,0-6.2
	c1,0,2.1,0,3.1,0c3.1,0,6.2,0,9.2,0c1.1,0,1.7-0.4,1.6-1.6c0-0.4,0-0.8,0-1.2c0-28.2,0-56.3,0-84.5c0-0.6,0-1.3,0-2
	C20.5,0,27,0,33.7,0c0,29.6,0,59.1,0,88.8c30.2,0,60.3,0,90.4,0c0,2.2,0,4.3,0,6.5C94.1,95.3,64,95.3,33.8,95.3z"/>
<path class="st0" d="M61.6,24.4c0-1.1,0-2.2,0-3.4c4.7,0,9.3,0,14,0c0,0.5,0.1,1.1,0.1,1.6c0,13.4,0.1,26.7-0.1,40.1
	c-0.1,4.9-2.3,8-7,9.1c-2,0.5-4.1,0.8-6.1,0.9c-5.8,0.1-11.5,0-17.3,0c-0.5,0-1.1,0-1.8,0c0-3.3,0-6.5,0.1-9.6
	c0-0.2,0.9-0.6,1.3-0.6c4.5,0,8.9,0,13.4,0c2.5,0,3-0.5,3-2.9c0-1,0-2,0-3.5c-3,4.3-7,3.9-11,3.4c-1.1-0.1-2.2-0.4-3.3-0.8
	c-3.3-1.3-5.1-4-5.1-7.4c0-7.1,0-14.3,0-21.4c0-4,1.9-6.8,5.4-8.1C51,20.4,55,20.1,58.7,22C59.7,22.5,60.5,23.5,61.6,24.4z M55.9,40
	c0,2.2,0,4.5,0,6.7c0,1.8,0.3,2.1,2,2.1c0.3,0,0.7,0,1,0c1.8,0,2.2-0.3,2.2-2.2c0-4.5-0.2-9-0.3-13.5c0-1.2-1-1.8-2.6-1.8
	c-1.8,0.1-2.4,0.5-2.4,1.9C55.9,35.6,55.9,37.8,55.9,40z"/>
<path class="st0" d="M82.6,62.5c3.9,0,7.7,0,11.4,0c0.9,0,1.8,0,2.7,0c3.4,0,3.4,0,3.4-3.4c0-0.8,0-1.5,0-1.9
	c-1.5,0.7-3.1,1.9-4.9,2.3c-3.3,0.6-6.6,0.5-9.7-1c-3.4-1.7-4.7-4.8-4.8-8.4c-0.1-6.5-0.2-13,0-19.5c0.2-6.1,3.7-9.3,9.9-9.6
	c2.3-0.1,4.7-0.4,6.8,0.9c0.9,0.6,1.8,1.2,2.9,1.9c0-0.8,0.1-1.6,0.1-2.7c4.6,0,9.3,0,14.1,0c0,0.5,0,1.1,0,1.6
	c0,13.6,0,27.3,0,40.9c0,3.8-2.6,7.3-6.4,8.2c-2.4,0.6-4.8,0.9-7.3,0.9c-5.6,0.1-11.1,0-16.7,0.1c-1.3,0-1.6-0.4-1.6-1.6
	C82.6,68.3,82.6,65.5,82.6,62.5z M95.1,40.2c0,2.3-0.1,4.6,0,6.8c0,0.6,0.4,1.4,0.9,1.7c2.2,1.3,4.3,0,4.3-2.6c0-3.9,0-7.7,0-11.6
	c0-0.6-0.1-1.2-0.3-1.7c-0.4-1.2-1.5-1.6-3.3-1.3c-1.2,0.2-1.7,0.8-1.6,2C95.1,35.7,95.1,38,95.1,40.2z"/>
</svg>
