<?xml version="1.0" encoding="utf-8"?>
<!-- Generator: Adobe Illustrator 23.0.0, SVG Export Plug-In . SVG Version: 6.00 Build 0)  -->
<!DOCTYPE svg PUBLIC "-//W3C//DTD SVG 1.1//EN" "http://www.w3.org/Graphics/SVG/1.1/DTD/svg11.dtd" [
	<!ENTITY st0 "fill:#EEEEEE;">
]>
<svg version="1.1" id="Layer_1" xmlns="http://www.w3.org/2000/svg" xmlns:xlink="http://www.w3.org/1999/xlink" x="0px" y="0px"
	 viewBox="0 0 116.85 116.85" style="enable-background:new 0 0 116.85 116.85;" xml:space="preserve">
<g>
	<g>
		<path style="&st0;" d="M38.38,116.85c0-5.86,0-11.73,0-17.84c4.54,0,8.83,0,13.29,0c0-4.36,0-8.47,0-12.75
			c-0.36-0.1-0.83-0.25-1.31-0.34c-3.34-0.65-4.61-2.16-5.19-6.14c-0.68-4.61-1.45-9.22-2.04-13.84c-0.17-1.35-0.62-1.89-2.01-2.11
			c-3.22-0.51-6.41-1.24-9.81-1.93c-1.12,4.22-2.06,8.33-3.33,12.34c-0.58,1.82-1.5,3.71-2.79,5.09c-4.19,4.49-8.6,8.78-12.96,13.11
			c-2.72,2.71-6.15,2.87-8.48,0.48c-2.32-2.38-2.18-5.61,0.47-8.3c3.76-3.83,7.59-7.59,11.35-11.42c0.64-0.66,1.34-1.44,1.58-2.28
			c1.32-4.65,2.56-9.32,3.74-14c1.47-5.83,2.88-11.68,4.29-17.53c0.8-3.33,1.57-6.67,2.46-10.47c-2.81,0.61-5.24,1.04-7.59,1.73
			c-0.64,0.19-1.21,1.1-1.52,1.81c-1.35,3.08-2.57,6.22-3.86,9.33c-1.25,3-3.59,4.22-6.08,3.19c-2.51-1.04-3.3-3.42-2.09-6.54
			c1.56-4.02,3.27-7.99,4.72-12.05c0.82-2.32,2.32-3.52,4.62-4c5.99-1.27,11.98-2.59,17.97-3.86c4.84-1.03,10.82,1.57,13.38,5.78
			c1.88,3.1,3.82,6.17,5.61,9.33c0.7,1.25,1.46,1.45,2.72,1c2.76-1,5.54-1.92,8.32-2.87c3.01-1.03,5.49,0,6.31,2.61
			c0.82,2.6-0.42,4.71-3.38,5.71c-4.09,1.38-8.18,2.75-12.28,4.1c-3.75,1.23-5.18,0.67-7.28-2.77c-0.58-0.94-1.18-1.86-2.03-3.21
			c-1.17,4.95-2.23,9.44-3.34,14.16c2.44,0.52,4.63,0.94,6.79,1.47c3.04,0.74,4.37,2.27,4.82,5.33c0.99,6.66,2.17,13.31,2.86,20
			c0.2,1.96-0.99,4.06-1.54,6.08c2.97,0,6.62,0,10.55,0c0-4.37,0-8.66,0-13.28c4.63,0,8.98,0,13.51,0c0-4.56,0-8.78,0-13.35
			c4.51,0,8.86,0,13.46,0c0-4.63,0-8.91,0-13.44c7.65,0,15.05,0,22.45,0c0,2.94,0,5.89,0,8.83c-4.45,0-8.91,0-13.57,0
			c0,4.61,0,8.89,0,13.48c-4.56,0-8.92,0-13.49,0c0,4.59,0,8.87,0,13.46c-4.58,0-8.93,0-13.49,0c0,4.6,0,8.89,0,13.51
			c-4.56,0-8.91,0-13.5,0c0,4.61,0,8.89,0,13.51c-4.59,0-8.94,0-13.46,0c0,3.19,0,6.03,0,8.88
			C44.27,116.85,41.32,116.85,38.38,116.85z"/>
		<path style="&st0;" d="M49.29,0c3.96,1.69,6.89,4.17,6.89,8.93c0,4.42-3.03,8.14-7.2,8.79c-4.72,0.74-8.76-1.65-10.15-6
			C37.47,7.47,39.34,3,43.31,1.02c0.76-0.38,1.56-0.68,2.34-1.02C46.86,0,48.07,0,49.29,0z"/>
	</g>
</g>
</svg>
