<?xml version="1.0" encoding="utf-8"?>
<svg version="1.1" id="Capa_1"
  xmlns="http://www.w3.org/2000/svg"
  xmlns:xlink="http://www.w3.org/1999/xlink" x="0px" y="0px" viewBox="0 0 679.5 679.6" style="enable-background:new 0 0 679.5 679.6;" xml:space="preserve">
  <style type="text/css">
	.st0{fill:#F95252;}
  </style>
  <g>
    <path class="st0" d="M655.9,239.8c2.1,3.6,4.1,7.1,6.2,10.5c1,1.7,0,4.5-1.7,5.2c-2.2,0.9-4.5,1.7-6.6,2.6
		c-0.7,0.3-1.5,1.1-1.8,1.9c-2.7,5.6-2.2,11.4-1,17.3c0.2,0.7,0.5,1.4,1,2c5.8,6.5,9.5,14.1,11.7,22.5c0.5,2,1.2,4.1,2,6
		c3.1,7.1,3.3,14.8,4.1,22.3c1.4,12.2-0.5,24.4-0.6,36.6c0,0.7-0.3,1.5-0.7,2.1c-2.8,4.5-5.7,8.9-10.1,12.1c-1.5,1.1-2,2.4-1.9,4.2
		c0.1,1.7,0,3.4,0,5.2c7.5-1.1,14.8-2.2,22.3-3.4c0.2,90.7,0.5,181.2,0.7,272c-3.9-1-7.7-1.9-11.4-2.8c-8.8-2.2-17.4-4.7-26.3-6.5
		c-4.7-1-9.6-0.8-14.4-1.1c-5-0.3-10.1-0.7-15.1-0.5c-2.7,0.1-5.3,1.4-7.9,2.2c0,0.2,0,0.4-0.1,0.6c3.2,2.4,6.5,4.8,10.1,7.4
		c-2,0.6-3.7,0.9-5.4,1.5c-12.2,3.8-24.8,4.7-37.4,5.7c-1.4,0.1-2.8-0.3-4.2-0.8c-5.3-1.9-10.6-3.9-15.9-5.7c-0.9-0.3-2-0.3-2.9,0
		c-4.1,1.6-8.2,3.3-12.2,5c-1.2,0.5-2.1,0.5-3.2-0.2c-5.9-3.4-11.8-6.7-17.7-10.1c-1.4-0.8-2.3-0.8-3.3,0.4
		c-0.1,0.1-0.2,0.2-0.3,0.3c-4.1,4.9-9.7,7.2-15.5,9.2c-0.6,0.2-1.3,0.3-2,0.3c-12.3-0.9-24.5-2.2-36.8-2.5
		c-16-0.3-32.1,0.2-48.1,0.5c-8.2,0.1-16.3,0.8-24.3,2.5c-1,0.2-2.1,0.6-3,1.2c-6.6,4.2-13.2,8.4-19.8,12.6
		c-0.6,0.4-1.2,0.7-1.9,1.1c-3.3-3.3-6.6-6.5-9.8-9.9c-1-1-1.8-1.2-3.2-0.8c-6.5,2.2-13,4.3-19.5,6.4c0-2.2,0.1-4.3,0-6.4
		c-0.2-3-0.7-3.3-3.6-3.3c-9.5,0-19,0-28.5,0c-0.7,0-1.5,0-2.3,0c-0.5,4.8-0.9,9.3-1.4,14.4c-0.7-0.9-1.1-1.4-1.5-2
		c-5.8-8.2-11.6-16.4-17.4-24.7c-0.9-1.4-1.7-1.9-3.5-1.3c-1.9,0.6-4,0.7-6,0.8c-2.2,0.1-4.4,0.1-6.5,0c-7.9-0.4-15.6,0.3-23.2,2.4
		c-1.4,0.4-2.6,0.2-3.7-0.8c-2.3-2.1-4.7-4.1-7-6.2c-0.8-0.8-1.4-1-2.5-0.4c-2.4,1.4-4.9,2.7-7.2,4.1c-3,1.8-4.8,1.7-7.5-0.5
		c-1.3-1-2.8-1.7-4.3-2.7c-1.3,5.5-2.2,6.3-7.5,6c-7.6-0.4-15.2-1.2-22.8-1.7c-1.8-0.1-3.1-0.7-3.9-2.4c-1.1-2.4-2.8-3.1-5.4-2.6
		c-2.3,0.5-4.7,0.6-7.1,0.6c-5.6,0-10.4,2.3-14.9,5.2c-0.3,0.2-0.7,0.4-1.2,0.7c-1.2-2.8-2.3-5.4-3.5-8.1c-0.4,0.1-0.8,0.1-1.1,0.3
		c-5.4,3.1-11.3,3.5-17.3,3.9c-4.5,0.3-8.9,0.8-13.4,1.1c-1.2,0.1-2.6-0.4-3.6-1.1c-3.4-2-6.8-2.4-10.6-1.3
		c-7.7,2.4-15.6,1.7-23.5,1.8c-1,0-2.1,0.7-2.9,1.3c-0.8,0.5-1.5,1.4-2.2,2.1c-2.9,2.7-5.9,3.7-10,2c-5.7-2.4-11.6-4.4-17.5-6
		c-6.7-1.9-13.6-3.3-20.4-4.8c-1.2-0.3-2.5,0.2-3.8,0.3c-1.1,0.1-2.3,0.2-3,0.3c0-4.9-0.2-9.6,0-14.4c0.7-17,1.5-34.1,2.3-51.1
		c0.9-20,1.8-40,2.7-60.1c0-0.4,0.1-0.8,0.1-1.2c-0.8-4.7,1.3-7.4,5.7-8.6c1.9-0.5,2.6-1.8,2.9-3.8c3-21.9,6.2-43.7,9.2-65.6
		c0.1-0.7-0.4-1.7-1-2.1c-4.4-3.4-8.9-6.7-13.3-10.1c-0.6-0.5-1.3-1.5-1.3-2.3c-1.3-25.3-2.5-50.6-3.9-75.9
		c-0.1-1.6,0.3-2.2,1.8-2.8c7.4-2.7,14.7-5.7,22.1-8.4c1.4-0.5,1.7-1.2,1.5-2.6c-1.2-7.5-2.3-15-3.6-22.5c-0.1-0.9-0.6-1.8-1.2-2.5
		c-3.8-4.5-7.8-8.9-11.6-13.4c-0.7-0.8-1.2-2-1.3-3c-0.7-6.4-1.5-12.8-1.7-19.3c-0.1-3.2,1-6.5,1.6-9.8c0.6-3,1.3-6,1.8-9
		c0.2-1.2,0.1-2.6-0.2-3.8c-3.4-11.6-7-23.1-10.2-34.8c-1.1-3.8-1.3-7.9-1.6-11.9c-0.6-6.8-0.7-13.6-1.4-20.3
		c-0.7-6.4-1.9-12.8-2.9-19.1c-0.9-6-1.9-12.1-2.8-18.1c-0.1-0.8,0-1.8,0.2-2.6c3-12.1,6.2-24.2,9-36.4c1.4-6.1,1.9-12.5,2.7-18.7
		c1.2-8.9,2.3-17.8,3.4-26.7c0.1-1.1-0.1-2.4-0.6-3.4c-3.3-6.3-6.8-12.5-10.1-18.8C4.2,42,3.9,41,4,40.1c1.1-9,2.4-17.9,3.5-26.8
		c0.2-1.5,0.8-1.7,2.1-1.7c26,0.6,52,1.2,78,1.8c20.4,0.5,40.8,0.9,61.1,1.4c11.1,0.3,22.3,0.5,33.4,0.8c0.4,0,0.8,0.1,1.5,0.2
		c-1.9,2.6-3.7,4.9-5.8,7.8c25.7-0.6,50.9-1.3,76.4-1.9c-0.5-0.7-0.9-1.2-1.4-1.9c0.4-0.3,0.7-0.7,1.1-1c7.1-5.4,14.2-10.7,21.4-16
		c0.7-0.5,1.7-0.9,2.6-0.9c37.8-0.7,75.7-1.3,113.5-1.9c0.4,0,0.8,0,1.9,0c-3.4,4.1-6.5,7.9-9.9,11.9c4,0.6,7.8,1.2,11.6,1.7
		c4.7,0.7,9.4,1.4,14.1,2c1.5,0.2,2,0.9,2.4,2.2c1.1,3.9,2.2,7.8,3.4,12c10.5-1.3,20.9-2.6,31.5-3.9c1.1-6.2,2.2-12.3,3.4-18.5
		c0.8-3.9-0.2-3.4,3.9-3.3c41,0.6,81.9,1.3,122.9,1.9c0.7,0,1.5,0,2.3,0c1.3,5.2,2.6,10.3,3.9,15.6c0.5-0.6,0.9-1.1,1.3-1.6
		c2.6-3.6,5.1-7.2,7.7-10.7c0.4-0.6,1.6-1.1,2.3-1c21.4,3.7,42.8,7.5,64.1,11.3c0.9,0.2,1.9,0.4,2.7,0.8c5.2,2.3,10.3,4.6,15.4,6.9
		c1.1,0.5,1.3,1,1.1,2.2c-1.9,10.8-3.7,21.7-5.4,32.5c-0.2,1-0.1,2.2,0.2,3.2c1.5,6.4,3.2,12.8,4.7,19.2c0.5,2,0.8,4,0.8,6
		c0,24.1,0.3,48.2-0.1,72.4c-0.2,11.4-1.2,22.8-2.1,34.1c-0.9,10.5-2.3,21.1-3.5,31.6c-0.1,0.9-0.8,2-1.6,2.5
		C665.8,234,660.9,236.8,655.9,239.8z M78.1,129.1c0.6,0.7,1,1.2,1.5,1.7c28.1,30.1,56.2,60.2,84.4,90.2
		c54.2,57.9,108.3,115.8,162.5,173.7c50.1,53.6,100.3,107.2,150.3,160.8c1.6,1.7,3.1,2.3,5.4,2.2c27.1-1,54.2-1.9,81.3-2.7
		c1.7-0.1,2.3-0.6,2.7-2.1c11.7-42,23.4-84.1,35.2-126.1c0.5-1.6,0.2-2.5-1.2-3.4c-54.5-37-109-74-163.5-111
		c-97.6-66.3-195.3-132.7-292.9-199c-1.2-0.8-2.2-0.9-3.6-0.6c-15.6,4.1-31.2,8.2-46.8,12.3C88.3,126.4,83.3,127.7,78.1,129.1z
		 M266.6,536.8c-46-45.7-91.7-91.1-137.3-136.3c0-0.1-0.2,0.4-0.4,0.9c-13.6,38.5-27.1,77-40.8,115.6c-0.5,1.3-0.3,2,0.8,2.9
		c16.9,14.2,33.8,28.5,50.6,42.7c0.6,0.5,1.5,1,2.3,1c13.3,0.9,26.7,1.7,40.1,2.5c1.4,0.1,2.9-0.1,4.2-0.6
		c18-6.4,35.9-12.8,53.9-19.2C248.8,543.1,257.4,540,266.6,536.8z M399.5,143.1c1,0.8,1.7,1.3,2.3,1.8c20.5,15.7,41.1,31.3,61.6,47
		c22.9,17.4,45.7,34.8,68.5,52.3c1.1,0.8,2,1.1,3.3,0.7c2.1-0.8,4.3-1.3,6.4-1.9c1.1-0.3,1.5-0.8,1.7-1.9c1.9-13.9,4-27.8,6-41.7
		c2.5-17.7,5-35.3,7.6-53c0.2-1.4-0.1-2-1.3-2.7c-15.8-8.3-31.5-16.6-47.2-24.8c-0.9-0.4-2.1-0.6-3-0.4
		c-28.2,6.5-56.4,13.2-84.6,19.8C413.8,139.8,406.9,141.4,399.5,143.1z"/>
  </g>
</svg>
