<?xml version="1.0" encoding="utf-8"?>
<!-- Generator: Adobe Illustrator 23.0.3, SVG Export Plug-In . SVG Version: 6.00 Build 0)  -->
<svg version="1.1" id="Capa_1" xmlns="http://www.w3.org/2000/svg" xmlns:xlink="http://www.w3.org/1999/xlink" x="0px" y="0px"
	 viewBox="0 0 2605.7 679.4" style="enable-background:new 0 0 2605.7 679.4;" xml:space="preserve">
<style type="text/css">
	.st0{fill:#EEEEEE;}
	.st1{fill:url(#SVGID_1_);}
</style>
<g>
	<g>
		<path class="st0" d="M992.3,178c-163.3-1.6-159.9-3.8-160.4,4c-0.8,10.7,22.4,3.8,24.8,20.4c0.5,15.7-0.7,214.5-0.8,226.9
			c-1.9,13.3-14.9,12-12.8,20.2c0.9,3.4,3.6,4.5,7.1,4.5c25.2,0,59.2,0.7,78.6,4.2C1158.8,499.8,1181.2,179.9,992.3,178z
			 M1057,385.5c-21.1,51.9-126,73.2-149.3,32.6l-1.4-217.3C1079.7,189.7,1083.5,320.4,1057,385.5z"/>
	</g>
</g>
<g>
	<g>
		<path class="st0" d="M1223.2,317.7c0,189.3,304.4,192.7,304.4-6.8C1527.6,125.7,1223.2,121,1223.2,317.7z M1394.7,439.5
			c-67.5-0.1-106.8-41.4-117-122.3v-0.1c0-80.7,26.6-120.1,83.7-124c57.3-3.8,109.6,54.3,109.6,117.4
			C1472.2,365.9,1459.9,433.2,1394.7,439.5z"/>
	</g>
</g>
<g>
	<g>
		<path class="st0" d="M1857.2,174.3c-13.8,4.4-3.8,3.2-213.4,2.9c-7.4-3.9-19-8.6-20.8-0.4l-7.4,33.9c-1.4,6.4,7.2,10.1,10.9,4.6
			c3.2-4.9,8.1-8.6,14.9-11.3c17.4-0.7,64-0.8,74.3-0.8l-1.1,227.9c0,0.3-0.5,8.2-7.8,12.7c-5.1,3.1-2.9,11.1,3.1,11.1
			c67.9-0.3,68.3,1.2,69.7-4.9c1.9-8.3-10.6-5.8-11.6-18.3c-0.3-10.6-1.8-191.2-2.2-228.4l65.4,1.6c0.6,0,14.4,0.8,19.3,14.6
			c2.2,6.2,11.4,4.8,11.6-1.8c0.3-9,0.7-21.6,0.9-28C1868.7,176.4,1861.5,173,1857.2,174.3z"/>
	</g>
</g>
<g>
	<g>
		<path class="st0" d="M2195.4,389.3c22.4-9,32.7-4.1,32.2-13.2c-0.2-3.1-2.8-5.6-5.9-5.7c-16.1-0.3-49.6-0.3-56.7-0.3l-79.7-197
			c-0.2-0.6-0.4-1.1-0.6-1.7c-0.9-2.2-2.9-3.7-5.6-3.7c-5.8,0,2.6-16.1-110.2,261.2c0,0.1-4.7,9.4-16,14.8
			c-5.7,2.8-3.8,11.4,2.6,11.4l47.4,0.1c6.9,0,8.3-9.5,2.1-11.7c-3.3-1.7-4.9-4-3.9-7.6c3.4-11.6,12.3-36.6,14.5-42.7l104.5,0.3
			l20.5,48.7c0.1,0.2,0.3,1.1-0.4,2.1c-3.5,3.8-0.8,10,4.3,10c0.4,0,59.6,0.8,59.6,0.8c3.5,0,6.1-2.8,6.1-6c0-6.6-6.7-4.1-13.9-13.9
			c-7.7-13-17.8-34.2-21.5-42C2182.2,393.6,2188.9,392.7,2195.4,389.3z M2023.6,370.8l45.6-117.5l42.1,116.5L2023.6,370.8z"/>
	</g>
</g>
<g>
	<g>
		<path class="st0" d="M2601.8,389c-11.6-3.5-8.5,27.8-37.9,29c-9.3,0.4-58.6,2.3-89.6,2.1c40.2-30.7,80-73.9,89.8-86.2
			c103.7-148.3-54-189.3-131.1-146.3c-1.8,1-2.9,2.8-3.1,4.8c-0.5,6.4,0.8,19.4,3.7,38.6c0.4,2.7,2.6,4.8,5.3,5.1
			c2.7,0.2,5.3-1.4,6.2-3.9c22.5-62.8,96-48.8,98.6,18.7c3.6,92.9-119.5,181.9-129.2,194.1c-1.8,2.2-1.7,5.3,0,7.4
			c0,7.5,9.5,8.5,11.7,2.3c20.2-0.1,130.1-0.8,150.4-0.5c14.7,1.1,22-7.5,22.3-17.1C2606.1,394.8,2608.4,391,2601.8,389z"/>
	</g>
</g>
<g>
	
		<linearGradient id="SVGID_1_" gradientUnits="userSpaceOnUse" x1="339.7304" y1="0.5999" x2="339.7304" y2="680.2" gradientTransform="matrix(1 0 0 -1 0 680)">
		<stop  offset="0" style="stop-color:#832212"/>
		<stop  offset="1" style="stop-color:#B93119"/>
	</linearGradient>
	<path class="st1" d="M655.9,239.6c2.1,3.6,4.1,7.1,6.2,10.5c1,1.7,0,4.5-1.7,5.2c-2.2,0.9-4.5,1.7-6.6,2.6
		c-0.7,0.3-1.5,1.1-1.8,1.9c-2.7,5.6-2.2,11.4-1,17.3c0.2,0.7,0.5,1.4,1,2c5.8,6.5,9.5,14.1,11.7,22.5c0.5,2,1.2,4.1,2,6
		c3.1,7.1,3.3,14.8,4.1,22.3c1.4,12.2-0.5,24.4-0.6,36.6c0,0.7-0.3,1.5-0.7,2.1c-2.8,4.5-5.7,8.9-10.1,12.1c-1.5,1.1-2,2.4-1.9,4.2
		c0.1,1.7,0,3.4,0,5.2c7.5-1.1,14.8-2.2,22.3-3.4c0.2,90.7,0.5,181.2,0.7,272c-3.9-1-7.7-1.9-11.4-2.8c-8.8-2.2-17.4-4.7-26.3-6.5
		c-4.7-1-9.6-0.8-14.4-1.1c-5-0.3-10.1-0.7-15.1-0.5c-2.7,0.1-5.3,1.4-7.9,2.2c0,0.2,0,0.4-0.1,0.6c3.2,2.4,6.5,4.8,10.1,7.4
		c-2,0.6-3.7,0.9-5.4,1.5c-12.2,3.8-24.8,4.7-37.4,5.7c-1.4,0.1-2.8-0.3-4.2-0.8c-5.3-1.9-10.6-3.9-15.9-5.7c-0.9-0.3-2-0.3-2.9,0
		c-4.1,1.6-8.2,3.3-12.2,5c-1.2,0.5-2.1,0.5-3.2-0.2c-5.9-3.4-11.8-6.7-17.7-10.1c-1.4-0.8-2.3-0.8-3.3,0.4
		c-0.1,0.1-0.2,0.2-0.3,0.3c-4.1,4.9-9.7,7.2-15.5,9.2c-0.6,0.2-1.3,0.3-2,0.3c-12.3-0.9-24.5-2.2-36.8-2.5
		c-16-0.3-32.1,0.2-48.1,0.5c-8.2,0.1-16.3,0.8-24.3,2.5c-1,0.2-2.1,0.6-3,1.2c-6.6,4.2-13.2,8.4-19.8,12.6
		c-0.6,0.4-1.2,0.7-1.9,1.1c-3.3-3.3-6.6-6.5-9.8-9.9c-1-1-1.8-1.2-3.2-0.8c-6.5,2.2-13,4.3-19.5,6.4c0-2.2,0.1-4.3,0-6.4
		c-0.2-3-0.7-3.3-3.6-3.3c-9.5,0-19,0-28.5,0c-0.7,0-1.5,0-2.3,0c-0.5,4.8-0.9,9.3-1.4,14.4c-0.7-0.9-1.1-1.4-1.5-2
		c-5.8-8.2-11.6-16.4-17.4-24.7c-0.9-1.4-1.7-1.9-3.5-1.3c-1.9,0.6-4,0.7-6,0.8c-2.2,0.1-4.4,0.1-6.5,0c-7.9-0.4-15.6,0.3-23.2,2.4
		c-1.4,0.4-2.6,0.2-3.7-0.8c-2.3-2.1-4.7-4.1-7-6.2c-0.8-0.8-1.4-1-2.5-0.4c-2.4,1.4-4.9,2.7-7.2,4.1c-3,1.8-4.8,1.7-7.5-0.5
		c-1.3-1-2.8-1.7-4.3-2.7c-1.3,5.5-2.2,6.3-7.5,6c-7.6-0.4-15.2-1.2-22.8-1.7c-1.8-0.1-3.1-0.7-3.9-2.4c-1.1-2.4-2.8-3.1-5.4-2.6
		c-2.3,0.5-4.7,0.6-7.1,0.6c-5.6,0-10.4,2.3-14.9,5.2c-0.3,0.2-0.7,0.4-1.2,0.7c-1.2-2.8-2.3-5.4-3.5-8.1c-0.4,0.1-0.8,0.1-1.1,0.3
		c-5.4,3.1-11.3,3.5-17.3,3.9c-4.5,0.3-8.9,0.8-13.4,1.1c-1.2,0.1-2.6-0.4-3.6-1.1c-3.4-2-6.8-2.4-10.6-1.3
		c-7.7,2.4-15.6,1.7-23.5,1.8c-1,0-2.1,0.7-2.9,1.3c-0.8,0.5-1.5,1.4-2.2,2.1c-2.9,2.7-5.9,3.7-10,2c-5.7-2.4-11.6-4.4-17.5-6
		c-6.7-1.9-13.6-3.3-20.4-4.8c-1.2-0.3-2.5,0.2-3.8,0.3c-1.1,0.1-2.3,0.2-3,0.3c0-4.9-0.2-9.6,0-14.4c0.7-17,1.5-34.1,2.3-51.1
		c0.9-20,1.8-40,2.7-60.1c0-0.4,0.1-0.8,0.1-1.2c-0.8-4.7,1.3-7.4,5.7-8.6c1.9-0.5,2.6-1.8,2.9-3.8c3-21.9,6.2-43.7,9.2-65.6
		c0.1-0.7-0.4-1.7-1-2.1c-4.4-3.4-8.9-6.7-13.3-10.1c-0.6-0.5-1.3-1.5-1.3-2.3c-1.3-25.3-2.5-50.6-3.9-75.9
		c-0.1-1.6,0.3-2.2,1.8-2.8c7.4-2.7,14.7-5.7,22.1-8.4c1.4-0.5,1.7-1.2,1.5-2.6c-1.2-7.5-2.3-15-3.6-22.5c-0.1-0.9-0.6-1.8-1.2-2.5
		c-3.8-4.5-7.8-8.9-11.6-13.4c-0.7-0.8-1.2-2-1.3-3c-0.7-6.4-1.5-12.8-1.7-19.3c-0.1-3.2,1-6.5,1.6-9.8c0.6-3,1.3-6,1.8-9
		c0.2-1.2,0.1-2.6-0.2-3.8c-3.4-11.6-7-23.1-10.2-34.8c-1.1-3.8-1.3-7.9-1.6-11.9c-0.6-6.8-0.7-13.6-1.4-20.3
		C5,180,3.8,173.6,2.8,167.3c-0.9-6-1.9-12.1-2.8-18.1c-0.1-0.8,0-1.8,0.2-2.6c3-12.1,6.2-24.2,9-36.4c1.4-6.1,1.9-12.5,2.7-18.7
		c1.2-8.9,2.3-17.8,3.4-26.7c0.1-1.1-0.1-2.4-0.6-3.4c-3.3-6.3-6.8-12.5-10.1-18.8c-0.4-0.8-0.7-1.8-0.6-2.7
		c1.1-9,2.4-17.9,3.5-26.8c0.2-1.5,0.8-1.7,2.1-1.7c26,0.6,52,1.2,78,1.8c20.4,0.5,40.8,0.9,61.1,1.4c11.1,0.3,22.3,0.5,33.4,0.8
		c0.4,0,0.8,0.1,1.5,0.2c-1.9,2.6-3.7,4.9-5.8,7.8c25.7-0.6,50.9-1.3,76.4-1.9c-0.5-0.7-0.9-1.2-1.4-1.9c0.4-0.3,0.7-0.7,1.1-1
		c7.1-5.4,14.2-10.7,21.4-16c0.7-0.5,1.7-0.9,2.6-0.9c37.8-0.7,75.7-1.3,113.5-1.9c0.4,0,0.8,0,1.9,0c-3.4,4.1-6.5,7.9-9.9,11.9
		c4,0.6,7.8,1.2,11.6,1.7c4.7,0.7,9.4,1.4,14.1,2c1.5,0.2,2,0.9,2.4,2.2c1.1,3.9,2.2,7.8,3.4,12c10.5-1.3,20.9-2.6,31.5-3.9
		c1.1-6.2,2.2-12.3,3.4-18.5c0.8-3.9-0.2-3.4,3.9-3.3c41,0.6,81.9,1.3,122.9,1.9c0.7,0,1.5,0,2.3,0c1.3,5.2,2.6,10.3,3.9,15.6
		c0.5-0.6,0.9-1.1,1.3-1.6c2.6-3.6,5.1-7.2,7.7-10.7c0.4-0.6,1.6-1.1,2.3-1c21.4,3.7,42.8,7.5,64.1,11.3c0.9,0.2,1.9,0.4,2.7,0.8
		c5.2,2.3,10.3,4.6,15.4,6.9c1.1,0.5,1.3,1,1.1,2.2c-1.9,10.8-3.7,21.7-5.4,32.5c-0.2,1-0.1,2.2,0.2,3.2c1.5,6.4,3.2,12.8,4.7,19.2
		c0.5,2,0.8,4,0.8,6c0,24.1,0.3,48.2-0.1,72.4c-0.2,11.4-1.2,22.8-2.1,34.1c-0.9,10.5-2.3,21.1-3.5,31.6c-0.1,0.9-0.8,2-1.6,2.5
		C665.8,233.8,660.9,236.6,655.9,239.6z M78.1,128.9c0.6,0.7,1,1.2,1.5,1.7c28.1,30.1,56.2,60.2,84.4,90.2
		c54.2,57.9,108.3,115.8,162.5,173.7c50.1,53.6,100.3,107.2,150.3,160.8c1.6,1.7,3.1,2.3,5.4,2.2c27.1-1,54.2-1.9,81.3-2.7
		c1.7-0.1,2.3-0.6,2.7-2.1c11.7-42,23.4-84.1,35.2-126.1c0.5-1.6,0.2-2.5-1.2-3.4c-54.5-37-109-74-163.5-111
		c-97.6-66.3-195.3-132.7-292.9-199c-1.2-0.8-2.2-0.9-3.6-0.6c-15.6,4.1-31.2,8.2-46.8,12.3C88.3,126.2,83.3,127.5,78.1,128.9z
		 M266.6,536.6c-46-45.7-91.7-91.1-137.3-136.3c0-0.1-0.2,0.4-0.4,0.9c-13.6,38.5-27.1,77-40.8,115.6c-0.5,1.3-0.3,2,0.8,2.9
		c16.9,14.2,33.8,28.5,50.6,42.7c0.6,0.5,1.5,1,2.3,1c13.3,0.9,26.7,1.7,40.1,2.5c1.4,0.1,2.9-0.1,4.2-0.6
		c18-6.4,35.9-12.8,53.9-19.2C248.8,542.9,257.4,539.8,266.6,536.6z M399.5,142.9c1,0.8,1.7,1.3,2.3,1.8
		c20.5,15.7,41.1,31.3,61.6,47c22.9,17.4,45.7,34.8,68.5,52.3c1.1,0.8,2,1.1,3.3,0.7c2.1-0.8,4.3-1.3,6.4-1.9
		c1.1-0.3,1.5-0.8,1.7-1.9c1.9-13.9,4-27.8,6-41.7c2.5-17.7,5-35.3,7.6-53c0.2-1.4-0.1-2-1.3-2.7c-15.8-8.3-31.5-16.6-47.2-24.8
		c-0.9-0.4-2.1-0.6-3-0.4c-28.2,6.5-56.4,13.2-84.6,19.8C413.8,139.6,406.9,141.2,399.5,142.9z"/>
</g>
</svg>
