<?xml version="1.0" encoding="utf-8"?>
<svg version="1.1" xmlns="http://www.w3.org/2000/svg" xmlns:xlink="http://www.w3.org/1999/xlink" x="0px" y="0px"
	 viewBox="0 0 1292.4 234.3" style="enable-background:new 0 0 1292.4 234.3;" xml:space="preserve">
<path class="fill-primary" d="M217.4,158.3l-39.6-68.6l-6.1-10.5l6.1-10.5l20.2-34.9l-13.3-23.1H61.5L0,117.1l61.5,106.6h123.1l35.3-61.1
  L217.4,158.3z M177.2,114.9l12.7,22l-45,45c-1.8,1.8-4.6,1.8-6.4,0l-11-11c-1.8-1.8-1.8-4.6,0-6.4L177.2,114.9z M158.9,83.3
  l1.3,2.3l6.2,10.7l4.4,7.6l-36.3,36.3c-1.8,1.8-4.6,1.8-6.4,0l-11-11c-1.8-1.8-1.8-4.6,0-6.4l38.4-38.4
  C156.5,83.7,157.7,83.3,158.9,83.3z M82.1,112.5c-1.8-1.8-1.8-4.6,0-6.4l11.2-11.2c1.8-1.8,4.6-1.8,6.4,0l11,11
  c1.8,1.8,1.8,4.6,0,6.4l-11.2,11.2c-1.8,1.8-4.6,1.8-6.4,0L82.1,112.5z M84.8,138l-11.2,11.2c-1.8,1.8-4.6,1.8-6.4,0l-11-11
  c-1.8-1.8-1.8-4.6,0-6.4l11.2-11.2c1.8-1.8,4.6-1.8,6.4,0l11,11C86.6,133.4,86.6,136.3,84.8,138z M91.1,149.1l11-11
  c1.8-1.8,4.6-1.8,6.4,0l11,11c1.8,1.8,1.8,4.6,0,6.4l-11,11c-1.8,1.8-4.6,1.8-6.4,0l-11-11C89.3,153.7,89.3,150.8,91.1,149.1z
    M136.6,58l11,11c1.8,1.8,1.8,4.6,0,6.4L124.9,98c-1.8,1.8-4.6,1.8-6.4,0l-11-11c-1.8-1.8-1.8-4.6,0-6.4L130.2,58
  C132,56.2,134.8,56.2,136.6,58z M70,66.2l34-34c1.8-1.8,4.6-1.8,6.4,0l11,11c1.8,1.8,1.8,4.6,0,6.4l-34,34c-1.8,1.8-4.6,1.8-6.4,0
  l-11-11C68.2,70.9,68.2,68,70,66.2z M43.2,93.1l11-11c1.8-1.8,4.6-1.8,6.4,0l11,11c1.8,1.8,1.8,4.6,0,6.4l-11,11
  c-1.8,1.8-4.6,1.8-6.4,0l-11-11C41.4,97.7,41.4,94.8,43.2,93.1z M28.7,135.8l-7.5-7.5l-4.6-8c0.2-0.7,0.6-1.3,1.1-1.9l11-11
  c1.8-1.8,4.6-1.8,6.4,0l11,11c1.8,1.8,1.8,4.6,0,6.4l-11,11C33.3,137.6,30.4,137.6,28.7,135.8z M35.3,152.8l6.3-6.3
  c1.8-1.8,4.6-1.8,6.4,0l11,11c1.8,1.8,1.8,4.6,0,6.4l-11,11L35.3,152.8z M68.5,206.3l-1.4,1.4l-11.5-19.9c0.7,0.2,1.4,0.6,1.9,1.1
  l11,11C70.2,201.7,70.2,204.6,68.5,206.3z M76.6,191.9l-11-11c-1.8-1.8-1.8-4.6,0-6.4l11-11c1.8-1.8,4.6-1.8,6.4,0l11,11
  c1.8,1.8,1.8,4.6,0,6.4l-11,11C81.2,193.6,78.4,193.6,76.6,191.9z M81,211.1l6-6c1.8-1.8,4.6-1.8,6.4,0l6,6H81z M130.5,196.3
  l-11.2,11.2c-1.8,1.8-4.6,1.8-6.4,0l-11-11c-1.8-1.8-1.8-4.6,0-6.4l11.2-11.2c1.8-1.8,4.6-1.8,6.4,0l11,11
  C132.2,191.7,132.2,194.5,130.5,196.3z M133,211.1l11.5-11.5c1.8-1.8,4.6-1.8,6.4,0l11,11c0.2,0.2,0.3,0.4,0.4,0.5H133z
    M191.2,187.6l-14.7,14.7c-1.8,1.8-4.6,1.8-6.4,0l-11-11c-1.8-1.8-1.8-4.6,0-6.4l18-18c1.8-1.8,4.6-1.8,6.4,0l11,11
  c0.6,0.6,0.9,1.2,1.1,2L191.2,187.6z M202.1,168.7l-10.2-10.2c-1.8-1.8-1.8-4.6,0-6.4l4.3-4.3l8.9,15.5L202.1,168.7z"/>
<g class="fill-light">
  <path d="M273.9,207.8h-24l-6.8,15.9h-6.9l25.9-59l25.2,59h-6.9L273.9,207.8z M271.5,201.9l-9.5-22.5l-9.6,22.5H271.5z
    "/>
  <path d="M351.2,173.3v50.4H345v-50.4h-13.7v-5.9h33.6v5.9H351.2z"/>
  <path d="M425.4,167.4v50.4H441v5.9h-21.8v-56.3H425.4z"/>
  <path d="M526.3,207.8h-24l-6.8,15.9h-6.9l25.9-59l25.2,59h-6.9L526.3,207.8z M523.8,201.9l-9.5-22.5l-9.6,22.5H523.8z
    "/>
  <path d="M593.5,223.7V165l43.9,46v-43.6h6.2v58.8l-43.9-46v43.5H593.5z"/>
  <path d="M717.8,173.3v50.4h-6.2v-50.4h-13.7v-5.9h33.6v5.9H717.8z"/>
  <path d="M813,207.8h-24l-6.8,15.9h-6.9l25.9-59l25.2,59h-6.9L813,207.8z M810.6,201.9l-9.5-22.5l-9.6,22.5H810.6z"/>
  <path d="M942.7,223.7l20.5-23.7c1.4-1.7,5.2-6.2,6.6-8.2c2.5-3.6,3.1-6.3,3.1-8.6c0-6.3-4.6-11-11.2-11
    c-4,0-7.3,1.8-9.4,5c-1.1,1.7-1.8,3.8-1.9,6.7h-6.2c0.3-5.7,2-9.1,4.2-11.6c2.4-2.7,6.3-5.7,13.3-5.7c10,0,17.4,7.1,17.4,16.8
    c0,3.8-1.1,7.3-4.5,12.1c-2.4,3.3-5.4,6.8-7.7,9.4l-11.7,13.2h23.8v5.7H942.7z"/>
  <path d="M1039.7,216.2c-3.7-5.4-5.7-12.7-5.7-20.7c0-8,1.9-15.3,5.7-20.7c4.3-6.2,10-8.4,14.4-8.4
    c4.5,0,10.1,2.2,14.4,8.4c3.7,5.4,5.7,12.7,5.7,20.7c0,8-1.9,15.3-5.7,20.7c-4.3,6.2-10,8.4-14.4,8.4
    C1049.6,224.7,1044,222.5,1039.7,216.2z M1044.4,178.4c-3,4.8-4.1,11.2-4.1,17.1c0,5.9,1.1,12.3,4.1,17.1c3,4.7,6.8,6.2,9.7,6.2
    c2.9,0,6.8-1.5,9.7-6.2c3-4.8,4.1-11.2,4.1-17.1c0-5.9-1.1-12.3-4.1-17.1c-3-4.7-6.8-6.2-9.7-6.2
    C1051.2,172.2,1047.4,173.7,1044.4,178.4z"/>
  <path d="M1137.9,173.3h-9.5l3.3-5.9h12.4v56.3h-6.2V173.3z"/>
  <path d="M1214.6,221.5l12.9-18c-1.6,0.5-3.2,0.8-5,0.8c-10.8,0-18.2-8.1-18.2-18.6c0-11.2,8.1-19.3,19.3-19.3
    c13.2,0,19.5,10.3,19.5,19.2c0,2.1-0.4,7.1-4.6,12.9l-19.2,26.5L1214.6,221.5z M1210.6,185.6c0,7.5,5.6,13,13.2,13
    s13.1-5.7,13.1-13c0-7.5-5.3-13.4-13.2-13.4C1216,172.2,1210.6,178,1210.6,185.6z"/>
  <polygon points="286,123.2 249.8,123.2 224.3,79.1 249.8,35 313,35 327.1,10.5 235.6,10.5 196,79.1 235.6,147.7
    271.9,147.7 		"/>
  <polygon points="347.4,66.9 268.2,66.9 282.3,91.4 319.1,91.4 300.7,123.2 300.7,123.2 286.6,147.7 314.9,147.7
    354.5,79.1 		"/>
  <polygon points="420.6,10.5 410.8,10.5 339.4,147.7 367.6,147.7 379.1,125.7 379.1,125.7 394.5,96.1 394.5,96.1
    415.7,55.4 439.5,101.2 406.6,101.2 393.8,125.7 452.2,125.7 463.7,147.7 492,147.7 	"/>
  <polygon points="631,69.1 658,37 658,10.5 648.2,10.5 583.6,87.5 518.9,10.5 509.1,10.5 509.1,147.7 536.1,147.7
    536.1,69.1 578.7,119.8 588.5,119.8 631,69.1 		"/>
  <polygon points="631,87.5 631,147.7 658,147.7 658,55.4 		"/>
  <polygon points="707,91.4 768.8,91.4 782.9,66.9 707,66.9 707,35 782.9,35 782.9,10.5 680,10.5 680,147.7 782.9,147.7
    782.9,123.2 707,123.2 	"/>
  <polygon points="912.8,35 912.8,10.5 809.9,10.5 809.9,66.9 800.1,66.9 785.9,91.4 809.9,91.4 809.9,147.7
    836.8,147.7 836.8,91.4 891.3,91.4 905.4,66.9 836.8,66.9 836.8,35 	"/>
  <polygon points="1054.6,123.2 1035.3,123.2 959.3,123.2 959.3,91.4 1013.8,91.4 1027.9,66.9 959.3,66.9 959.3,35
    1035.3,35 1035.3,10.5 932.4,10.5 932.4,35 932.4,147.7 1035.3,147.7 1040.4,147.7 	"/>
  <polygon points="1087.4,66.9 1078.2,50.9 1087.4,35 1142.9,35 1157.1,10.5 1073.3,10.5 1050,50.9 1073.3,91.4
    1136.7,91.4 1145.9,107.3 1136.7,123.2 1071.7,123.2 1057.6,147.7 1150.9,147.7 1174.2,107.3 1150.9,66.9 	"/>
  <polygon points="1174.2,10.5 1160.1,35 1208.5,35 1208.5,147.7 1237.9,147.7 1237.9,35 1277.1,35 1291.2,10.5 	"/>
</g>
</svg>
