<?xml version="1.0" encoding="utf-8"?>
<!-- Generator: Adobe Illustrator 22.1.0, SVG Export Plug-In . SVG Version: 6.00 Build 0)  -->
<!DOCTYPE svg PUBLIC "-//W3C//DTD SVG 1.1//EN" "http://www.w3.org/Graphics/SVG/1.1/DTD/svg11.dtd" [
	<!ENTITY st0 "fill:none;">
	<!ENTITY st1 "fill:#AAAAAA;">
]>
<svg version="1.1" id="Layer_1" xmlns="http://www.w3.org/2000/svg" xmlns:xlink="http://www.w3.org/1999/xlink" x="0px" y="0px"
	 viewBox="0 0 200 200" style="enable-background:new 0 0 200 200;" xml:space="preserve">
<g>
	<path style="&st0;" d="M154.76,166.32c0.28,0.28,0.73,0.28,1.01,0l7.29-7.29c0.28-0.28,0.28-0.73,0-1.01l-7.29-7.29
		c-0.28-0.28-0.73-0.28-1.01,0l-7.29,7.29c-0.28,0.28-0.28,0.73,0,1.01L154.76,166.32z"/>
	<path style="&st0;" d="M160.86,172.42l7.29,7.29c0.28,0.28,0.73,0.28,1.01,0l7.29-7.29c0.28-0.28,0.28-0.73,0-1.01l-7.29-7.29
		c-0.13-0.14-0.31-0.21-0.51-0.21s-0.37,0.07-0.51,0.21l-7.29,7.29c-0.14,0.14-0.21,0.32-0.21,0.51S160.72,172.28,160.86,172.42
		L160.86,172.42z"/>
	<path style="&st0;" d="M127.98,139.54c0.27,0.27,0.74,0.27,1.01,0l7.29-7.29c0.28-0.28,0.28-0.73,0-1.01l-7.29-7.29
		c-0.28-0.28-0.73-0.28-1.01,0l-7.29,7.29c-0.28,0.28-0.28,0.73,0,1.01L127.98,139.54z"/>
	<path style="&st0;" d="M141.37,152.93c0.28,0.28,0.73,0.28,1.01,0l7.29-7.29c0.28-0.28,0.28-0.73,0-1.01l-7.29-7.29
		c-0.28-0.28-0.73-0.28-1.01,0l-7.29,7.29c-0.28,0.28-0.28,0.73,0,1.01L141.37,152.93z"/>
	<path style="&st0;" d="M174.24,185.8l7.29,7.29c0.27,0.27,0.74,0.27,1.01,0l7.29-7.29c0.28-0.28,0.28-0.73,0-1.01l-7.29-7.29
		c-0.13-0.14-0.31-0.21-0.51-0.21s-0.37,0.07-0.51,0.21l-7.29,7.29c-0.14,0.13-0.21,0.31-0.21,0.51S174.11,185.67,174.24,185.8
		L174.24,185.8z"/>
	<path style="&st0;" d="M185.24,125.51c-0.13-0.14-0.31-0.21-0.51-0.21s-0.37,0.07-0.51,0.21l-7.29,7.29
		c-0.14,0.14-0.21,0.32-0.21,0.51s0.07,0.37,0.21,0.51h0l7.29,7.29c0.28,0.28,0.73,0.28,1.01,0l7.29-7.29
		c0.14-0.13,0.21-0.31,0.21-0.51s-0.07-0.37-0.21-0.51L185.24,125.51z"/>
	<path style="&st0;" d="M145.08,85.35c-0.28-0.28-0.73-0.28-1.01,0l-7.29,7.29c-0.28,0.28-0.28,0.73,0,1.01v0l7.29,7.29
		c0.28,0.28,0.73,0.28,1.01,0l7.29-7.29c0.28-0.28,0.28-0.73,0-1.01L145.08,85.35z"/>
	<path style="&st0;" d="M131.69,71.96c-0.27-0.27-0.74-0.27-1.01,0l-7.29,7.29c-0.28,0.28-0.28,0.73,0,1.01v0l7.29,7.29
		c0.27,0.27,0.74,0.27,1.01,0l7.29-7.29c0.14-0.14,0.21-0.31,0.21-0.51c0-0.19-0.07-0.37-0.21-0.51L131.69,71.96z"/>
	<path style="&st0;" d="M158.46,98.73c-0.14-0.14-0.32-0.21-0.51-0.21c-0.18,0-0.37,0.07-0.51,0.21l-7.29,7.29
		c-0.14,0.13-0.21,0.31-0.21,0.51s0.07,0.37,0.21,0.51l7.29,7.29c0.28,0.28,0.73,0.28,1.01,0l7.29-7.29c0.28-0.28,0.28-0.73,0-1.01
		L158.46,98.73z"/>
	<path style="&st0;" d="M107.3,118.86l7.29,7.29c0.27,0.27,0.74,0.27,1.01,0l7.29-7.29c0.14-0.14,0.21-0.32,0.21-0.51
		s-0.07-0.37-0.21-0.51l-7.29-7.29c-0.14-0.14-0.32-0.21-0.51-0.21s-0.37,0.07-0.51,0.21l-7.29,7.29c-0.14,0.13-0.21,0.31-0.21,0.51
		S107.16,118.72,107.3,118.86L107.3,118.86z"/>
	<path style="&st0;" d="M171.85,112.12c-0.13-0.14-0.31-0.21-0.51-0.21s-0.37,0.07-0.51,0.21l-7.29,7.29
		c-0.28,0.28-0.28,0.73,0,1.01l7.29,7.29c0.28,0.28,0.73,0.28,1.01,0l7.29-7.29c0.28-0.28,0.28-0.73,0-1.01L171.85,112.12z"/>
	<path style="&st0;" d="M177.64,145.25c-0.14-0.14-0.32-0.21-0.51-0.21s-0.37,0.07-0.51,0.21l-7.29,7.29
		c-0.28,0.28-0.28,0.73,0,1.01l7.29,7.29c0.28,0.28,0.73,0.28,1.01,0l7.29-7.29c0.28-0.28,0.28-0.73,0-1.01L177.64,145.25z"/>
	<path style="&st0;" d="M163.24,147.46c0.28,0.28,0.73,0.28,1.01,0l7.29-7.29c0.28-0.28,0.28-0.73,0-1.01l-7.29-7.29
		c-0.28-0.28-0.73-0.28-1.01,0l-7.29,7.29c-0.28,0.28-0.28,0.73,0,1.01L163.24,147.46z"/>
	<path style="&st0;" d="M150.86,118.47c-0.28-0.28-0.73-0.28-1.01,0l-7.29,7.29c-0.28,0.28-0.28,0.73,0,1.01l7.29,7.29
		c0.27,0.27,0.74,0.27,1.01,0l7.29-7.29c0.14-0.14,0.21-0.32,0.21-0.51s-0.07-0.37-0.21-0.51L150.86,118.47z"/>
	<path style="&st0;" d="M93.91,105.47l7.29,7.29c0.27,0.27,0.74,0.27,1.01,0l7.29-7.29c0.28-0.28,0.28-0.73,0-1.01l-7.29-7.29
		c-0.13-0.14-0.31-0.21-0.51-0.21s-0.37,0.07-0.51,0.21l-7.29,7.29c-0.14,0.13-0.21,0.31-0.21,0.51S93.77,105.34,93.91,105.47
		L93.91,105.47z"/>
	<path style="&st0;" d="M41.99,108.24c0.27,0.27,0.74,0.27,1.01,0l7.29-7.29c0.28-0.28,0.28-0.73,0-1.01L37.06,86.7
		c-0.28-0.28-0.73-0.28-1.01,0l-7.29,7.29c-0.28,0.28-0.28,0.73,0,1.01L41.99,108.24z"/>
	<path style="&st0;" d="M80.52,92.08l7.29,7.29c0.28,0.28,0.73,0.28,1.01,0l7.29-7.29c0.28-0.28,0.28-0.73,0-1.01l-7.29-7.29
		c-0.14-0.14-0.32-0.21-0.51-0.21s-0.37,0.07-0.51,0.21l-7.29,7.29C80.24,91.35,80.24,91.8,80.52,92.08z"/>
	<path style="&st0;" d="M137.47,105.08c-0.13-0.14-0.31-0.21-0.51-0.21s-0.37,0.07-0.51,0.21l-7.29,7.29
		c-0.14,0.13-0.21,0.31-0.21,0.51s0.07,0.37,0.21,0.51h0l7.29,7.29c0.27,0.27,0.74,0.27,1.01,0l7.29-7.29
		c0.14-0.13,0.21-0.31,0.21-0.51s-0.07-0.37-0.21-0.51L137.47,105.08z"/>
	<path style="&st0;" d="M137.53,176.43l7.29,7.29c0.27,0.27,0.74,0.27,1.01,0l7.29-7.29c0.28-0.28,0.28-0.73,0-1.01l-7.29-7.29
		c-0.14-0.14-0.32-0.21-0.51-0.21s-0.37,0.07-0.51,0.21l-7.29,7.29c-0.14,0.13-0.21,0.31-0.21,0.51S137.39,176.3,137.53,176.43
		L137.53,176.43z"/>
	<path style="&st0;" d="M124.09,91.69c-0.14-0.14-0.32-0.21-0.51-0.21s-0.37,0.07-0.51,0.21l-7.29,7.29
		c-0.14,0.14-0.21,0.31-0.21,0.51c0,0.19,0.07,0.37,0.21,0.51l7.29,7.29c0.27,0.27,0.74,0.27,1.01,0l7.29-7.29
		c0.28-0.28,0.28-0.73,0-1.01L124.09,91.69z"/>
	<path style="&st0;" d="M110.7,78.31c-0.13-0.14-0.31-0.21-0.51-0.21s-0.37,0.07-0.51,0.21l-7.29,7.29
		c-0.14,0.14-0.21,0.31-0.21,0.51s0.07,0.37,0.21,0.51l7.29,7.29c0.27,0.27,0.74,0.27,1.01,0l7.29-7.29c0.28-0.28,0.28-0.73,0-1.01
		L110.7,78.31z"/>
	<path style="&st0;" d="M97.31,64.92c-0.14-0.14-0.32-0.21-0.51-0.21s-0.37,0.07-0.51,0.21L89,72.21c-0.28,0.28-0.28,0.73,0,1.01
		l7.29,7.29c0.28,0.28,0.73,0.28,1.01,0l7.29-7.29c0.28-0.28,0.28-0.73,0-1.01L97.31,64.92z"/>
	<path style="&st0;" d="M57.13,123.38c0.28,0.28,0.73,0.28,1.01,0l7.29-7.29c0.14-0.13,0.21-0.31,0.21-0.51s-0.07-0.37-0.21-0.51
		L56.36,106c-0.28-0.28-0.73-0.28-1.01,0l-7.29,7.29c-0.28,0.28-0.28,0.73,0,1.01L57.13,123.38z"/>
	<path style="&st0;" d="M50.5,73.09c-0.18,0-0.37,0.07-0.51,0.21l-7.29,7.29c-0.28,0.28-0.28,0.73,0,1.01l21.71,21.71
		c0.27,0.27,0.74,0.27,1.01,0l7.29-7.29c0.28-0.28,0.28-0.73,0-1.01L51,73.3C50.86,73.16,50.68,73.09,50.5,73.09z"/>
	<path style="&st0;" d="M78.88,101.19c-0.14-0.14-0.32-0.21-0.51-0.21c-0.18,0-0.37,0.07-0.51,0.21l-7.29,7.29
		c-0.14,0.13-0.21,0.31-0.21,0.51s0.07,0.37,0.21,0.51h0l7.29,7.29c0.27,0.27,0.74,0.27,1.01,0l7.29-7.29
		c0.14-0.13,0.21-0.31,0.21-0.51s-0.07-0.37-0.21-0.51L78.88,101.19z"/>
	<path style="&st0;" d="M91.52,31.79c-0.28-0.28-0.73-0.28-1.01,0l-7.29,7.29c-0.28,0.28-0.28,0.73,0,1.01l7.29,7.29
		c0.28,0.28,0.73,0.28,1.01,0l7.29-7.29c0.14-0.14,0.21-0.31,0.21-0.51c0-0.19-0.07-0.37-0.21-0.51L91.52,31.79z"/>
	<path style="&st0;" d="M64.05,59.38c-0.18,0-0.37,0.07-0.51,0.21l-7.21,7.21c-0.14,0.14-0.21,0.31-0.21,0.51
		c0,0.19,0.07,0.37,0.21,0.51l18.24,18.24c0.28,0.28,0.73,0.28,1.01,0l7.21-7.21c0.28-0.28,0.28-0.73,0-1.01L64.56,59.59
		C64.42,59.45,64.24,59.38,64.05,59.38z"/>
	<path style="&st0;" d="M77.57,45.48c-0.18,0-0.37,0.07-0.51,0.21l-7.29,7.29c-0.28,0.28-0.28,0.73,0,1.01L83,67.22
		c0.28,0.28,0.73,0.28,1.01,0l7.29-7.29c0.28-0.28,0.28-0.73,0-1.01L78.08,45.69C77.94,45.55,77.76,45.48,77.57,45.48z"/>
	<path style="&st0;" d="M131.43,170.34c0.28,0.28,0.73,0.28,1.01,0l7.29-7.29c0.28-0.28,0.28-0.73,0-1.01l-7.29-7.29
		c-0.14-0.14-0.32-0.21-0.51-0.21s-0.37,0.07-0.51,0.21l-7.29,7.29c-0.28,0.28-0.28,0.73,0,1.01L131.43,170.34z"/>
	<path style="&st0;" d="M118.04,156.95c0.28,0.28,0.73,0.28,1.01,0l7.29-7.29c0.28-0.28,0.28-0.73,0-1.01l-7.29-7.29
		c-0.14-0.14-0.32-0.21-0.51-0.21s-0.37,0.07-0.51,0.21l-7.29,7.29c-0.28,0.28-0.28,0.73,0,1.01L118.04,156.95z"/>
	<path style="&st0;" d="M91.27,130.17c0.27,0.27,0.74,0.27,1.01,0l7.29-7.29c0.14-0.13,0.21-0.31,0.21-0.51s-0.07-0.37-0.21-0.51
		l-7.29-7.29c-0.27-0.27-0.74-0.27-1.01,0l-7.29,7.29c-0.14,0.13-0.21,0.31-0.21,0.51s0.07,0.37,0.21,0.51L91.27,130.17z"/>
	<path style="&st0;" d="M118.3,58.57c-0.27-0.27-0.74-0.27-1.01,0L110,65.86c-0.28,0.28-0.28,0.73,0,1.01v0l7.29,7.29
		c0.27,0.27,0.74,0.27,1.01,0l7.29-7.29c0.14-0.14,0.21-0.31,0.21-0.51s-0.07-0.37-0.21-0.51L118.3,58.57z"/>
	<path style="&st0;" d="M72.08,138.33c0.28,0.28,0.73,0.28,1.01,0l7.29-7.29c0.28-0.28,0.28-0.73,0-1.01l-9.07-9.07
		c-0.28-0.28-0.73-0.28-1.01,0L63,128.24c-0.28,0.28-0.28,0.73,0,1.01L72.08,138.33z"/>
	<path style="&st0;" d="M104.91,45.18c-0.13-0.14-0.31-0.21-0.51-0.21s-0.37,0.07-0.51,0.21l-7.29,7.29c-0.28,0.28-0.28,0.73,0,1.01
		l7.29,7.29c0.27,0.27,0.74,0.27,1.01,0l7.29-7.29c0.28-0.28,0.28-0.73,0-1.01L104.91,45.18z"/>
	<path style="&st0;" d="M104.65,143.56c0.28,0.28,0.73,0.28,1.01,0l7.29-7.29c0.28-0.28,0.28-0.73,0-1.01l-7.29-7.29
		c-0.27-0.27-0.74-0.27-1.01,0l-7.29,7.29c-0.28,0.28-0.28,0.73,0,1.01L104.65,143.56z"/>
	<path style="&st1;" d="M196.81,138.09l-7.29,7.29c-0.73,0.73-0.73,1.91,0,2.63l7.29,7.29c0.35,0.35,0.82,0.55,1.32,0.55
		s0.96-0.19,1.32-0.55l0.55-0.55v-1.62l-1.36,1.36c-0.27,0.27-0.74,0.27-1.01,0l-7.29-7.29c-0.28-0.28-0.28-0.73,0-1.01l7.29-7.29
		c0.13-0.13,0.31-0.21,0.51-0.21s0.37,0.07,0.51,0.21l1.37,1.37v-1.62l-0.56-0.56C198.74,137.39,197.51,137.39,196.81,138.09z"/>
	<path style="&st1;" d="M193.89,133.31c0-0.5-0.19-0.96-0.55-1.32l-7.29-7.29c-0.7-0.71-1.93-0.7-2.63,0l-7.29,7.29
		c-0.35,0.35-0.55,0.82-0.55,1.32s0.19,0.96,0.55,1.32l7.29,7.29c0.36,0.36,0.84,0.54,1.32,0.54s0.95-0.18,1.32-0.54l7.29-7.29
		C193.7,134.28,193.89,133.81,193.89,133.31z M192.54,133.82l-7.29,7.29c-0.28,0.28-0.73,0.28-1.01,0l-7.29-7.29h0
		c-0.13-0.13-0.21-0.31-0.21-0.51s0.07-0.37,0.21-0.51l7.29-7.29c0.13-0.13,0.31-0.21,0.51-0.21s0.37,0.07,0.51,0.21l7.29,7.29
		c0.13,0.13,0.21,0.31,0.21,0.51S192.67,133.68,192.54,133.82z"/>
	<path style="&st1;" d="M172.66,111.31c-0.7-0.71-1.93-0.7-2.63,0l-7.29,7.29c-0.73,0.73-0.73,1.91,0,2.63l7.29,7.29
		c0.36,0.36,0.84,0.54,1.32,0.54s0.95-0.18,1.32-0.54l7.29-7.29c0.73-0.73,0.73-1.91,0-2.63L172.66,111.31z M179.15,120.43
		l-7.29,7.29c-0.28,0.28-0.73,0.28-1.01,0l-7.29-7.29c-0.28-0.28-0.28-0.73,0-1.01l7.29-7.29c0.14-0.14,0.32-0.21,0.51-0.21
		s0.37,0.07,0.51,0.21l7.29,7.29C179.43,119.7,179.43,120.15,179.15,120.43z"/>
	<path style="&st1;" d="M159.28,97.92c-0.73-0.73-1.91-0.72-2.63,0l-7.29,7.29c-0.35,0.35-0.55,0.82-0.55,1.32s0.19,0.96,0.55,1.32
		l7.29,7.29c0.36,0.36,0.84,0.54,1.32,0.54s0.95-0.18,1.32-0.54l7.29-7.29c0.72-0.73,0.72-1.91,0-2.63L159.28,97.92z M165.76,107.04
		l-7.29,7.29c-0.28,0.28-0.73,0.28-1.01,0l-7.29-7.29c-0.14-0.14-0.21-0.32-0.21-0.51s0.07-0.37,0.21-0.51l7.29-7.29
		c0.14-0.14,0.32-0.21,0.51-0.21c0.18,0,0.37,0.07,0.51,0.21l7.29,7.29C166.04,106.31,166.04,106.76,165.76,107.04z"/>
	<path style="&st1;" d="M145.89,84.54c-0.73-0.73-1.91-0.72-2.63,0l-7.29,7.29c-0.73,0.73-0.73,1.91,0,2.63l7.29,7.29
		c0.36,0.36,0.84,0.54,1.32,0.54c0.48,0,0.95-0.18,1.32-0.54l7.29-7.29c0.73-0.73,0.73-1.91,0-2.63L145.89,84.54z M152.37,93.65
		l-7.29,7.29c-0.28,0.28-0.73,0.28-1.01,0l-7.29-7.29v0c-0.28-0.28-0.28-0.73,0-1.01l7.29-7.29c0.28-0.28,0.73-0.28,1.01,0
		l7.29,7.29C152.65,92.92,152.65,93.37,152.37,93.65z"/>
	<path style="&st1;" d="M132.5,71.15c-0.71-0.7-1.93-0.7-2.63,0l-7.29,7.29c-0.73,0.73-0.73,1.91,0,2.63l7.29,7.29
		c0.35,0.35,0.82,0.55,1.32,0.55s0.96-0.19,1.32-0.55l7.29-7.29c0.35-0.35,0.55-0.82,0.55-1.32c0-0.5-0.19-0.97-0.55-1.32
		L132.5,71.15z M138.98,80.26l-7.29,7.29c-0.27,0.27-0.74,0.27-1.01,0l-7.29-7.29v0c-0.28-0.28-0.28-0.73,0-1.01l7.29-7.29
		c0.27-0.27,0.74-0.27,1.01,0l7.29,7.29c0.14,0.14,0.21,0.31,0.21,0.51C139.19,79.95,139.12,80.13,138.98,80.26z"/>
	<path style="&st1;" d="M119.11,57.76c-0.7-0.7-1.93-0.7-2.63,0l-7.29,7.29c-0.73,0.73-0.73,1.91,0,2.63l7.29,7.29
		c0.35,0.35,0.82,0.55,1.32,0.55s0.96-0.19,1.32-0.55l7.29-7.29c0.35-0.35,0.55-0.82,0.55-1.32s-0.19-0.97-0.55-1.32L119.11,57.76z
		 M125.59,66.87l-7.29,7.29c-0.27,0.27-0.74,0.27-1.01,0L110,66.87v0c-0.28-0.28-0.28-0.73,0-1.01l7.29-7.29
		c0.27-0.27,0.74-0.27,1.01,0l7.29,7.29c0.14,0.14,0.21,0.31,0.21,0.51S125.73,66.74,125.59,66.87z"/>
	<path style="&st1;" d="M105.72,44.37c-0.7-0.7-1.93-0.7-2.63,0l-7.29,7.29c-0.73,0.73-0.73,1.91,0,2.63l7.29,7.29
		c0.35,0.35,0.82,0.55,1.32,0.55s0.96-0.19,1.32-0.55l7.29-7.29c0.73-0.73,0.73-1.91,0-2.63L105.72,44.37z M112.2,53.49l-7.29,7.29
		c-0.27,0.27-0.74,0.27-1.01,0l-7.29-7.29c-0.28-0.28-0.28-0.73,0-1.01l7.29-7.29c0.13-0.14,0.32-0.21,0.51-0.21
		s0.37,0.07,0.51,0.21l7.29,7.29C112.48,52.75,112.48,53.21,112.2,53.49z"/>
	<path style="&st1;" d="M92.33,30.98c-0.73-0.72-1.91-0.73-2.63,0l-7.29,7.29c-0.73,0.73-0.73,1.91,0,2.63l7.29,7.29
		c0.36,0.36,0.84,0.54,1.32,0.54c0.48,0,0.95-0.18,1.32-0.54l7.29-7.29c0.35-0.35,0.55-0.82,0.55-1.32s-0.19-0.96-0.55-1.32
		L92.33,30.98z M98.81,40.1l-7.29,7.29c-0.28,0.28-0.73,0.28-1.01,0l-7.29-7.29c-0.28-0.28-0.28-0.73,0-1.01l7.29-7.29
		c0.28-0.28,0.73-0.28,1.01,0l7.29,7.29c0.14,0.14,0.21,0.31,0.21,0.51C99.02,39.78,98.95,39.96,98.81,40.1z"/>
	<path style="&st1;" d="M76.26,44.88l-7.29,7.29c-0.73,0.73-0.73,1.91,0,2.63l13.23,13.23c0.36,0.36,0.84,0.54,1.32,0.54
		c0.48,0,0.95-0.18,1.32-0.54l7.29-7.29c0.73-0.73,0.73-1.91,0-2.63L78.89,44.88C78.16,44.15,76.98,44.15,76.26,44.88z M91.31,59.93
		l-7.29,7.29c-0.28,0.28-0.73,0.28-1.01,0L69.77,53.99c-0.28-0.28-0.28-0.73,0-1.01l7.29-7.29c0.14-0.14,0.32-0.21,0.51-0.21
		c0.18,0,0.37,0.07,0.51,0.21l13.23,13.23C91.59,59.2,91.59,59.65,91.31,59.93z"/>
	<path style="&st1;" d="M178.45,144.44c-0.73-0.73-1.91-0.72-2.63,0l-7.29,7.29c-0.73,0.73-0.73,1.91,0,2.63l7.29,7.29
		c0.36,0.36,0.84,0.54,1.32,0.54s0.95-0.18,1.32-0.54l7.29-7.29c0.73-0.73,0.73-1.91,0-2.63L178.45,144.44z M184.94,153.56
		l-7.29,7.29c-0.28,0.28-0.73,0.28-1.01,0l-7.29-7.29c-0.28-0.28-0.28-0.73,0-1.01l7.29-7.29c0.14-0.14,0.32-0.21,0.51-0.21
		s0.37,0.07,0.51,0.21l7.29,7.29C185.21,152.82,185.21,153.28,184.94,153.56z"/>
	<path style="&st1;" d="M155.14,140.97l7.29,7.29c0.36,0.36,0.84,0.54,1.32,0.54c0.48,0,0.95-0.18,1.32-0.54l7.29-7.29
		c0.72-0.73,0.72-1.91,0-2.63l-7.29-7.29c-0.73-0.72-1.91-0.72-2.63,0l-7.29,7.29C154.41,139.07,154.41,140.25,155.14,140.97z
		 M155.95,139.15l7.29-7.29c0.28-0.28,0.73-0.28,1.01,0l7.29,7.29c0.28,0.28,0.28,0.73,0,1.01l-7.29,7.29
		c-0.28,0.28-0.73,0.28-1.01,0l-7.29-7.29C155.67,139.89,155.67,139.43,155.95,139.15z"/>
	<path style="&st1;" d="M151.67,117.66c-0.73-0.72-1.91-0.72-2.63,0l-7.29,7.29c-0.73,0.73-0.73,1.91,0,2.63l7.29,7.29
		c0.35,0.35,0.82,0.55,1.32,0.55s0.96-0.19,1.32-0.55l7.29-7.29c0.35-0.35,0.55-0.82,0.55-1.32s-0.19-0.96-0.55-1.32L151.67,117.66z
		 M158.16,126.78l-7.29,7.29c-0.27,0.27-0.74,0.27-1.01,0l-7.29-7.29c-0.28-0.28-0.28-0.73,0-1.01l7.29-7.29
		c0.28-0.28,0.73-0.28,1.01,0l7.29,7.29c0.13,0.13,0.21,0.31,0.21,0.51S158.29,126.64,158.16,126.78z"/>
	<path style="&st1;" d="M138.29,104.27c-0.7-0.71-1.93-0.7-2.63,0l-7.29,7.29c-0.35,0.35-0.55,0.82-0.55,1.32s0.19,0.96,0.55,1.32
		l7.29,7.29c0.35,0.35,0.82,0.55,1.32,0.55s0.96-0.19,1.32-0.55l7.29-7.29c0.35-0.35,0.55-0.82,0.55-1.32s-0.19-0.96-0.55-1.32
		L138.29,104.27z M144.77,113.39l-7.29,7.29c-0.27,0.27-0.74,0.27-1.01,0l-7.29-7.29h0c-0.13-0.13-0.21-0.31-0.21-0.51
		s0.07-0.37,0.21-0.51l7.29-7.29c0.13-0.13,0.31-0.21,0.51-0.21s0.37,0.07,0.51,0.21l7.29,7.29c0.13,0.13,0.21,0.31,0.21,0.51
		S144.9,113.25,144.77,113.39z"/>
	<path style="&st1;" d="M124.9,90.88c-0.73-0.72-1.91-0.72-2.63,0l-7.29,7.29c-0.35,0.35-0.55,0.82-0.55,1.32
		c0,0.5,0.19,0.96,0.55,1.32l7.29,7.29c0.36,0.36,0.84,0.54,1.32,0.54s0.95-0.18,1.32-0.54l7.29-7.29c0.73-0.73,0.73-1.91,0-2.63
		L124.9,90.88z M131.38,100l-7.29,7.29c-0.27,0.27-0.74,0.27-1.01,0l-7.29-7.29c-0.14-0.14-0.21-0.31-0.21-0.51
		c0-0.19,0.07-0.37,0.21-0.51l7.29-7.29c0.14-0.14,0.32-0.21,0.51-0.21s0.37,0.07,0.51,0.21l7.29,7.29
		C131.66,99.27,131.66,99.72,131.38,100z"/>
	<path style="&st1;" d="M111.51,77.5c-0.7-0.7-1.93-0.7-2.63,0l-7.29,7.29c-0.35,0.35-0.55,0.82-0.55,1.32s0.19,0.97,0.55,1.32
		l7.29,7.29c0.35,0.35,0.82,0.55,1.32,0.55s0.96-0.19,1.32-0.55l7.29-7.29c0.73-0.73,0.73-1.91,0-2.63L111.51,77.5z M117.99,86.61
		l-7.29,7.29c-0.27,0.27-0.74,0.27-1.01,0l-7.29-7.29c-0.14-0.14-0.21-0.31-0.21-0.51s0.07-0.37,0.21-0.51l7.29-7.29
		c0.13-0.14,0.32-0.21,0.51-0.21s0.37,0.07,0.51,0.21l7.29,7.29C118.27,85.88,118.27,86.33,117.99,86.61z"/>
	<path style="&st1;" d="M98.12,64.11c-0.73-0.73-1.91-0.73-2.63,0l-7.29,7.29c-0.73,0.73-0.73,1.91,0,2.63l7.29,7.29
		c0.36,0.36,0.84,0.54,1.32,0.54c0.48,0,0.95-0.18,1.32-0.54l7.29-7.29c0.73-0.73,0.73-1.91,0-2.63L98.12,64.11z M104.6,73.22
		l-7.29,7.29c-0.28,0.28-0.73,0.28-1.01,0L89,73.22c-0.28-0.28-0.28-0.73,0-1.01l7.29-7.29c0.14-0.14,0.32-0.21,0.51-0.21
		s0.37,0.07,0.51,0.21l7.29,7.29C104.88,72.49,104.88,72.94,104.6,73.22z"/>
	<path style="&st1;" d="M189.12,157.74l-7.29,7.29c-0.73,0.73-0.73,1.91,0,2.63L200,185.84v-1.62l-17.36-17.36
		c-0.28-0.28-0.28-0.73,0-1.01l7.29-7.29c0.14-0.14,0.32-0.21,0.51-0.21s0.37,0.07,0.51,0.21l9.06,9.05v-1.62l-8.25-8.24
		C191.03,157.02,189.85,157.02,189.12,157.74z"/>
	<path style="&st1;" d="M187.63,199.19c-0.14-0.14-0.21-0.32-0.21-0.51s0.07-0.37,0.21-0.51l7.29-7.29c0.28-0.28,0.73-0.28,1.01,0
		l4.06,4.06v-1.62l-3.25-3.25c-0.73-0.72-1.91-0.72-2.63,0l-7.29,7.29c-0.35,0.35-0.55,0.82-0.55,1.32c0,0.5,0.19,0.96,0.54,1.31
		h1.62L187.63,199.19z"/>
	<path style="&st1;" d="M180.73,193.91c0.35,0.35,0.82,0.55,1.32,0.55s0.96-0.19,1.32-0.55l7.29-7.29c0.73-0.73,0.73-1.91,0-2.63
		l-7.29-7.29c-0.7-0.71-1.93-0.7-2.63,0l-7.29,7.29c-0.35,0.35-0.55,0.82-0.55,1.32s0.19,0.96,0.55,1.32L180.73,193.91z
		 M174.24,184.79l7.29-7.29c0.13-0.13,0.31-0.21,0.51-0.21s0.37,0.07,0.51,0.21l7.29,7.29c0.28,0.28,0.28,0.73,0,1.01l-7.29,7.29
		c-0.27,0.27-0.74,0.27-1.01,0l-7.29-7.29h0c-0.13-0.13-0.21-0.31-0.21-0.51S174.11,184.93,174.24,184.79z"/>
	<path style="&st1;" d="M167.34,180.52c0.36,0.36,0.84,0.54,1.32,0.54s0.95-0.18,1.32-0.54l7.29-7.29c0.73-0.73,0.73-1.91,0-2.63
		l-7.29-7.29c-0.7-0.71-1.93-0.7-2.63,0l-7.29,7.29c-0.35,0.35-0.55,0.82-0.55,1.32s0.19,0.96,0.55,1.32L167.34,180.52z
		 M160.86,171.4l7.29-7.29c0.14-0.14,0.32-0.21,0.51-0.21s0.37,0.07,0.51,0.21l7.29,7.29c0.28,0.28,0.28,0.73,0,1.01l-7.29,7.29
		c-0.28,0.28-0.73,0.28-1.01,0l-7.29-7.29h0c-0.13-0.13-0.21-0.31-0.21-0.51S160.72,171.54,160.86,171.4z"/>
	<path style="&st1;" d="M153.95,167.13c0.36,0.36,0.84,0.54,1.32,0.54c0.48,0,0.95-0.18,1.32-0.54l7.29-7.29
		c0.73-0.73,0.73-1.91,0-2.63l-7.29-7.29c-0.73-0.73-1.91-0.73-2.63,0l-7.29,7.29c-0.72,0.73-0.72,1.91,0,2.63L153.95,167.13z
		 M147.47,158.01l7.29-7.29c0.28-0.28,0.73-0.28,1.01,0l7.29,7.29c0.28,0.28,0.28,0.73,0,1.01l-7.29,7.29
		c-0.28,0.28-0.73,0.28-1.01,0l-7.29-7.29C147.19,158.75,147.19,158.29,147.47,158.01z"/>
	<path style="&st1;" d="M140.56,153.74c0.36,0.36,0.84,0.54,1.32,0.54c0.48,0,0.95-0.18,1.32-0.54l7.29-7.29
		c0.73-0.73,0.73-1.91,0-2.63l-7.29-7.29c-0.73-0.72-1.91-0.72-2.63,0l-7.29,7.29c-0.72,0.73-0.72,1.91,0,2.63L140.56,153.74z
		 M134.08,144.63l7.29-7.29c0.28-0.28,0.73-0.28,1.01,0l7.29,7.29c0.28,0.28,0.28,0.73,0,1.01l-7.29,7.29
		c-0.28,0.28-0.73,0.28-1.01,0l-7.29-7.29C133.8,145.36,133.8,144.9,134.08,144.63z"/>
	<path style="&st1;" d="M127.17,140.35c0.35,0.35,0.82,0.55,1.32,0.55s0.96-0.19,1.32-0.55l7.29-7.29c0.73-0.73,0.73-1.91,0-2.63
		l-7.29-7.29c-0.73-0.72-1.91-0.72-2.63,0l-7.29,7.29c-0.73,0.73-0.73,1.91,0,2.63L127.17,140.35z M120.69,131.24l7.29-7.29
		c0.28-0.28,0.73-0.28,1.01,0l7.29,7.29c0.28,0.28,0.28,0.73,0,1.01l-7.29,7.29c-0.27,0.27-0.74,0.27-1.01,0l-7.29-7.29
		C120.41,131.97,120.41,131.52,120.69,131.24z"/>
	<path style="&st1;" d="M113.78,126.96c0.35,0.35,0.82,0.55,1.32,0.55s0.96-0.19,1.32-0.55l7.29-7.29c0.35-0.35,0.55-0.82,0.55-1.32
		s-0.19-0.96-0.55-1.32l-7.29-7.29c-0.73-0.72-1.91-0.72-2.63,0l-7.29,7.29c-0.35,0.35-0.55,0.82-0.55,1.32s0.19,0.96,0.55,1.32
		L113.78,126.96z M107.3,117.85l7.29-7.29c0.14-0.14,0.32-0.21,0.51-0.21s0.37,0.07,0.51,0.21l7.29,7.29
		c0.13,0.13,0.21,0.31,0.21,0.51s-0.07,0.37-0.21,0.51l-7.29,7.29c-0.27,0.27-0.74,0.27-1.01,0l-7.29-7.29h0
		c-0.13-0.13-0.21-0.31-0.21-0.51S107.16,117.98,107.3,117.85z"/>
	<path style="&st1;" d="M100.39,113.58c0.35,0.35,0.82,0.55,1.32,0.55c0.5,0,0.96-0.19,1.32-0.55l7.29-7.29
		c0.73-0.73,0.73-1.91,0-2.63l-7.29-7.29c-0.7-0.7-1.93-0.7-2.63,0l-7.29,7.29c-0.35,0.35-0.55,0.82-0.55,1.32s0.19,0.96,0.55,1.32
		L100.39,113.58z M93.91,104.46l7.29-7.29c0.14-0.14,0.32-0.21,0.51-0.21s0.37,0.07,0.51,0.21l7.29,7.29c0.28,0.28,0.28,0.73,0,1.01
		l-7.29,7.29c-0.27,0.27-0.74,0.27-1.01,0l-7.29-7.29h0c-0.14-0.13-0.21-0.31-0.21-0.51S93.77,104.59,93.91,104.46z"/>
	<path style="&st1;" d="M79.71,90.26c-0.73,0.73-0.73,1.91,0,2.63l7.29,7.29c0.36,0.36,0.84,0.54,1.32,0.54
		c0.48,0,0.95-0.18,1.32-0.54l7.29-7.29c0.73-0.73,0.73-1.91,0-2.63l-7.29-7.29c-0.73-0.73-1.91-0.73-2.63,0L79.71,90.26z
		 M88.32,83.57c0.18,0,0.37,0.07,0.51,0.21l7.29,7.29c0.28,0.28,0.28,0.73,0,1.01l-7.29,7.29c-0.28,0.28-0.73,0.28-1.01,0
		l-7.29-7.29c-0.28-0.28-0.28-0.73,0-1.01l7.29-7.29C87.95,83.64,88.14,83.57,88.32,83.57z"/>
	<path style="&st1;" d="M62.74,58.78l-7.21,7.21c-0.73,0.73-0.73,1.91,0,2.63l18.24,18.24c0.36,0.36,0.84,0.54,1.32,0.54
		c0.48,0,0.95-0.18,1.32-0.54l7.21-7.21c0.73-0.73,0.73-1.91,0-2.63L65.37,58.78C64.64,58.05,63.46,58.05,62.74,58.78z M82.8,78.84
		l-7.21,7.21c-0.28,0.28-0.73,0.28-1.01,0L56.33,67.82c-0.14-0.14-0.21-0.31-0.21-0.51c0-0.19,0.07-0.37,0.21-0.51l7.21-7.21
		c0.14-0.14,0.32-0.21,0.51-0.21s0.37,0.07,0.51,0.21L82.8,77.83C83.08,78.11,83.08,78.56,82.8,78.84z"/>
	<path style="&st1;" d="M49.18,72.49l-7.29,7.29c-0.73,0.73-0.73,1.91,0,2.63l21.71,21.71c0.35,0.35,0.82,0.55,1.32,0.55
		c0.5,0,0.96-0.19,1.32-0.55l7.29-7.29c0.73-0.73,0.73-1.91,0-2.63L51.81,72.49C51.09,71.76,49.91,71.76,49.18,72.49z M72.71,96.02
		l-7.29,7.29c-0.27,0.27-0.74,0.27-1.01,0L42.7,81.6c-0.28-0.28-0.28-0.73,0-1.01l7.29-7.29c0.14-0.14,0.32-0.21,0.51-0.21
		s0.37,0.07,0.51,0.21l21.71,21.71C72.99,95.29,72.99,95.74,72.71,96.02z"/>
	<path style="&st1;" d="M144.01,184.54c0.35,0.35,0.82,0.55,1.32,0.55s0.96-0.19,1.32-0.55l7.29-7.29c0.73-0.73,0.73-1.91,0-2.63
		l-7.29-7.29c-0.73-0.72-1.91-0.72-2.63,0l-7.29,7.29c-0.35,0.35-0.55,0.82-0.55,1.32s0.19,0.96,0.55,1.32L144.01,184.54z
		 M137.53,175.42l7.29-7.29c0.14-0.14,0.32-0.21,0.51-0.21s0.37,0.07,0.51,0.21l7.29,7.29c0.28,0.28,0.28,0.73,0,1.01l-7.29,7.29
		c-0.27,0.27-0.74,0.27-1.01,0l-7.29-7.29h0c-0.13-0.13-0.21-0.31-0.21-0.51S137.39,175.55,137.53,175.42z"/>
	<path style="&st1;" d="M130.62,171.15c0.36,0.36,0.84,0.54,1.32,0.54c0.48,0,0.95-0.18,1.32-0.54l7.29-7.29
		c0.73-0.73,0.73-1.91,0-2.63l-7.29-7.29c-0.73-0.72-1.91-0.72-2.63,0l-7.29,7.29c-0.73,0.73-0.73,1.91,0,2.63L130.62,171.15z
		 M124.14,162.03l7.29-7.29c0.14-0.14,0.32-0.21,0.51-0.21s0.37,0.07,0.51,0.21l7.29,7.29c0.28,0.28,0.28,0.73,0,1.01l-7.29,7.29
		c-0.28,0.28-0.73,0.28-1.01,0l-7.29-7.29C123.86,162.76,123.86,162.31,124.14,162.03z"/>
	<path style="&st1;" d="M117.23,157.76c0.36,0.36,0.84,0.54,1.32,0.54c0.48,0,0.95-0.18,1.32-0.54l7.29-7.29
		c0.73-0.73,0.73-1.91,0-2.63l-7.29-7.29c-0.73-0.72-1.91-0.72-2.63,0l-7.29,7.29c-0.73,0.73-0.73,1.91,0,2.63L117.23,157.76z
		 M110.75,148.64l7.29-7.29c0.14-0.14,0.32-0.21,0.51-0.21s0.37,0.07,0.51,0.21l7.29,7.29c0.28,0.28,0.28,0.73,0,1.01l-7.29,7.29
		c-0.28,0.28-0.73,0.28-1.01,0l-7.29-7.29C110.47,149.37,110.47,148.92,110.75,148.64z"/>
	<path style="&st1;" d="M103.84,144.37c0.36,0.36,0.84,0.54,1.32,0.54s0.95-0.18,1.32-0.54l7.29-7.29c0.73-0.73,0.73-1.91,0-2.63
		l-7.29-7.29c-0.7-0.71-1.93-0.7-2.63,0l-7.29,7.29c-0.73,0.73-0.73,1.91,0,2.63L103.84,144.37z M97.36,135.25l7.29-7.29
		c0.27-0.27,0.74-0.27,1.01,0l7.29,7.29c0.28,0.28,0.28,0.73,0,1.01l-7.29,7.29c-0.28,0.28-0.73,0.28-1.01,0l-7.29-7.29
		C97.08,135.99,97.08,135.53,97.36,135.25z"/>
	<path style="&st1;" d="M90.45,130.98c0.35,0.35,0.82,0.55,1.32,0.55s0.97-0.19,1.32-0.55l7.29-7.29c0.35-0.35,0.55-0.82,0.55-1.32
		s-0.19-0.96-0.55-1.32l-7.29-7.29c-0.7-0.7-1.93-0.7-2.63,0l-7.29,7.29c-0.35,0.35-0.55,0.82-0.55,1.32s0.19,0.96,0.55,1.32
		L90.45,130.98z M83.97,121.86l7.29-7.29c0.27-0.27,0.74-0.27,1.01,0l7.29,7.29c0.14,0.13,0.21,0.31,0.21,0.51s-0.07,0.37-0.21,0.51
		l-7.29,7.29c-0.27,0.27-0.74,0.27-1.01,0l-7.29-7.29c-0.14-0.13-0.21-0.32-0.21-0.51S83.84,122,83.97,121.86z"/>
	<path style="&st1;" d="M87.53,108.99c0-0.5-0.19-0.96-0.55-1.32l-7.29-7.29c-0.73-0.73-1.91-0.73-2.63,0l-7.29,7.29
		c-0.35,0.35-0.55,0.82-0.55,1.32s0.19,0.96,0.55,1.32l7.29,7.29c0.35,0.35,0.82,0.55,1.32,0.55c0,0,0,0,0,0
		c0.5,0,0.96-0.19,1.32-0.55l7.29-7.29C87.34,109.95,87.53,109.48,87.53,108.99z M86.18,109.49l-7.29,7.29
		c-0.27,0.27-0.74,0.27-1.01,0l-7.29-7.29h0c-0.14-0.13-0.21-0.31-0.21-0.51s0.07-0.37,0.21-0.51l7.29-7.29
		c0.14-0.14,0.32-0.21,0.51-0.21c0.18,0,0.37,0.07,0.51,0.21l7.29,7.29c0.14,0.13,0.21,0.32,0.21,0.51S86.31,109.36,86.18,109.49z"
		/>
	<path style="&st1;" d="M159.48,200h1.62l-10-10v0c-0.28-0.28-0.28-0.73,0-1.01l7.29-7.29c0.27-0.27,0.74-0.27,1.01,0l18.3,18.3
		h1.62l-19.11-19.11c-0.71-0.7-1.93-0.7-2.63,0l-7.29,7.29c-0.72,0.73-0.72,1.91,0,2.63L159.48,200z"/>
	<path style="&st1;" d="M41.18,109.05c0.35,0.35,0.82,0.55,1.32,0.55c0,0,0,0,0,0c0.5,0,0.96-0.19,1.32-0.55l7.29-7.29
		c0.73-0.73,0.73-1.91,0-2.63L37.87,85.89c-0.73-0.72-1.91-0.73-2.63,0l-7.29,7.29c-0.73,0.73-0.73,1.91,0,2.63L41.18,109.05z
		 M28.76,93.99l7.29-7.29c0.28-0.28,0.73-0.28,1.01,0l13.23,13.23c0.28,0.28,0.28,0.73,0,1.01L43,108.24
		c-0.27,0.27-0.74,0.27-1.01,0L28.76,95.01C28.48,94.73,28.48,94.27,28.76,93.99z"/>
	<path style="&st1;" d="M47.25,115.12l9.07,9.07c0.36,0.36,0.84,0.54,1.32,0.54c0.48,0,0.95-0.18,1.32-0.54l7.29-7.29
		c0.35-0.35,0.55-0.82,0.55-1.32s-0.19-0.96-0.55-1.32l-9.07-9.07c-0.73-0.72-1.91-0.72-2.63,0l-7.29,7.29
		C46.52,113.21,46.52,114.39,47.25,115.12z M48.06,113.29l7.29-7.29c0.28-0.28,0.73-0.28,1.01,0l9.07,9.07
		c0.14,0.13,0.21,0.32,0.21,0.51s-0.07,0.37-0.21,0.51l-7.29,7.29c-0.28,0.28-0.73,0.28-1.01,0l-9.07-9.07
		C47.78,114.03,47.78,113.57,48.06,113.29z"/>
	<path style="&st1;" d="M71.27,139.14c0.36,0.36,0.84,0.54,1.32,0.54c0.48,0,0.95-0.18,1.32-0.54l7.29-7.29
		c0.73-0.73,0.73-1.91,0-2.63l-9.07-9.07c-0.72-0.72-1.91-0.72-2.63,0l-7.29,7.29c-0.73,0.73-0.73,1.91,0,2.63L71.27,139.14z
		 M63,128.24l7.29-7.29c0.28-0.28,0.73-0.28,1.01,0l9.07,9.07c0.28,0.28,0.28,0.73,0,1.01l-7.29,7.29c-0.28,0.28-0.73,0.28-1.01,0
		L63,129.25C62.73,128.97,62.73,128.52,63,128.24z"/>
	<path style="&st1;" d="M80.82,147.07c-0.28-0.28-0.28-0.73,0-1.01l7.29-7.29c0.28-0.28,0.73-0.28,1.01,0L150.36,200h1.62
		l-62.05-62.05c-0.73-0.72-1.91-0.72-2.63,0l-7.29,7.29c-0.73,0.73-0.73,1.91,0,2.63L132.13,200h1.62L80.82,147.07z"/>
</g>
</svg>
