<?xml version="1.0" encoding="utf-8"?>
<!-- Generator: Adobe Illustrator 23.0.0, SVG Export Plug-In . SVG Version: 6.00 Build 0)  -->
<!DOCTYPE svg PUBLIC "-//W3C//DTD SVG 1.1//EN" "http://www.w3.org/Graphics/SVG/1.1/DTD/svg11.dtd" [
	<!ENTITY st0 "fill:#EEEEEE;">
]>
<svg version="1.1" id="Layer_1" xmlns="http://www.w3.org/2000/svg" xmlns:xlink="http://www.w3.org/1999/xlink" x="0px" y="0px"
	 viewBox="0 0 138.21 128.74" style="enable-background:new 0 0 138.21 128.74;" xml:space="preserve">
<path style="&st0;" d="M69.04,80.63c-2.38,0-4.31-1.93-4.31-4.31V17.25c0-2.38,1.93-4.31,4.31-4.31c2.38,0,4.31,1.93,4.31,4.31
	v59.07C73.35,78.7,71.42,80.63,69.04,80.63z"/>
<circle style="&st0;" cx="69.04" cy="17.25" r="17.25"/>
<path style="&st0;" d="M74.85,49.84v17.22c11.19,1.09,19.52,5.26,19.52,10.25c0,5.81-11.34,10.53-25.33,10.53
	c-13.99,0-25.33-4.71-25.33-10.53c0-4.98,8.33-9.15,19.52-10.25V49.9L0,79.82v12.54c0,3.04,1.75,5.81,4.5,7.12l59.35,28.08
	c3.32,1.57,7.18,1.57,10.5,0l59.31-28.08c2.75-1.3,4.5-4.07,4.5-7.11V79.84l0.04-0.02L74.85,49.84z M16.71,82.5
	c-2.94,0-5.32-0.99-5.32-2.21s2.38-2.21,5.32-2.21c2.94,0,5.32,0.99,5.32,2.21S19.65,82.5,16.71,82.5z M28.92,88.13
	c-2.95,0-5.34-0.97-5.34-2.16s2.39-2.16,5.34-2.16s5.34,0.97,5.34,2.16S31.87,88.13,28.92,88.13z M29.09,78.79
	c-2.95,0-5.34-0.97-5.34-2.16s2.39-2.16,5.34-2.16c2.95,0,5.34,0.97,5.34,2.16S32.04,78.79,29.09,78.79z M41.64,94.37
	c-2.95,0-5.34-0.97-5.34-2.16s2.39-2.16,5.34-2.16c2.95,0,5.34,0.97,5.34,2.16S44.59,94.37,41.64,94.37z"/>
</svg>
