<?xml version="1.0" encoding="utf-8"?>
<!-- Generator: Adobe Illustrator 22.1.0, SVG Export Plug-In . SVG Version: 6.00 Build 0)  -->
<svg version="1.1"
	 id="svg3041" xmlns:cc="http://creativecommons.org/ns#" xmlns:dc="http://purl.org/dc/elements/1.1/" xmlns:rdf="http://www.w3.org/1999/02/22-rdf-syntax-ns#" xmlns:svg="http://www.w3.org/2000/svg"
	 xmlns="http://www.w3.org/2000/svg" xmlns:xlink="http://www.w3.org/1999/xlink" x="0px" y="0px" viewBox="0 0 1681.3 523.8"
	 style="enable-background:new 0 0 1681.3 523.8;" xml:space="preserve">
<style type="text/css">
	.st0{fill:#EEEEEE;}
</style>
<g>
	<path class="st0" d="M0,426.8c0.5-0.3,1-0.5,1.5-0.8c4.4-2.8,5.5-2.4,7.8,2.1c9.8,19.7,22.5,37.1,39.5,51.2
		c11.4,9.4,23.8,17.2,38.4,20.1c18.1,3.6,34.5-0.9,48.4-12.9c13.4-11.6,16-30.3,7.3-45.7c-4-7.2-9.7-12.9-16.3-17.7
		c-8.5-6.3-18.1-10.5-27.9-14.3c-12.3-4.8-24.4-9.9-36.5-15.2c-4.4-1.9-8.4-4.7-12.4-7.4c-22.8-15.3-33-37-32.3-64.2
		c0.2-8.1,1.1-16.1,3.5-23.9c8.1-25.9,26.2-41.5,51.5-49.2c19.1-5.8,38.5-6.4,58.1-3.1c7.7,1.3,15.2,3.4,23,4.4
		c5.3,0.7,10.7,0,16.1-0.1c1.1,0,2.2-0.4,3.3-0.6c2.6-0.5,4.1,0.6,4.4,3.2c0.7,4.6,1.2,9.3,2,13.9c2.6,15.5,5.2,31,7.8,46.5
		c0.2,1.4,0.4,2.8,0.5,4.2c0.1,2-1.2,3-2.9,3c-1.1,0-2.4-0.9-3.3-1.7c-0.7-0.6-0.7-1.8-1.1-2.7c-11.2-26-29.8-44.4-56.7-53.4
		c-15.4-5.2-31-3-45.6,3.6c-14.1,6.4-20.9,21.4-16.9,35.7c1.7,6.2,5.6,11.1,10.4,15.2c7,6,15,10.2,23.5,13.5
		c9,3.4,18.1,6.4,27.3,9.4c14.5,4.7,28.4,10.6,40.7,19.8c19.8,14.8,30.4,34.8,32.5,59.3c1.2,14,0.2,27.8-4.5,41.2
		c-7.4,21.3-21.9,36-41.8,46c-14.5,7.3-29.9,11.3-45.9,13.4c-10.7,1.4-21.4,2.4-32.1,3.5c-1.1,0.1-2.2,0.5-3.3,0.7
		c-6.8,0-13.6,0-20.4,0c-1.2-0.3-2.4-0.6-3.7-0.9c-6.6-1.7-13.2-3.2-19.7-5.1c-3.9-1.1-6-4-6.6-8c-1.3-7.7-2.6-15.4-4.1-23
		C10,469.6,6.3,452.3,2.5,435c-0.4-2-1.7-3.8-2.5-5.7C0,428.5,0,427.6,0,426.8z"/>
	<path class="st0" d="M1638,523.8c-1.6-0.7-3.1-1.3-4.7-2c-7.6-3.4-11.9-11.6-10.3-19.4c1.8-8.5,9-14.4,17.5-14.3
		c8,0.1,15.2,5.9,16.9,13.6c1.9,8.5-2.4,16.8-10.2,20.2c-1.4,0.6-2.8,1.3-4.2,1.9C1641.4,523.8,1639.7,523.8,1638,523.8z"/>
	<path class="st0" d="M228.6,305.5c-0.1,1.5-0.4,3-0.4,4.5c0,46.3,0,92.5,0,138.8c0,1.3,0,2.6,0.1,3.8c1.2,10.4,6.8,16.2,17.7,18.1
		c2.1,0.4,4,0.6,3.9,3.4c0,2.3-1,3.6-3.4,4.1c-16.8,3.5-33.5,7.2-50.3,10.7c-0.3,0.1-0.5-0.1-0.8-0.1c-1.8-3.7-1.5-5.6,1.7-7.4
		c11.9-6.6,16.8-17.1,16.8-30.3c0-56.3,0-112.7-0.1-169c0-3.1-0.3-6.2-0.9-9.3c-1.5-7.9-6-13.3-13.9-15.5c-2.3-0.6-3.8-1.7-3.8-4.3
		c0-2.8,0.9-3.9,3.8-3.9c17.2,0,34.3,0,51.5,0c3.3,0,4.4,2,5.2,4.6c2.2,7.9,4.3,15.9,6.5,23.8c9.9,36.2,19.9,72.4,29.9,108.7
		c0.4,1.4,0.9,2.8,2.2,4.2c1.8-7.8,3.6-15.5,5.4-23.3c8.6-36.7,17.1-73.4,25.7-110.1c0.2-0.7,0.4-1.4,0.6-2.1
		c1.4-5.2,2.1-5.8,7.2-5.8c17.6,0,35.2,0,52.8,0c3.7,0,4.8,1,4,3.5c-0.3,1-1.7,2.1-2.9,2.5c-2.4,0.8-5,1-7.5,1.7
		c-5.1,1.4-6.8,3.6-7,8.8c-0.1,1.3,0,2.6,0,3.8c0,55.8,0,111.5,0,167.3c0,10.1,1.3,11.5,11.5,11.5c2.6,0,5.4-0.7,7.6-1.8
		c9.9-5,16.1-13.1,19.4-23.6c7.6-23.8,15.2-47.5,23-71.2c11-33.7,22.2-67.3,33.3-101c1.2-3.6,2.4-7,7.4-7c0,35.6,0,71.1,0,106.5
		c-0.2,0.1-0.5,0.2-0.7,0.3c-3.7-10.4-7.4-20.7-11.1-31.1c-0.2,0-0.5,0-0.7,0c-6.9,21.3-13.8,42.5-20.8,64.3
		c11.4-0.7,22.2-1.5,33.3-2.2c0,4.1,0,7.7,0,11.8c-5.6,0.5-11.2,0.9-16.8,1.4c-5.8,0.4-11.6,0.9-17.4,1.2c-2.1,0.1-3.3,0.9-3.9,3
		c-2.6,8.4-5.4,16.7-8,25.1c-2.6,8.4-0.1,13.3,8.3,16.1c4,1.3,8.2,2,12.4,2.8c2,0.4,3.6,0.8,3.6,3.3c0,2.5-1.8,2.9-3.7,3.1
		c-14.5,1.4-29.1,2.6-43.6,4.2c-20.6,2.3-41.1,4.7-61.7,7.2c-7.7,0.9-15.4,2.2-23.1,3.4c-1.5,0.2-3.2,1-4-1.1
		c-0.8-2,0.3-4.3,2.4-5.2c1.6-0.7,3.2-1.1,4.8-1.7c7.4-2.7,9.1-5.1,9.1-12.9c0-48.8,0-97.6,0-146.4c0-1.2-0.1-2.5-0.2-3.7
		c-0.3-0.1-0.6-0.2-1-0.3c-0.5,1.3-1.1,2.5-1.4,3.9c-4.7,19.6-9.3,39.2-13.9,58.8c-8,34.5-15.9,69.1-23.9,103.6
		c-0.3,1.4-0.7,2.7-1,4.1c-1.7,6.6-7.4,7.4-12.8,7.2c-2.4-0.1-3.5-2.2-4.2-4.3c-1.6-5.3-3.3-10.6-4.7-15.9
		c-12.9-46.7-25.8-93.4-38.7-140.2c-0.4-1.4-1-2.8-1.5-4.2C229.5,305.4,229.1,305.5,228.6,305.5z"/>
	<path class="st0" d="M1426.1,450.1c-0.5-11.8-1.1-23.5-1.5-35.3c-0.1-1.6,0.1-3.6,1-4.7c2.3-2.7,5.5-1.4,6.5,2.6
		c6.9,26.6,20.7,49,41.9,66.6c5.8,4.9,12.4,9,19.1,12.6c11.4,6.2,23.8,7,36.4,4.9c24.5-4.2,28.8-24.4,24.6-39.8
		c-2.2-8.2-6.5-15.4-11.9-21.9c-11-13.2-24.8-22.7-40-30.4c-14.2-7.2-28.2-14.7-40.8-24.4c-3.1-2.4-6.2-5-9.1-7.6
		c-20.6-18.7-28.5-42.1-25.6-69.4c2.6-24,14.8-41.2,36.7-51.4c8.3-3.9,17.1-6,26.1-7.3c16.3-2.3,32.6-0.9,48.7,1.4
		c8.6,1.2,17,3.4,25.6,4.2c6.3,0.6,12.7-0.2,19-0.8c4.6-0.4,5.5,0,6,4.6c2.2,20.9,4.4,41.7,6.6,62.6c0.1,1.1,0.2,2.3,0.3,3.4
		c0.3,2.5-0.5,4-3.2,4.5c-2.8,0.5-3.8-1-4.6-3.2c-11.7-31.6-35.3-50.3-66.5-60.1c-12.9-4.1-26.2-2.5-38.9,1.8
		c-22.4,7.6-24.6,32.7-11.5,46.6c5.2,5.5,11.1,10.2,17.9,13.5c11.1,5.4,22.2,10.6,33.6,15.3c17.7,7.2,34.6,15.6,49.4,27.9
		c28.2,23.5,40.7,53.7,38.6,90.1c-0.3,5.6-1.3,11.3-2.8,16.7c-6.9,24.6-24,37.9-48.2,43.2c-16.2,3.5-32.4,3-48.7,0.6
		c-24-3.4-47-10.6-68.8-21c-4.2-2-8.1-4.6-12.1-7c-3.3-2-4.7-4.9-4.6-8.9c0.2-9.9,0.1-19.9,0.1-29.8
		C1425.6,450.1,1425.8,450.1,1426.1,450.1z"/>
	<path class="st0" d="M1170.3,344.6c2.9,6,5.3,11.9,8.4,17.4c13.4,23.7,27,47.3,40.7,70.8c2.8,4.7,6.6,8.8,10.4,12.9
		c3,3.2,6.9,5.4,11.5,5.9c0.9,0.1,2.4,1.1,2.4,1.7c-0.1,1.1-0.8,2.3-1.6,3.1c-0.6,0.6-1.9,0.6-2.8,0.7c-17.2,1-34-0.8-49.7-8.6
		c-9.8-4.9-17.4-12-22.6-21.8c-11.8-22.3-23.7-44.6-35.5-66.9c-3.2-6.2-7.5-10.5-15.4-10.6c0,1.6,0,3,0,4.4c0,24.4,0,48.8,0,73.2
		c0,7.4,1.5,9.4,8.8,11.3c2.1,0.6,4.1,1,6.2,1.4c2.2,0.4,3.3,1.5,3.1,3.8c-0.2,2.6-2,2.3-3.8,2.2c-10.5-0.6-21-1.2-31.4-1.9
		c-13.5-0.8-26.9-1.6-40.3-2.4c-1.7-0.1-3.5,0-5.1-0.5c-1-0.3-2.3-1.6-2.2-2.4c0.1-1.1,1.1-2.4,2-3.1c0.7-0.5,1.9-0.4,2.9-0.5
		c1.7-0.2,3.4-0.2,5.1-0.4c7.6-1,9.2-2.8,9.2-10.4c0-52.5,0-105,0-157.5c0-7.5-1.6-9.4-9.1-10.7c-2.4-0.4-4.8-0.7-7.1-1.1
		c-1.9-0.3-3.2-1.2-3.1-3.3c0.1-2.3,1.3-3.3,3.6-3.2c0.7,0,1.4,0,2.1,0c28.7,0,57.3,0,86,0c9.9,0,19.5,1.4,28.7,5
		c18.6,7.3,28.7,22,29,41.9c0.1,7.7-0.5,15.3-2.7,22.7c-3.7,12.4-11.5,20.9-23.6,25.5C1173.1,343.5,1171.9,344,1170.3,344.6z
		 M1116.1,257.9c0,10.3,0,19.6,0,29c0,12.8,0,25.5,0,38.3c0,4.4,1.5,8,5.8,9.4c11.7,3.9,21.9,2.2,28.5-8.8c1.6-2.6,2.9-5.5,3.9-8.5
		c2.7-7.9,3.5-16.1,3.2-24.3c-0.3-8.6-2.4-16.8-7.7-23.9c-4.8-6.5-11-10.7-19.2-11.1C1126,257.7,1121.3,257.9,1116.1,257.9z"/>
	<path class="st0" d="M753.9,331.1c15.2,0,29.7,0,44.8,0c0-1.7,0-3.2,0-4.7c0-20.3,0-40.6,0-60.9c0-7.8-1.3-9.3-8.9-10.9
		c-1.8-0.4-3.6-0.5-5.5-0.9c-1.8-0.3-2.7-1.4-2.7-3.3c0.1-2.1,1.4-2.5,3.2-2.5c10.2,0,20.4,0,30.6,0c12.5,0,25,0,37.5,0.1
		c1.3,0,3,0.3,3.7,1.2c1.5,1.7,0.1,4.1-2.4,4.6c-2.5,0.5-5.1,0.7-7.6,1.2c-6,1.3-7.6,3.2-7.6,9.3c0.1,50.8,0.1,101.6,0.2,152.4
		c0,6,1.4,7.8,7.2,9.3c2.5,0.6,5,1.1,7.5,1.5c2.1,0.3,3.5,1.1,3.4,3.5c-0.1,2.5-1.9,2.4-3.7,2.4c-22.8-0.4-45.7-0.8-68.5-1.3
		c-1.6,0-3.3,0-3.5-2.2c-0.2-2.4,1.2-3.2,3.3-3.5c2.8-0.4,5.6-0.8,8.3-1.6c3.3-0.9,5.3-3.1,5.3-6.8c0-24.4,0-48.8,0-73.6
		c-14.9,0-29.5,0-44.6,0c-0.1,1.5-0.2,3-0.2,4.5c0,21.9,0,43.7,0,65.6c0,8,1.7,9.9,9.5,11.3c1.5,0.3,3.1,0.5,4.6,0.7
		c2.1,0.3,3,1.4,2.8,3.5c-0.2,2.2-1.9,2.1-3.5,2.2c-11.1,0.1-22.1,0.2-33.2,0.4c-11.4,0.1-22.7,0.3-34.1,0.5c-1.4,0-2.8,0-4.1,0
		c-1.3-4.3-0.9-5.1,3-5.9c2.9-0.6,5.9-1,8.7-1.9c4.1-1.3,5.4-3.2,5.6-7.5c0.1-1.1,0-2.3,0-3.4c0-49.4,0.1-98.8,0.1-148.1
		c0-1.3,0-2.6,0-3.8c0-3.4-1.8-5.7-5-6.6c-3.1-0.8-6.4-1.3-9.6-1.8c-2.1-0.3-3.5-1.1-3.4-3.5c0.1-2.5,1.8-2.5,3.6-2.5
		c22.7,0,45.4,0,68.1,0c1.8,0,3.5,0,3.6,2.5c0.1,2.4-1.3,3.2-3.4,3.5c-2.7,0.4-5.3,0.9-7.9,1.5c-3.6,0.9-5.5,3.3-5.5,7.1
		c0,1.1,0,2.3,0,3.4c0,20,0,40,0,60C753.9,327.5,753.9,329,753.9,331.1z"/>
	<path class="st0" d="M1015.9,339.4c2.6,0.6,5.2,1,7.7,1.8c17.7,5.4,31.6,22.7,32.8,41.6c0.4,6.9,0.1,14-1,20.7
		c-3.2,18.1-14.6,29.3-33.1,32.5c-7.5,1.3-15.2,1.9-22.8,1.6c-29.3-1-58.7-2.6-88-3.9c-1.9-0.1-3.9,0.1-3.9-2.7c0-2.5,1.7-3,3.7-3.2
		c2.8-0.4,5.7-0.6,8.4-1.2c4.2-1,5.6-2.9,5.8-7.2c0-0.8,0-1.7,0-2.6c0-50.2,0-100.4,0-150.7c0-1.1,0-2.3,0-3.4
		c0-3.6-1.9-5.9-5.2-6.9c-2.6-0.8-5.2-1.2-7.9-1.7c-2.3-0.4-5.4,0.1-5.1-3.6c0.3-3.8,3.5-2.5,5.7-2.5c19.3-0.1,38.6,0,57.9,0
		c8.4,0,16.7-0.1,25.1,0.1c8.4,0.2,16.6,1.7,24.4,5c16.3,7.1,24.9,19.7,25.9,37.3c0.3,6.3-0.1,12.8-1.6,18.9
		C1040.9,324.5,1032.3,335.6,1015.9,339.4z M968.2,343.3c-0.2,1.8-0.3,2.5-0.3,3.2c0,22.7,0,45.4,0,68c0,3.1,1.4,5.1,3.7,6.7
		c15.3,11.3,35.6,4.6,40.8-13.6c3.3-11.5,3.6-23.3,0.5-34.9c-3.6-13.8-12.3-23.2-26.3-26.8C980.9,344.4,974.7,344.2,968.2,343.3z
		 M968.2,258c0,25,0,49.7,0,74.8c5.3,0.4,10.3,0.9,15.4,1.2c5.8,0.4,10.6-1.9,14-6.5c2.2-3,4.1-6.5,5.4-10
		c3.8-10.9,4.8-22.2,2.3-33.5C1000.9,264.4,989.2,253.8,968.2,258z"/>
	<path class="st0" d="M1106.4,113.9c0,16.6,0,33,0,49.6c-15.6,0-30.9,0-46.7,0c0-1.9,0-3.7,0-5.5c0-39.9,0-79.7,0-119.6
		c0-2.5-0.1-5.1-0.5-7.6c-0.8-4.8-3.2-6.8-8.1-6.9c-1.1,0-2.3,0.1-3.4,0.2c-2.3,0.1-4.4-0.3-4.7-3.1c-0.3-2.8,1.5-3.5,3.9-3.8
		c12.1-1.5,24.2-3.2,36.3-4.7c17.6-2.2,35.2-4.5,52.8-6.5c9.6-1.1,19.2-0.8,28.8,1.1c19.2,3.9,30.9,15.4,34.5,34.7
		c2.4,12.7,1.8,25.5-1.7,37.9c-3.3,12-10.6,21.2-20.9,28c-1.4,0.9-2.8,1.8-4.7,3c5.9,18,14.1,35.1,21.5,52.8c-16.3,0-32.2,0-48.2,0
		c-4.3-10.5-8.5-21-12.8-31.5c-0.8-2-1.6-3.9-2.5-5.9C1125.7,116.2,1118,112,1106.4,113.9z M1106.5,56.5c0,10.9,0,21.8,0,32.8
		c0,5.7,2,8.3,7.2,10.1c10.5,3.6,22.7,0.4,29.7-8.2c2.7-3.4,5-7.3,6.6-11.3c4.5-10.7,5.4-22,4.1-33.4c-1.6-14.6-11.1-24.9-25.6-27.4
		c-5.7-1-11.8-0.6-17.7-0.3c-4.3,0.2-4.4,0.7-4.4,5C1106.5,34.7,1106.5,45.6,1106.5,56.5z"/>
	<path class="st0" d="M624,440.3c-18.1,0.1-36.6-3.1-54.5-10.5c-3.9-1.6-5.4-4.2-6-8.3c-2.3-14.8-5.1-29.6-7.7-44.4
		c-0.2-1-0.8-2.1-0.5-2.9c0.3-1,1.2-2.3,2.2-2.6c0.9-0.3,2.4,0.4,3.2,1c0.7,0.5,0.9,1.7,1.3,2.6c7.7,16.8,18.8,31,34.1,41.6
		c7.4,5.1,15.3,9.3,24.5,10.1c8.6,0.7,17-0.5,24.8-4.5c12.4-6.4,16.6-19.9,10-32.2c-3-5.6-7.1-10.4-12.4-13.8
		c-6.6-4.3-13.6-8.2-20.6-11.8c-7.3-3.7-15-6.8-22.3-10.5c-4.2-2.1-8.1-4.7-11.9-7.4c-19.5-13.7-27.3-32.6-24.7-56
		c2.2-20.2,12.6-34.4,31.7-41.5c6.8-2.5,14.2-3.8,21.5-4.6c14.9-1.6,29.4,1.1,43.7,5.2c6.3,1.8,12.5,2.1,18.9,1.4
		c4.1-0.4,4.6,0,5.2,4.1c2.4,15.5,4.7,31.1,7.1,46.6c0.1,0.7,0.5,1.5,0.3,2.1c-0.4,1-1,2.3-1.8,2.8c-1.4,0.8-2.7,0.1-3.4-1.5
		c-0.3-0.8-0.6-1.6-0.9-2.4c-6.8-16.3-17.8-29.1-32.6-38.8c-14.4-9.4-29.8-9.5-45.3-3.9c-15.1,5.4-18.9,22.7-8.1,34.6
		c5.1,5.7,11.6,9.6,18.5,12.7c7,3.1,14.1,6,21.2,8.6c12.5,4.7,24.6,10.3,35.1,18.8c21.6,17.5,26.6,42.4,20,65.4
		c-4,14.2-13.4,24.1-26.5,30.6c-10.3,5.1-21.4,7.4-32.7,8.6C631.9,439.8,628.5,440,624,440.3z"/>
	<path class="st0" d="M818.1,132.4c0,10.3,0,20.4,0,30.9c-15.4,0-30.5,0-46.2,0c0-1.8,0-3.5,0-5.3c0-37.6,0-75.2,0-112.7
		c0-12.3-3-15.5-15.3-16.5c-0.8-0.1-2,0.2-2.5-0.3c-1-0.8-1.9-1.9-2.2-3c-0.4-1.6,0.2-3.2,2.2-3.5c1.3-0.2,2.5-0.2,3.8-0.2
		c25.8,0,51.6,0,77.4,0c11.4,0,22.6,1.5,33.3,5.8c15.4,6.3,27,16.6,30.4,33.5c7.7,37.8-17.8,75.4-61.5,73.8
		C831.2,134.7,824.9,133.3,818.1,132.4z M818.1,31.1c0,1.7,0,3.1,0,4.4c0,9.6,0,19.3,0,28.9c0,16.2,0,32.3,0,48.5
		c0,4.3,0.3,4.6,4.5,5.7c4.5,1.2,9,1,13.3-0.7c9.8-3.7,15-11.3,17.8-20.9c3.6-12.2,4-24.7,1.6-37.1
		C851.6,41.1,837.7,30.2,818.1,31.1z"/>
	<path class="st0" d="M1305.7,255.3c34.1-3.1,63.3,6.9,86.5,31.8c23.5,25.2,31.3,55.3,25.7,89.3c-37.6,0-74.8,0-112.2,0
		C1305.7,336.2,1305.7,296.2,1305.7,255.3z"/>
	<path class="st0" d="M1028.2,69.2c-1.1-3-2.1-5.8-3.3-8.5c-1.7-3.9-3.5-7.8-5.3-11.6c-6.4-14.1-18.2-19.6-32.9-19.8
		c-9.5-0.1-19,0.4-28.7,0.7c0,24.8,0,49.2,0,74.1c7.5-0.4,14.8-0.8,21.9-3.1c4.2-1.3,7-4.7,9.5-8.2c5.1-7.3,7.9-15.7,10.1-24.2
		c0.7-2.8,1.9-4.3,5.3-3.1c0,26.6,0,53.2,0,79.7c-4.2,0.9-4.1,0.8-5.4-2.7c-2.1-5.9-4-11.8-6.7-17.4c-4.3-9-11.8-13.5-21.9-13.3
		c-4.1,0.1-8.2,0-12.8,0c0,17.3,0,34.3,0,51.5c-15.5,0-30.4,0-46.1,0c0-1.5,0-3.1,0-4.7c0-37.9,0-75.8,0-113.7c0-1.1,0-2.3,0-3.4
		c-0.1-8-3.4-11.7-11.4-12.4c-2.1-0.2-4.3-0.2-6.4-0.4c-2.4-0.2-3.6-1.5-3.4-3.9c0.1-2.3,1.5-3.2,3.7-3.2c8.8-0.3,17.6-0.6,26.4-0.8
		c32.9-1,65.8-2,98.7-2.9c0.7,0,1.4-0.1,2.1-0.1c4.7,0,5.3,0.5,5.8,5.3c1.6,13.9,3.1,27.9,4.8,41.8
		C1032.6,68,1031.6,69.2,1028.2,69.2z"/>
	<path class="st0" d="M488.2,392.3c-2.3,0.1-4.8,0.2-7.7,0.4c0-3.8,0-7.6,0-11.6c1.2-0.2,2.5-0.5,4.1-0.8c-0.5-1.6-0.7-3-1.3-4.2
		c-2.6-6-3.3-12.1-3.2-18.6c0.2-36.2,0.1-72.3,0.1-108.5c0-1.5,0-3,0-5.1c3.2,1.6,3.9,4.1,4.8,6.4c8,20.8,15.8,41.6,23.9,62.3
		c14,35.8,28.2,71.4,42,107.3c3,7.9,8.4,11.7,16.3,13c1.3,0.2,2.5,0.4,3.8,0.6c1.7,0.2,3,0.6,3,2.7c0,2.2-1.1,3.1-3.1,3.2
		c-4.7,0.3-9.3,0.6-14,0.9c-22.1,1.6-44.1,3.2-66.2,4.7c-1.8,0.1-3.9,0.9-4.4-1.9c-0.4-2.4,1.1-3.6,3.2-4.2c3.3-0.9,6.6-1.6,9.8-2.8
		c3-1.1,3.8-2.8,2.8-5.7c-4.3-12.5-8.7-24.9-13-37.3C488.9,392.8,488.6,392.7,488.2,392.3z"/>
	<path class="st0" d="M653.1,163.6c-16.7,0-32.6,0-48.7,0c-2.2-7-3.2-14.1-3.3-21.3c-0.1-10.8-0.1-21.6-0.1-32.4
		c0-23.6,0-47.1,0-70.7c0-10.1-4.1-14.4-14.2-15.2c-0.8-0.1-1.7-0.1-2.5-0.2c-2.3-0.2-3.3-1.4-3.2-3.6c0.1-2.3,1.4-3.1,3.6-3
		c3.8,0.2,7.7,0.1,11.5,0.3c21.8,0.7,43.7,1.5,65.5,2.2c0.9,0,1.7,0,2.6,0.1c2,0.2,2.7,1.7,2.3,3.3c-0.3,1.1-1.3,2.6-2.2,2.9
		c-1.7,0.6-3.6,0.3-5.5,0.5c-8.1,0.8-11.6,4.6-11.7,12.8c-0.1,10.9,0,21.9,0,32.8c0,18.3,0.1,36.6,0,54.9
		C647,139.3,646.9,151.6,653.1,163.6z"/>
	<path class="st0" d="M478.6,54.1c11.8,11.8,25.8,18.5,40.3,24.5c11.9,4.9,23.2,10.6,33,19c16.7,14.3,25.8,32.4,26.8,54.4
		c0.2,3.7,0,7.3,0,11.3c-12.2,0-23.6,0-35.3,0c-2.9-13-11.9-21.5-22.6-28.4c-6.9-4.5-14.3-8.1-21.5-12.1c-6.7-3.7-13.3-7.5-20-11.2
		c-1.7-1-2.7-2.1-2.7-4.3c0.6-17,1-34,1.5-51C478.2,55.8,478.4,55.3,478.6,54.1z"/>
	<path class="st0" d="M1411,396.8c-16.6,42.1-64.4,67.6-105.5,60.4c0-20,0-40.1,0-60.4C1340.7,396.8,1375.7,396.8,1411,396.8z"/>
	<path class="st0" d="M911.9,167c15.6,0,30.4,0,45.9,0c0,4.2-0.1,8.3,0,12.4c0.1,3.7,0.2,7.4,0.6,11c0.4,3.7,2.8,5.9,6.3,6.5
		c3.2,0.5,6.5,0.8,9.7,0.9c4.5,0.1,9.1-0.2,13.6-0.1c7.7,0.1,14.4-2.6,20.3-7.4c6.5-5.2,12-11.4,15.7-18.8c2-4,4.6-5.3,8.7-4.7
		c1.1,0.2,2.2,0.2,3.7,0.3c-1,6.5-2,12.8-3,19c-0.9,5.7-1.7,11.5-2.4,17.2c-0.6,4.6-1,5.1-5.5,5.1c-43.2,0-86.5,0.1-129.7,0.1
		c-1,0-2.3,0.2-2.9-0.3c-1-1-2-2.4-2.1-3.6c0-0.9,1.4-2.5,2.4-2.7c2.3-0.6,4.8-0.4,7.2-0.7c8-1.1,11.4-5,11.5-13
		C911.9,181.2,911.9,174.3,911.9,167z"/>
	<path class="st0" d="M605.4,166.8c1.8,0,3.1,0,4.5,0c13.8,0,27.5,0.1,41.3-0.1c2.6,0,4.4,0.7,6.1,2.9c10.4,13.5,27.9,13.6,39.2,7.9
		c3.6-1.8,6.5-5.3,9.3-8.4c1.4-1.5,2.4-2.5,4.5-2.4c4.9,0.1,9.9,0,15.2,0c-0.3,1.6-0.4,2.7-0.7,3.7c-6.3,21.7-21.8,34.7-44.6,37.4
		c-13.5,1.6-26.9,0.8-39.8-4c-16.2-6-27.3-17.3-33.8-33.2C606.2,169.6,606,168.5,605.4,166.8z"/>
	<path class="st0" d="M475,0.8c0,7.9,0,14.8,0,21.8c0,0.9-0.6,1.8-1,2.7c-3.3,7.1-3.4,14.2-0.2,21.4c0.7,1.5,1.3,3.2,1.3,4.8
		c0.1,18.1,0.1,36.3,0,54.4c0,0.7-0.1,1.3-0.2,2.5c-1.3-0.8-2.2-1.2-3.1-1.8c-8.5-6-16.3-12.7-22.5-21.1
		c-10.4-14.1-14.6-29.9-12.7-47.2c1.7-14.9,9.9-25.4,23.2-31.8C464.4,4.1,469.5,2.8,475,0.8z"/>
	<path class="st0" d="M1253.7,277.9c0,33.1,0,65.6,0,98.4c-11.9,0-23.6,0-35.3,0C1208,348.3,1226.4,296.4,1253.7,277.9z"/>
	<path class="st0" d="M727.1,163.5c-6.6,0-12.1,0-18,0c5.1-14.4,3.4-29.1,3.5-43.6c0.2-25.4,0-50.8,0-76.2c0-1.4,0-2.8,0-4.3
		c-0.2-6.9-3.6-10.7-10.5-11.8c-1.5-0.2-3.1-0.3-4.7-0.4c-2.3-0.2-3.3-1.4-3.2-3.6c0.1-2.4,1.5-3,3.7-2.9
		c15.6,0.6,31.2,1.1,46.8,1.5c2.2,0.1,3.5,0.9,3.5,3.2c0,2.4-1.3,3.1-3.5,3.2c-2.3,0-4.5,0.2-6.8,0.6c-6.1,1.1-9.1,4.7-9.3,10.9
		c-0.1,6.1,0,12.2,0,18.3c0,27.7,0.1,55.3-0.1,83C728.6,148.7,727.7,156,727.1,163.5z"/>
	<path class="st0" d="M543.9,167c11,0,21.8,0,33.3,0c-0.5,1.7-0.8,3.1-1.3,4.5c-3.5,10.1-9.8,18.1-18.3,24.4
		c-11.4,8.4-24.3,13-38.1,14.3c-11.7,1.1-23.5,0.6-35.2,0.7c-1.2,0-2.5-0.3-3.9-0.5c0-9.3,0-18.5,0-28.3c1.5,0.6,2.7,1.2,3.9,1.7
		c9.8,4.3,20,7.2,30.8,6.9c4.7-0.2,9.6-1,14.1-2.7c8.4-3.1,13.4-9.2,14.2-18.4C543.4,168.9,543.7,168.1,543.9,167z"/>
	<path class="st0" d="M1146.6,167.1c1.6-0.1,2.6-0.3,3.6-0.3c13.8,0,27.5,0.1,41.3-0.1c2.7,0,4,0.8,5.1,3.3
		c2.2,4.9,4.4,9.8,7.1,14.5c6.3,10.7,15.6,17.1,28.1,18.3c2,0.2,3.8,0.3,4,2.8c0.2,2.5-1.3,4-4.4,4c-10.8,0.2-21.6,0.3-32.3,0.3
		c-4.2,0-8.6-0.1-12.7-0.8c-16-2.9-27.4-11.8-33.7-26.8C1150.6,177.4,1148.8,172.5,1146.6,167.1z"/>
	<path class="st0" d="M772.1,167c15.5,0,30.5,0,45.8,0c0.1,1.6,0.2,3,0.2,4.4c0,5.7,0,11.4,0,17c0.1,7.7,3.8,11.8,11.5,12.7
		c1.8,0.2,3.7,0.3,5.5,0.4c2.4,0.2,3,1.6,3,3.8c-0.1,2.2-1.2,3-3.3,3c-1,0-2,0-3,0c-24.5,0-49.1,0-73.6,0c-1.3,0-2.6,0-3.8-0.1
		c-2-0.2-2.6-1.5-2.6-3.2c0-1.8,0.5-3.1,2.4-3.4c1.1-0.2,2.3-0.2,3.4-0.3c10.6-0.7,14.3-4.5,14.3-15.3c0-4.8,0-9.6,0-14.5
		C771.9,170.2,772,168.8,772.1,167z"/>
	<path class="st0" d="M1059.7,167c15.8,0,31,0,46.5,0c0.1,1.3,0.3,2.5,0.3,3.7c0,6.1-0.1,12.2,0.1,18.3c0.2,7.9,3.9,11.6,11.8,12.1
		c1,0.1,2,0,3,0.1c2.3,0.2,2.6,1.8,2.5,3.7c0,1.7-0.6,3.1-2.6,3.1c-0.7,0-1.4,0-2.1,0c-23.8,0-47.7,0.1-71.5,0.1
		c-3.9,0-4.6-0.6-4.7-3.2c0-1.8,0.6-3,2.6-3.2c1.3-0.1,2.5-0.2,3.8-0.4c6.5-1,9.6-4,10.1-10.6c0.4-5.9,0.2-11.9,0.2-17.9
		C1059.7,171.1,1059.7,169.3,1059.7,167z"/>
	<path class="st0" d="M479.7,18.2c0-5.9,0-11.6,0-17.7c8.5-0.5,16.5-0.7,24.5,0.2c15.3,1.7,29.9,6.5,44.2,11.9
		c4.7,1.8,9.4,2.8,14.5,2.2c4.7-0.5,5.4,0.1,6.1,4.9c1.7,12.4,3.2,24.7,4.8,37.1c0.5,3.5,1.3,7,1.7,10.5c0.1,1.1-0.3,3.1-1.1,3.5
		c-2,1-3.1-0.5-3.7-2.3c-3.3-9.5-8.3-18-14.8-25.6c-11.2-13-24.4-23.3-41.4-27.6c-8.9-2.2-18-2.6-26.9-0.2
		C484.8,15.7,482.3,17.1,479.7,18.2z"/>
	<path class="st0" d="M430.7,166.8c5.8,0,11.3,0.4,16.8-0.1c7.2-0.6,13.3,0.7,18.4,6.1c1.9,2,4.6,3.4,7,4.8c1.5,0.9,2.2,1.9,2.2,3.7
		c-0.1,8.9,0,17.9-0.1,26.8c0,0.5-0.2,1.1-0.4,1.9c-10.6-1-20.9-2.7-30.8-6.2c-4.4-1.5-7.1-4.8-7.9-9.7c-1.4-8-3.2-15.8-4.8-23.7
		C430.9,169.5,430.9,168.4,430.7,166.8z"/>
	<path class="st0" d="M1672.6,250.7c3,0,5.7,0,8.7,0c0,10.8,0,21.6,0,32.6c-2.2,0-4.2,0-6.6,0c0-4.4,0-8.6,0-12.8
		c-0.3-0.1-0.5-0.2-0.8-0.3c-0.4,0.9-1,1.7-1.3,2.6c-0.6,1.6-1.2,3.2-1.8,4.8c-2.4,6.4-2.4,6.4-9.8,5.7c-1.5-4.2-3.1-8.5-4.6-12.8
		c-0.3,0-0.6,0-0.9,0c0,4.2,0,8.4,0,12.9c-2.7,0-4.8,0-7.3,0c0-10.7,0-21.5,0-32.5c3,0,5.9,0,9.1,0c2.4,6.8,4.8,13.7,7.5,21.5
		C1667.6,264.5,1670,257.7,1672.6,250.7z"/>
	<path class="st0" d="M1253.7,396.9c0,12.7,0,25.3,0,38.7c-13.1-10.8-22.5-23.4-29.3-38.7C1234.3,396.9,1243.8,396.9,1253.7,396.9z"
		/>
	<path class="st0" d="M454.9,163.5c-8.9,0-16.8,0-25.1,0c-0.9-3.9-1.8-7.9-2.8-11.8c-2.1-7.7-4.2-15.3-6.4-22.9
		c-0.6-1.9-1-3.6,1.3-4.6c2.3-1,4.1-0.6,5.3,1.7C434.6,139.3,443.3,151.8,454.9,163.5z"/>
	<path class="st0" d="M1623.6,257.8c-3.7,0-6.7,0-10,0c0-2.5,0-4.6,0-7.1c9.4,0,18.8,0,28.4,0c0,2.3,0,4.4,0,6.9
		c-3.4,0-6.8,0-10.6,0c0,8.7,0,17,0,25.6c-2.8,0-5.1,0-7.9,0C1623.6,274.9,1623.6,266.7,1623.6,257.8z"/>
	<path class="st0" d="M1037.1,163.5c-3,0-5.4,0-8.4,0c1.9-4,3.5-7.7,5.5-11.2c0.4-0.8,2.1-1.3,3.2-1.2c0.6,0.1,1.5,1.7,1.4,2.6
		C1038.4,157,1037.7,160.2,1037.1,163.5z"/>
</g>
</svg>
