<?xml version="1.0" encoding="utf-8"?>
<!-- Generator: Adobe Illustrator 22.1.0, SVG Export Plug-In . SVG Version: 6.00 Build 0)  -->
<svg version="1.1" id="圖層_1" xmlns="http://www.w3.org/2000/svg" xmlns:xlink="http://www.w3.org/1999/xlink" x="0px" y="0px"
	 viewBox="0 0 2048 1617" style="enable-background:new 0 0 2048 1617;" xml:space="preserve">
<style type="text/css">
	.st0{fill:#222222;}
	.st1{display:none;}
	.st2{display:inline;fill:#FFFFFF;}
</style>
<g>
	<path class="st0" d="M123.1,603.9C120,492.4,157.9,388,253.2,366.5c62.1-14,124,39.3,137.3,118.7l-86.7,16.2
		c-6.2-30.6-23.7-50.1-49.3-42.9c-39.7,11.1-53.9,65.4-52.5,133.3c1.4,67,17.1,110.9,56,108.2c25.5-1.8,49-28.4,53.2-65
		c0,0,67.8-5.6,83.2-7c0,82.9-61.9,158.4-135.2,158.4C177.2,786.5,126.1,712.3,123.1,603.9z M723.8,505.5
		c-7.2-161.6,32.4-312.2,134.5-351.1c106.3-40.6,182.5,106.4,185.7,292c3.9,225.6-63.9,340-165.5,340
		C787.5,786.5,731.1,670.8,723.8,505.5z M824.8,495c3.3,98.8,22.7,170.9,55.1,167.7c35.8-3.5,54.8-90.3,51.9-204
		c-3-116.7-26.7-191.9-63.1-170.4C842.9,303.6,821,382.7,824.8,495z M409.9,550.4c-4.9-140.5,38.6-258.4,122.1-286.4
		c93.3-31.4,161,87.2,163.8,239.6c3.3,173.7-49.2,282.9-149.3,282.9C464.6,786.4,414.7,688.7,409.9,550.4z M496.2,535.2
		c2.5,85.3,21.1,147.9,52.4,145.3c33.3-2.8,53.2-73.6,51.1-166c-2.2-94.2-25.5-158.3-59.3-147.1
		C517.8,374.8,493.4,438.6,496.2,535.2z M1200.3,162.9l-114.9-38.6v655.4h262.1V661.9l-147.2-10.7V162.9z M1869.8,626.3l50.4,153.4
		h-81.4l-45-145.1l-32.1-3.7v148.8h-95.5V317l153.1,51.5c61.8,20.8,98,86,98,155.5C1917.4,587.8,1892.3,616.5,1869.8,626.3z
		 M1843.5,508.5c0-29.5-15.1-51-36.7-56.7l-45-11.9v100.3l45,8.4C1828.4,552.6,1843.5,538,1843.5,508.5z M1085.4,964.8l80-5.3
		l0.1,498.5l109.4-36.5V951.7l71.8-5.9V828.4h-261.3V964.8z M1380.2,1386.4l252.8-84.2v-98l-148.4,39v-103l130.8-26.1v-100
		l-130.8,16.9v-93.4l148.4-10.4v-98.7h-252.8V1386.4z M1870.3,1070.5l50,136l-81.7,27.2l-44.4-129.5l-32.2,7v147.9l-95.7,31.9V828.4
		h153.5c62,0,98.4,53.4,98.4,123.3C1918.1,1015.8,1892.9,1053.1,1870.3,1070.5z M1843.8,960.9c0-29.7-15.1-46.1-36.8-44.6l-45.1,3.2
		v100.7l45.1-6.7C1828.7,1010.4,1843.8,990.6,1843.8,960.9z M633.1,828.4l108.3,577.8l-100.7-35.1l-13.4-86.9l-90.7-25.8l-11.6,73.2
		l-83-28.6l86.6-474.4H633.1z M611.3,1171.4l-32.1-195.5l-29.7,181.4L611.3,1171.4z M262.7,1023.5l-38-195h-92.8v367.3l64.8,22.7
		V986.1l49.2,249.1l27.9,9.7l63.4-238.1v260.1l85.1,29.5v-468H312L262.7,1023.5z M2048,626.1v393.2c0,198.5-30.1,256.4-212.2,335.7
		c-63.2,27.3-158.6,74.7-402.3,167c-107.3,40.7-268.7,95-409.7,95c-140.3,0-301.6-54.4-409.3-95c-243.4-92.3-338.8-139.6-402-167
		C30.5,1275.7,0,1217.8,0,1019.3V626.1c0-214,51.2-298.8,230.4-380.9c36.8-16.8,79.2-37.9,311.5-123.1C808.1,24.2,941.4,0,1023.8,0
		c82.8,0,216.1,24.2,482.6,122.1c232.2,85.2,274.7,106.3,311.5,123.1C1997.2,327.3,2048,412.2,2048,626.1z M1990.8,599.8
		c0-195-87.7-260.6-213.2-312.9c-44.2-18.6-62.5-30.5-285.2-112.9c-183.1-68-350.7-118.9-468.6-118.9C906.7,55.1,739,106,555.6,174
		C333.2,256.4,315,268.3,270.4,286.9C145.2,339.2,57.5,404.8,57.5,599.8v204.8v229.7c0,150.8,34.7,208.3,159.2,264.1
		c104.1,46.3,114.7,51.2,330.1,135.7c136.1,53.3,317.4,123.8,477,123.8c160.3,0,341.3-70.5,477.4-123.8
		c215.7-84.5,226.2-89.4,330.4-135.7c124.5-55.8,159.3-113.3,159.3-264.1V804.6V599.8z M849,1002.3c-1.6-32.7,22.2-55,45.6-52.5
		c17.3,2.1,40,20.6,36.8,65.1l114.2,11.2c6.1-115.3-42.6-202.1-147.2-203.9c-81.1-1.1-159.4,68.8-156.9,174
		c4.1,188.5,209.6,158.4,211,314.9c0.2,23.5-12.9,47.2-37,44.8c-30.3-5.8-53.2-26.8-55.2-91.2l-106.8-26.2
		c-1.1,98.5,34.5,202.6,138.7,225.1c101.3,22.2,194.2-59.6,172.2-200.2C1038.5,1099.8,853.7,1090.1,849,1002.3z M1380.3,779.7H1633
		v-98.9l-148.4-10.1V569.8l123.1,16.6V486l-123.1-25.3v-94.6l148.4,39.4v-99.9l-252.8-83.9L1380.3,779.7z"/>
</g>
<g class="st1">
	<path class="st2" d="M123.1,603.9C120,492.4,157.9,388,253.2,366.5c62.1-14,124,39.3,137.3,118.7l-86.7,16.2
		c-6.2-30.6-23.7-50.1-49.3-42.9c-39.7,11.1-53.9,65.4-52.5,133.3c1.4,67,17.1,110.9,56,108.2c25.5-1.8,49-28.4,53.2-65
		c0,0,67.8-5.6,83.2-7c0,82.9-61.9,158.5-135.2,158.5C177.2,786.5,126.1,712.3,123.1,603.9z M723.8,505.5
		c-7.2-161.6,32.4-312.2,134.5-351.1c106.3-40.6,182.5,106.4,185.7,292c3.9,225.6-63.9,340-165.5,340
		C787.5,786.5,731.1,670.8,723.8,505.5z M824.8,495c3.3,98.8,22.7,170.9,55.1,167.7c35.8-3.5,54.8-90.3,51.9-204
		c-3-116.7-26.7-191.9-63.1-170.4C842.9,303.6,821,382.7,824.8,495z M409.9,550.4c-4.9-140.5,38.6-258.4,122.1-286.4
		c93.3-31.3,161,87.2,163.8,239.6c3.3,173.7-49.2,282.9-149.3,282.9C464.6,786.4,414.7,688.7,409.9,550.4z M496.2,535.2
		c2.5,85.3,21.1,147.9,52.4,145.3c33.3-2.8,53.2-73.6,51.1-166c-2.2-94.2-25.5-158.3-59.3-147.1
		C517.8,374.8,493.4,438.6,496.2,535.2z M1200.3,162.9l-114.9-38.6v655.4h262.1V661.9l-147.2-10.7V162.9z M1869.8,626.3l50.4,153.4
		h-81.4l-45-145.1l-32.1-3.7v148.8h-95.5V317l153.1,51.5c61.8,20.8,98,86,98,155.5C1917.4,587.8,1892.3,616.5,1869.8,626.3z
		 M1843.5,508.5c0-29.5-15.1-51-36.7-56.7l-45-11.9v100.3l45,8.4C1828.4,552.6,1843.5,538,1843.5,508.5z M1085.4,964.8l80-5.3
		l0.1,498.5l109.4-36.5V951.7l71.8-5.9V828.4h-261.3V964.8z M1380.2,1386.4l252.8-84.2v-98l-148.4,39v-103l130.8-26.1v-100
		l-130.8,16.9v-93.4l148.4-10.4v-98.7h-252.8V1386.4z M1870.3,1070.5l50,136.1l-81.7,27.2l-44.4-129.5l-32.2,7v147.9l-95.7,31.9
		V828.4h153.5c62,0,98.4,53.4,98.4,123.3C1918.1,1015.8,1892.9,1053.1,1870.3,1070.5z M1843.8,960.9c0-29.7-15.1-46.1-36.8-44.6
		l-45.1,3.2v100.7l45.1-6.7C1828.7,1010.4,1843.8,990.6,1843.8,960.9z M633.1,828.4l108.3,577.8l-100.7-35.1l-13.4-86.9l-90.7-25.8
		l-11.6,73.2l-83-28.6l86.6-474.5H633.1z M611.3,1171.4l-32.1-195.5l-29.7,181.4L611.3,1171.4z M262.7,1023.5l-38-195.1h-92.8v367.3
		l64.8,22.7V986.1l49.2,249.1l27.9,9.7l63.4-238.1v260.1l85.1,29.5v-468H312L262.7,1023.5z M2048,626.1v393.2
		c0,198.5-30.1,256.4-212.2,335.7c-63.2,27.3-158.6,74.7-402.3,167c-107.3,40.7-268.7,95-409.7,95c-140.3,0-301.6-54.4-409.3-95
		c-243.4-92.3-338.8-139.6-402-167C30.5,1275.7,0,1217.8,0,1019.3V626.1c0-214,51.2-298.8,230.4-380.9
		c36.8-16.8,79.2-37.9,311.5-123.1C808.1,24.2,941.4,0,1023.8,0c82.8,0,216.1,24.2,482.6,122.1c232.2,85.2,274.7,106.3,311.5,123.1
		C1997.2,327.3,2048,412.2,2048,626.1z M1990.8,599.8c0-195-87.7-260.6-213.2-312.9c-44.2-18.6-62.5-30.5-285.2-112.9
		c-183.1-68-350.7-118.9-468.6-118.9C906.7,55.1,739,106,555.6,174C333.2,256.4,315,268.3,270.4,286.9
		C145.2,339.2,57.5,404.8,57.5,599.8v204.8v229.7c0,150.8,34.7,208.3,159.2,264.1c104.1,46.3,114.7,51.2,330.1,135.7
		c136.1,53.3,317.4,123.8,477,123.8c160.3,0,341.3-70.5,477.4-123.8c215.7-84.5,226.2-89.4,330.4-135.7
		c124.5-55.8,159.3-113.3,159.3-264.1V804.7V599.8z M849,1002.3c-1.6-32.7,22.2-55,45.6-52.5c17.3,2.1,40,20.6,36.8,65.1l114.2,11.2
		c6.1-115.3-42.6-202.1-147.2-203.9c-81.1-1.1-159.4,68.8-156.9,174c4.1,188.5,209.6,158.4,211,314.9c0.2,23.5-12.9,47.2-37,44.8
		c-30.3-5.8-53.2-26.8-55.2-91.2l-106.8-26.2c-1.1,98.5,34.5,202.5,138.7,225.1c101.3,22.2,194.2-59.6,172.2-200.2
		C1038.5,1099.8,853.7,1090.1,849,1002.3z M1380.3,779.7H1633v-98.9l-148.4-10.1V569.8l123.1,16.6V486l-123.1-25.3v-94.6l148.4,39.4
		v-99.9l-252.8-83.9L1380.3,779.7z"/>
</g>
</svg>
