<?xml version="1.0" encoding="utf-8"?>
<!-- Generator: Adobe Illustrator 22.1.0, SVG Export Plug-In . SVG Version: 6.00 Build 0)  -->
<svg version="1.1" id="Layer_1" xmlns="http://www.w3.org/2000/svg" xmlns:xlink="http://www.w3.org/1999/xlink" x="0px" y="0px"
	 viewBox="0 0 457 128" style="enable-background:new 0 0 457 128;" xml:space="preserve">
<style type="text/css">
	.st0{fill:#1E1F54;}
	.st1{fill:#41C3ED;}
	.st2{fill:#F0F3F6;}
</style>
<path class="st0" d="M75.6,90.7c0.5-6.1-0.8-11.7,2.2-17.4c10.6-20.4,20.7-41.1,31-61.7c1.2-2.4,2.5-4.8,3.5-7.3
	c0.7-1.7,1.8-2.4,3.6-2.2c0.5,0,1,0,1.5,0c62.2,0,124.3,0,186.5-0.1c3.1,0,4.6,1,6,3.7c5.2,10.2,10.7,20.3,15.9,30.4
	c0.9,1.7,2,2.1,3.7,2.1c9.2-0.1,18.5,0,27.7-0.1c2.2,0,3.5,0.6,4.5,2.6c6,12.2,12.2,24.3,18.3,36.5c0.3,0.5,0.5,1.1,0.6,1.6
	c0,3.8,0,7.5,0,11.6c-1.5,0.1-2.7,0.2-3.9,0.2c-26.1,0-52.2,0-78.4,0c-2.1,0-3.9,0.3-5.8,1.4c-14.4,8.2-28.8,16.4-43.3,24.6
	c-6.4,3.6-12.9,7.2-19.3,10.9c-1.4,0.8-2.4,0.7-3.8-0.1c-14.9-8.5-29.8-17-44.7-25.5c-5.7-3.3-11.5-6.5-17.2-9.8
	c-1.7-1-3.5-1.4-5.5-1.4c-26.3,0-52.6,0-79,0C78.6,90.7,77.5,90.7,75.6,90.7z M273.8,11.6c0.3,1,0.6,2,1,3
	c7.6,19.5,15.2,39.1,22.8,58.6c0.5,1.3,1.1,2.7,1.7,4.1c0.9,0,1.7,0,2.4,0c20.6,0,41.2,0,61.7,0c0.8,0,1.5-0.1,2.3-0.1
	c1.6,0,3.2,0,4.9,0c-0.1-0.4-0.1-0.7-0.2-1c-4.7-9.9-9.4-19.8-14-29.8c-0.7-1.4-1.6-1.7-3-1.7c-9.6,0-19.2,0-28.8,0c-1,0-2.1,0-3,0
	c-5.6-11.9-11.2-23.4-16.6-35c-0.8-1.8-1.8-2.3-3.7-2.3c-8.9,0.1-17.9,0-26.8,0c-0.7,0-1.5,0.1-2.5,0.2
	C272.7,9.2,273.2,10.4,273.8,11.6z M166,53.9c0.6-1.3,1.1-2.6,1.9-4.3c-11.6,0-22.7,0-33.8,0c2.7-6.2,5.5-12.4,8-18.7
	c1.2-3.1,2.7-4.2,6.1-4.1c8.7,0.3,17.4,0.1,26.1,0.1c1.3,0,2.4,0.1,3-1.5c1.6-4.6,3.4-9.2,5.1-13.9c0.6-1.3,1.1-2.5,1.8-3.9
	c-22.5,0-44.5,0-66.7,0c-10.9,23.1-21.8,46.2-32.9,69.7c2-0.1,3.4-0.1,4.8-0.2c0.6,0,1.2,0.1,1.7,0.1c21.3,0,42.6,0,64,0
	c0.7,0,1.3-0.1,2.1-0.2C160.2,69.3,163.1,61.6,166,53.9z M208,32.8c0.5-1.9,1-3.9,1.5-6c20.8,0,41.4,0,62.3,0
	c-1.8-5.4-3.5-10.4-5.2-15.4c-0.4-1.3-0.7-2.5-1.1-3.8c-25.1,0-49.9,0-74.9,0c-0.4,1.3-0.7,2.5-1.1,3.8c-0.1,0.3-0.3,0.5-0.4,0.8
	c-4.7,14.1-9.3,28.2-13.9,42.3c-0.1,0.4-0.1,0.9-0.2,1.6c23.9,0,47.5,0,71.5,0c0.6,2.9,1.2,5.6,1.7,8.4c-25.4,0-50.8,0-76.4,0
	c-0.5,1.8-0.9,3.3-1.4,4.9c-0.9,2.6-1.8,5.3-2.7,7.9c0.8,0.5,1.4,0.8,2,1.1c18.6,9.9,37.2,19.8,55.8,29.7c1.8,1,3.2,1,5.1,0
	c18.4-9.9,36.8-19.6,55.3-29.4c0.8-0.4,1.6-1,2.5-1.5c-1.6-4.9-3.1-9.5-4.6-14.1c-2.9-8.7-5.8-17.5-8.7-26.2
	c-0.4-1.4-0.8-2.7-1.2-4.2C251.7,32.8,229.8,32.8,208,32.8z M174.1,33c-8.4,0-16.4,0-24.4,0c-0.5,0-1.3,0.5-1.6,1
	c-1.1,2.3-2,4.7-3.2,7.5c8.6,0,16.6,0,24.6,0c0.6,0,1.4-0.5,1.6-1C172.2,38.2,173,35.8,174.1,33z"/>
<path class="st1" d="M248.3,64.5c-0.6-2.7-1.1-5.5-1.7-8.4c-23.9,0-47.6,0-71.5,0c0.1-0.7,0.1-1.2,0.2-1.6
	c4.6-14.1,9.3-28.2,13.9-42.3c0.1-0.3,0.2-0.5,0.4-0.8c19.3,0,38.6,0,57.9,0c6.4,0,12.8,0,19.2-0.1c1.7,5,3.4,10,5.2,15.4
	c-21,0-41.5,0-62.3,0c-0.5,2.1-1,4-1.5,6c0,1.3,0,2.6,0,4c0.8,0.1,1.3,0.2,1.7,0.2c21.8,0,43.5,0,65.3,0c2.9,8.7,5.8,17.5,8.7,26.2
	c1.5,4.6,3,9.2,4.6,14.1c-0.9,0.5-1.6,1.1-2.5,1.5c-18.4,9.8-36.9,19.6-55.3,29.4c-1.8,1-3.2,1-5.1,0c-18.6-10-37.2-19.8-55.8-29.7
	c-0.6-0.3-1.2-0.7-2-1.1c0.9-2.7,1.8-5.3,2.7-7.9c25.4,0,50.7,0,76.1,0c0.5,0,1.1-0.1,2-0.3C248.4,67.5,248.3,66,248.3,64.5z"/>
<path class="st1" d="M182.5,11.6c-1.7,4.6-3.5,9.2-5.1,13.9c-0.6,1.6-1.8,1.5-3,1.5c-8.7,0-17.4,0.2-26.1-0.1
	c-3.4-0.1-4.9,1-6.1,4.1c-2.4,6.3-5.3,12.5-8,18.7c0,1.3,0,2.6,0,4.3c10.8,0,21.3,0,31.9,0c-2.9,7.7-5.8,15.4-8.7,23.1
	c-0.8,0.1-1.5,0.2-2.1,0.2c-21.3,0-42.6,0-64,0c-0.6,0-1.2-0.1-1.7-0.1c0.1-0.2,0.1-0.4,0.2-0.6c9.8-21.1,19.7-42.1,29.5-63.2
	c0.7-1.5,1.6-1.9,3.1-1.9c6.9,0.1,13.8,0,20.7,0C156.1,11.5,169.3,11.6,182.5,11.6z"/>
<path class="st1" d="M365.7,77.2c-0.8,0.1-1.5,0.1-2.3,0.1c-20.6,0-41.2,0-61.7,0c-0.8,0-1.5,0-2.4,0c-0.6-1.4-1.2-2.8-1.7-4.1
	c-7.6-19.5-15.2-39.1-22.8-58.6c-0.4-1-0.7-2-1-3c8.2,0,16.5,0,24.7-0.1c2.1,0,3.3,0.7,4.2,2.6c5,10.9,10.2,21.8,15.2,32.7
	c1,2.1,2.1,3,4.5,3c9.5-0.2,19,0,28.5-0.1c1.5,0,2.5,0.3,3.2,1.8C357.9,60.1,361.8,68.6,365.7,77.2z"/>
<path class="st2" d="M365.7,77.2c-3.9-8.6-7.8-17.1-11.6-25.7c-0.7-1.5-1.7-1.8-3.2-1.8c-9.5,0-19-0.1-28.5,0.1
	c-2.4,0-3.6-0.8-4.5-3c-5-10.9-10.2-21.8-15.2-32.7c-0.9-2-2-2.7-4.2-2.6c-8.2,0.1-16.5,0.1-24.7,0.1c-0.6-1.2-1.1-2.4-1.8-3.9
	c1-0.1,1.8-0.2,2.5-0.2c8.9,0,17.9,0.1,26.8,0c1.9,0,2.9,0.5,3.7,2.3c5.4,11.6,10.9,23.1,16.6,35c1,0,2,0,3,0c9.6,0,19.2,0,28.8,0
	c1.4,0,2.3,0.2,3,1.7c4.6,9.9,9.3,19.8,14,29.8c0.1,0.3,0.1,0.6,0.2,1C368.9,77.2,367.3,77.2,365.7,77.2z"/>
<path class="st2" d="M182.5,11.6c-13.2,0-26.4-0.1-39.6-0.1c-6.9,0-13.8,0-20.7,0c-1.6,0-2.4,0.4-3.1,1.9
	c-9.8,21.1-19.6,42.2-29.5,63.2c-0.1,0.2-0.1,0.4-0.2,0.6c-1.4,0.1-2.9,0.1-4.8,0.2c11.1-23.5,22-46.6,32.9-69.7
	c22.2,0,44.2,0,66.7,0C183.6,9.1,183.1,10.3,182.5,11.6z"/>
<path class="st2" d="M248.3,64.5c0.1,1.5,0.2,3,0.3,4.7c-0.9,0.1-1.4,0.3-2,0.3c-25.4,0-50.7,0-76.1,0c0.4-1.6,0.9-3.1,1.4-4.9
	C197.4,64.5,222.8,64.5,248.3,64.5z"/>
<path class="st2" d="M266.6,11.4c-6.4,0-12.8,0.1-19.2,0.1c-19.3,0-38.6,0-57.9,0c0.4-1.3,0.7-2.5,1.1-3.8c25,0,49.8,0,74.9,0
	C265.9,8.9,266.2,10.2,266.6,11.4z"/>
<path class="st2" d="M275,37c-21.8,0-43.5,0-65.3,0c-0.5,0-0.9-0.1-1.7-0.2c0-1.4,0-2.7,0-4c21.9,0,43.7,0,65.8,0
	C274.2,34.3,274.6,35.6,275,37z"/>
<path class="st2" d="M166,53.9c-10.6,0-21.1,0-31.9,0c0-1.7,0-3,0-4.3c11.1,0,22.2,0,33.8,0C167.1,51.3,166.6,52.6,166,53.9z"/>
</svg>
