<?xml version="1.0" encoding="utf-8"?>
<!-- Generator: Adobe Illustrator 22.1.0, SVG Export Plug-In . SVG Version: 6.00 Build 0)  -->
<svg version="1.1" id="Layer_1" xmlns="http://www.w3.org/2000/svg" xmlns:xlink="http://www.w3.org/1999/xlink" x="0px" y="0px"
	 viewBox="0 0 696.5 363.4" style="enable-background:new 0 0 696.5 363.4;" xml:space="preserve">
<style type="text/css">
	.st0{fill:#232153;}
	.st1{fill:#44C1EB;}
	.st2{fill:#FAFBFC;}
</style>
<path class="st0" d="M102.9,142.6c0.4-9.7-1.4-18.5,3.2-27.4c12.8-24.3,24.6-49.1,36.9-73.8c6.1-12.2,12.3-24.4,18.2-36.7
	c1.6-3.2,3.5-4.1,7-4.1c101.1,0.1,202.3,0.1,303.4,0c4,0,5.9,1.5,7.6,4.8c8.2,16.2,16.8,32.2,25.1,48.3c1.8,3.5,3.9,5.1,8.1,5
	c14.5-0.3,29,0,43.5-0.2c3.7-0.1,5.6,1.3,7.2,4.6C572,81,581,98.8,590.2,116.6c2.5,4.7,3.9,9.4,3.4,14.8c-0.3,3.4-0.1,6.9-0.1,10.9
	c-2.7,0.1-4.8,0.3-6.9,0.3c-41.3,0-82.6,0.1-124-0.1c-4.9,0-9,1.4-13.2,3.7c-32.1,18.3-64.4,36.4-96.5,54.7
	c-3.8,2.1-6.5,2.2-10.4-0.1c-33-19.1-66.2-37.9-99.4-56.6c-2.2-1.2-5.1-1.5-7.6-1.5c-42-0.1-84-0.1-126-0.1
	C107.8,142.6,105.8,142.6,102.9,142.6z M421.6,15.7c0.3,1,0.5,1.9,0.9,2.8c12.9,33.3,25.9,66.6,38.8,99.9c0.4,1.1,1,2,1.6,3.2
	c16.9,0,33.8,0,50.6,0c18.8,0,37.6-0.1,56.5-0.2c2.6,0,5.2,0,8.1,0c-0.4-1-0.5-1.6-0.8-2.2c-7.4-15.6-14.8-31.1-22-46.8
	c-1.2-2.6-2.7-3.2-5.3-3.2c-15.5,0.1-30.9-0.1-46.4,0.1c-3.5,0-5.2-1-6.7-4.2c-8.4-17.5-16.9-35-25.1-52.5c-1.1-2.4-2.3-3.6-5.1-3.5
	c-15,0.2-29.9,0.1-44.9,0.1c-0.8,0-1.5,0.2-2.8,0.4C419.9,11.8,420.8,13.7,421.6,15.7z M274.6,15.6c0.8-2,1.6-4,2.5-6.3
	c-36.2,0-71.7,0-107.2,0c-17.6,37.4-35.1,74.6-52.8,112.2c2.9,0,5.3,0,7.6,0c0.7,0.1,1.3,0.2,2,0.2c34.8,0,69.5,0,104.3,0
	c1,0,1.9-0.2,3.1-0.3c4.8-12.6,9.4-25,14.1-37.4c0.9-2.2,1.8-4.5,3-7.2c-18.6,0-36.4,0-54.3,0c4.9-11.3,9.8-22.5,14.5-33.9
	c0.9-2.2,2.3-2.4,4.3-2.4c7,0.1,14,0,21,0c9.5,0,19,0,28.9,0C268.6,32.1,271.6,23.9,274.6,15.6z M315.7,49.8c0.7-3,1.5-6,2.3-9.3
	c33.5,0,66.6,0,100.6,0c-2.9-8.7-5.6-16.9-8.3-25c-0.6-2-1.3-4-1.8-5.9c-40.6,0-80.7,0-121,0c-0.6,2.1-1.1,4-1.6,5.9
	c-0.3,0.6-0.6,1.2-0.8,1.8c-7.3,22.2-14.7,44.5-22,66.7c-0.3,0.9-0.3,1.9-0.4,3.4c38.5,0,76.7,0,115.1,0c0.9,4.8,1.8,9.2,2.6,13.6
	c-40.9,0-81.8,0-122.8,0c-0.9,2.5-1.6,4.7-2.3,6.9c-1.4,4.6-2.9,9.1-4.4,14c32.5,17.3,64.8,34.5,97.1,51.6
	c32.4-17.2,64.7-34.4,97.2-51.7c-2.3-6.9-4.4-13.4-6.5-19.8c-5-15.1-10.1-30.3-15.1-45.4c-0.6-2.2-1.2-4.4-1.9-6.8
	C386.1,49.8,350.9,49.8,315.7,49.8z M214.3,63.7c0.5,0.3,0.8,0.6,1,0.6c12.7,0.1,25.3,0.1,38,0.1c1,0,2.6-0.6,2.9-1.4
	c1.9-4.1,3.4-8.4,5.3-13.2c-10.3,0-19.6,0-28.9,0c-13.7,0-13.7,0-18.3,13.2C214.2,63,214.3,63.2,214.3,63.7z"/>
<path class="st1" d="M225.8,262.1c0,6.3,0.1,12.7,0,19c-0.1,5.4-2.1,7.4-7.6,7.5c-8.3,0.1-16.6,0.1-25,0c-5.1,0-7.3-2.2-7.4-7.3
	c-0.1-12.8-0.1-25.6,0-38.5c0-5.1,2.1-7.4,7.2-7.5c8.5-0.1,17-0.1,25.5,0c5.3,0.1,7.3,2.3,7.3,7.8
	C225.8,249.5,225.8,255.8,225.8,262.1z M203,249c0,8.8,0,17.3,0,25.8c2.1,0,3.8,0,5.6,0c0-8.8,0-17.2,0-25.8
	C206.7,249,205.1,249,203,249z"/>
<path class="st1" d="M472.6,288.4c-6.7,0-11.9,0-17.5,0c-0.5-3.5-1-6.9-1.5-10.3c-2.4,0-4.3,0-6.6,0c-0.5,3.4-1,6.8-1.5,10.3
	c-5.5,0-10.8,0-16.9,0c0.4-3.8,0.5-7.5,1.1-11.2c2.1-13.8,4.3-27.5,6.6-41.6c9.4,0,18.6,0,28.1,0
	C467.2,253.1,469.8,270.4,472.6,288.4z M452.7,264.3c-0.6-5.5-1.2-10.5-1.7-15.4c-0.4,0-0.9,0-1.3,0.1c-0.5,5-1,10-1.5,15.3
	C449.8,264.3,451,264.3,452.7,264.3z"/>
<path class="st1" d="M378.7,257.5c5.9,0,11.1,0,16.6,0c0,10.3,0,20.5,0,31.1c-11.3,0-22.6,0.1-33.9-0.1c-3.8-0.1-5.7-2.7-5.8-7.3
	c-0.1-8.7,0-17.3,0-26c0-4.5-0.1-9,0.1-13.5c0.2-4,2.3-6.3,6.3-6.3c11-0.2,21.9-0.1,33-0.1c1.1,4,0.2,7.3-1.1,10.8
	c-0.8,2.1-2,2.7-4.1,2.7c-5.5-0.1-11,0-16.8,0c0,8.8,0,17.3,0,26.1c1.8,0,3.6,0,5.8,0C378.7,269.1,378.7,263.6,378.7,257.5z"/>
<path class="st1" d="M313.7,288.3c0-17.5,0-35,0-52.7c11.8,0,23.5,0,35.3,0c1.2,4.9-0.4,8.9-2.7,13.2c-5.1,0-10.2,0-15.7,0
	c-0.1,1.9-0.2,3.5-0.4,5.7c5.5,0,10.7,0,16.1,0c0,4.7,0,8.8,0,13.4c-5.1,0-10.2,0-15.7,0c0,2.5,0,4.5,0,7.2c6.1,0,12.2,0,18.4,0
	c0,4.7,0,8.8,0,13.2C337.4,288.3,325.8,288.3,313.7,288.3z"/>
<path class="st1" d="M550,249c-5.3,0-10.4,0-15.8,0c-0.1,1.9-0.2,3.5-0.3,5.5c5.4,0,10.5,0,16.1,0c0,4.5,0,8.7,0,13.6
	c-5.2,0-10.4,0-15.8,0c0,2.5,0,4.3,0,6.7c6,0,12,0,18.4,0c0,4.9,0,9.1,0,13.5c-11.7,0-23.3,0-35.2,0c0-17.6,0-35,0-52.8
	c11.7,0,23.3,0,35,0C553.6,240.2,552.4,244.3,550,249z"/>
<path class="st1" d="M178.7,235.4c1.4,5-0.2,9.1-2.4,13.4c-5,0-10.2,0-15.7,0c0,8.7,0,17.1,0,26.1c5.9,0,12,0,18.3,0
	c0,4.9,0,9.1,0,13.7c-10,0-19.7,0.1-29.5-0.1c-3.6-0.1-5.9-2.4-5.9-6.1c-0.2-13.6-0.2-27.3,0-40.9c0-3.8,2.2-6,5.9-6.1
	C159.1,235.3,168.9,235.4,178.7,235.4z"/>
<path class="st1" d="M500.8,248.7c0,13.5,0,26.4,0,39.6c-5.7,0-11.1,0-16.9,0c0-13.1,0-26,0-39.2c-3.4-0.2-6.5-0.3-9.8-0.5
	c0-4.4,0-8.5,0-12.9c12.4,0,24.7,0,38.1,0c-1,4.6-2,8.8-3,13C506.2,248.7,503.8,248.7,500.8,248.7z"/>
<path class="st1" d="M273.8,235.5c5.6,0,10.7,0,16.3,0c0,13.1,0,25.9,0,39.4c5.7,0,10.9,0,16.4,0c0,4.8,0,9,0,13.5
	c-10.9,0-21.7,0-32.7,0C273.8,270.8,273.8,253.3,273.8,235.5z"/>
<path class="st1" d="M233.9,235.5c5.3,0,10.6,0,16.4,0c0,13.1,0,26,0,39.4c5.7,0,10.9,0,16.4,0c0,4.8,0,9.1,0,13.5
	c-10.9,0-21.7,0-32.8,0C233.9,270.8,233.9,253.3,233.9,235.5z"/>
<path class="st0" d="M393.1,354.5c-2,0-3.8-0.3-5.5,0.1c-1.1,0.3-2.6,1.5-2.8,2.6c-1.6,7-1.6,7-9.8,5.6c0.3-3.1,0.4-6.4,0.8-9.5
	c1.6-13,3.4-26,5-39c0.4-3.4,1.9-4.7,5.6-4.7c9.9,0.1,10.1-0.1,11.5,9.6c2.1,14.4,3.7,28.9,5.6,43.3
	C395.8,364.9,394.9,364.2,393.1,354.5z M389.6,322c-1,7.8-3.6,15.3-2.7,23.6c2.1-0.1,3.6-0.2,5.4-0.3
	C391.4,337.1,390.5,329.6,389.6,322z"/>
<path class="st0" d="M276.4,309.7c2.3,18.1,4.4,35.5,6.6,53.2c-2.1,0.3-3.4,0.5-4.7,0.6c-3,0.3-4.5-0.9-4.7-4.2
	c-0.4-4.5-1.5-5-5.7-4.9c-2.3,0.1-3.3,1.2-3.7,3.2c-0.3,1.6-0.6,3.3-0.9,5.3c-2.7,0-5.3,0-8.7,0c0.4-4.5,0.7-8.6,1.2-12.6
	c1.6-12.5,3.3-25,4.9-37.5c0.2-2,0.9-3.1,3-3.1C267.7,309.7,271.7,309.7,276.4,309.7z M269.4,324.6c-0.4,0-0.8-0.1-1.2-0.1
	c-0.8,6.9-1.6,13.7-2.4,21.1c2.5-0.2,4-0.3,6.1-0.5C271,338,270.2,331.3,269.4,324.6z"/>
<path class="st0" d="M312.2,363.1c-2.7,0-5.1,0-8.1,0c0-6.9,0-13.6,0-20.1c-6-2.2-7.1-1.5-7.2,4.1c0,5.1,0,10.3,0,15.9
	c-2.7,0.1-4.9,0.3-7.7,0.4c0-18,0-35.5,0-53.6c5.9,0,11.6-0.2,17.4,0.1c2.7,0.1,4.8,2.2,4.9,4.9c0.1,7.4,1.4,14.9-1.1,22.3
	C313,342,313.7,351.4,312.2,363.1z M296.9,333c5.3,0.6,5.6,0.5,5.8-1.9c0.2-3.9,0.1-7.9,0.1-11.7c-5.1-0.9-5.6-0.8-5.8,1.9
	C296.7,325.1,296.9,328.9,296.9,333z"/>
<path class="st0" d="M455.6,310.1c3.5,0,5.9,0,8.7,0c0.1,1.8,0.4,3.2,0.4,4.7c0,13.3,0,26.7,0,40c0,6.7-1.9,8.6-8.6,8.7
	c-3,0.1-6,0.1-9-0.1c-4-0.3-6.3-2.2-6.3-5.7c-0.1-15.3,0-30.7,0.1-46c0-0.5,0.3-0.9,0.6-1.7c2.2,0,4.4,0,7.4,0c0,14.9,0,29.4,0,44.2
	c2.5,0,4.3,0,6.8,0C455.6,339.6,455.6,325.1,455.6,310.1z"/>
<path class="st0" d="M433.4,325.4c-3.2,0-5.6,0-8.2,0c-0.3-2.2-0.6-4.1-1-6.4c-2,0-3.9,0-6.1,0c0,11.8,0,23.4,0,35.3
	c2.2,0,4,0,6.2,0c0.3-2.7,0.9-4.6-1.1-7.1c-1.5-1.8-1.1-5-1.7-8.1c4.4,0,7.8,0,12,0c0.2,6.5,0.8,12.9-0.4,19.3
	c-0.6,3.5-3.2,5-6.5,5.1c-3.5,0.2-7,0.2-10.5,0c-4.7-0.3-7.1-3-7.1-7.8c-0.1-12.6-0.1-25.3,0-37.9c0-5.7,2.2-7.8,7.8-7.9
	c3.2-0.1,6.3-0.1,9.5,0c4.1,0.1,6.7,2.2,7.1,6.2C433.7,318.8,433.4,321.8,433.4,325.4z"/>
<path class="st0" d="M210.6,331.6c3.7,0,6.3-0.1,9,0c3.8,0.2,5.9,2.2,6,5.9c0.2,6.5,0.2,13,0,19.5c-0.1,3.8-2.1,6-5.8,6.3
	c-4.1,0.3-8.3,0.3-12.5,0c-3.8-0.3-5.4-2.5-5.6-6.4c-0.1-2.5,0-4.9,0-7.9c2.9-0.1,5.3-0.3,8.1-0.4c0.5,1.9,0.9,3.4,1.4,5.4
	c1.6,0,3.2,0,5.3,0c0-4.4,0-8.6,0-13.3c-2.6-0.1-4.9-0.2-7.1-0.3c-5.6-0.2-7.5-2.1-7.6-7.5c-0.1-5.5-0.1-11,0-16.5
	c0.1-4.7,2-6.6,6.7-6.8c3.3-0.1,6.7-0.1,10,0c5.3,0.2,7.2,2.2,7.3,7.3c0,2,0,3.9,0,6.1c-1.9,0.2-3.2,0.4-4.5,0.5
	c-1.1,0-2.3-0.1-3.7-0.2c-0.3-1.1-0.3-2.6-1.1-3.2c-1-0.8-2.5-1.3-3.8-1.3c-0.7,0-1.9,1.4-2,2.2
	C210.5,324.3,210.6,327.6,210.6,331.6z"/>
<path class="st1" d="M421.3,288.5c-5.6,0-10.8,0-16.3,0c0-17.6,0-35.1,0-52.9c5.3,0,10.7,0,16.3,0
	C421.3,253.2,421.3,270.6,421.3,288.5z"/>
<path class="st0" d="M473.2,310c6.8,0,13.2,0,20.1,0c0,2.6,0,5.2,0,8.2c-3.6,0.2-7.1,0.4-11.2,0.6c0,4.1,0,7.9,0,12.3
	c2.5,0.3,5.1,0.5,8,0.8c0,2.7,0,5.2,0,8.1c-2.6,0.2-5.1,0.5-8,0.7c0,4.3,0,8.5,0,13.3c3.7,0.2,7.6,0.4,12.1,0.7
	c0.1,2.6,0.2,5.1,0.4,8.1c-7.4,0-14.3,0-21.5,0C473.2,345.5,473.2,328.1,473.2,310z"/>
<path class="st0" d="M369.2,363.2c-7.1,0-13.8,0-21,0c0-17.7,0-35.2,0-53.1c6.8,0,13.3,0,20.2,0c0,2.7,0,5.1,0,8.1
	c-3.6,0.2-7.1,0.4-11.2,0.7c0,4,0,7.8,0,12.3c2.2,0.3,4.6,0.6,7.3,0.9c0,2.6,0,5,0,7.9c-2.3,0.3-4.7,0.6-7.4,1c0,4.4,0,8.6,0,13.6
	c2.6,0,4.8,0,7.1,0c5.6,0,5.8,0.2,5.5,6C369.6,361.2,369.4,361.9,369.2,363.2z"/>
<path class="st0" d="M229.3,318.2c-0.2-1.2-0.4-2-0.4-2.8c-0.3-5.4,0-5.7,5.3-5.7c5.9,0,11.9,0,18.2,0c0,3.1,0,5.5,0,8.4
	c-2.2,0.3-4.4,0.6-7.1,1c-0.1,1.8-0.3,3.6-0.3,5.4c0,11,0,22,0,32.9c0,6.5-0.5,6.9-8.1,5.3c0-14.3,0-28.9,0-43.6
	C234,318.8,231.9,318.5,229.3,318.2z"/>
<path class="st0" d="M331.7,354.2c3.5,0.3,6.2,0.4,9.5,0.7c0,2.6,0,5.1,0,8.1c-5.9,0-11.8,0-18,0c0-17.7,0-35.1,0-52.9
	c2.7,0,5.2,0,8.5,0C331.7,324.9,331.7,339.4,331.7,354.2z"/>
<path class="st1" d="M410.2,15.5c2.7,8.1,5.4,16.3,8.3,25c-34,0-67.1,0-100.6,0c-0.8,3.3-1.6,6.3-2.3,9.3c0,2.1,0,4.2,0,6.8
	c36.2,0,72.1,0,107.9,0c5,15.1,10.1,30.3,15.1,45.4c2.1,6.4,4.2,12.9,6.5,19.8c-32.5,17.3-64.8,34.5-97.2,51.7
	c-32.3-17.2-64.6-34.3-97.1-51.6c1.5-4.9,3-9.5,4.4-14c1.9,0.3,3.8,0.9,5.7,0.9c38,0.1,75.9,0,113.9,0c1.8,0,3.6,0,6,0
	c-0.2-3-0.3-5.4-0.5-7.8c-0.8-4.4-1.7-8.7-2.6-13.6c-38.4,0-76.6,0-115.1,0c0.2-1.5,0.1-2.5,0.4-3.4c7.3-22.2,14.6-44.5,22-66.7
	c0.2-0.6,0.6-1.2,0.8-1.8C327.3,15.5,368.8,15.5,410.2,15.5z"/>
<path class="st1" d="M248.1,83.9c-4.7,12.4-9.4,24.8-14.1,37.4c-1.2,0.1-2.1,0.3-3.1,0.3c-34.8,0-69.5,0-104.3,0
	c-0.7,0-1.3-0.1-2-0.2c0.4-1.1,0.8-2.2,1.3-3.2c13-27.7,25.9-55.4,38.9-83.1c3-6.5,6.1-12.9,9.1-19.4c33.8,0,67.2,0,100.7,0
	c-3,8.2-6.1,16.4-9.2,24.8c-9.9,0-19.4,0-28.9,0c-7,0-14,0-21,0c-2,0-3.4,0.3-4.3,2.4c-4.7,11.3-9.7,22.6-14.5,33.9
	c0,2.2,0,4.4,0,7.2C214.3,83.9,231.2,83.9,248.1,83.9z"/>
<path class="st1" d="M569.9,121.5c-18.8,0.1-37.6,0.1-56.5,0.2c-16.8,0-33.6,0-50.6,0c-0.6-1.1-1.2-2.1-1.6-3.2
	c-12.9-33.3-25.9-66.6-38.8-99.9c-0.4-0.9-0.6-1.9-0.9-2.8c13.5,0,27,0,40.5-0.2c3.1,0,4.7,1,6,3.8c8.1,17.7,16.6,35.2,24.6,53
	c1.7,3.8,3.9,5,7.9,4.9c15-0.2,30-0.1,45-0.1c2.5,0,4.4,0.2,5.6,3C557.3,93.9,563.6,107.7,569.9,121.5z"/>
<path class="st2" d="M569.9,121.5c-6.2-13.8-12.6-27.5-18.7-41.4c-1.2-2.7-3.1-3-5.6-3c-15,0-30-0.1-45,0.1c-4,0.1-6.2-1.1-7.9-4.9
	c-8-17.7-16.5-35.3-24.6-53c-1.3-2.9-2.8-3.9-6-3.8c-13.5,0.2-27,0.1-40.5,0.2c-0.8-1.9-1.7-3.8-2.7-6.1c1.3-0.2,2.1-0.4,2.8-0.4
	c15,0,29.9,0.1,44.9-0.1c2.9,0,4,1.2,5.1,3.5c8.2,17.6,16.7,35,24.8,52.6c1.5,3.2,3.2,4.3,6.7,4.2c15.5-0.2,30.9,0,46.4-0.1
	c2.6,0,4.1,0.6,5.3,3.2c7.2,15.7,14.7,31.2,22,46.8c0.3,0.6,0.4,1.2,0.8,2.2C575,121.5,572.4,121.5,569.9,121.5z"/>
<path class="st2" d="M274.6,15.6c-33.5,0-66.9,0-100.7,0c-3,6.6-6.1,13-9.1,19.5c-13,27.7-25.9,55.4-38.9,83.1
	c-0.5,1.1-0.9,2.2-1.3,3.2c-2.3,0-4.6,0-7.6,0c17.8-37.5,35.3-74.7,53-112c35.5,0,71,0,107.2,0C276.3,11.6,275.5,13.6,274.6,15.6z"
	/>
<path class="st2" d="M380.4,100.9c0.1,2.4,0.3,4.8,0.5,7.8c-2.4,0-4.2,0-6,0c-38,0-75.9,0-113.9,0c-1.9,0-3.8-0.6-5.7-0.9
	c0.7-2.2,1.5-4.4,2.3-6.9C298.6,100.9,339.5,100.9,380.4,100.9z"/>
<path class="st2" d="M423.6,56.5c-35.9,0-71.7,0-107.9,0c0-2.6,0-4.7,0-6.8c35.2,0,70.5,0,106.1,0C422.4,52.1,423,54.3,423.6,56.5z"
	/>
<path class="st2" d="M410.2,15.5c-41.4,0-82.9,0-124.3,0c0.5-1.9,1.1-3.8,1.6-5.9c40.3,0,80.3,0,120.8,0
	C409,11.5,409.6,13.5,410.2,15.5z"/>
<path class="st2" d="M248.1,83.9c-16.9,0-33.9,0-51.3,0c0-2.7,0-4.9,0-7.2c17.9,0,35.7,0,54.3,0C250,79.5,249,81.7,248.1,83.9z"/>
</svg>
