<?xml version="1.0" encoding="utf-8"?>
<!-- Generator: Adobe Illustrator 22.1.0, SVG Export Plug-In . SVG Version: 6.00 Build 0)  -->
<!DOCTYPE svg PUBLIC "-//W3C//DTD SVG 1.1//EN" "http://www.w3.org/Graphics/SVG/1.1/DTD/svg11.dtd" [
	<!ENTITY st0 "fill:#F37A23;">
	<!ENTITY st1 "fill:#535453;">
]>
<svg version="1.1" id="Layer_1" xmlns="http://www.w3.org/2000/svg" xmlns:xlink="http://www.w3.org/1999/xlink" x="0px" y="0px"
	 viewBox="0 0 103.99 17.28" style="enable-background:new 0 0 103.99 17.28;" xml:space="preserve">
<g>
	<g>
		<path style="&st0;" d="M0,11.41c0.04-0.76,0.07-1.51,0.12-2.37C1.05,9.54,1.93,9.5,2.8,9.5c1.48,0,2.95,0,4.43,0
			c0.38,0,0.71-0.04,0.91-0.44C8.56,8.24,8.4,7.91,7.47,7.9C6.23,7.88,4.99,7.91,3.75,7.89C3.27,7.88,2.77,7.82,2.3,7.7
			C1.43,7.46,1.02,6.81,1.25,5.94c0.37-1.38,0.78-2.75,1.24-4.11c0.29-0.86,1.01-1.32,1.83-1.57c0.51-0.15,1.05-0.25,1.57-0.25
			C9.08-0.01,12.26,0,15.45,0c0.1,0,0.21,0.02,0.37,0.04c-0.1,0.76-0.19,1.5-0.29,2.31c-1.1-0.57-2.24-0.43-3.36-0.44
			c-1.22-0.01-2.44-0.01-3.66,0C7.77,1.92,7.37,2.32,7.35,3.06c0,0.15,0.14,0.36,0.27,0.43C7.8,3.57,8.03,3.57,8.24,3.57
			c1.3,0.01,2.61,0,3.91,0.01c0.36,0,0.73,0.03,1.08,0.11c0.9,0.21,1.39,0.92,1.15,1.82C14,6.92,13.56,8.33,13.07,9.72
			c-0.35,0.98-1.19,1.41-2.17,1.58c-0.29,0.05-0.59,0.08-0.89,0.12C6.68,11.41,3.34,11.41,0,11.41z"/>
		<path style="&st0;" d="M61.88,11.41c1.22-1.95,1.53-4.23,2.29-6.35c0.32-0.9,0.6-1.83,0.85-2.75c0.19-0.73,0.31-1.48,0.48-2.27
			c1.61,0,3.33,0,5.15,0c-0.33,1.09-0.65,2.15-0.95,3.15c0.72-0.07,1.4-0.18,2.09-0.19c1.05-0.01,2.09,0.03,3.14,0.07
			c0.75,0.03,1.35,0.39,1.79,0.99c0.35,0.47,0.52,0.98,0.35,1.56c-0.4,1.35-0.8,2.7-1.23,4.04c-0.19,0.59-0.27,1.16-0.09,1.76
			c-1.88,0-3.77,0-5.65,0c0.21-0.41,0.48-0.8,0.62-1.23c0.51-1.53,0.99-3.08,1.46-4.63c0.16-0.52,0-0.76-0.55-0.85
			c-0.42-0.07-0.85-0.06-1.27-0.06c-0.93,0-1.15,0.16-1.43,1.04c-0.37,1.16-0.71,2.32-1.09,3.47c-0.24,0.74-0.4,1.48-0.29,2.25
			C65.64,11.41,63.76,11.41,61.88,11.41z"/>
		<path style="&st0;" d="M21.05,5.76c1.38-0.78,2.86-1.41,3.97-2.6c0.09-0.1,0.25-0.17,0.38-0.17c1.13-0.01,2.26,0,3.39,0.01
			c0.03,0,0.06,0.05,0.11,0.1c-1.34,0.81-2.68,1.62-4.06,2.46c0.96,1.98,1.48,4.09,2.75,5.87c-1.75,0-3.51,0-5.26,0
			c-0.48-1.14-0.95-2.27-1.47-3.51c-0.3,0.24-0.65,0.37-0.73,0.6c-0.32,0.94-0.79,1.86-0.5,2.91c-1.88,0-3.77,0-5.65,0
			c1.49-2.91,2.06-6.13,3.12-9.18c0.24-0.69,0.48-1.38,0.27-2.18c1.79,0,3.52,0,5.33,0C22.48,0.84,22.24,1.62,22,2.41
			c-0.29,0.96-0.59,1.92-0.88,2.88c-0.05,0.15-0.04,0.32-0.06,0.49c-0.03,0-0.05,0.01-0.08,0.01c0.01,0.02,0.01,0.03,0.02,0.05
			C21.01,5.81,21.03,5.79,21.05,5.76z"/>
		<path style="&st0;" d="M79.98,11.41c-0.17-0.03-0.33-0.07-0.5-0.1c-1.25-0.26-1.98-1.36-1.64-2.59c0.37-1.34,0.8-2.65,1.23-3.97
			c0.28-0.88,0.93-1.37,1.81-1.53c0.69-0.12,1.4-0.22,2.1-0.22C85.3,2.98,87.63,3,89.95,3.05c0.41,0.01,0.84,0.17,1.21,0.36
			c0.89,0.47,1.26,1.42,0.97,2.48c-0.35,1.25-0.74,2.5-1.15,3.73c-0.33,0.98-1.09,1.5-2.09,1.68c-0.27,0.05-0.55,0.08-0.82,0.12
			C85.37,11.41,82.67,11.41,79.98,11.41z M84.32,9.73C84.32,9.73,84.32,9.73,84.32,9.73c0.36,0.01,0.73,0.01,1.09,0
			c0.41-0.01,0.69-0.22,0.81-0.61c0.37-1.18,0.74-2.36,1.08-3.55c0.17-0.57,0.01-0.84-0.56-0.89c-0.72-0.05-1.45-0.01-2.17,0.01
			c-0.38,0.01-0.64,0.23-0.75,0.6c-0.38,1.24-0.78,2.48-1.14,3.73c-0.13,0.44,0.02,0.64,0.49,0.69C83.55,9.76,83.93,9.73,84.32,9.73
			z"/>
		<path style="&st0;" d="M49.04,11.41c0.04-0.61,0.09-1.23,0.13-1.88c2.22,0.36,4.39,0.16,6.56,0.21c0.67,0.01,0.75-0.08,0.85-0.75
			c-0.22-0.03-0.44-0.09-0.66-0.09c-1.13-0.02-2.27-0.02-3.4-0.03c-0.26,0-0.52-0.01-0.77-0.04c-1.3-0.19-1.92-1.13-1.56-2.4
			c0.15-0.53,0.32-1.06,0.5-1.59c0.37-1.08,1.13-1.68,2.28-1.77c0.58-0.04,1.15-0.09,1.73-0.09c2.48-0.01,4.96,0,7.44,0
			c0.23,0,0.46,0,0.75,0c-0.04,0.69-0.08,1.3-0.12,1.92c-2.22-0.45-4.43-0.19-6.62-0.25c-0.51-0.01-0.57,0.07-0.7,0.61
			c0.22,0.04,0.44,0.1,0.66,0.1c1.22,0.01,2.44,0,3.66,0.02c0.36,0.01,0.73,0.05,1.07,0.15c0.89,0.29,1.35,1.13,1.11,2.03
			c-0.16,0.62-0.37,1.22-0.56,1.84c-0.36,1.15-1.19,1.73-2.34,1.91c-0.21,0.03-0.42,0.07-0.63,0.11
			C55.29,11.41,52.16,11.41,49.04,11.41z"/>
		<path style="&st0;" d="M96.15,11.41c-0.3-0.04-0.59-0.1-0.89-0.13c-1.13-0.14-2.33-1.28-1.76-2.81c0.45-1.21,0.78-2.47,1.19-3.8
			c-0.7,0-1.33,0-2.05,0c0.19-0.61,0.34-1.13,0.51-1.68c0.69,0,1.35,0,2.04,0c0.17-0.53,0.34-1.03,0.51-1.56
			c1.64-0.09,3.28-0.17,4.98-0.26c-0.18,0.62-0.34,1.16-0.52,1.77c1.31,0,2.56,0,3.8,0c0,0.21,0,0.43,0,0.64
			c-0.14,0.35-0.28,0.69-0.44,1.06c-1.3,0-2.58,0-3.91,0c-0.36,1.18-0.72,2.34-1.08,3.5c-0.45,1.46-0.33,1.62,1.23,1.6
			c0.93-0.01,1.85-0.06,2.82-0.09c-0.06,0.22-0.13,0.44-0.18,0.67c-0.09,0.36-0.16,0.73-0.24,1.1
			C100.18,11.41,98.17,11.41,96.15,11.41z"/>
		<path style="&st0;" d="M35.05,11.41c1.47-2.96,2.06-6.21,3.14-9.3c0.23-0.66,0.45-1.33,0.22-2.08c1.79,0,3.54,0,5.35,0
			c-0.37,1.21-0.73,2.39-1.1,3.57c-0.62,2.02-1.24,4.04-1.87,6.06c-0.19,0.59-0.27,1.16-0.09,1.76
			C38.81,11.41,36.93,11.41,35.05,11.41z"/>
		<path style="&st0;" d="M41.98,11.41c-0.01-0.02-0.02-0.05-0.01-0.06c1.06-1.71,1.37-3.7,2.01-5.56c0.45-1.31,0.84-2.64,1.21-3.97
			c0.16-0.56,0.2-1.16,0.3-1.78c1.62,0,3.37,0,5.18,0c-0.07,0.27-0.13,0.49-0.2,0.71c-0.92,2.97-1.83,5.95-2.75,8.92
			c-0.18,0.58-0.29,1.16-0.08,1.75C45.75,11.41,43.86,11.41,41.98,11.41z"/>
		<path style="&st0;" d="M27.99,11.41c1.27-2.19,1.67-4.68,2.46-7.03c0.14-0.4,0.08-0.87,0.11-1.36c1.68,0,3.44,0,5.26,0
			c-0.2,0.67-0.39,1.29-0.59,1.92c-0.45,1.45-0.88,2.9-1.35,4.34c-0.23,0.7-0.37,1.4-0.24,2.14C31.75,11.41,29.87,11.41,27.99,11.41
			z"/>
		<path style="&st0;" d="M36.71,0.17c-0.21,0.69-0.42,1.37-0.64,2.07c-1.59,0-3.14,0-4.69,0c-0.01-0.03-0.03-0.06-0.04-0.08
			c1.76-0.7,3.52-1.4,5.28-2.11C36.64,0.09,36.67,0.13,36.71,0.17z"/>
	</g>
	<g>
		<path style="&st1;" d="M82.43,13.37c-0.23,0.92-0.44,1.8-0.69,2.81c-0.28-1.02-0.52-1.93-0.76-2.84c-0.18,0.01-0.3,0.02-0.5,0.02
			c-0.07,1.28-0.14,2.52-0.22,3.84c0.36-0.04,0.45-0.1,0.44-0.42c-0.02-0.77,0.06-1.53,0.11-2.39c0.14,0.55,0.22,1.02,0.38,1.47
			c0.15,0.44,0.11,0.96,0.6,1.42c0.37-0.96,0.57-1.87,0.77-2.79c0.08,0.8,0.14,1.59,0.19,2.38c0.02,0.25,0.08,0.38,0.44,0.24
			c-0.06-1.23-0.13-2.48-0.2-3.73C82.76,13.37,82.59,13.37,82.43,13.37z"/>
		<path style="&st1;" d="M91.98,13.35c-0.34-0.04-0.69-0.01-1.04-0.01c0,1.32,0,2.54,0,3.84c0.16,0.01,0.27,0.01,0.37,0.02
			c0.96,0.14,1.51-0.42,1.65-1.3c0.08-0.48,0.08-0.98,0.02-1.46C92.91,13.86,92.47,13.4,91.98,13.35z M92.47,15.81
			c-0.04,0.66-0.35,0.95-1.02,0.95c0-0.98,0-1.96,0-3c0.73,0.01,0.98,0.22,1.02,0.86C92.49,15.02,92.5,15.42,92.47,15.81z"/>
		<path style="&st1;" d="M86.91,15.53c0.3-0.18,0.74,0.1,0.9-0.43c-0.14-0.06-0.27-0.13-0.41-0.16c-0.16-0.04-0.33-0.04-0.49-0.06
			c0-0.4,0-0.74,0-1.12c0.17-0.01,0.29-0.02,0.42-0.03c0.15-0.01,0.3-0.03,0.45-0.04c-0.12-0.41-0.19-0.42-1.38-0.32
			c0,1.29,0,2.54,0,3.78c1.3,0.12,1.41,0.1,1.5-0.32c-0.33-0.03-0.65-0.05-0.98-0.08C86.91,16.31,86.91,15.91,86.91,15.53z"/>
		<path style="&st1;" d="M96.6,14.7c0-0.44,0-0.87,0-1.33c-0.2,0-0.33,0-0.49,0c0,1.31,0,2.54,0,3.76c0.35,0.13,0.5,0.04,0.49-0.3
			C96.6,16.11,96.6,15.41,96.6,14.7z"/>
		<path style="&st1;" d="M101.75,16.59c-0.18-0.75-0.38-1.49-0.56-2.23c-0.06-0.25-0.07-0.52-0.15-0.77
			c-0.03-0.1-0.18-0.23-0.26-0.23c-0.12,0.01-0.24,0.13-0.34,0.22c-0.06,0.06-0.07,0.16-0.09,0.24c-0.22,0.94-0.44,1.88-0.64,2.82
			c-0.04,0.16,0,0.34,0,0.61c0.61-0.23,0.39-0.8,0.62-1.11c0.25,0,0.49,0,0.61,0c0.6,0.19,0.05,1.04,0.88,1.04
			C101.78,16.96,101.79,16.77,101.75,16.59z M100.55,15.72c-0.25-0.58,0.16-1.09,0.07-1.63c0.06,0,0.11,0,0.17,0.01
			c0.09,0.5,0.18,1.01,0.28,1.56C100.84,15.68,100.7,15.7,100.55,15.72z"/>
	</g>
</g>
</svg>
