<?xml version="1.0" encoding="utf-8"?>
<svg version="1.1" id="Layer_1"
  xmlns="http://www.w3.org/2000/svg"
  xmlns:xlink="http://www.w3.org/1999/xlink" x="0px" y="0px" viewBox="0 0 435 517.5" style="enable-background:new 0 0 435 517.5;" xml:space="preserve">
  <style type="text/css">
	.st0{fill:#FFFFFF;}
	.st1{fill:#1D2C49;stroke:#1D2C49;stroke-miterlimit:10;}
	.st2{fill:#FFA500;stroke:#FFA500;stroke-miterlimit:10;}
  </style>
  <rect class="st0" width="435" height="407.2"/>
  <path class="st1" d="M16.9,15.3h195c0,0-10.9,7.9-13.3,17.9s-1.9,17.1-0.1,21.9c0,0,0,2.4-1.4,4.1s-1.3-3.6-7.6-3.3
	s-15.3-1.6-27.1,19.8c0,0-3.9,9.9-4.5,18.4s-1.4,20.1-0.3,23.1s-12.1,2.3-12.1,2.3s-3.4,0.9-3.5,2.3s0,8.6,0.1,12.8
	s-0.9,6.5-1.3,10.4s-2.9,7.4-2.5,11.8s7.3,4.6,11.3,5s3.6,1.3,1.4,1.9s-8.9,0.8-8.6,8.8s2.8,27,3.4,32.1s-3.9,0.5-3.4,2
	s-1.8-0.9-3.1,4.9s0.4,4.8,1,5.5s1.4,0.8,1.4,0.8l-1.9,2.6l-0.6,3l1,2.1l1,0.9c0,0-2.5,2.8,0.1,5.8s1.4,1.6,1.1,4.5
	s-5.5,24.3-4.1,33.6s-3.3,12.3-5.3,16.4s-13.6,22.3-13.1,26.5s-1.1,8.8-2.4,11.1s-6.8,8-6.5,13.9s0.6,6.8,3.4,9.3
	c0,0-2.4,8.1-3.3,11.5s-4.3,16.6-4.9,19s-1.8,6.9-1.4,9.3l-0.4,1H16.9V15.3z"/>
  <path class="st1" d="M134.8,387.8h104.4c0,0,0.9-12.4,3.8-18s2.3-12.5,2-17s0.4-12.4-3.3-14.4L241,333c0,0-3.6-8.3-2.6-10.4
	c-0.3-2.4-1-22.5-1-22.5s1.1-3.8,3.3-5.3c0.6-1.9,1.1-12.8-1.1-15c-2-2.3-3.5-2.1-8-2.6s-2,4.6-17.5-19.4c-2.6-4.5-5.4-8.8-6.6-10.4
	s-3.1-1.6-6-1.9s-3.3-0.4-5.8-5s-2.5-4.6-2.5-4.6s-0.6-1.3-3.2,6.6s-5.2,0-10.2,19.6c-3.1,6.6-3.4,7.4-3.9,16.3
	c-1.3,4.5-3.9,5.6-6.6,7.4s-3.1,6.6-4.1,7.9s-5,1.3-7.1,8.8s-2.5,3.1-0.4,10.1c0,0-3.1,12-5,14.8s-4.9,10.4-5.8,13.9s-4.8,8.5-7.6,9
	s-6.1,11-6.5,13.9s-1.5,18.3,0,20.5C133.7,386.8,134.8,387.8,134.8,387.8z"/>
  <path class="st2" d="M239.7,15.3h51.9h127v372.5h-78.3h-38.9h-0.9c0,0-1-0.8-1.9-3.1s-11.3-6.5-14.4-7.3s-9.3-11-11.4-13.2
	c-1.4-2-1.5-3.6-1.5-3.6l-1.2-20.3c0,0-0.2-1.5,0.8-2.6s2.6-3.8,2.4-5.9s-1-11.1-1.5-12.2s-0.3-3-0.4-4s1.2-3.9,1.5-5
	s3.2-23.2,2.9-24.6s-0.1-12.8-2-13.9s-0.4-6.4-1-7.3s-2.9,0.3-3.7-2.6s-9.4-23.1-9.4-23.1l-5.7-11.8c0,0-15.4-22.1-17.2-23.8
	c-1.8-1.7-2.3-12.3-0.6-14.9c1.6-2.7,2.4,0.4,2.6,0.4c0.2,0,4.4,2.7,6.2,0.8c1.8-1.9,6.6-9.3,6.6-12.1c0.1-2.8,1.4-30.7,0.5-32
	c-0.3-1.3-1.1-6-6.1-7.8s0.1-3.6,0-6.3s-0.9-4.5,0.9-3.3c1.8,1.3,22.3,12.6,25,13s3.2,0.4,5.1,0.4s4.1,2.3,4.9,2
	c0.9,0,4,0.1,10.8-5.5s7.9-5,9.5-10.8s1.1-13.9,4.7-14.8s6.6,2.3,2.9-9.4c-1.8-11.3-1.3-11.8,0.3-11.9c1.4-0.8,1-0.6,4.3-4.2
	s3.3-3.8,3.5-4.2s0.2-1.6,0.2-1.6s1-0.6,1.3-0.9s1.9-0.8,2.2-0.8s-0.5-0.9,1-0.9c5.6,0,33.7,0.2,33.7,0.2v-3.2c0,0,0.1-1.1,0.8-1
	c0.7,0.1,1.3,0.1,1.5,0.4c0.3,0.3,7,0.2,7,0.2s1.2-1.1,3.3-1.1c2.1,0,20.9,0.1,20.9,0.1s0.4,1.8,1.4,1.8c0.9,0,2.5,0.3,2.4-0.8
	c3.1,0,11.3-0.1,11.3-0.1s0.4,0,0.4-2.7c0.1-2.3,0.1-1.9-7.8-1.9c-2.9,0-3.4-0.1-3.4-0.1s0.4-1-1.4-1c-1.8,0-2.7,0.9-2.7,1.5
	c0,0.6-0.8,0.5-0.8,0.5l-21.3-0.2c0,0-1.1-0.1-0.7-3.3s-0.9-4.4-1.9-3.7c-1,0.7-1.8,1-1.9,1.2c-0.1,0.2-1.1-1-1.3-2.1
	c-0.1-1.1-0.2-11.2-0.2-11.4c0-0.2-0.6-1.7-1.3-1.3c-0.7,0.4-1.9-0.2-2.1,0.6s-0.1,14.6-0.1,14.6s-1.1,0.9-1.8-0.1s-1.3-0.4-1.1-1.6
	c0.1-1.2-0.8-2.1-0.8-2.1H274c0,0-0.3-3.9-0.9-3.6s-4.9,0.4-4.9,0.4l-0.1-6.4c0,0-0.4-1.9-1.8-0.8c-1.3,0.1-1.1,5.6-1.3,6.3
	s-1.1,0.6-1.1,0.6v2.3l-4.5,0.5c0,0-6.1,1.1-7,1.8s-4.1,0.9-4.1,0.9l-1.5,0.3c0,0-1-2.8-1-3.1s-0.1-3-0.1-3s0.3,1-0.3-0.8
	s-0.3-3.3-0.3-3.3s7.9-2.9,9.3-5.4s1.4-12,0.1-15.9s-2-5-2-6s-0.4-4.3-0.4-4.3s-4.9-2.5-7.3-3.3s-5.9-3.4-5.9-3.4L239.7,15.3z"/>
  <path class="st0" d="M89.2,498.6H22.4v-45.5h66.8c0,0-0.5-13.1-13.1-17c-2.6-0.6-7.8-0.6-11-0.6c-3.2,0-47.6,0-47.6,0
	s-16.5,1.4-16.8,18.1s0,45,0,45s-1.9,18.7,26.4,18.7s43.5,0,43.5,0s12.8-0.5,18-12.9C89.5,501.1,89.2,498.6,89.2,498.6z"/>
  <path class="st0" d="M122.7,517.3h54.8c0,0,18.5-1.3,18.7-18.5c0.6-21.6-0.1-32.5-28.2-31.5c-32.5,0-38.2,0-38.2,0h-4.7v-14.8h69.7
	c0,0-1-17.1-19.2-17s-53,0-53,0s-17.8,0.5-17.8,17s0,16.5,0,16.5s-1.8,16.2,24.7,16.3c26.5,0.2,46.8-0.2,46.8-0.2v14.3l-71.5-0.3
	c0,0,1.4,10.7,8.4,14.5c2.7,1.7,8,3.7,8,3.7"/>
  <rect x="210.5" y="455" class="st0" width="13.1" height="13.5"/>
  <rect x="210.5" y="483" class="st0" width="13.1" height="14.3"/>
  <path class="st0" d="M328.7,451.8h-73.9v49.3H311l-0.1-17.4l-27.6-0.1c0,0-8.9-1.5-12.4-8c-2.4-6-4.1-5.9,1-5.9s56.8,0.4,56.8,0.4
	v30.1c0,0,0.4,17-18.4,17.1s-52.4,0-52.4,0l-5.8,0.1c0,0-12-2.1-14.9-13.7c0-11.4,0-51.9,0-51.9s1-16.1,17.3-16.4s58.3,0,58.3,0
	s8,1.6,11.5,5.9c2.5,4.5,4.4,6.8,4.4,8.1C328.7,450.8,328.7,451.8,328.7,451.8z"/>
  <path class="st0" d="M433.3,495.3c0,0,0.2-21.3,0-41.2s-19.8-18.8-19.8-18.8H365l-3.7,0c0,0-1.5,0.2-3.3,0.8
	c-1.5,0.2-4.5,1.7-8.2,4.8s-5.2,11.7-5.2,11.7s0.2,21.8,0,44.5c-0.2,22.7,24.3,20.2,24.3,20.2s12.5-0.1,39.8,0
	C436.2,517.4,433.3,495.3,433.3,495.3z M416.3,501.5h-53.7v-51h53.7V501.5z"/>
</svg>
