<?xml version="1.0" encoding="utf-8"?>
<svg version="1.1" id="Layer_1"
  xmlns="http://www.w3.org/2000/svg"
  xmlns:xlink="http://www.w3.org/1999/xlink" x="0px" y="0px" viewBox="0 0 1427.2 334" style="enable-background:new 0 0 1427.2 334;" xml:space="preserve">
  <style type="text/css">
	.st0{fill:#EEEEEE;}
  </style>
  <g>
    <path class="st0" d="M818.5,0h8.9c6.2,2.4,12.2,5.8,17.6,9.6c1.7,7.3,4.8,15.1,2.2,22.6c-2.2,2.1-5.3,2.9-8,4.2
		c0.3,2.9,0.8,5.8,1.2,8.6c5.1-0.4,10-1.8,15.1-2.7c0.7-3,0.9-6.2,2.8-8.8c0.4,2,0.7,4.1,1,6.1c2.7,1.6,5.3,3.8,8.6,3.4
		c21,0,42-0.1,63,0c2.3-0.2,3.4,2.3,5,3.5c0-4.5,0-8.9,0.2-13.4c0.6,0,1.9,0,2.5,0c0.1,3.9-0.3,7.9,0.8,11.8
		c1.2,0.3,2.4,0.3,3.6,0.5c0.1,1.5,0.1,3.1,0.2,4.6c6.5,0.2,13,0.6,19.4-0.5c4.3-0.7,8.7-0.2,13-0.2c0.1,1.5,0.2,3,0.5,4.6
		c-5.4,0.4-10.8,0.8-16.1-0.1c-8.5-1-17.1,0.8-25.6,0.3c-0.3,1.2-0.6,2.3-0.8,3.5c-8.2,0.1-16.4,0-24.6,0c-2.7-0.1-5.7,0.5-7.4,2.8
		c-2.4,3-5.3,5.6-7.7,8.7c-0.8,5.7,1.5,11.1,2.7,16.5c-1.9,0.7-3.9,1.4-5.8,2.1c-2,6.1-1.2,13.9-6.8,18.2c-3.1,2.3-5.8,5.2-9.3,6.9
		c-2.6,1.2-5.3-0.1-7.9-0.4c-9.6-1.5-17.6-7.4-26.2-11.5c-0.6,2.3-1.2,4.6-1.8,6.9c2.6,1.7,6,3.1,6.8,6.4c1.3,4.9,0.2,10,0,14.9
		c-0.4,4.5-0.5,9.1-1,13.6c-0.4,4.4-3,8.2-5.6,11.6c-2.5-0.6-4.8-1.3-7.3-1.9c-2.6,5.6-0.4,12.6,3.9,16.7
		c11.2,12.2,17.2,27.8,22.9,43.1c1,3.2,4.3,5.1,4.8,8.5c0.9,3.6,2.3,7.2,2,11c-0.4,6.6-0.9,13.3-1.6,19.9c-0.5,4.8-2.3,9.7-1.2,14.6
		c0.8,4,1.3,8.2-0.2,12.1c-2,4.9-2,10.3-2,15.5c0.1,3.4,0.3,7.2,2.7,9.9c2.8,3.5,5.6,7.1,8.9,10c4.2,2.7,9.9,2.8,13.3,6.7
		c1.1,2.2,0.3,4.7,0.3,7c-10.8,1.6-22.2,1.8-32.7-1.6c-5.9-1.9-12.5,1.4-18.2-1.9c0.3-6.8,2-13.4,4.3-19.8c1-4.7-0.1-9.6-0.2-14.4
		c-0.1-4.1-2.2-7.8-3-11.8c-2.3-8.5-3-17.4-3.4-26.2c-0.5-4.3,3.2-7.6,3.3-11.8c0.8-3.8,0.2-7.6-2.1-10.7c-4-0.1-9.5,0.9-11.7-3.4
		c-4.7-7-9.3-14.1-14-21c-1.6-3-5.6-2.3-8.3-3.6c-2.4-2.2-3.6-5.4-5.1-8.2c-0.9,3.2-2.1,6.5-4.5,8.9c-3.8,3.8-5.1,9.1-7.1,13.9
		c-1.4,3.5-2.6,7.1-3.1,10.8c-0.5,2.8-0.7,6.1-3.2,7.9c-3.7,2.8-5,7.5-8.4,10.6c-2.5,2.4-4.1,5.7-4.9,9c-0.3,3,0.6,6.1-0.2,9
		c-1.4,5.4-4.4,10.2-6.6,15.4c-1.6,3.6-2.4,7.5-4.1,11c-1.1,2.5-4.1,3.3-5.7,5.3c-4.6,8-6.1,17.6-4.5,26.6c1.3,3.6,2.3,7.4,1.5,11.2
		c-2.8,0.4-5.7,0.9-8.5,1.1h-8.8c-2.3-0.5-4.7-0.8-6.8-1.9c-1.6-4.9-1.3-10.3,0.1-15.2c2.1-7.4,4-14.9,5.8-22.3
		c1.3-3.6-1.7-6.9-1.5-10.6c-0.3-5.4,3-9.8,5.4-14.3c2.3-4,1.5-8.8,3-13c3.5-9.1,10.3-16.6,14.3-25.5c1.2-3.6-0.1-7.5,0.1-11.2
		c0.3-7.1,1.7-14.1,2.9-21.1c0.4-2.7,1.3-5.5,0.2-8.2c-1.1-3.2-1.9-6.5-1.5-9.9c0.5-3.1-1.4-6.2-0.2-9.2c0.6-2.6,3-4,4.9-5.6
		c0.3-10.6-3.5-20.9-1.9-31.5c1.8-2.3,4.8-3.1,7.4-4.3c-3.8-0.8-7.5-1.6-11.3-2.4c-0.2-4.3,0.4-8.5,1.3-12.6
		c1.4-6.5,0.6-13.2,1.7-19.7c0.2-1.7,2-2.2,3.4-2.3c3.4-0.3,6.9-0.4,10.2-1.2c-1-8.3-1.8-16.7,0-24.9c1.8-9.7,6.1-19.5,14.3-25.5
		c5.6-3.8,13.7-6,19.5-1.5c0.5-0.3,1.4-1,1.9-1.3c-3.4-9.2-2.7-19.8,2.8-28C806.3,5.1,812.4,1.9,818.5,0 M873.5,63.1
		c-0.3,2.4-1,4.8-3.4,5.9c3.1-0.2,6.2-0.2,9.2-0.8c-0.1-1.8-0.1-3.5-0.2-5.3C877.2,62.9,875.3,63,873.5,63.1 M867.1,69.9
		c-0.3,0.3-0.8,1-1,1.3c0.5,3.3,2.9,5.9,4.5,8.7c2.4-3.3,4.8-6.6,7-10C874.1,69.7,870.6,69.5,867.1,69.9L867.1,69.9z M8.1,182.1
		c3.9-3,9-4,13.9-3.9c16.4,0.1,32.7-0.1,49.1,0.1c10,0,18.7,8.6,19.4,18.5c-22.8,0.3-45.5-0.1-68.3,0.2c-0.1,15.1-0.1,30.2,0,45.3
		c22.7,0.3,45.4,0,68.1,0.1c-0.1,10.1-9.1,18.9-19.2,18.9c-16,0.2-32,0-48,0.1c-4.8,0.1-9.9-0.5-14-3.3c-4.6-2.8-7.3-7.7-9-12.6
		v-51.8C1.8,189.3,4.1,184.9,8.1,182.1L8.1,182.1z M117.4,178.6c1.8-0.3,3.7-0.3,5.6-0.4c17,0.1,34.1,0,51.1,0
		c8.2-0.1,16,5.4,18.7,13.1c1.3,3.4,1.2,7.1,1.2,10.7c-0.1,13.4,0,26.7,0,40.1c0.1,10.4-9.5,19.5-19.9,19.3c-17.7,0-35.3,0-53,0
		c-10.4,0.3-19.9-8.8-19.9-19.3c0-14.7,0-29.4,0-44.1C100.9,188.7,108.3,180.1,117.4,178.6 M121.3,196.3c0,15.6,0.1,31.2,0,46.8
		c4.9,0.5,9.8,0.2,14.7,0.3c12.6-0.2,25.1,0.4,37.7-0.3c-0.1-15.6-0.1-31.2,0-46.8C156.2,196.2,138.8,196.2,121.3,196.3L121.3,196.3
		z M209.3,178.1c6.3,0.4,12.6,3,16.4,8.3c2.4,3.4,3.9,7.4,3.9,11.6c0.1,15.1-0.1,30.2,0.1,45.3c17.3,0.1,34.7,0.3,52-0.1
		c0.1-21.6-0.2-43.3,0.1-64.9c6.7,0,13.4,0,20,0c0.3,19.3,0,38.5,0.1,57.8c0,4.5,0.3,9.2-1.6,13.4c-3,7.2-10.6,12.1-18.5,12
		c-16.3,0.1-32.7,0-49,0c-2.9,0-5.9,0-8.8-0.7c-6.7-1.7-12.3-7.1-14.1-13.8c-0.9-3.2-0.8-6.6-0.8-9.9
		C209.3,217.4,209.1,197.7,209.3,178.1L209.3,178.1z M319,178.1c11.5-0.6,23.6,2.6,32,10.8c14.2,13.5,28.5,26.8,42.8,40.3
		c1.4,1.3,2.8,2.4,4.3,3.6c0.5-12.2-0.1-24.4,0.3-36.6c0.8-10.1,10.1-18.1,20.1-17.9c0.1,27.7-0.1,55.3,0.1,83
		c-5.9,0.5-11.8,0.3-17.7,0.3c-2,0.3-3.4-1.4-4.7-2.6c-16-15.3-32.1-30.5-48.2-45.8c-2.9-2.8-5.8-5.6-8.9-8.2
		c-0.3,18.8,0,37.7-0.1,56.5c-6.7,0.2-13.4,0.2-20,0C318.9,233.6,318.8,205.8,319,178.1L319,178.1z M434.9,179.9
		c4-2.1,8.7-1.6,13.1-1.7c23.7,0.1,47.4,0,71.1,0c0,4.9-2,9.8-5.5,13.3c-3.3,3.2-8,4.7-12.6,4.7c-6.4,0.1-12.7-0.1-19.1,0
		c-0.4,21.6-0.1,43.3-0.1,64.9c-6.8,0.3-13.6,0.5-20.4-0.1c0-21.6,0.3-43.2-0.1-64.8c-12.1-0.1-24.3,0.2-36.4-0.1
		C425.1,189.5,428.8,182.8,434.9,179.9L434.9,179.9z M526.2,178.3c26.9,0.1,53.8-0.1,80.8,0.1c-0.4,4.3-1.7,8.6-4.6,12
		c-3.2,3.9-8.3,5.9-13.3,5.9c-14.2,0.1-28.4-0.1-42.6,0.1c0.1,4.8,0,9.5,0,14.3c17,0.1,34-0.1,51,0.1c0,9-7.1,17.8-16.3,18.2
		c-11.5,0.2-23,0-34.5,0.1c-0.2,4.8-0.2,9.5,0,14.3c20.1,0.2,40.3,0.1,60.4,0c0.1,5.9-2.9,11.6-7.6,15c-3.6,2.6-8.1,3.1-12.4,3
		c-20.3-0.1-40.6,0.2-60.8-0.1C526.2,233.6,526.1,205.9,526.2,178.3L526.2,178.3z M619.2,178.3c17.3,0,34.5,0,51.8,0
		c7.1,0,14.3-0.4,21.2,1.6c4.4,1.3,8.7,3.9,10.8,8.1c3.7,7.1,3.2,15.3,3,23c-0.4,5-0.7,10.7-4.4,14.5c-3.3,3.9-7.8,6.3-12.6,7.8
		c8.4,10.4,17.5,20.2,26,30.4c-7.4,0.1-14.7,0-22.1,0c-2.9,0.1-6.1-0.4-8.1-2.7c-4-4.4-7.5-9.2-11.2-13.7
		c-7.9-10.1-16.4-19.7-23.9-30.1c9.5-0.3,18.9,0.2,28.3-0.2c2.7-0.2,6.5-0.8,7-4c0.8-4.3,0.9-8.9-0.1-13.2c-1-3.4-5.1-3.4-8-3.7
		c-12.4-0.1-24.8,0-37.3-0.1c-0.5,21.6-0.2,43.2-0.2,64.8c-6.8,0.7-13.7,0.3-20.5,0.2C619.2,233.6,619.1,205.9,619.2,178.3z"/>
    <path class="st0" d="M898.3,191.4c2.7-7.6,10.5-13.2,18.6-13.1c15.3-0.1,30.7,0,46.1,0c4.5,0,9.1-0.3,13.3,1.6
		c6.6,2.7,11.4,9.2,12.1,16.3c-23.5,0.3-47.1,0.1-70.6,0.1c-0.4,4.7-0.3,9.4-0.1,14.2c17.8,0.3,35.5,0,53.3,0.1
		c9.5,0.2,18.2,8,19,17.5c0.3,5,0.2,10.1,0,15.1c-0.5,9.7-9.2,18-18.9,18.2c-17,0.2-34,0-51,0.1c-4.8,0.1-10-0.5-14-3.4
		c-5.1-3.2-8.1-8.9-9-14.7c24.2-0.3,48.4,0.3,72.6-0.3c-0.1-4.6,0.2-9.2-0.1-13.8l-0.6-0.6c-17.6-0.2-35.3,0.1-52.9-0.1
		c-10.1-0.2-19.1-9.3-18.9-19.5C897.3,203.2,896.4,197,898.3,191.4L898.3,191.4z M994,196.1c0.4-8.7,7-17.3,16.1-17.8
		c24.4-0.2,48.8,0,73.2-0.1c0.5,7.7-5,15.6-12.6,17.4c-7.2,1.4-14.6,0.4-21.9,0.6c-0.5,21.6-0.2,43.2-0.2,64.8
		c-6.8,0.6-13.6,0.4-20.4,0.1c-0.1-21.6,0.2-43.3-0.1-64.9C1016.7,196.2,1005.3,196.5,994,196.1L994,196.1z M1091.3,178.3
		c17.2,0,34.5,0,51.7,0c7.6,0,15.4-0.4,22.7,2.1c4.4,1.4,8.2,4.7,10,9c2.9,6.5,2.4,13.8,2.3,20.8c-0.2,4.3-0.5,8.8-2.3,12.7
		c-3.2,5.4-8.8,8.8-14.6,10.7c7.8,9.5,16.7,18.1,24.4,27.8c-7.1,0.4-14.3,0.1-21.4,0.2c-3.3,0.1-6.8-0.6-9-3.4
		c-7-8.3-13.9-16.8-20.8-25.2c-4.1-5.2-8.7-10-12.5-15.5c9.1-0.2,18.2,0,27.3-0.1c3-0.1,7.4-0.5,8-4.2c0.8-4.3,1-8.8,0-13.1
		c-1-3.4-5.1-3.4-8-3.7c-12.4-0.1-24.8,0-37.2-0.1c-0.4,21.6-0.1,43.2-0.2,64.9c-6.8,0.5-13.6,0.4-20.4,0.1
		C1091.3,233.5,1091.2,205.9,1091.3,178.3L1091.3,178.3z M1200.9,178.3c6.7,0,13.3,0,20,0c0.3,27.7,0.1,55.4,0.1,83
		c-6.7,0.1-13.5,0.2-20.2,0C1200.8,233.6,1200.6,205.9,1200.9,178.3z M1243.9,178.3c6.7,0,13.3,0,20,0c0.4,10.6-0.1,21.3,0.3,32
		c1.5-0.4,3-0.7,4.3-1.7c12.7-9.9,25.2-20.1,38.1-29.9c9.8-0.9,19.7-0.1,29.6-0.4c-15.1,13.8-30.9,26.7-46.1,40.5
		c14.4,11.4,28.9,22.6,43.4,33.9c3.5,2.8,7.2,5.2,10.2,8.5c-7.5,0.5-15.1,0.1-22.7,0.2c-4.4-0.1-9.4,0.7-13-2.3
		c-13.1-9.9-26.1-19.9-39.2-29.8c-1.3-1.1-3.1-1.3-4.7-1.5c-0.2,11.2,0.1,22.4-0.1,33.5c-6.7,0.1-13.5,0.2-20.2,0
		C1243.7,233.6,1243.6,205.9,1243.9,178.3L1243.9,178.3z M1346.3,178.3c26.9-0.1,53.8,0,80.7,0c0,8.9-7,17.4-16.1,17.9
		c-14.7,0.3-29.4,0-44.1,0.1c-0.3,4.8-0.4,9.6,0.1,14.4c16.9,0,33.7-0.1,50.6,0c0.3,9.2-7.3,17.9-16.6,18.2
		c-11.4,0.2-22.8-0.1-34.2,0.1c-0.2,4.8-0.2,9.5,0,14.2c20.1,0.2,40.2,0.1,60.3,0c0.6,9.4-7.7,18.3-17.1,18c-16,0.1-32,0-48,0
		c-5.2-0.1-10.5,0.3-15.7-0.3C1346.4,233.5,1346.4,205.9,1346.3,178.3L1346.3,178.3z M916.6,290.6c5-0.9,10.4-0.9,15.4,0.4
		c3.6,0.9,3.7,5.1,4.1,8c-1.9,0-3.7,0-5.6,0c-0.8-1.3-0.8-3.5-2.6-3.7c-3.1-0.5-6.4-0.6-9.4,0.3c-2.3,0.7-2.3,3.5-2.4,5.4
		c0,3.8-0.4,7.8,0.5,11.5c0.8,2.7,4.2,2.5,6.5,2.6c2.2-0.1,5,0.3,6.5-1.7c0.7-1.6,0.5-3.4,0.7-5.1c-2.4,0-4.8-0.1-7.2-0.2
		c0-1.4,0-2.8,0-4.1c4.3-0.1,8.6-0.1,12.9,0c-0.3,4.6,1,9.9-2,13.8c-3.4,2.4-7.9,2-11.9,2.1c-3.8-0.2-8.8-0.4-10.5-4.4
		c-1.9-5.3-1.1-11-0.9-16.5C910.5,295.3,912.6,291.2,916.6,290.6L916.6,290.6z M948.4,290.3c1.9,0,3.8-0.1,5.7-0.1
		c0.4,8.1,0,16.3,0.2,24.5c4.5-0.1,9.1-0.1,13.6,0.1c0,1.6-0.1,3.3-0.1,5c-6.5,0-13,0-19.4-0.1C948.5,309.9,948.5,300.1,948.4,290.3
		z M985.3,290.5c5.4-0.6,11.6-1.3,16.3,1.9c3.3,4.4,2.4,10.5,2.5,15.6c-0.3,3.8-0.2,9.2-4.5,10.8c-5.4,1.6-11.3,1.6-16.7,0.2
		c-3.9-1-4.6-5.5-4.9-8.9c-0.3-5.2-0.4-10.6,1.2-15.7C980.2,291.8,983,290.9,985.3,290.5 M985.1,296c-1.8,3.6-1.1,8-1.3,12
		c0.3,2.2-0.3,5.8,2.6,6.6c3.7,0.6,8,1.2,11.3-1c1.4-5.7,1-11.8,0.2-17.5C993.8,294.6,989,294.1,985.1,296L985.1,296z M1016.9,290.3
		c6.2,0.2,12.4-0.5,18.5,0.4c6,1.3,5.8,10.2,1.8,13.7c3.7,2.9,4.4,8.2,2.4,12.4c-1.3,2.4-4.2,2.9-6.7,3c-5.4,0.2-10.8,0-16.1,0.1
		C1016.6,309.9,1016.6,300.1,1016.9,290.3 M1022.3,295.2c0,2.5,0,5,0,7.5c3.8,0,7.7,0.2,11.5-0.8c0-2.1,1.2-5.4-1.4-6.4
		C1029.1,294.6,1025.7,295.2,1022.3,295.2 M1022.3,307c0,2.6,0,5.2,0,7.9c3.7,0,7.5,0.5,11.1-0.4c2.4-1.5,1.2-4.7,1.1-7
		C1030.5,306.6,1026.4,306.6,1022.3,307z M1060.5,290.3c2.8-0.1,5.6-0.1,8.4-0.1c3.5,9.8,6.8,19.6,10,29.5c-1.9,0-3.8,0-5.6,0
		c-0.8-1.9-1.6-3.8-2.3-5.6c-3.9,0-7.8-0.2-11.8,0.1c-1.4,1.5-1.7,3.7-2.5,5.5l-5.7,0.1C1053.7,309.8,1057.4,300.2,1060.5,290.3
		 M1064.7,295c-1.5,5-3.2,9.9-4.7,14.9c3.3,0.1,6.5,0.1,9.8,0C1068.2,304.9,1066.6,299.9,1064.7,295L1064.7,295z M1090.2,290.2
		c1.8,0,3.7,0,5.5,0c0.2,8.1-0.3,16.3,0.3,24.4c4.5-0.1,9-0.1,13.5,0c-0.1,1.7-0.2,3.4-0.2,5.1c-6.4-0.1-12.8,0-19.1,0
		C1090.1,309.9,1090.1,300.1,1090.2,290.2L1090.2,290.2z M1147.3,290.4c5.1-0.5,11-1.1,15.5,1.8c3.5,4,2.6,10,2.8,14.9
		c-0.3,4.1,0,10.2-4.8,11.8c-5.4,1.5-11.3,1.6-16.7,0c-3.4-1-4.2-4.8-4.5-7.9c-0.4-5.5-0.5-11.1,1-16.4
		C1141.5,291.7,1144.7,290.7,1147.3,290.4 M1147.4,295.5c-2.3,0.7-1.8,3.6-2.1,5.4c0.1,4.4-1,9.4,1.3,13.3c3.8,1.2,8.6,1.6,12.2-0.4
		c1.6-3.7,1-7.9,1.1-11.9c-0.3-2,0.1-4.7-1.6-6.2C1154.8,294.5,1150.9,294.6,1147.4,295.5L1147.4,295.5z M1178.2,290.3
		c6.5,0,13-0.1,19.5,0.1c0,1.5,0,3,0.1,4.6c-4.6,0.3-9.3,0.2-13.9,0.2c-0.1,2.6-0.1,5.2,0,7.8c4.4,0,8.8,0,13.1,0.1
		c-0.1,1.5-0.1,3.1-0.1,4.6c-4.3-0.1-8.7-0.1-13,0.1c-0.1,4-0.1,8-0.1,12c-1.9,0-3.7,0-5.5,0
		C1178.1,309.9,1178.1,300.1,1178.2,290.3L1178.2,290.3z M1209.9,290.3h19.2c0,1.6,0.1,3.2,0.2,4.8c-4.7,0.1-9.3,0-13.9,0.1
		c0,2.6,0,5.1,0,7.7c4.4,0.1,8.9,0,13.3,0.3c-0.1,1.5-0.1,3-0.1,4.5c-4.4,0-8.9-0.2-13.3,0.3c0.1,4,0.2,7.9-0.2,11.9
		c-1.8,0-3.5,0-5.2,0C1209.6,309.9,1209.6,300.1,1209.9,290.3L1209.9,290.3z M1240.9,290.3c6.6,0,13.3,0,19.9,0c0,1.6,0,3.1,0.1,4.7
		c-4.9,0.2-9.8,0.1-14.6,0.2l0.1,7.4c4.6-0.1,9.2-0.1,13.7,0.1c-0.1,1.4-0.2,2.8-0.2,4.1c-4.6-0.1-9.1-0.2-13.6,0.2
		c0,2.6,0,5.2,0,7.9c4.9,0.2,9.8,0,14.7,0.2c-0.1,1.6-0.1,3.2-0.1,4.8c-6.7,0-13.3,0-20,0C1240.6,309.9,1240.6,300.1,1240.9,290.3
		L1240.9,290.3z M1274.1,290.2c3.1,0,6.3,0,9.5,0.1c4,7.9,7.9,15.9,12.1,23.8c0-7.9-0.2-15.9,0-23.8c1.8,0,3.6,0,5.5,0
		c0,9.8,0.2,19.6-0.1,29.4c-3.2,0-6.3,0-9.4-0.1c-4.1-7.9-8.1-15.8-12.1-23.8c-0.1,8,0.4,16-0.2,23.9c-1.7,0-3.4,0-5.1,0
		C1273.8,309.9,1273.9,300.1,1274.1,290.2z M1314.5,294.3c0.7-2.9,3.9-3.9,6.6-4.1c4.2-0.4,8.7-0.6,12.8,0.9c3,1.3,2.9,5.1,3.3,7.8
		c-1.8,0-3.7,0-5.5,0c-0.6-1.3-0.6-3-1.9-3.9c-2.8-0.6-5.7-0.6-8.5,0.1c-2.5,1.3-1.4,4.5-1.1,6.6c4.7,0.9,9.6,0.4,14.2,1.9
		c3,1,3.2,4.7,3.2,7.4c-0.1,2.9-0.3,7-3.7,8c-5.2,1.5-10.9,1.5-16.2,0.2c-3.8-1.1-4.1-5.6-3.7-8.8c1.5,0,3.1,0.1,4.7,0.1
		c0.5,1.5,1,3,1.8,4.4c3.6,1.1,7.5,0.8,11.1-0.2c0.1-1.8,0.5-3.5,0.2-5.3c-0.6-2.1-3.1-1.7-4.7-2c-3.9-0.5-8.6,0.1-11.8-2.6
		C1313.3,301.7,1313.7,297.7,1314.5,294.3L1314.5,294.3z M1350.2,290.2c1.8,0,3.7,0,5.5,0c0,9.8,0,19.7,0,29.5c-1.9,0-3.7,0-5.5,0
		C1350.1,309.9,1350.1,300.1,1350.2,290.2z M1367,290.3c1.9,0,3.8,0,5.8,0c2.8,7.9,5.4,15.9,7.7,23.9c2.9-7.8,5.1-15.9,7.9-23.8
		c1.9,0,3.8-0.1,5.8-0.1c-2.6,10-6,19.7-9.3,29.5c-2.9,0-5.7,0-8.5,0C1373.2,309.9,1369.9,300.1,1367,290.3L1367,290.3z
		 M1405.1,290.2c6.6,0,13.3,0,19.9,0c0,1.6,0.1,3.2,0.2,4.8c-4.8,0.1-9.6,0.1-14.4,0.1c-0.1,2.4-0.1,4.9,0,7.3c4.5,0.1,9,0.1,13.4,0
		c0,1.5,0.1,2.9,0.2,4.4c-4.5,0-9.1,0-13.6,0c-0.1,2.7-0.1,5.4,0,8.1c4.8,0,9.7,0,14.5,0.1c-0.1,1.6-0.1,3.2-0.2,4.8
		c-6.7,0-13.4,0-20.1,0C1404.8,309.9,1404.8,300.1,1405.1,290.2L1405.1,290.2z"/>
  </g>
</svg>
