<?xml version="1.0" encoding="utf-8"?>
<!-- Generator: Adobe Illustrator 23.0.3, SVG Export Plug-In . SVG Version: 6.00 Build 0)  -->
<svg version="1.1" xmlns="http://www.w3.org/2000/svg" xmlns:xlink="http://www.w3.org/1999/xlink" x="0px" y="0px"
	 viewBox="0 0 512 512" style="enable-background:new 0 0 512 512;" xml:space="preserve">
<style type="text/css">
	.st0{fill:#699433;}
	.st1{fill:#FFFFFF;}
</style>
<g id="Layer_2">
</g>
<g id="Layer_1">
	<rect class="st0" width="512" height="512"/>
	<path class="st1" d="M365.8,66H146.3L36.6,256l109.7,190h219.4l109.7-190L365.8,66z M286.9,167.9l34.9,34.9c1.9,1.9,1.9,4.9,0,6.8
		l-63.1,63.1c-1.9,1.9-4.9,1.9-6.8,0L217,237.8c-1.9-1.9-1.9-4.9,0-6.8l63.1-63.1C282,166,285.1,166,286.9,167.9z M233,298.4
		l-35.5,35.5c-1.9,1.9-4.9,1.9-6.8,0l-34.9-34.9c-1.9-1.9-1.9-4.9,0-6.8l35.5-35.5c1.9-1.9,4.9-1.9,6.8,0l34.9,34.9
		C234.8,293.5,234.8,296.5,233,298.4z M126.6,196.2l90.2-90.2c1.9-1.9,4.9-1.9,6.8,0l35,34.9c1.9,1.9,1.9,4.9,0,6.8l-90.2,90.2
		c-1.9,1.9-4.9,1.9-6.8,0l-34.9-34.9C124.8,201.1,124.8,198.2,126.6,196.2z M97,302.5l-11.1-11.1L66,257l31-31
		c1.9-1.9,4.9-1.9,6.8,0l34.9,34.9c1.9,1.9,1.9,4.9,0,6.8l-34.9,34.9C101.9,304.3,98.9,304.3,97,302.5z M170.9,360.6l-28.5,28.5
		l-30.5-52.8l17.3-17.3c1.9-1.9,4.9-1.9,6.8,0l34.9,34.9C172.7,355.7,172.7,358.6,170.9,360.6z M254.1,402.4l-18.6,18.7h-39.3
		l-18.6-18.6c-1.9-1.9-1.9-4.9,0-6.8l34.9-34.9c1.9-1.9,4.9-1.9,6.8,0l34.9,34.9C256,397.5,256,400.6,254.1,402.4z M240.3,339.6
		c-1.9-1.9-1.9-4.9,0-6.8l100.8-100.8c1.9-1.9,4.9-1.9,6.8,0l34.9,34.9c1.9,1.9,1.9,4.9,0,6.8L282,374.5c-1.9,1.9-4.9,1.9-6.8,0
		L240.3,339.6z M351.3,421.1h-74.1l125.2-125.2c1.9-1.9,4.9-1.9,6.8,0l9.2,9.2L351.3,421.1z"/>
</g>
</svg>
