<?xml version="1.0" encoding="utf-8"?>
<svg version="1.1" id="Layer_1"
  xmlns:cc="http://creativecommons.org/ns#"
  xmlns:dc="http://purl.org/dc/elements/1.1/"
  xmlns:rdf="http://www.w3.org/1999/02/22-rdf-syntax-ns#"
  xmlns:svg="http://www.w3.org/2000/svg"
  xmlns="http://www.w3.org/2000/svg"
  xmlns:xlink="http://www.w3.org/1999/xlink" x="0px" y="0px" viewBox="0 0 56.6 54.4" style="enable-background:new 0 0 56.6 54.4;" xml:space="preserve">
  <style type="text/css">
	.st0{fill:#FFFFFF;}
	.st1{fill:url(#path22_1_);}
	.st2{opacity:0.4;enable-background:new    ;}
	.st3{opacity:0.4;fill:url(#path31_1_);enable-background:new    ;}
	.st4{fill:url(#circle40_1_);}
  </style>
  <path id="path4" class="st0" d="M26.6,19.5c0,0,1.3,0.1,2.4,1.5l-0.6,0.1L28.1,21C28.1,21,27.2,19.9,26.6,19.5z M24.6,25.7L24,24.2
	h-0.2l-1,1.2C23.5,26,24.6,25.7,24.6,25.7z M33.8,16.9l-0.5,0.2l0.6,1.1l2,0.7C35.1,17.2,33.8,16.9,33.8,16.9z M28.1,19
	c0.6,0.7,1.2,1.7,1.2,1.7c1-1,3.1-1.4,5.8-1.3C31.3,18.6,28.1,19,28.1,19z M24.4,17.5c0,0,1.1,0,2.6,0.3c-1-0.7-2.6-1.1-2.6-1.1
	V17.5z M33.6,23l-1.7,1.5l1.3,0.4l1.3-1.4l-0.7-0.3L33.6,23L33.6,23z M22.3,15.1c0,0,0.7,0.4,0.8,0.4s1.5,0.5,2.1,0.7
	c0.5,0.2,0.8,0,0.9,0s1.8-1,1.8-1c-1.5-0.6-2.9-1-2.9-1C24.9,14.2,22.3,15.1,22.3,15.1z M32.5,16c-0.1-0.2-0.3-0.2-1.5-0.4
	c-1.1-0.1-2.1-0.2-2.3-0.2c-0.2,0-0.3,0.1-0.3,0.1s-0.6,0.4-1.1,0.7s-0.6,0.4-0.7,0.6c-0.1,0.1,0.2,0.5,0.2,0.5l0.8,1
	c0.1,0,0.4,0.2,0.4,0.2s1.6-0.1,2.6-0.2h2.6c0.1,0,0-0.4-0.2-0.9C32.8,17,32.5,16,32.5,16z M23,17.1c0,0,0.1,0,0.3,0.1
	c0.2,0,0.3-0.2,0.3-0.4c0-0.3-0.3-0.4-0.3-0.4h-0.2l-0.3,0.1l-0.1,0.7h0.1L23,17.1c-0.1-0.2-0.1-0.3-0.1-0.5c0-0.1,0.2-0.3,0.3-0.3
	c0,0,0.2,0,0.1,0.4C23.3,17.1,23,17.1,23,17.1z M39.9,25l-0.8,1.1v0.1h1.1C40.4,25.5,39.9,25,39.9,25z M19.9,19.8h-0.2l-0.5-0.1
	c-0.5-0.1-0.3-1-0.3-1l-0.6,0.2c-0.2-0.4-1.1-1.5-1.1-1.5L17,18.2c0.1,0.1,0.6,0.9,0.7,1.1l-0.3,0.3c0,0-0.1,0.2-0.1,0.3
	s-0.1,0.2-0.1,0.2l-0.4,0.2h-0.1l-1.4-1.1V20h0.1c0.1,0.2,0.3,0.6,0.8,0.8c0.4,0.2,0.9,0.2,1.1,0.1c0.2,0.1,0.3,0.1,0.4,0.2
	c0.4,0.2,0.5,0.1,0.5,0.1l0.6-0.2h0.1l0.1-0.1l0.2-0.4c0,0,1,0.1,1.4,0.1c0.4-0.6,1.7-1.5,2.6-1.6c0.9,0,2.4,0.2,3.6,1.4
	c1.1,1.2,0.8,2.8,0.8,2.8l2.2,0.7l-1-0.7c-0.8-2-2.7-3.8-2.7-3.8s-0.5-0.1-0.8-0.1C25,19.2,24.8,19,24.8,19s-0.1-0.1-0.3-0.4
	l-0.2-0.4c0,0-0.2-0.2-0.5-0.4s-1.4-0.3-2-0.4c-0.6-0.1-0.6,0-0.6,0c1.7,0.4,2.2,0.5,2.3,0.6c0,0,0.1,0.2,0.2,0.3
	c-1.4-0.3-2.7-0.1-3,0c0.2,0.3,0.2,0.7,0,1C20.5,19.5,19.9,19.8,19.9,19.8z M38.9,27l0.3,1.3c0,0,0.3-0.3,0.6-0.7s0.4-0.8,0.4-0.8
	L39,26.9C39,26.9,38.9,27,38.9,27z M14.8,17.9L14.7,19h0.6l0.1-0.7v0.4h0.1v-0.6h-0.1v-0.4l0.9,0.5l0.1,0.2l0.2,0.2h0.2l0.1-0.1
	v-0.1c-0.6,0-0.6-0.3-0.6-0.3s0.1-0.7,0.2-0.9s0.5-0.1,0.5-0.1L16.9,17h-0.2c-0.2-0.1-0.8-0.5-1-0.6v-0.1l0.1-0.1v-0.4h0.1
	c0-0.1,0.1-0.1,0.1-0.2c0.2,0,1.7-0.3,1.7-0.3L16.3,15v-0.1c-0.4-0.1-0.7-0.2-0.9-0.3c-0.5,0.6-0.7,1.4-0.7,1.4s-0.1,1.4-0.1,1.6
	C14.5,17.8,14.8,17.9,14.8,17.9L14.8,17.9z M38.3,25.8l0.2,0.3l0.1-0.1l0.8-1v-0.1C39,24.9,38.3,25.8,38.3,25.8z M35.9,24l-0.6-0.2
	l-1.4,1.6l1,0.3C35.1,24.9,35.9,24,35.9,24z M38,26.3c-0.5,1-0.4,1.7-0.4,1.7l0.5-1.1v-0.2C38.2,26.7,38.1,26.5,38,26.3z M37.5,19.8
	c0,0-0.2,0.4-0.3,0.5c-0.1,0.1-0.8,0.2-1.2,0.3c-0.4,0.2-1.1,0.5-1.3,0.7c-0.1,0.1-0.1,0.4-0.1,0.5c0,0,0.2,0.1,0.3,0.1L34,22.7
	l0.2,0.2l2.2,0.7c0.5-0.4,1.2-0.5,1.2-0.5c-0.4-0.2-2.1-0.9-2.6-1.1c0,0-0.3-0.1-0.3-0.2v-0.3c0,0,1.3-1,3.3-1l0.3-0.6
	C38.3,19.9,37.5,19.8,37.5,19.8z M38.8,28.6l-0.4-1.2h-0.1l-0.6,1.1l0.1,0.1C38.3,28.8,38.8,28.6,38.8,28.6z M23.7,17.2l0.3,0.1
	c0,0,0.2,0,0.2-0.2v-0.4l-0.3-0.2l-0.4-0.1c0.1,0.1,0.1,0.2,0.1,0.2h0.1c0-0.1,0.1-0.1,0.1,0c0,0,0.2,0.1,0.1,0.4
	C24,17.1,23.8,17.2,23.7,17.2z M22.8,22.7c-0.7,1.3-0.2,2.2-0.2,2.2l0.9-1.3v-0.2C23.5,23.4,22.8,22.7,22.8,22.7z M16.3,15l1.2,0.3
	c0.1,0,0.8-0.1,0.8-0.1l-1.9-0.5L16.3,15z M17,14.7c1.6,0.2,1.9,0.5,1.9,0.5s0.6-0.1,0.9-0.1c-0.5-0.4-2.7-1.1-2.7-1.1
	S17,14.3,17,14.7z M19.4,17.8c-0.3,0.2-0.6,0.8-0.5,1.3s0.2,0.5,0.5,0.5c-0.5-0.2-0.4-1,0-1.5C19.7,17.7,20,18,20,18
	S19.7,17.6,19.4,17.8z M12.3,32.6c-1.3,0-2.8,0.5-1.9,1.9c7.4,12.7,15.2,15.7,18.5,17.3c1.5-0.7,3.9-1.8,6.8-3.8
	c1.7-1.1,1.5-2.8,1.1-3.9C34.7,38.9,23.2,33,12.3,32.6z M54,8.9C51,6.8,43.6,3,28.9,3c-5.1,0-9.4,0.5-12.8,1.2
	c0.8,1.3,1.2,2.8,1.2,4.4c0,2.2-0.8,4.2-2.1,5.7c0.3,0.1,0.7,0.2,1.2,0.3l0.2-0.5c0,0,0.2,0,0.3,0.1c0-0.5,0.3-0.5,0.3-0.5
	s0-0.1,0.1-0.1c0.5,0.1,1.9,0.8,2.5,1.1s0.6,0.4,0.6,0.4s1.4,0,1.8-0.1c0.4,0,1.1-0.3,2.1-0.6s1.2-0.4,1.4-0.4s2,0.1,3.6,0.3
	s3.1,0.8,3.4,1l0.5,0.1l0.1-0.3l-0.8-0.3c0,0,0.1-0.5,0.1-0.6s0.1-0.2,0.2-0.2s1,0.2,1.3,0.3s1.3,0.8,1.4,0.8s0.1,0.1,0.1,0.1
	c0,0.2-0.2,0.6-0.2,0.6l-0.3-0.1l0.3,0.1c0,0,0.3,0.1,0.4,0.2c0.1,0.1,0.4,0.3,0.7,0.6c0.3,0.2,0.2,0.5,0.2,0.5l0.7,0.7v0.3l1.7,1.7
	v0.1l-0.8,0.5c0,0,1.1-0.1,1.9,0.3c0.8,0.4,0.9,0.6,0.9,0.8c-0.2,0.1-0.5,0.2-0.5,0.2c-0.6,0.2-2.1,1.2-2.1,1.2V23l0.8,0.2
	c0.9-0.8,2.5-1.1,3.7-0.9c4.1,0.8,6.9,3.5,7.5,5.8c0,0.1,0.1,0.3,0.1,0.4C54.7,18.9,54.3,12,54,8.9L54,8.9z M39.6,23.5
	c0.1,0.1,0.2,0.1,0.3,0.2c0.6,0.4,0.9,0.6,1,1.5c0.1,0.7-0.1,1.7-0.6,2.6c2.8,1.9,6.7,0.4,8.2,1.9C48.2,25.9,42.6,22.1,39.6,23.5z
	 M16.6,18.6l-0.2,0.1v0.8l0.2-0.1V18.6z M45.5,31c-2.1,0-4.2-0.7-5.7-2.5v0.1c-0.9,1.2-1.9,1.2-2.3,1.2s-1.7-0.6-2.2-1.2
	c-0.5-0.6-0.5-1.7-0.5-1.7l-2-0.7l-2.5-1.4l-0.4-0.1c-0.8,0.4-1.8,0.1-2.7-0.6c-0.1,0.4-0.6,1.4-1.2,1.9s-1.8,1.2-2.7,1.2
	c-0.9,0-2.9-1-3.5-2.4s0-2.9,0-2.9l-1-0.2l-0.4-0.5c0,0-1.2,1-2.5,0.6s-2.4-1.5-2.7-2.5c-0.2-1,0.1-1.9,0.2-2
	c-0.2-0.7-0.2-1.1-0.2-1.1h-0.1v-0.3c-1.3,0.9-2.8,1.3-4.4,1.3c-1.8,0-3.5-0.6-4.9-1.5c0.2,2.2,0.8,4.8,1.6,7.7
	c1.1,4,4.7,5.3,10.1,6.2c11.9,1.9,23.3,11,22.5,16.6c3-2.5,6.2-6.2,9.4-11.7C48.7,32.4,47.5,31,45.5,31z M13.7,17.2l-0.1,1.1h0.7
	v-0.1h-0.1v-0.1h-0.1l0.1-0.2l0.1-0.5l-0.1-0.1v-0.2l0.1-0.1l0.1-1.2l-0.5-0.3c0.2-0.8,0.7-1.5,0.7-1.5h-0.3
	c-0.5,0.6-0.7,1.4-0.7,1.4s-0.1,1.3-0.1,1.5C13.5,17.2,13.7,17.2,13.7,17.2z M24.7,23.9l0.5,1.6c1-0.7,1.2-1.8,1.2-1.8l-1.6,0.1
	C24.8,23.8,24.7,23.9,24.7,23.9z M25.6,21.4l-0.8,1.4l0.1,0.1l1.6,0.1C26.5,21.9,25.6,21.4,25.6,21.4z M15.6,18.3l-0.1,0.6h0.1
	C15.6,18.9,15.6,18.3,15.6,18.3z M23.2,22.1l0.8,0.6l0.2-0.1l0.9-1.4C24,21.1,23.2,22.1,23.2,22.1z M15.8,18.4L15.8,18.4L15.7,19
	h0.1C15.8,19,15.8,18.4,15.8,18.4z M16.1,18.6L16,19.3h0.1V18.6z M16.3,18.7l-0.1,0.7h0.1V18.7z M15.9,18.5l-0.1,0.7h0.1V18.5z"/>
  <g id="Symbol_2_">
    <path id="path7" class="st0" d="M56.4,8.7l-0.1-1.1l-1-0.7C51.1,4,43.1,0.6,28.8,0.6c-5.4,0-10.3,0.5-14.6,1.5
		C12.7,0.8,10.7,0,8.6,0C3.9,0,0,3.8,0,8.6c0,1.5,0.4,2.9,1.1,4.2c0.2,7.4,2.5,15.1,7,22.9c7.4,12.5,15.3,16.2,19.1,17.9
		c0.3,0.1,0.5,0.2,0.7,0.3l1,0.5l1-0.5c0.2-0.1,0.5-0.2,0.7-0.3c3.9-1.7,11.7-5.4,18.9-17.9C57.4,22,56.7,12,56.4,8.7L56.4,8.7z"/>

    <radialGradient id="path22_1_" cx="8.527" cy="-55.362" r="47.776" gradientTransform="matrix(1 0 0 1 0 63.8)" gradientUnits="userSpaceOnUse">
      <stop offset="0" style="stop-color:#00AEFF"/>
      <stop offset="0.131" style="stop-color:#00A5F7"/>
      <stop offset="0.345" style="stop-color:#008DE0"/>
      <stop offset="0.616" style="stop-color:#0065BA"/>
      <stop offset="0.928" style="stop-color:#002F87"/>
      <stop offset="1" style="stop-color:#00217A"/>
    </radialGradient>
    <path id="path22" class="st1" d="M26.6,19.5c0,0,1.3,0.1,2.4,1.5l-0.6,0.1L28.1,21C28.1,21,27.2,19.9,26.6,19.5z M24.6,25.7
		L24,24.2h-0.2l-1,1.2C23.5,26,24.6,25.7,24.6,25.7z M33.8,16.9l-0.5,0.2l0.6,1.1l2,0.7C35.1,17.2,33.8,16.9,33.8,16.9z M28.1,19
		c0.6,0.7,1.2,1.7,1.2,1.7c1-1,3.1-1.4,5.8-1.3C31.3,18.6,28.1,19,28.1,19z M24.4,17.5c0,0,1.1,0,2.6,0.3c-1-0.7-2.6-1.1-2.6-1.1
		V17.5z M33.6,23l-1.7,1.5l1.3,0.4l1.3-1.4l-0.7-0.3L33.6,23L33.6,23z M22.3,15.1c0,0,0.7,0.4,0.8,0.4s1.5,0.5,2.1,0.7
		c0.5,0.2,0.8,0,0.9,0s1.8-1,1.8-1c-1.5-0.6-2.9-1-2.9-1C24.9,14.2,22.3,15.1,22.3,15.1z M32.5,16c-0.1-0.2-0.3-0.2-1.5-0.4
		c-1.1-0.1-2.1-0.2-2.3-0.2c-0.2,0-0.3,0.1-0.3,0.1s-0.6,0.4-1.1,0.7s-0.6,0.4-0.7,0.6c-0.1,0.1,0.2,0.5,0.2,0.5l0.8,1
		c0.1,0,0.4,0.2,0.4,0.2s1.6-0.1,2.6-0.2h2.6c0.1,0,0-0.4-0.2-0.9C32.8,17,32.5,16,32.5,16z M23,17.1c0,0,0.1,0,0.3,0.1
		c0.2,0,0.3-0.2,0.3-0.4c0-0.3-0.3-0.4-0.3-0.4h-0.2l-0.3,0.1l-0.1,0.7h0.1L23,17.1c-0.1-0.2-0.1-0.3-0.1-0.5c0-0.1,0.2-0.3,0.3-0.3
		c0,0,0.2,0,0.1,0.4C23.3,17.1,23,17.1,23,17.1z M39.9,25l-0.8,1.1v0.1h1.1C40.4,25.5,39.9,25,39.9,25z M19.9,19.8h-0.2l-0.5-0.1
		c-0.5-0.1-0.3-1-0.3-1l-0.6,0.2c-0.2-0.4-1.1-1.5-1.1-1.5L17,18.2c0.1,0.1,0.6,0.9,0.7,1.1l-0.3,0.3c0,0-0.1,0.2-0.1,0.3
		s-0.1,0.2-0.1,0.2l-0.4,0.2h-0.1l-1.4-1.1V20h0.1c0.1,0.2,0.3,0.6,0.8,0.8c0.4,0.2,0.9,0.2,1.1,0.1c0.2,0.1,0.3,0.1,0.4,0.2
		c0.4,0.2,0.5,0.1,0.5,0.1l0.6-0.2h0.1l0.1-0.1l0.2-0.4c0,0,1,0.1,1.4,0.1c0.4-0.6,1.7-1.5,2.6-1.6c0.9,0,2.4,0.2,3.6,1.4
		c1.1,1.2,0.8,2.8,0.8,2.8l2.2,0.7l-1-0.7c-0.8-2-2.7-3.8-2.7-3.8s-0.5-0.1-0.8-0.1C25,19.2,24.8,19,24.8,19s-0.1-0.1-0.3-0.4
		l-0.2-0.4c0,0-0.2-0.2-0.5-0.4s-1.4-0.3-2-0.4c-0.6-0.1-0.6,0-0.6,0c1.7,0.4,2.2,0.5,2.3,0.6c0,0,0.1,0.2,0.2,0.3
		c-1.4-0.3-2.7-0.1-3,0c0.2,0.3,0.2,0.7,0,1C20.5,19.5,19.9,19.8,19.9,19.8z M38.9,27l0.3,1.3c0,0,0.3-0.3,0.6-0.7s0.4-0.8,0.4-0.8
		L39,26.9C39,26.9,38.9,27,38.9,27z M14.8,17.9L14.7,19h0.6l0.1-0.7v0.4h0.1v-0.6h-0.1v-0.4l0.9,0.5l0.1,0.2l0.2,0.2h0.2l0.1-0.1
		v-0.1c-0.6,0-0.6-0.3-0.6-0.3s0.1-0.7,0.2-0.9s0.5-0.1,0.5-0.1L16.9,17h-0.2c-0.2-0.1-0.8-0.5-1-0.6v-0.1l0.1-0.1v-0.4h0.1
		c0-0.1,0.1-0.1,0.1-0.2c0.2,0,1.7-0.3,1.7-0.3L16.3,15v-0.1c-0.4-0.1-0.7-0.2-0.9-0.3c-0.5,0.6-0.7,1.4-0.7,1.4s-0.1,1.4-0.1,1.6
		C14.5,17.8,14.8,17.9,14.8,17.9L14.8,17.9z M38.3,25.8l0.2,0.3l0.1-0.1l0.8-1v-0.1C39,24.9,38.3,25.8,38.3,25.8z M35.9,24l-0.6-0.2
		l-1.4,1.6l1,0.3C35.1,24.9,35.9,24,35.9,24z M38,26.3c-0.5,1-0.4,1.7-0.4,1.7l0.5-1.1v-0.2C38.2,26.7,38.1,26.5,38,26.3z
		 M37.5,19.8c0,0-0.2,0.4-0.3,0.5c-0.1,0.1-0.8,0.2-1.2,0.3c-0.4,0.2-1.1,0.5-1.3,0.7c-0.1,0.1-0.1,0.4-0.1,0.5c0,0,0.2,0.1,0.3,0.1
		L34,22.7l0.2,0.2l2.2,0.7c0.5-0.4,1.2-0.5,1.2-0.5c-0.4-0.2-2.1-0.9-2.6-1.1c0,0-0.3-0.1-0.3-0.2v-0.3c0,0,1.3-1,3.3-1l0.3-0.6
		C38.3,19.9,37.5,19.8,37.5,19.8z M38.8,28.6l-0.4-1.2h-0.1l-0.6,1.1l0.1,0.1C38.3,28.8,38.8,28.6,38.8,28.6z M23.7,17.2l0.3,0.1
		c0,0,0.2,0,0.2-0.2v-0.4l-0.3-0.2l-0.4-0.1c0.1,0.1,0.1,0.2,0.1,0.2h0.1c0-0.1,0.1-0.1,0.1,0c0,0,0.2,0.1,0.1,0.4
		C24,17.1,23.8,17.2,23.7,17.2z M22.8,22.7c-0.7,1.3-0.2,2.2-0.2,2.2l0.9-1.3v-0.2C23.5,23.4,22.8,22.7,22.8,22.7z M16.3,15l1.2,0.3
		c0.1,0,0.8-0.1,0.8-0.1l-1.9-0.5L16.3,15z M17,14.7c1.6,0.2,1.9,0.5,1.9,0.5s0.6-0.1,0.9-0.1c-0.5-0.4-2.7-1.1-2.7-1.1
		S17,14.3,17,14.7z M19.4,17.8c-0.3,0.2-0.6,0.8-0.5,1.3s0.2,0.5,0.5,0.5c-0.5-0.2-0.4-1,0-1.5C19.7,17.7,20,18,20,18
		S19.7,17.6,19.4,17.8z M12.3,32.6c-1.3,0-2.8,0.5-1.9,1.9c7.4,12.7,15.2,15.7,18.5,17.3c1.5-0.7,3.9-1.8,6.8-3.8
		c1.7-1.1,1.5-2.8,1.1-3.9C34.7,38.9,23.2,33,12.3,32.6z M54,8.9C51,6.8,43.6,3,28.9,3c-5.1,0-9.4,0.5-12.8,1.2
		c0.8,1.3,1.2,2.8,1.2,4.4c0,2.2-0.8,4.2-2.1,5.7c0.3,0.1,0.7,0.2,1.2,0.3l0.2-0.5c0,0,0.2,0,0.3,0.1c0-0.5,0.3-0.5,0.3-0.5
		s0-0.1,0.1-0.1c0.5,0.1,1.9,0.8,2.5,1.1s0.6,0.4,0.6,0.4s1.4,0,1.8-0.1c0.4,0,1.1-0.3,2.1-0.6s1.2-0.4,1.4-0.4s2,0.1,3.6,0.3
		s3.1,0.8,3.4,1l0.5,0.1l0.1-0.3l-0.8-0.3c0,0,0.1-0.5,0.1-0.6s0.1-0.2,0.2-0.2s1,0.2,1.3,0.3s1.3,0.8,1.4,0.8s0.1,0.1,0.1,0.1
		c0,0.2-0.2,0.6-0.2,0.6l-0.3-0.1l0.3,0.1c0,0,0.3,0.1,0.4,0.2c0.1,0.1,0.4,0.3,0.7,0.6c0.3,0.2,0.2,0.5,0.2,0.5l0.7,0.7v0.3
		l1.7,1.7v0.1l-0.8,0.5c0,0,1.1-0.1,1.9,0.3c0.8,0.4,0.9,0.6,0.9,0.8c-0.2,0.1-0.5,0.2-0.5,0.2c-0.6,0.2-2.1,1.2-2.1,1.2V23l0.8,0.2
		c0.9-0.8,2.5-1.1,3.7-0.9c4.1,0.8,6.9,3.5,7.5,5.8c0,0.1,0.1,0.3,0.1,0.4C54.7,18.9,54.3,12,54,8.9L54,8.9z M39.6,23.5
		c0.1,0.1,0.2,0.1,0.3,0.2c0.6,0.4,0.9,0.6,1,1.5c0.1,0.7-0.1,1.7-0.6,2.6c2.8,1.9,6.7,0.4,8.2,1.9C48.2,25.9,42.6,22.1,39.6,23.5z
		 M16.6,18.6l-0.2,0.1v0.8l0.2-0.1V18.6z M45.5,31c-2.1,0-4.2-0.7-5.7-2.5v0.1c-0.9,1.2-1.9,1.2-2.3,1.2s-1.7-0.6-2.2-1.2
		c-0.5-0.6-0.5-1.7-0.5-1.7l-2-0.7l-2.5-1.4l-0.4-0.1c-0.8,0.4-1.8,0.1-2.7-0.6c-0.1,0.4-0.6,1.4-1.2,1.9s-1.8,1.2-2.7,1.2
		c-0.9,0-2.9-1-3.5-2.4s0-2.9,0-2.9l-1-0.2l-0.4-0.5c0,0-1.2,1-2.5,0.6s-2.4-1.5-2.7-2.5c-0.2-1,0.1-1.9,0.2-2
		c-0.2-0.7-0.2-1.1-0.2-1.1h-0.1v-0.3c-1.3,0.9-2.8,1.3-4.4,1.3c-1.8,0-3.5-0.6-4.9-1.5c0.2,2.2,0.8,4.8,1.6,7.7
		c1.1,4,4.7,5.3,10.1,6.2c11.9,1.9,23.3,11,22.5,16.6c3-2.5,6.2-6.2,9.4-11.7C48.7,32.4,47.5,31,45.5,31z M13.7,17.2l-0.1,1.1h0.7
		v-0.1h-0.1v-0.1h-0.1l0.1-0.2l0.1-0.5l-0.1-0.1v-0.2l0.1-0.1l0.1-1.2l-0.5-0.3c0.2-0.8,0.7-1.5,0.7-1.5h-0.3
		c-0.5,0.6-0.7,1.4-0.7,1.4s-0.1,1.3-0.1,1.5C13.5,17.2,13.7,17.2,13.7,17.2z M24.7,23.9l0.5,1.6c1-0.7,1.2-1.8,1.2-1.8l-1.6,0.1
		C24.8,23.8,24.7,23.9,24.7,23.9z M25.6,21.4l-0.8,1.4l0.1,0.1l1.6,0.1C26.5,21.9,25.6,21.4,25.6,21.4z M15.6,18.3l-0.1,0.6h0.1
		C15.6,18.9,15.6,18.3,15.6,18.3z M23.2,22.1l0.8,0.6l0.2-0.1l0.9-1.4C24,21.1,23.2,22.1,23.2,22.1z M15.8,18.4L15.8,18.4L15.7,19
		h0.1C15.8,19,15.8,18.4,15.8,18.4z M16.1,18.6L16,19.3h0.1V18.6z M16.3,18.7l-0.1,0.7h0.1V18.7z M15.9,18.5l-0.1,0.7h0.1V18.5z"/>
    <path id="path24" class="st2" d="M54,8.9c0.3,3.7,0.8,12.8-6.6,25.6c-7.3,12.7-15.2,15.7-18.5,17.3v-1.9c6.1-3.3,11.4-8.6,15.6-17
		c4.9-9.7,5.5-17.6,5.1-21.6L54,8.9z"/>

    <linearGradient id="path31_1_" gradientUnits="userSpaceOnUse" x1="16.1" y1="-56.65" x2="54.063" y2="-56.65" gradientTransform="matrix(1 0 0 1 0 63.8)">
      <stop offset="0" style="stop-color:#FFFFFF"/>
      <stop offset="1" style="stop-color:#FFFFFF;stop-opacity:0"/>
    </linearGradient>
    <path id="path31" class="st3" d="M54,8.9C51,6.8,43.6,3,28.9,3c-5.1,0-9.4,0.5-12.8,1.2c0.7,1.1,1.1,2.4,1.2,3.8
		c3.8-0.7,7.9-1.1,12.3-1c9.4,0.1,17,2.2,20.1,4.3L54,8.9"/>

    <radialGradient id="circle40_1_" cx="7.029" cy="-57.699" r="8.286" gradientTransform="matrix(1 0 0 1 0 63.8)" gradientUnits="userSpaceOnUse">
      <stop offset="0" style="stop-color:#FFFFFF"/>
      <stop offset="0.679" style="stop-color:#7A7A7A"/>
      <stop offset="1" style="stop-color:#404040"/>
    </radialGradient>
    <circle id="circle40" class="st4" cx="8.7" cy="8.6" r="6.2"/>
  </g>
</svg>
