<?xml version="1.0" encoding="utf-8"?>
<!DOCTYPE svg PUBLIC "-//W3C//DTD SVG 1.1//EN" "http://www.w3.org/Graphics/SVG/1.1/DTD/svg11.dtd" [
	<!ENTITY st0 "fill:#EEEEEE;">
]>
<svg version="1.1" id="Layer_1"
  xmlns="http://www.w3.org/2000/svg"
  xmlns:xlink="http://www.w3.org/1999/xlink" x="0px" y="0px" viewBox="0 0 78.57 15" style="enable-background:new 0 0 78.57 15;" xml:space="preserve">
  <g>
    <path style="&st0;" d="M0,12.26V5.11h4.43v1.01H1.16v2.41h2.72v1.01H1.16v2.71H0z"/>
    <path style="&st0;" d="M5.38,6.16v-1.2h1.14v1.2H5.38z M5.38,12.26V7.04h1.14v5.21H5.38z"/>
    <path style="&st0;" d="M12.45,12.97c0,1.14-0.82,1.71-2.47,1.71c-0.79,0-1.38-0.11-1.76-0.32c-0.38-0.22-0.57-0.61-0.57-1.18
		c0-0.26,0.06-0.48,0.19-0.66c0.12-0.18,0.33-0.38,0.6-0.6c-0.23-0.15-0.34-0.41-0.34-0.76c0-0.14,0.09-0.36,0.28-0.68l0.09-0.16
		c-0.5-0.3-0.75-0.82-0.75-1.56c0-0.63,0.19-1.08,0.56-1.38C8.66,7.08,9.16,6.94,9.8,6.94c0.31,0,0.61,0.03,0.91,0.1l0.16,0.03
		l1.62-0.04v0.92L11.62,7.9c0.19,0.24,0.28,0.53,0.28,0.86c0,0.68-0.17,1.15-0.52,1.41c-0.34,0.26-0.88,0.39-1.61,0.39
		c-0.18,0-0.33-0.01-0.46-0.04c-0.1,0.24-0.15,0.42-0.15,0.55c0,0.13,0.06,0.22,0.19,0.27c0.13,0.05,0.44,0.08,0.93,0.08
		c0.83,0.01,1.39,0.12,1.7,0.33C12.3,11.96,12.45,12.37,12.45,12.97z M8.76,13.07c0,0.24,0.1,0.42,0.29,0.52
		c0.19,0.1,0.53,0.16,1,0.16c0.84,0,1.26-0.24,1.26-0.72c0-0.27-0.07-0.44-0.22-0.52c-0.15-0.07-0.45-0.11-0.89-0.12l-1.02-0.06
		c-0.15,0.13-0.26,0.24-0.32,0.35C8.79,12.79,8.76,12.92,8.76,13.07z M9.07,9.46c0.15,0.15,0.4,0.22,0.74,0.22s0.59-0.07,0.74-0.22
		c0.15-0.15,0.22-0.38,0.22-0.7c0-0.32-0.08-0.55-0.23-0.7c-0.15-0.15-0.4-0.22-0.74-0.22c-0.64,0-0.96,0.31-0.96,0.93
		C8.84,9.07,8.92,9.31,9.07,9.46z"/>
    <path style="&st0;" d="M14.51,12.26h-1.14V4.87h1.14v2.44c0.51-0.26,0.99-0.39,1.43-0.39c0.7,0,1.17,0.2,1.42,0.59
		c0.25,0.39,0.38,1.04,0.38,1.95v2.8H16.6V9.49c0-0.56-0.06-0.96-0.18-1.2c-0.12-0.24-0.37-0.35-0.75-0.35c-0.33,0-0.67,0.06-1,0.17
		l-0.17,0.06V12.26z"/>
    <path style="&st0;" d="M21.87,8.01h-1.44v2.29c0,0.42,0.03,0.71,0.09,0.84c0.06,0.14,0.22,0.21,0.48,0.21l0.86-0.03l0.05,0.91
		c-0.47,0.09-0.82,0.14-1.06,0.14c-0.59,0-1-0.14-1.22-0.41c-0.22-0.27-0.33-0.78-0.33-1.53V8.01h-0.67V7.04h0.67V5.53h1.13v1.51
		h1.44V8.01z"/>
    <path style="&st0;" d="M22.8,6.16v-1.2h1.14v1.2H22.8z M22.8,12.26V7.04h1.14v5.21H22.8z"/>
    <path style="&st0;" d="M26.45,12.26h-1.14V7.04h1.13v0.32c0.51-0.29,0.99-0.44,1.44-0.44c0.7,0,1.17,0.2,1.42,0.59
		c0.25,0.39,0.38,1.04,0.38,1.95v2.8h-1.13V9.49c0-0.56-0.06-0.96-0.18-1.2C28.25,8.06,28,7.94,27.63,7.94
		c-0.35,0-0.7,0.07-1.02,0.21l-0.16,0.06V12.26z"/>
    <path style="&st0;" d="M35.56,12.97c0,1.14-0.82,1.71-2.47,1.71c-0.79,0-1.38-0.11-1.76-0.32c-0.38-0.22-0.57-0.61-0.57-1.18
		c0-0.26,0.06-0.48,0.19-0.66c0.13-0.18,0.33-0.38,0.61-0.6c-0.23-0.15-0.34-0.41-0.34-0.76c0-0.14,0.09-0.36,0.28-0.68l0.09-0.16
		c-0.5-0.3-0.75-0.82-0.75-1.56c0-0.63,0.19-1.08,0.56-1.38c0.38-0.29,0.88-0.44,1.52-0.44c0.31,0,0.61,0.03,0.91,0.1l0.16,0.03
		l1.62-0.04v0.92L34.73,7.9c0.19,0.24,0.28,0.53,0.28,0.86c0,0.68-0.17,1.15-0.52,1.41c-0.34,0.26-0.88,0.39-1.61,0.39
		c-0.18,0-0.33-0.01-0.46-0.04c-0.1,0.24-0.15,0.42-0.15,0.55c0,0.13,0.06,0.22,0.19,0.27c0.13,0.05,0.44,0.08,0.93,0.08
		c0.83,0.01,1.39,0.12,1.7,0.33C35.41,11.96,35.56,12.37,35.56,12.97z M31.87,13.07c0,0.24,0.1,0.42,0.29,0.52
		c0.19,0.1,0.53,0.16,1,0.16c0.84,0,1.26-0.24,1.26-0.72c0-0.27-0.07-0.44-0.22-0.52c-0.15-0.07-0.45-0.11-0.89-0.12l-1.02-0.06
		c-0.15,0.13-0.26,0.24-0.32,0.35C31.9,12.79,31.87,12.92,31.87,13.07z M32.19,9.46c0.15,0.15,0.4,0.22,0.74,0.22
		s0.59-0.07,0.74-0.22c0.15-0.15,0.22-0.38,0.22-0.7c0-0.32-0.08-0.55-0.23-0.7c-0.15-0.15-0.4-0.22-0.74-0.22
		c-0.64,0-0.96,0.31-0.96,0.93C31.96,9.07,32.03,9.31,32.19,9.46z"/>
    <path style="&st0;" d="M41.82,9.52V8.5h2.03v3.63c-0.19,0.05-0.57,0.1-1.14,0.16c-0.57,0.06-0.99,0.08-1.25,0.08
		c-1.08,0-1.83-0.3-2.24-0.9c-0.41-0.6-0.62-1.54-0.62-2.81c0-1.28,0.21-2.21,0.63-2.79C39.66,5.29,40.39,5,41.43,5
		c0.61,0,1.3,0.07,2.07,0.21l0.36,0.07L43.81,6.2c-0.84-0.11-1.6-0.17-2.26-0.17c-0.67,0-1.13,0.19-1.37,0.56
		c-0.25,0.38-0.37,1.07-0.37,2.09c0,1.02,0.12,1.72,0.35,2.1c0.23,0.39,0.7,0.58,1.41,0.58c0.51,0,0.89-0.03,1.14-0.09V9.52H41.82z" />
    <path style="&st0;" d="M49.03,8.65v2.38c0.01,0.15,0.05,0.27,0.12,0.34c0.07,0.07,0.19,0.12,0.34,0.14l-0.03,0.87
		c-0.6,0-1.06-0.13-1.39-0.39c-0.56,0.26-1.12,0.39-1.68,0.39c-1.04,0-1.55-0.55-1.55-1.66c0-0.53,0.14-0.91,0.42-1.15
		c0.28-0.24,0.71-0.38,1.3-0.43l1.35-0.12V8.65c0-0.28-0.06-0.47-0.18-0.58c-0.12-0.11-0.3-0.17-0.54-0.17c-0.45,0-1,0.03-1.67,0.08
		L45.18,8l-0.04-0.8c0.76-0.18,1.45-0.27,2.09-0.27c0.64,0,1.09,0.14,1.38,0.41C48.89,7.61,49.03,8.05,49.03,8.65z M46.69,9.94
		c-0.48,0.04-0.72,0.3-0.72,0.78c0,0.48,0.21,0.72,0.64,0.72c0.35,0,0.72-0.06,1.11-0.17l0.19-0.06V9.83L46.69,9.94z"/>
    <path style="&st0;" d="M51.59,12.26h-1.14V7.04h1.13v0.32c0.49-0.29,0.95-0.44,1.36-0.44c0.6,0,1.05,0.17,1.32,0.51
		c0.63-0.34,1.26-0.51,1.89-0.51c0.63,0,1.07,0.19,1.32,0.58c0.26,0.39,0.39,1.04,0.39,1.96v2.8h-1.13V9.49
		c0-0.56-0.06-0.96-0.17-1.2c-0.12-0.24-0.35-0.35-0.71-0.35c-0.31,0-0.65,0.07-1.01,0.21l-0.18,0.07c0.06,0.14,0.08,0.58,0.08,1.34
		v2.7h-1.13V9.58c0-0.62-0.06-1.05-0.17-1.28c-0.11-0.24-0.35-0.35-0.73-0.35c-0.35,0-0.67,0.07-0.97,0.21l-0.16,0.06V12.26z"/>
    <path style="&st0;" d="M62.91,11.32l0.29-0.03l0.02,0.84c-0.79,0.16-1.49,0.24-2.11,0.24c-0.77,0-1.33-0.21-1.66-0.64
		c-0.34-0.42-0.51-1.1-0.51-2.03c0-1.85,0.75-2.77,2.26-2.77c1.46,0,2.19,0.8,2.19,2.39l-0.07,0.81h-3.23
		c0.01,0.43,0.1,0.75,0.28,0.95c0.18,0.2,0.52,0.3,1.01,0.3C61.88,11.38,62.39,11.36,62.91,11.32z M62.28,9.25
		c0-0.51-0.08-0.87-0.25-1.08c-0.16-0.2-0.44-0.31-0.83-0.31c-0.39,0-0.67,0.11-0.85,0.32c-0.18,0.22-0.27,0.57-0.28,1.06H62.28z"/>
    <path style="&st0;" d="M68.11,8.12c-0.82-0.11-1.41-0.17-1.78-0.17c-0.37,0-0.62,0.04-0.77,0.13c-0.14,0.09-0.21,0.22-0.21,0.41
		c0,0.19,0.08,0.32,0.23,0.4c0.16,0.08,0.53,0.17,1.11,0.27c0.58,0.1,0.99,0.26,1.24,0.47c0.24,0.22,0.36,0.6,0.36,1.15
		c0,0.55-0.18,0.95-0.53,1.21c-0.35,0.26-0.86,0.39-1.54,0.39c-0.42,0-0.96-0.06-1.61-0.18l-0.32-0.05l0.04-0.95
		c0.83,0.11,1.44,0.17,1.8,0.17c0.37,0,0.63-0.04,0.79-0.14c0.16-0.09,0.24-0.24,0.24-0.45c0-0.21-0.07-0.35-0.22-0.43
		c-0.15-0.08-0.51-0.17-1.07-0.26c-0.57-0.09-0.98-0.24-1.25-0.44c-0.26-0.2-0.4-0.57-0.4-1.11c0-0.54,0.18-0.93,0.55-1.2
		c0.36-0.26,0.83-0.4,1.4-0.4c0.45,0,0.99,0.06,1.64,0.17l0.32,0.06L68.11,8.12z"/>
  </g>
</svg>
