<?xml version="1.0" encoding="utf-8"?>
<!-- Generator: Adobe Illustrator 22.1.0, SVG Export Plug-In . SVG Version: 6.00 Build 0)  -->
<!DOCTYPE svg PUBLIC "-//W3C//DTD SVG 1.1//EN" "http://www.w3.org/Graphics/SVG/1.1/DTD/svg11.dtd" [
	<!ENTITY st0 "fill:#343068;">
	<!ENTITY st1 "fill:#70B266;">
]>
<svg version="1.1" id="Layer_1" xmlns="http://www.w3.org/2000/svg" xmlns:xlink="http://www.w3.org/1999/xlink" x="0px" y="0px"
	 viewBox="0 0 104.75 21.87" style="enable-background:new 0 0 104.75 21.87;" xml:space="preserve">
<g>
	<path style="&st0;" d="M0.27,11.67c0.82-2.25,2.88-2.11,5.12-2.2c0.54-0.02,1.39,0.46,1.58-0.58c0.18-1.01-0.48-2.05-1.51-2.14
		C4.64,6.67,3.78,6.83,2.98,7.04C1.52,7.41,1.54,7.46,0.73,5.75c2.17-1.11,4.38-1.42,6.7-0.62C8.82,5.61,9.4,6.8,9.5,8.16
		c0.11,1.55,0.06,3.12,0.07,4.68c0.01,0.85,0.02,1.69-0.01,2.54c-0.02,0.53,0.29,1.25-0.64,1.36c-0.7,0.09-1.31-0.01-1.52-0.83
		c-0.05-0.19-0.12-0.37-0.22-0.69c-1.14,1.09-2.39,1.7-3.98,1.71C1.52,16.94,0.8,16.2,0.27,14.8C-0.09,13.82-0.09,12.65,0.27,11.67z
		 M6.02,11C5.03,11.24,4,11.4,3.06,11.76c-0.85,0.32-0.96,1.15-0.82,1.97c0.14,0.84,0.76,1.12,1.53,1.2
		c1.9,0.19,3.28-1.11,3.21-2.97C6.96,11.29,6.73,11,6.02,11z"/>
	<path style="&st1;" d="M65.25,15.56c0,1.87-0.04,3.43,0.01,4.98c0.03,0.84-0.08,1.37-1.13,1.32c-1.29-0.06-1.48-0.14-1.49-1.41
		c-0.02-2.54-0.01-5.08-0.01-7.62c0-2.15-0.03-4.3,0.02-6.45c0.01-0.61-0.43-1.51,0.78-1.63c1.05-0.1,1.61,0.26,1.54,1.14
		c1.18-0.42,2.33-1.08,3.54-1.2c2.22-0.24,3.72,0.89,4.43,3.02c0.66,1.97,0.66,3.97-0.04,5.93c-1.02,2.86-3.73,3.93-6.46,2.59
		C66.1,16.07,65.78,15.86,65.25,15.56z M65.19,10.46c0.08,0.78,0.08,1.45,0.22,2.07c0.35,1.49,1.03,2.04,2.4,2.1
		c1.39,0.06,2.12-0.42,2.63-1.82c0.56-1.53,0.48-3.07-0.08-4.57c-0.41-1.09-1.28-1.6-2.44-1.57c-1.29,0.02-2.08,0.56-2.44,1.82
		C65.29,9.15,65.27,9.88,65.19,10.46z"/>
	<path style="&st1;" d="M60.18,13.02c-0.33,0.88-0.54,1.42-0.74,1.96c-0.28,0.75-0.26,1.83-1.63,1.22c-0.22-0.1-0.67,0.34-1.03,0.48
		c-2.58,1-5.5,0.22-7.22-1.92c-1.83-2.28-2-5.04-0.46-7.44c1.47-2.29,4.22-3.45,6.77-2.86c2.67,0.63,4.81,3.12,5.02,5.84
		c0.1,1.37-0.03,1.52-1.5,1.54c-0.91,0.02-1.83,0-2.74,0c-0.33,0-0.75-0.13-0.96,0.03c-1.85,1.38-2.74-0.42-4.17-1.15
		c0.69-0.51,1.25-0.94,1.82-1.34c0.57-0.4,0.93-0.95,1.82-0.07c0.52,0.51,1.96,0.09,3.01,0.09c-0.91-2.35-3.01-3.35-5.13-2.5
		c-2.17,0.87-3.18,3.14-2.34,5.28c0.81,2.07,3.06,3.11,5.1,2.36c0.52-0.19,1.03-0.33,0.63-1.07c-0.02-0.04,0.37-0.43,0.58-0.44
		C57.97,12.99,58.94,13.02,60.18,13.02z"/>
	<path style="&st1;" d="M93.14,4.88c0.56-0.04,1-0.05,1.44-0.11c0.92-0.12,1.39,0.23,1.69,1.16c0.81,2.5,1.75,4.96,2.76,7.76
		c0.83-2.48,1.56-4.65,2.29-6.81c0.78-2.3,0.78-2.3,3.42-1.9c-1.76,4.62-3.45,9.24-5.28,13.8c-0.91,2.27-2.98,3.43-4.92,3.02
		c-0.5-0.1-1.04-0.19-1.04-0.92c0-0.69-0.06-1.33,0.98-1.21c1.67,0.2,2.41-0.82,3.01-2.2c0.34-0.78,0.15-1.36-0.12-2.02
		c-1.27-3.12-2.53-6.25-3.79-9.37C93.44,5.7,93.32,5.34,93.14,4.88z"/>
	<path style="&st1;" d="M88.97,15.18c-1.29,1.35-2.74,1.79-4.39,1.6c-1.71-0.19-2.84-1.29-3.12-3.01c-0.26-1.57,0.43-3.05,2-3.62
		c1.26-0.45,2.65-0.51,3.98-0.76c0.56-0.1,1.43,0.31,1.44-0.79c0-0.92-0.3-1.84-1.28-1.91c-1.07-0.08-2.21,0.07-3.23,0.41
		c-0.79,0.26-1,0.04-1.31-0.57c-0.36-0.72-0.13-1.11,0.54-1.35c1.69-0.62,3.45-0.75,5.2-0.37c1.69,0.36,2.64,1.69,2.68,3.61
		c0.05,2.28,0.04,4.56-0.01,6.84c-0.01,0.42-0.25,1.09-0.55,1.19c-0.57,0.2-1.32,0.23-1.51-0.7C89.37,15.58,89.17,15.45,88.97,15.18
		z M88.87,11.71c-0.07-0.09-0.32-0.68-0.53-0.66c-1.14,0.1-2.31,0.22-3.39,0.59c-0.8,0.27-1.02,1.14-0.83,1.98
		c0.18,0.79,0.76,1.15,1.55,1.24C87.49,15.06,88.84,13.88,88.87,11.71z"/>
	<path style="&st0;" d="M17.14,8.96c0.56-0.83,1.07-1.43,1.4-2.11c0.82-1.68,2.02-2.44,4.05-1.78c-1.06,1.55-2.06,3.12-3.17,4.61
		c-0.56,0.75-0.54,1.28,0.02,2.02c1.15,1.54,2.19,3.17,3.31,4.81c-1.81,0.61-3,0.22-3.8-1.41c-0.45-0.91-1.12-1.72-1.8-2.73
		c-0.6,0.91-1.24,1.65-1.63,2.5c-0.78,1.7-2.02,2.24-4.05,1.72c1.06-1.53,2.1-2.98,3.07-4.47c1.13-1.74,1.18-1.14,0.05-2.81
		c-0.94-1.39-1.89-2.77-2.86-4.19c2.59-0.46,2.59-0.46,3.95,1.63C16.11,7.4,16.54,8.05,17.14,8.96z"/>
	<path style="&st0;" d="M30.29,14.19c1.18,0.26,2.24,0.54,3.32,0.72c0.5,0.08,1.1,0.11,1.54-0.09c0.47-0.21,0.99-0.67,1.12-1.13
		c0.09-0.32-0.34-0.93-0.7-1.21c-0.5-0.39-1.15-0.58-1.74-0.86c-0.7-0.34-1.42-0.64-2.1-1.03c-1.12-0.64-1.66-1.66-1.54-2.94
		c0.12-1.29,0.92-2.12,2.12-2.55c1.86-0.67,3.72-0.46,5.56,0.11c0.38,0.12,1.03,0.25,0.59,0.9c-0.31,0.46-0.16,1.43-1.21,1.15
		c-0.88-0.23-1.77-0.55-2.65-0.54C34,6.74,33.09,7.11,32.87,7.58c-0.38,0.8,0.46,1.22,1.12,1.52c0.89,0.41,1.81,0.74,2.68,1.16
		c1.69,0.82,2.45,2.05,2.24,3.51c-0.24,1.59-1.34,2.74-3.16,2.99c-1.15,0.16-2.35,0.14-3.5,0.03
		C30.31,16.61,30.18,16.38,30.29,14.19z"/>
	<path style="&st1;" d="M78.69,8.45c0,2.28-0.06,4.55,0.02,6.83c0.04,1.11-0.46,1.25-1.38,1.28c-1.09,0.04-1.1-0.53-1.1-1.33
		c0.02-4.68,0.04-9.36-0.01-14.04C76.21,0.17,76.61,0.01,77.48,0c0.93-0.01,1.25,0.29,1.22,1.23C78.65,3.63,78.69,6.04,78.69,8.45z"
		/>
	<path style="&st1;" d="M42.83,7c1.09-1.63,2.19-2.44,3.79-2.35c0.52,0.03,1.16-0.05,1.03,0.76c-0.09,0.61,0.33,1.46-0.86,1.61
		c-3.08,0.38-3.77,1.2-3.77,4.23c0,1.43-0.04,2.87,0.01,4.3c0.04,1-0.56,0.97-1.26,0.99c-0.74,0.01-1.23-0.07-1.22-1.03
		c0.04-3.19,0.02-6.39,0.01-9.58c0-0.61-0.02-1.16,0.87-1.17c0.83-0.02,1.22,0.25,1.19,1.1C42.63,6.09,42.72,6.33,42.83,7z"/>
	<path style="&st0;" d="M27.43,10.81c0,1.62-0.05,3.25,0.02,4.87c0.05,1.1-0.59,1.07-1.36,1.09c-0.79,0.02-1.19-0.15-1.18-1.06
		c0.04-3.25,0.04-6.5,0-9.75c-0.01-0.88,0.34-1.13,1.15-1.09c0.74,0.04,1.43-0.07,1.39,1.06C27.38,7.55,27.43,9.18,27.43,10.81z"/>
	<path style="&st0;" d="M27.65,1.9c-0.04,0.8-0.72,1.36-1.58,1.3c-0.86-0.05-1.27-0.58-1.34-1.36c-0.07-0.8,0.64-1.43,1.49-1.41
		C27.05,0.45,27.69,1.1,27.65,1.9z"/>
</g>
</svg>
