<?xml version="1.0" encoding="UTF-8"?>
<svg enable-background="new 0 0 425.2 141.7" version="1.1" viewBox="0 0 425.2 141.7" xml:space="preserve" xmlns="http://www.w3.org/2000/svg">
<style type="text/css">
	.st0{fill:#FF6600;}
</style>
	<path d="m0 141.2v-32.7h23.6c5.1 0 8.4 0.1 10 0.3 2.9 0.3 5.1 1.1 6.4 2.3 1.5 1.3 2.4 3.3 2.9 6.2 0.2 1.4 0.3 3.7 0.3 7.1 0 4.3-0.2 7.3-0.6 9-0.5 2.3-1.4 4-2.6 5.1-0.8 0.8-1.8 1.3-3 1.7s-2.7 0.7-4.7 0.8c-1.6 0.1-4.5 0.2-8.7 0.2h-23.6zm9.8-8.3h13.9c2.8 0 4.9-0.1 6.3-0.3 1.6-0.3 2.5-1.1 2.9-2.6 0.3-1.1 0.5-2.7 0.5-5 0-2.4-0.2-4.2-0.5-5.4-0.4-1.4-1.3-2.3-2.6-2.6-1.1-0.3-3.3-0.4-6.7-0.4h-13.8v16.3z"/>
	<path d="m47.2 141.2v-32.7h24.1c5.7 0 9.1 0.1 10.1 0.2 1.2 0.1 2.2 0.5 3.2 1 1 0.6 1.7 1.3 2.2 2.2s0.9 1.9 1 2.9c0.1 1.2 0.2 2.6 0.2 4.3 0 2.7-0.2 4.5-0.6 5.6-0.6 1.6-1.6 2.7-3.2 3.3-0.5 0.2-1.3 0.4-2.4 0.6 2.1 0.2 3.6 0.8 4.5 1.8 0.4 0.5 0.7 1 0.9 1.6s0.3 1.5 0.3 2.6v3.6 3h-9.9v-1.7c0-1.9-0.1-3.3-0.3-4.2-0.3-1.2-0.9-1.9-1.9-2.2-0.7-0.1-2.1-0.2-4.3-0.2h-14v8.3h-9.9zm9.9-16.4h14c2.1 0 3.3-0.1 3.7-0.1 1.4-0.1 2.3-0.5 2.7-1.3 0.3-0.5 0.4-1.5 0.4-2.8 0-1.1-0.1-2-0.3-2.5-0.3-0.8-1.1-1.3-2.4-1.3-0.5 0-1.8-0.1-4-0.1h-14l-0.1 8.1z"/>
	<path d="M91.4,108.6h36.2v7.7h-26.4v4.7h25.1v7.2h-25.1v5.2h26.6v7.9H91.4V108.6z"/>
	<path d="m166.4 141.2l-2.8-5.5h-21.6l-2.8 5.5h-11.4l17.4-32.7h15.5l17.1 32.7h-11.4zm-6.3-12.6l-6.3-12.4h-2l-6.3 12.4h14.6z"/>
	<path d="m179.3 108.6h18.1l9.7 21.2 9.7-21.2h18v32.7h-9.8l0.2-24.5h-1.6l-12.3 24.5h-8.3l-12.3-24.5h-1.8l0.2 24.5h-9.8v-32.7z"/>
	<path d="m239.4 108.6h10.5v11.7h22.5v-11.7h10.5v32.7h-10.5v-11.9h-22.5v11.9h-10.5v-32.7z"/>
	<path d="m322.9 141.2l-2.8-5.5h-21.7l-2.8 5.5h-11.4l17.4-32.7h15.5l17.1 32.7h-11.3zm-6.3-12.6l-6.3-12.4h-2l-6.3 12.4h14.6z"/>
	<path d="m366.5 128.6h10c0.1 1.6 0.1 2.7 0.1 3.3 0 2.4-0.4 4.3-1.1 5.7-0.8 1.5-2.3 2.5-4.5 3.1-2.4 0.7-6.6 1-12.5 1-6.5 0-10.9-0.1-13.2-0.3-2.1-0.2-3.8-0.5-5-0.8-1.2-0.4-2.2-0.9-3-1.7-1.1-1-1.8-2.3-2-3.9-0.3-1.7-0.5-5-0.5-9.9 0-4.7 0.1-7.8 0.4-9.5 0.3-2.4 1.3-4.2 2.8-5.3 1.2-0.8 3.1-1.4 5.7-1.8 2.7-0.4 7.5-0.5 14.4-0.5 4.1 0 7.1 0.1 8.8 0.3 2.7 0.3 4.6 0.8 5.8 1.5 1.5 0.9 2.4 2.3 2.8 4.1 0.3 1.3 0.4 2.8 0.4 4.4v1.9h-10c0-0.8-0.1-1.3-0.1-1.6-0.1-1-0.6-1.6-1.3-1.9-1.1-0.4-4.2-0.6-9.3-0.6-3.4 0-5.8 0.1-7.1 0.3-1.6 0.2-2.6 1.1-3 2.6-0.3 1.2-0.5 3.2-0.5 5.9 0 2.8 0.2 4.7 0.5 5.8 0.4 1.4 1.4 2.2 3.2 2.4 1.4 0.2 3.9 0.3 7.4 0.3 3.8 0 6.4-0.1 7.8-0.2 1.3-0.1 2.1-0.6 2.5-1.4 0.3-0.6 0.4-1.7 0.5-3.2z"/>
	<path d="M380,108.6h10v11.9h5.5l13-12.1h15.3l-18.9,16.3l20.5,16.6H410l-14.7-12.5h-5.5v12.5h-10v-32.7H380z"/>
	<path class="st0" d="m111.8 11.9c-1 1.4-1 1.2-1.3 0.5l-1.4-3.4c-0.3-0.7-0.4-0.8 0.8-2.3l4.4-5.5c1-1.4 1.4-1.6 1.5-0.8l0.6 3.5c0.2 0.7-0.1 1.2-1 2.6l-3.6 5.4z"/>
	<path class="st0" d="m115.5 19.7c-0.7 1.3-0.7 1.1-1.1 0.5l-1.8-3.2c-0.3-0.7-0.5-0.8 0.4-2.2l3.3-5.3c0.8-1.3 1.1-1.5 1.3-0.8l1.1 3.4c0.2 0.7 0.1 1.2-0.5 2.5l-2.7 5.1z"/>
	<path class="st0" d="m175 66.6c1.3 0.8 1.1 0.7 0 0.3l-5-2.2c-1-0.5-1.2-0.6-2.4-1.4l-4.2-3.4c-1-0.9-1.1-1-0.2-0.5l4.3 2.4c0.9 0.5 1.4 0.8 2.6 1.7l4.9 3.1z"/>
	<path class="st0" d="m162.4 60.6c1 0.9 0.8 0.8-0.1 0.3l-4.5-2.4c-0.9-0.5-1.1-0.6-2-1.5l-3.1-3.7c-0.8-1-0.8-1.1 0-0.5l3.8 2.5c0.8 0.5 1.2 0.9 2.1 1.8l3.8 3.5z"/>
	<path class="st0" d="m150.9 53.8c0.7 1 0.6 0.8-0.3 0.3l-4.1-2.5c-0.8-0.5-1-0.6-1.6-1.6l-2-4c-0.5-1-0.4-1.1 0.2-0.6l3.4 2.7c0.7 0.5 1 0.9 1.7 1.9l2.7 3.8z"/>
	<path class="st0" d="m141.6 47.7c0.4 1 0.3 0.9-0.5 0.4l-3.6-2.7c-0.7-0.6-0.9-0.7-1.2-1.7l-0.9-4.2c-0.2-1.1-0.1-1.2 0.4-0.6l2.9 2.8c0.6 0.6 0.8 1 1.2 2l1.7 4z"/>
	<path class="st0" d="m133.5 41.2c0.1 1.1 0 1-0.6 0.4l-3.2-2.8c-0.6-0.6-0.8-0.7-0.8-1.8l0.1-4.5c0-1.1 0.2-1.3 0.7-0.7l2.5 3c0.5 0.6 0.7 1 0.8 2.1l0.5 4.3z"/>
	<path class="st0" d="m126.4 34.4c-0.1 1.2-0.2 1-0.8 0.4l-2.7-2.9c-0.5-0.6-0.7-0.7-0.4-1.9l1.2-4.7c0.3-1.2 0.5-1.4 0.9-0.7l2 3.1c0.4 0.6 0.5 1.1 0.3 2.2l-0.5 4.5z"/>
	<path class="st0" d="m120.4 27.2c-0.4 1.2-0.5 1.1-1 0.5l-2.2-3.1c-0.4-0.6-0.6-0.8 0-2.1l2.3-5c0.5-1.3 0.8-1.4 1.1-0.7l1.5 3.3c0.3 0.7 0.3 1.1-0.1 2.3l-1.6 4.8z"/>
	<path class="st0" d="m75.7 52.8c-1.6 1.6-1.8 1.4-3 1l-6-2.1c-1.2-0.4-1.6-0.5 0.3-2.2l7.3-6.4c1.8-1.6 2.6-1.9 3.5-1.4l4.8 2.5c1 0.5 0.7 1-0.8 2.6l-6.1 6z"/>
	<path class="st0" d="m90.3 57.8c-1.1 1.4-1.3 1.3-2.6 0.9l-6.4-2c-1.3-0.4-1.7-0.5-0.3-2l5.4-5.9c1.3-1.5 2-1.8 3-1.3l5.1 2.4c1.1 0.5 1 1-0.1 2.4l-4.1 5.5z"/>
	<path class="st0" d="m215.6 85.7c1.8 0.7 1.4 0.6-0.4 0.3l-8.7-1.3c-1.8-0.3-2.2-0.3-3.8-1l-6.1-2.9c-1.5-0.7-1.5-0.9 0.1-0.5l7.8 1.5c1.6 0.3 2.4 0.6 4.1 1.2l7 2.7z"/>
	<path class="st0" d="m195.2 82.5c1.4 0.8 1.1 0.7-0.7 0.4l-8.4-1.4c-1.7-0.3-2.1-0.3-3.4-1.2l-4.6-3.2c-1.1-0.8-1.1-1 0.5-0.6l7.5 1.6c1.6 0.3 2.2 0.6 3.6 1.4l5.5 3z"/>
	<path class="st0" d="m175.6 79c1.1 0.8 0.8 0.8-0.9 0.5l-8.1-1.5c-1.7-0.3-2.1-0.4-2.9-1.3l-3.1-3.6c-0.8-0.9-0.6-1.1 0.9-0.7l7.1 1.8c1.5 0.4 2 0.7 3 1.5l4 3.3z"/>
	<path class="st0" d="m156.9 75.3c0.7 1 0.4 0.9-1.2 0.5l-7.7-1.6c-1.6-0.3-2-0.4-2.4-1.4l-1.6-4c-0.4-1-0.1-1.2 1.2-0.8l6.7 1.9c1.4 0.4 1.8 0.7 2.4 1.7l2.6 3.7z"/>
	<path class="st0" d="m139 71.3c0.3 1.1 0 1-1.6 0.6l-7.4-1.7c-1.5-0.4-1.9-0.4-1.9-1.6l0.1-4.5c0-1.1 0.4-1.3 1.7-0.9l6.3 2c1.3 0.4 1.6 0.8 1.8 1.8l1 4.3z"/>
	<path class="st0" d="m121.9 67.1c-0.2 1.2-0.4 1.1-1.9 0.7l-7-1.8c-1.4-0.4-1.8-0.4-1.4-1.7l1.8-4.9c0.4-1.2 0.9-1.5 2.1-1l5.9 2.1c1.2 0.4 1.4 0.8 1.2 2l-0.7 4.6z"/>
	<path class="st0" d="m105.7 62.6c-0.6 1.3-0.8 1.2-2.3 0.8l-6.7-1.9c-1.4-0.4-1.8-0.5-0.8-1.8l3.6-5.4c0.9-1.4 1.4-1.6 2.6-1.2l5.5 2.2c1.2 0.5 1.2 0.9 0.6 2.2l-2.5 5.1z"/>
	<path class="st0" d="m51.2 75.2c-1.9 1.7-2.2 1.6-4.1 1.3l-9.3-1.2c-1.9-0.3-2.5-0.3-0.2-2l8.8-6.9c2.2-1.7 3.2-2.1 4.8-1.8l7.8 1.6c1.6 0.3 1.4 0.8-0.4 2.5l-7.4 6.5z"/>
	<path class="st0" d="m73.4 78.1c-1.3 1.5-1.6 1.4-3.6 1.2l-9.5-1.1c-2-0.2-2.6-0.3-0.9-1.8l6.5-6.2c1.6-1.6 2.5-1.9 4.1-1.6l8 1.6c1.7 0.3 1.6 0.8 0.4 2.3l-5 5.6z"/>
	<path class="st0" d="m242.4 94.3c2.1 0.6 1.6 0.5-0.7 0.4l-10.9-0.7c-2.3-0.2-2.8-0.2-4.6-0.8l-7-2.6c-1.7-0.7-1.7-0.8 0.4-0.6l9.9 1c2.1 0.2 3 0.4 4.9 1l8 2.3z"/>
	<path class="st0" d="m216.8 92.4c1.7 0.7 1.2 0.6-1 0.5l-10.7-0.8c-2.2-0.2-2.8-0.2-4.2-0.9l-5.4-3c-1.3-0.8-1.2-0.9 0.8-0.7l9.7 1.1c2 0.2 2.8 0.4 4.4 1.2l6.4 2.6z"/>
	<path class="st0" d="m191.6 90.5c1.2 0.8 0.8 0.7-1.4 0.6l-10.5-0.8c-2.2-0.2-2.7-0.2-3.7-1.1l-3.7-3.4c-0.9-0.9-0.6-1.1 1.3-0.8l9.4 1.1c2 0.2 2.6 0.5 3.8 1.3l4.8 3.1z"/>
	<path class="st0" d="m167 88.3c0.8 0.9 0.4 0.9-1.7 0.7l-10.3-0.9c-2.1-0.2-2.7-0.2-3.2-1.2l-1.9-3.9c-0.5-1-0.1-1.2 1.8-1l9.1 1.2c1.9 0.3 2.4 0.6 3.2 1.5l3 3.6z"/>
	<path class="st0" d="m142.8 86c0.3 1 0 1-2.2 0.8l-10.1-1c-2.1-0.2-2.6-0.2-2.6-1.3l0.1-4.5c0-1.1 0.5-1.4 2.3-1.1l8.9 1.3c1.9 0.3 2.2 0.6 2.5 1.7l1.1 4.1z"/>
	<path class="st0" d="m119.2 83.5c-0.2 1.2-0.5 1.1-2.6 0.9l-9.9-1c-2.1-0.2-2.6-0.2-2.1-1.5l2.1-5c0.5-1.3 1.1-1.6 2.9-1.3l8.6 1.4c1.8 0.3 2 0.7 1.8 1.8l-0.8 4.7z"/>
	<path class="st0" d="m96 80.9c-0.7 1.3-1 1.3-3.1 1l-9.7-1.1c-2-0.2-2.6-0.2-1.5-1.7l4.2-5.6c1-1.4 1.8-1.7 3.5-1.4l8.3 1.5c1.7 0.3 1.8 0.7 1.1 2l-2.8 5.3z"/>
	<path class="st0" d="m22.5 99c-2.2 1.8-2.6 1.7-5.4 1.7l-13.3-0.1c-2.8 0-3.6 0-0.9-1.8l10.3-7.4c2.5-1.8 3.9-2.3 6.3-2.2l11.5 0.6c2.4 0.1 2.2 0.6 0.1 2.4l-8.6 6.8z"/>
	<path class="st0" d="m53.7 99.4c-1.5 1.6-1.9 1.5-4.7 1.5l-13.3-0.1c-2.8 0-3.6 0-1.6-1.6l7.5-6.6c1.9-1.7 3-2.1 5.4-2l11.6 0.6c2.4 0.1 2.4 0.6 0.9 2.1l-5.8 6.1z"/>
	<path class="st0" d="m272.8 101.8c2.3 0.5 1.8 0.5-1 0.5l-13.3-0.1c-2.8 0-3.4 0-5.5-0.6l-7.9-2.3c-2-0.6-1.8-0.7 0.7-0.7l12.2 0.4c2.5 0.1 3.6 0.2 5.8 0.8l9 2z"/>
	<path class="st0" d="m241.4 101.5c1.9 0.6 1.4 0.6-1.4 0.6l-13.3-0.1c-2.8 0-3.4 0-5-0.7l-6.1-2.8c-1.5-0.7-1.3-0.9 1.2-0.8l12.1 0.4c2.5 0.1 3.4 0.3 5.2 0.9l7.3 2.5z"/>
	<path class="st0" d="m210 101.1c1.4 0.7 0.9 0.7-1.8 0.7l-13.3-0.1c-2.8 0-3.5 0-4.6-0.8l-4.2-3.3c-1-0.8-0.7-1 1.8-1l12 0.4c2.5 0.1 3.3 0.3 4.6 1.1l5.5 3z"/>
	<path class="st0" d="m178.7 100.8c0.9 0.9 0.4 0.8-2.3 0.8l-13.3-0.1c-2.8 0-3.5 0-4-1l-2.2-3.8c-0.5-1 0-1.2 2.5-1.1l11.9 0.5c2.5 0.1 3.1 0.4 4 1.3l3.4 3.4z"/>
	<path class="st0" d="m147.4 100.5c0.4 1-0.1 1-2.9 1l-13.3-0.1c-2.8 0-3.5 0-3.5-1.1v-4.5c0-1.1 0.7-1.4 3.1-1.3l11.8 0.5c2.5 0.1 3 0.4 3.3 1.4l1.5 4.1z"/>
	<path class="st0" d="m116.1 100.1c-0.2 1.2-0.7 1.2-3.4 1.1l-13.3-0.1c-2.8 0-3.5 0-2.9-1.3l2.4-5.1c0.6-1.3 1.4-1.6 3.8-1.5l11.7 0.5c2.4 0.1 2.8 0.5 2.6 1.7l-0.9 4.7z"/>
	<path class="st0" d="m84.9 99.8c-0.9 1.4-1.3 1.3-4 1.3l-13.4-0.1c-2.8 0-3.5 0-2.3-1.5l4.9-5.8c1.2-1.5 2.2-1.9 4.6-1.7l11.6 0.5c2.4 0.1 2.6 0.5 1.8 1.9l-3.2 5.4z"/>
	<path class="st0" d="m95.8 31.6c-1.3 1.5-1.4 1.3-2.1 0.7l-3.4-2.9c-0.7-0.6-0.9-0.7 0.6-2.2l5.9-6c1.4-1.5 1.9-1.7 2.4-1.1l2.4 3.1c0.5 0.6 0.3 1.1-0.9 2.6l-4.9 5.8z"/>
	<path class="st0" d="m104.3 38.3c-0.9 1.4-1 1.2-1.8 0.7l-3.8-2.7c-0.8-0.6-1-0.7 0.2-2.1l4.4-5.6c1.1-1.4 1.5-1.6 2.1-1l2.8 3c0.6 0.6 0.5 1.1-0.4 2.4l-3.5 5.3z"/>
	<path class="st0" d="m192.3 75.9c1.6 0.7 1.3 0.7-0.2 0.3l-6.8-1.8c-1.4-0.4-1.7-0.5-3.1-1.2l-5.1-3.1c-1.3-0.8-1.3-0.9-0.1-0.5l5.9 2c1.3 0.4 1.9 0.7 3.3 1.5l6.1 2.8z"/>
	<path class="st0" d="m176.7 71.5c1.2 0.8 1 0.7-0.4 0.3l-6.3-1.8c-1.3-0.4-1.6-0.5-2.6-1.4l-3.9-3.5c-1-0.9-0.9-1 0.2-0.6l5.5 2.1c1.2 0.4 1.7 0.7 2.8 1.6l4.7 3.3z"/>
	<path class="st0" d="m162 66.8c0.9 0.9 0.7 0.8-0.6 0.4l-5.9-2.1c-1.2-0.4-1.5-0.5-2.2-1.5l-2.6-3.8c-0.6-1-0.5-1.1 0.5-0.6l5.1 2.3c1.1 0.5 1.5 0.8 2.3 1.7l3.4 3.6z"/>
	<path class="st0" d="m148.4 61.8c0.6 1 0.3 0.9-0.8 0.4l-5.5-2.2c-1.1-0.5-1.4-0.5-1.7-1.6l-1.3-4.1c-0.3-1.1-0.1-1.2 0.8-0.7l4.6 2.4c1 0.5 1.3 0.9 1.8 1.9l2.1 3.9z"/>
	<path class="st0" d="m135.9 56.4c0.2 1.1 0 1-1.1 0.5l-5.1-2.3c-1-0.5-1.3-0.6-1.3-1.7l0.1-4.5c0-1.1 0.3-1.3 1.1-0.8l4.2 2.5c0.9 0.5 1.1 0.9 1.3 2l0.8 4.3z"/>
	<path class="st0" d="m124.3 50.7c-0.2 1.2-0.3 1.1-1.3 0.5l-4.6-2.5c-0.9-0.5-1.2-0.6-0.8-1.8l1.5-4.8c0.4-1.2 0.7-1.4 1.4-0.9l3.7 2.7c0.8 0.6 0.9 1 0.7 2.1l-0.6 4.7z"/>
	<path class="st0" d="m113.8 44.7c-0.5 1.3-0.7 1.1-1.6 0.6l-4.2-2.6c-0.9-0.5-1.1-0.6-0.3-2l2.9-5.2c0.7-1.3 1.1-1.5 1.7-0.9l3.3 2.8c0.7 0.6 0.7 1 0.2 2.3l-2 5z"/>
</svg>
