<svg version="1.1" id="Layer_1" xmlns="http://www.w3.org/2000/svg" xmlns:xlink="http://www.w3.org/1999/xlink" x="0px" y="0px" viewBox="0 0 293.1 70.2" style="enable-background:new 0 0 293.1 70.2;" xml:space="preserve"><path d="M0.9,0h9.9v16.5h31V0h10v42.6h-10V24.3h-31v18.3H0.9V0z"></path><path d="M73.6,0h9.9v42.6h-9.9V0z"></path><path d="M99.4,16.4h10.2v8.5H99.4V16.4z"></path><path d="M124.6,0h36.5c3.3,0,5.7,0.6,7.3,1.9c1.5,1.3,2.3,3.4,2.3,6.4v10c0,3-0.8,5.1-2.3,6.4c-1.5,1.3-4,1.9-7.3,1.9h-5.6	l19.7,16.1H161l-17.2-16.1h-9.4v16.1h-9.7V0z M134.4,7.4v11.9h22.3c1.5,0,2.7-0.2,3.4-0.6c0.7-0.4,1.1-1.3,1.1-2.8v-5.1	c0-1.4-0.4-2.4-1.1-2.8c-0.7-0.4-1.8-0.6-3.4-0.6H134.4z"></path><path d="M190.9,0h43.6v7.3h-33.7v9.5h19.7V24h-19.7v10.6h34.1v8h-44V0z"></path><path d="M247.4,38l29.8-30.4h-26.8V0h42.8v4.2l-30.2,30.4h30.2v8h-45.8V38z"></path><g>	<path d="M16.4,54.9H3.8v4.6h11.5c1.7,0,2.8,0.3,3.4,0.9c0.6,0.6,0.9,1.7,0.9,3.4v2.1c0,1.7-0.3,2.8-0.9,3.4		c-0.6,0.6-1.8,0.9-3.5,0.9H4.4c-1.7,0-2.9-0.3-3.5-0.9C0.3,68.7,0,67.6,0,65.9v-0.5l3.1-0.6v2.7h13.5v-5H5.1		c-1.7,0-2.8-0.3-3.5-0.9c-0.6-0.6-0.9-1.7-0.9-3.4v-1.7c0-1.6,0.3-2.8,0.9-3.4c0.6-0.6,1.8-0.9,3.5-0.9h10c1.7,0,2.8,0.3,3.5,0.9		c0.6,0.6,1,1.6,1,3.1v0.4l-3.1,0.7V54.9z"></path>	<path d="M56.9,54.9v15.3h-3.4V54.9H45v-2.7h20.4v2.7H56.9z"></path>	<path d="M94.6,52.2v15.2h13.1V52.2h3.4v13.7c0,1.7-0.3,2.8-0.9,3.4c-0.6,0.6-1.8,0.9-3.5,0.9H95.6c-1.7,0-2.9-0.3-3.5-0.9		c-0.6-0.6-0.9-1.7-0.9-3.3V52.2H94.6z"></path>	<path d="M151.9,52.2c1.7,0,3.1,0.1,4.3,0.3c1.2,0.2,2.1,0.6,2.9,1c1.2,0.8,2.2,1.8,2.9,3.2c0.7,1.3,1,2.8,1,4.4		c0,3-0.9,5.3-2.7,6.8c-1.8,1.5-4.6,2.2-8.3,2.2h-10.3V52.2H151.9z M151.5,54.9h-6.6v12.6h6.6c2.9,0,5-0.5,6.2-1.5		c1.2-1,1.8-2.6,1.8-4.9c0-2.2-0.6-3.8-1.9-4.8C156.5,55.4,154.4,54.9,151.5,54.9z"></path>	<path d="M195,70.2h-3.4V52.3h3.4V70.2z"></path>	<path d="M223.6,56.5c0-1.6,0.3-2.8,0.9-3.4c0.6-0.6,1.8-0.9,3.5-0.9h13c1.7,0,2.9,0.3,3.5,0.9c0.6,0.6,0.9,1.7,0.9,3.4v9.4		c0,1.6-0.3,2.8-0.9,3.3c-0.6,0.6-1.8,0.9-3.5,0.9h-13c-1.7,0-2.9-0.3-3.5-0.9c-0.6-0.6-0.9-1.7-0.9-3.4V56.5z M226.9,67.4h15V54.9		h-15V67.4z"></path>	<path d="M289.8,54.9h-12.6v4.6h11.5c1.7,0,2.8,0.3,3.4,0.9c0.6,0.6,0.9,1.7,0.9,3.4v2.1c0,1.7-0.3,2.8-0.9,3.4		c-0.6,0.6-1.8,0.9-3.5,0.9h-10.9c-1.7,0-2.9-0.3-3.5-0.9c-0.6-0.6-0.9-1.7-0.9-3.4v-0.5l3.1-0.6v2.7H290v-5h-11.5		c-1.7,0-2.8-0.3-3.5-0.9c-0.6-0.6-0.9-1.7-0.9-3.4v-1.7c0-1.6,0.3-2.8,0.9-3.4c0.6-0.6,1.8-0.9,3.5-0.9h10c1.7,0,2.8,0.3,3.5,0.9		c0.6,0.6,1,1.6,1,3.1v0.4l-3.1,0.7V54.9z"></path></g></svg>