<?xml version="1.0" encoding="utf-8"?>
<!-- Generator: Adobe Illustrator 22.1.0, SVG Export Plug-In . SVG Version: 6.00 Build 0)  -->
<!DOCTYPE svg PUBLIC "-//W3C//DTD SVG 1.1//EN" "http://www.w3.org/Graphics/SVG/1.1/DTD/svg11.dtd" [
	<!ENTITY st0 "fill:#222222;">
]>
<svg version="1.1" id="Layer_1" xmlns="http://www.w3.org/2000/svg" xmlns:xlink="http://www.w3.org/1999/xlink" x="0px" y="0px"
	 viewBox="0 0 200.14 193.84" style="enable-background:new 0 0 200.14 193.84;" xml:space="preserve">
<g>
	<path style="&st0;" d="M95.28,189.82c0.49-0.13,1.04-0.37,1.62-0.44c19.21-2.14,35.58-10.17,49.26-23.75
		c1.19-1.18,2.15-2.67,2.9-4.18c0.43-0.87,0.68-2.52,0.2-2.98c-0.66-0.63-2.15-0.81-3.16-0.59c-2.32,0.51-4.54,1.48-6.84,2.1
		c-7.81,2.09-15.72,3.63-23.84,3.85c-0.48,0.01-0.97,0.02-1.43-0.06c-0.53-0.1-1.05-0.3-2.14-0.62c0.4-1,0.52-2.16,1.17-2.74
		c1.68-1.49,3.51-2.82,5.41-4.02c11.42-7.28,20.45-16.65,25.74-29.29c4.75-11.35,5.64-23.17,4.21-35.26
		c-1.4-11.81-5.32-22.65-13.03-31.79c-3.44-4.08-7.68-7.49-11.19-10.85c4.41,0.06,20.8,11,27.1,18.43
		c7.48,8.82,12.6,18.81,15.14,30.09c2.53,11.27,2.08,22.54-0.36,33.8c0.16,0.03,0.33,0.06,0.49,0.09c0.47-1.47,0.98-2.93,1.4-4.42
		c0.45-1.58,0.9-3.16,1.2-4.77c1.37-7.32,1.77-14.69,0.65-22.07c-1.35-8.95-4.53-17.25-9.24-25c-7.95-13.1-19.34-21.88-33.56-27.24
		c-10.51-3.97-21.3-6.5-32.59-6.4c-2.52,0.02-5.04,0.4-7.56,0.62c0,0.2,0,0.4,0,0.6c4.35,1.73,8.7,3.44,13.03,5.21
		c0.6,0.24,1.34,0.61,1.61,1.12c2.14,4.11,4.18,8.27,6.48,12.87c-5.27-0.25-10.13-0.49-15.28-0.74
		c-5.01-5.3-10.17-10.75-15.43-16.31c-2.11,0.94-4.08,1.82-6.28,2.79c3.94,4.42,7.71,8.66,11.48,12.89
		c6.32,7.1,12.66,14.19,18.96,21.31c0.52,0.59,1.05,1.36,1.14,2.1c0.75,6.26,1.41,12.53,2.07,18.79c0.05,0.45-0.05,0.92-0.09,1.6
		c-4.77-2.22-9.29-4.66-14.05-6.43c-4.54-1.68-6.95-4.68-8.71-9.09C77,77.08,71.76,65.28,66.71,53.41
		c-0.29-0.69-0.61-1.36-1.09-2.43c-2.3,1.66-4.47,3.22-6.73,4.85c3.91,7.09,7.7,13.95,11.49,20.81c-1.3,4.8-2.59,9.52-3.91,14.38
		c-0.36-0.14-0.65-0.17-0.81-0.33c-3.15-3.05-6.31-6.09-9.38-9.21c-0.51-0.52-0.75-1.45-0.8-2.22c-0.41-6.14-0.75-12.29-1.14-18.89
		c-0.79,0.65-1.39,1.03-1.84,1.54C42.62,73.07,35.16,85.63,30.7,99.86c-3.68,11.72-2.02,23.15,2.58,34.28
		c2.15,5.21,5.08,9.96,9.03,14.1c-5.81-9.27-9.8-19.21-11.12-30.09c-1.35-11.17,1.93-21.4,6.88-31.28c-0.24,1.37-0.44,2.74-0.71,4.1
		c-1.23,6.23-1.5,12.48-0.65,18.8c1.38,10.3,6.5,18.5,14.14,25.2c11.88,10.42,25.86,14.33,41.46,12.8c2.71-0.27,5.39-0.87,8.1-1.25
		c0.89-0.12,1.8-0.02,2.79-0.02c0.38,2.8-1.06,4.3-2.65,5.57c-3.65,2.9-7.95,4.47-12.39,5.67c-8.33,2.24-16.73,4.1-25.4,4.57
		c-1.49,0.08-3.28,0.29-3.83,2.19c-0.55,1.92,0.41,3.34,1.8,4.48c4.53,3.7,9.85,5.51,15.56,6.34c6.66,0.97,13.35,1.39,20.07,0.74
		c1.79-0.17,3.56-0.49,5.21-0.72c1.06,1.85-0.01,2.69-0.98,3.18c-3.89,1.96-7.75,4.03-11.8,5.59c-7.74,2.98-15.84,3.81-24.03,2.64
		c-9.8-1.4-18.83-5.06-27.15-10.42C24.69,168,16.15,156.03,9.6,142.44c-3.88-8.04-6.52-16.52-8.07-25.3
		c-1.45-8.26-1.91-16.6-1.2-24.98c1.59-18.68,7.59-35.8,18.82-50.84c4.27-5.72,8.9-11.51,14.48-15.84
		C45.16,16.53,57.25,8.2,71.59,4.1c13.04-3.73,26.29-5.02,39.82-3.42c20.28,2.39,38.22,10.1,53.7,23.38
		c16,13.72,26.5,30.96,31.89,51.29c2.43,9.19,3.51,18.62,3.03,28.1c-1.23,23.9-8.98,45.35-25.13,63.33
		c-7.74,8.62-16.69,15.85-27.49,20.33c-8.49,3.52-17.35,5.82-26.62,6.17c-6.5,0.24-13,0.45-19.5,0.58
		c-1.34,0.03-2.74-0.23-4.03-0.64C95.84,192.74,94.63,191.9,95.28,189.82z"/>
</g>
</svg>
