<?xml version="1.0" encoding="UTF-8"?>
<!DOCTYPE svg  PUBLIC '-//W3C//DTD SVG 1.1//EN'  'http://www.w3.org/Graphics/SVG/1.1/DTD/svg11.dtd'>
<svg enable-background="new 0 0 181.35 22.96" version="1.1" viewBox="0 0 181.35 22.96" xml:space="preserve" xmlns="http://www.w3.org/2000/svg">
	<path d="m144.73 19.79c2.05-6.47 4.11-12.95 6.18-19.46h3.58c-0.23 0.79-0.4 1.43-0.61 2.06-1.88 5.72-3.76 11.43-5.64 17.14-0.9 2.71-1.71 3.36-3.93 3.39-2.4 0.03-3.26-1.46-3.89-3.47-1.47-4.7-3.06-9.36-4.61-14.03-0.23-0.69-0.53-1.35-1.03-2.63-0.55 1.15-0.91 1.74-1.13 2.38-1.66 4.92-3.34 9.84-4.91 14.79-0.62 1.97-1.74 2.97-3.85 2.95-2.06-0.02-3.06-1.14-3.64-2.96-1.95-6.05-3.95-12.09-5.92-18.13-0.14-0.44-0.21-0.9-0.35-1.49h3.49c2.06 6.48 4.11 12.95 6.16 19.43 0.2 0.02 0.4 0.03 0.6 0.05 0.31-0.6 0.72-1.16 0.93-1.79 1.67-4.99 3.33-9.99 4.92-15.01 0.58-1.81 1.48-3.02 3.58-3.01 2.07 0 3.04 1.16 3.62 2.98 1.58 4.95 3.22 9.88 4.85 14.81 0.22 0.67 0.55 1.31 0.83 1.97 0.26 0.02 0.52 0.02 0.77 0.03z"/>
	<path d="m177.65 0.33h3.69v4.12c0 4.86-0.01 9.71 0 14.57 0 1.47 0.02 3.02-1.68 3.6-1.78 0.6-3.56 0.49-4.91-1.04-1.13-1.28-2.14-2.67-3.18-4.02-3.19-4.11-6.36-8.22-9.57-12.32-0.46-0.59-1.06-1.08-1.59-1.61-0.17 0.07-0.34 0.14-0.51 0.22v18.67h-3.69v-2.22c0-5.4 0.01-10.81-0.01-16.21 0-1.61-0.1-3.3 1.89-3.84 1.97-0.53 3.8-0.32 5.17 1.46 1.79 2.33 3.61 4.64 5.41 6.97 2.35 3.02 4.69 6.06 7.05 9.07 0.43 0.55 0.95 1.02 1.43 1.53 0.16-0.07 0.33-0.13 0.49-0.2 0.01-6.16 0.01-12.33 0.01-18.75z"/>
	<path d="m41.81 12.49h-16.72v7.65c0.92 0.11 1.71 0.27 2.5 0.28 4.24 0.03 8.48 0.01 12.72 0.01 2.6 0 2.68 0.04 4.99 2.24-0.67 0.05-1.17 0.11-1.68 0.11-6.09 0.01-12.18 0.02-18.26-0.01-3.2-0.01-4.05-0.88-4.06-4-0.01-4.99 0.02-9.99-0.01-14.98-0.01-1.83 0.66-3.23 2.6-3.26 6.07-0.1 12.15-0.04 18.33-0.04v2.37h-17.14v7.24h16.72c0.01 0.88 0.01 1.52 0.01 2.39z"/>
	<path d="m66.88 0.52v2.2h-10.87c-1.16 0-2.33-0.02-3.49 0.02-1.57 0.05-2.82 0.55-3.07 2.36-0.25 1.84 0.48 3.09 2.26 3.59 3.29 0.93 6.6 1.77 9.9 2.68 1.12 0.31 2.24 0.62 3.32 1.05 2.85 1.15 3.83 3.06 3.28 6.23-0.44 2.58-2.15 4.06-5.07 4.11-4.58 0.08-9.17 0.15-13.74-0.04-1.35-0.06-2.67-1.03-4-1.58l0.15-0.57c0.57-0.04 1.14-0.12 1.7-0.12 4.65-0.01 9.3-0.02 13.95 0 1.68 0.01 2.97-0.46 3.29-2.34 0.32-1.94-0.47-3.22-2.33-3.74-4.01-1.13-8.05-2.18-12.06-3.29-2.33-0.64-4.11-1.85-4.43-4.5-0.41-3.37 1.23-5.83 4.61-5.98 5.44-0.26 10.91-0.08 16.6-0.08z"/>
	<path d="m98.66 14.29h10.99c0.41 0.71 0.76 1.34 1.31 2.29h-13.29c-1.13 2.17-2.16 4.16-3.2 6.14h-3.55c0.18-0.52 0.28-0.97 0.48-1.35 3.22-6.19 6.47-12.36 9.68-18.55 0.85-1.64 1.97-2.72 3.98-2.69 1.88 0.04 3.03 0.99 3.85 2.57 3.24 6.25 6.51 12.49 9.76 18.74 0.18 0.34 0.27 0.73 0.45 1.24h-3.62c-3.33-6.56-6.71-13.22-10.09-19.88-0.25-0.02-0.5-0.03-0.74-0.05-1.93 3.7-3.86 7.4-6.01 11.54z"/>
	<path d="m74.04 14.2v8.44h-3.49v-10.8c2.31 0 4.48 0.01 6.65 0 3.28-0.02 6.57 0.05 9.85-0.13 2.28-0.13 3.14-1.42 3.22-4.17 0.08-2.91-0.71-4.33-2.96-4.59-2.3-0.26-4.64-0.2-6.96-0.22-3.19-0.03-6.39-0.01-9.58-0.01-0.11-0.24-0.21-0.49-0.32-0.73 0.82-0.5 1.63-1.4 2.45-1.42 5.54-0.09 11.08-0.12 16.61 0.12 2.42 0.11 3.93 1.83 4.33 4.27 0.18 1.14 0.22 2.32 0.15 3.47-0.21 3.63-2.04 5.55-5.69 5.7-3.9 0.15-7.8 0.07-11.7 0.08-0.75-0.01-1.49-0.01-2.56-0.01z"/>
	<path d="m3.23 11.95c2.27 0 4.66 0.02 7.04-0.01 1.57-0.02 3.61 0.16 4-1.68 0.42-1.96 0.33-4.2-0.23-6.11-0.22-0.75-2.28-1.3-3.53-1.37-3.4-0.18-6.82-0.06-10.41-0.06-0.04-0.8-0.07-1.44-0.1-2.07 4.91 0 9.68-0.02 14.44 0.03 0.51 0 1.05 0.31 1.52 0.57 2.33 1.29 3.25 4.55 2.45 8.5-0.56 2.74-2.23 4.25-5.12 4.44-1.61 0.11-3.24 0.02-4.86 0.02-0.08 0.19-0.15 0.39-0.23 0.58 3.45 2.52 6.89 5.05 10.68 7.81-2.74 0.34-4.78 0.3-6.72-1.35-2.6-2.21-5.46-4.11-8.21-6.15-0.93-0.67-1.73-1.41-0.72-3.15z"/>
</svg>
